<svg id="Capa_1" data-name="Capa 1" xmlns="http://www.w3.org/2000/svg" viewBox="0 0 168.15 188.8"><defs><style>.cls-1{fill:#000;}.cls-2,.cls-3{fill:none;stroke:#000;stroke-width:5px;}.cls-3{stroke-linecap:round;stroke-linejoin:round;}</style></defs><path class="cls-1" d="M83.56,13.4H74a2.5,2.5,0,0,0-2.5,2.5V26.3A2.5,2.5,0,0,0,74,28.8h9.57a2.5,2.5,0,0,0,2.5-2.5V15.9A2.5,2.5,0,0,0,83.56,13.4Zm-2.5,10.4H76.49V18.4h4.57Zm30.08-10.4h-9.57a2.5,2.5,0,0,0-2.5,2.5V26.3a2.5,2.5,0,0,0,2.5,2.5h9.57a2.5,2.5,0,0,0,2.5-2.5V15.9A2.5,2.5,0,0,0,111.14,13.4Zm-2.5,10.4h-4.57V18.4h4.57Zm30.07-10.4h-9.56a2.5,2.5,0,0,0-2.5,2.5V26.3a2.5,2.5,0,0,0,2.5,2.5h9.56a2.49,2.49,0,0,0,2.5-2.5V15.9A2.49,2.49,0,0,0,138.71,13.4Zm-2.5,10.4h-4.56V18.4h4.56ZM83.56,38.31H74a2.5,2.5,0,0,0-2.5,2.5v10.4a2.5,2.5,0,0,0,2.5,2.5h9.57a2.5,2.5,0,0,0,2.5-2.5V40.81A2.5,2.5,0,0,0,83.56,38.31Zm-2.5,10.4H76.49V43.32h4.57Zm30.08-10.4h-9.57a2.5,2.5,0,0,0-2.5,2.5v10.4a2.5,2.5,0,0,0,2.5,2.5h9.57a2.5,2.5,0,0,0,2.5-2.5V40.81A2.5,2.5,0,0,0,111.14,38.31Zm-2.5,10.4h-4.57V43.32h4.57Zm30.07-10.4h-9.56a2.5,2.5,0,0,0-2.5,2.5v10.4a2.5,2.5,0,0,0,2.5,2.5h9.56a2.49,2.49,0,0,0,2.5-2.5V40.81A2.49,2.49,0,0,0,138.71,38.31Zm-2.5,10.4h-4.56V43.32h4.56ZM111.14,63.23h-9.57a2.5,2.5,0,0,0-2.5,2.5V76.12a2.5,2.5,0,0,0,2.5,2.5h9.57a2.5,2.5,0,0,0,2.5-2.5V65.73A2.5,2.5,0,0,0,111.14,63.23Zm-2.5,10.39h-4.57V68.23h4.57Zm30.07-10.39h-9.56a2.5,2.5,0,0,0-2.5,2.5V76.12a2.5,2.5,0,0,0,2.5,2.5h9.56a2.49,2.49,0,0,0,2.5-2.5V65.73A2.49,2.49,0,0,0,138.71,63.23Zm-2.5,10.39h-4.56V68.23h4.56ZM50.29,70.21H30.51a2.5,2.5,0,0,0-2.5,2.5V84.28a2.5,2.5,0,0,0,2.5,2.5H50.29a2.5,2.5,0,0,0,2.5-2.5V72.71A2.5,2.5,0,0,0,50.29,70.21Zm-2.5,11.57H33V75.21H47.79ZM80.08,70.21H60.3a2.5,2.5,0,0,0-2.5,2.5V84.28a2.5,2.5,0,0,0,2.5,2.5H80.08a2.5,2.5,0,0,0,2.5-2.5V72.71A2.5,2.5,0,0,0,80.08,70.21Zm-2.5,11.57H62.8V75.21H77.58Zm33.56,6.36h-9.57a2.5,2.5,0,0,0-2.5,2.5V101a2.5,2.5,0,0,0,2.5,2.5h9.57a2.5,2.5,0,0,0,2.5-2.5V90.64A2.5,2.5,0,0,0,111.14,88.14Zm-2.5,10.39h-4.57V93.14h4.57Zm30.07-10.39h-9.56a2.5,2.5,0,0,0-2.5,2.5V101a2.5,2.5,0,0,0,2.5,2.5h9.56a2.5,2.5,0,0,0,2.5-2.48V90.64A2.49,2.49,0,0,0,138.71,88.14Zm-2.5,10.39h-4.56V93.14h4.56ZM50.29,92.82H30.51a2.5,2.5,0,0,0-2.5,2.5V106.9a2.5,2.5,0,0,0,2.5,2.5H50.29a2.5,2.5,0,0,0,2.5-2.5V95.32A2.5,2.5,0,0,0,50.29,92.82Zm-2.5,11.58H33V97.82H47.79ZM80.08,92.82H60.3a2.5,2.5,0,0,0-2.5,2.5V106.9a2.5,2.5,0,0,0,2.5,2.5H80.08a2.5,2.5,0,0,0,2.5-2.5V95.32A2.5,2.5,0,0,0,80.08,92.82Zm-2.5,11.58H62.8V97.82H77.58Zm33.56,8.65h-9.57a2.5,2.5,0,0,0-2.5,2.5v10.39a2.5,2.5,0,0,0,2.5,2.5h9.57a2.5,2.5,0,0,0,2.5-2.5V115.55A2.5,2.5,0,0,0,111.14,113.05Zm-2.5,10.39h-4.57v-5.39h4.57Zm-58.35-8H30.51a2.5,2.5,0,0,0-2.5,2.5v11.58a2.5,2.5,0,0,0,2.5,2.5H50.29a2.5,2.5,0,0,0,2.5-2.5V117.94A2.5,2.5,0,0,0,50.29,115.44ZM47.79,127H33v-6.58H47.79Zm32.29-11.58H60.3a2.5,2.5,0,0,0-2.5,2.5v11.58a2.5,2.5,0,0,0,2.5,2.5H80.08a2.5,2.5,0,0,0,2.5-2.5V117.94A2.5,2.5,0,0,0,80.08,115.44ZM77.58,127H62.8v-6.58H77.58ZM111.14,138h-9.57a2.5,2.5,0,0,0-2.5,2.5v10.39a2.5,2.5,0,0,0,2.5,2.5h9.57a2.5,2.5,0,0,0,2.5-2.5V140.46A2.5,2.5,0,0,0,111.14,138Zm-2.5,10.39h-4.57V143h4.57ZM50.29,138.06H30.51a2.5,2.5,0,0,0-2.5,2.5v11.57a2.5,2.5,0,0,0,2.5,2.5H50.29a2.5,2.5,0,0,0,2.5-2.5V140.56A2.5,2.5,0,0,0,50.29,138.06Zm-2.5,11.57H33v-6.57H47.79Zm32.29-11.57H60.3a2.5,2.5,0,0,0-2.5,2.5v11.57a2.5,2.5,0,0,0,2.5,2.5H80.08a2.5,2.5,0,0,0,2.5-2.5V140.56A2.5,2.5,0,0,0,80.08,138.06Zm-2.5,11.57H62.8v-6.57H77.58Zm2.5-11.57H60.3a2.5,2.5,0,0,0-2.5,2.5v11.57a2.5,2.5,0,0,0,2.5,2.5H80.08a2.5,2.5,0,0,0,2.5-2.5V140.56A2.5,2.5,0,0,0,80.08,138.06Zm-2.5,11.57H62.8v-6.57H77.58Zm2.5-34.19H60.3a2.5,2.5,0,0,0-2.5,2.5v11.58a2.5,2.5,0,0,0,2.5,2.5H80.08a2.5,2.5,0,0,0,2.5-2.5V117.94A2.5,2.5,0,0,0,80.08,115.44ZM77.58,127H62.8v-6.58H77.58Zm2.5-34.2H60.3a2.5,2.5,0,0,0-2.5,2.5V106.9a2.5,2.5,0,0,0,2.5,2.5H80.08a2.5,2.5,0,0,0,2.5-2.5V95.32A2.5,2.5,0,0,0,80.08,92.82Zm-2.5,11.58H62.8V97.82H77.58Zm2.5-34.19H60.3a2.5,2.5,0,0,0-2.5,2.5V84.28a2.5,2.5,0,0,0,2.5,2.5H80.08a2.5,2.5,0,0,0,2.5-2.5V72.71A2.5,2.5,0,0,0,80.08,70.21Zm-2.5,11.57H62.8V75.21H77.58ZM50.29,138.06H30.51a2.5,2.5,0,0,0-2.5,2.5v11.57a2.5,2.5,0,0,0,2.5,2.5H50.29a2.5,2.5,0,0,0,2.5-2.5V140.56A2.5,2.5,0,0,0,50.29,138.06Zm-2.5,11.57H33v-6.57H47.79Zm2.5-34.19H30.51a2.5,2.5,0,0,0-2.5,2.5v11.58a2.5,2.5,0,0,0,2.5,2.5H50.29a2.5,2.5,0,0,0,2.5-2.5V117.94A2.5,2.5,0,0,0,50.29,115.44ZM47.79,127H33v-6.58H47.79Zm2.5-34.2H30.51a2.5,2.5,0,0,0-2.5,2.5V106.9a2.5,2.5,0,0,0,2.5,2.5H50.29a2.5,2.5,0,0,0,2.5-2.5V95.32A2.5,2.5,0,0,0,50.29,92.82Zm-2.5,11.58H33V97.82H47.79Zm2.5-34.19H30.51a2.5,2.5,0,0,0-2.5,2.5V84.28a2.5,2.5,0,0,0,2.5,2.5H50.29a2.5,2.5,0,0,0,2.5-2.5V72.71A2.5,2.5,0,0,0,50.29,70.21Zm-2.5,11.57H33V75.21H47.79Zm90.92,6.36h-9.56a2.5,2.5,0,0,0-2.5,2.5V101a2.5,2.5,0,0,0,2.5,2.5h9.56a2.5,2.5,0,0,0,2.5-2.48V90.64A2.49,2.49,0,0,0,138.71,88.14Zm-2.5,10.39h-4.56V93.14h4.56Zm2.5-35.3h-9.56a2.5,2.5,0,0,0-2.5,2.5V76.12a2.5,2.5,0,0,0,2.5,2.5h9.56a2.49,2.49,0,0,0,2.5-2.5V65.73A2.49,2.49,0,0,0,138.71,63.23Zm-2.5,10.39h-4.56V68.23h4.56Zm2.5-35.31h-9.56a2.5,2.5,0,0,0-2.5,2.5v10.4a2.5,2.5,0,0,0,2.5,2.5h9.56a2.49,2.49,0,0,0,2.5-2.5V40.81A2.49,2.49,0,0,0,138.71,38.31Zm-2.5,10.4h-4.56V43.32h4.56Zm2.5-35.31h-9.56a2.5,2.5,0,0,0-2.5,2.5V26.3a2.5,2.5,0,0,0,2.5,2.5h9.56a2.49,2.49,0,0,0,2.5-2.5V15.9A2.49,2.49,0,0,0,138.71,13.4Zm-2.5,10.4h-4.56V18.4h4.56ZM111.14,138h-9.57a2.5,2.5,0,0,0-2.5,2.5v10.39a2.5,2.5,0,0,0,2.5,2.5h9.57a2.5,2.5,0,0,0,2.5-2.5V140.46A2.5,2.5,0,0,0,111.14,138Zm-2.5,10.39h-4.57V143h4.57Zm2.5-35.3h-9.57a2.5,2.5,0,0,0-2.5,2.5v10.39a2.5,2.5,0,0,0,2.5,2.5h9.57a2.5,2.5,0,0,0,2.5-2.5V115.55A2.5,2.5,0,0,0,111.14,113.05Zm-2.5,10.39h-4.57v-5.39h4.57Zm2.5-35.3h-9.57a2.5,2.5,0,0,0-2.5,2.5V101a2.5,2.5,0,0,0,2.5,2.5h9.57a2.5,2.5,0,0,0,2.5-2.5V90.64A2.5,2.5,0,0,0,111.14,88.14Zm-2.5,10.39h-4.57V93.14h4.57Zm2.5-35.3h-9.57a2.5,2.5,0,0,0-2.5,2.5V76.12a2.5,2.5,0,0,0,2.5,2.5h9.57a2.5,2.5,0,0,0,2.5-2.5V65.73A2.5,2.5,0,0,0,111.14,63.23Zm-2.5,10.39h-4.57V68.23h4.57Zm2.5-35.31h-9.57a2.5,2.5,0,0,0-2.5,2.5v10.4a2.5,2.5,0,0,0,2.5,2.5h9.57a2.5,2.5,0,0,0,2.5-2.5V40.81A2.5,2.5,0,0,0,111.14,38.31Zm-2.5,10.4h-4.57V43.32h4.57Zm2.5-35.31h-9.57a2.5,2.5,0,0,0-2.5,2.5V26.3a2.5,2.5,0,0,0,2.5,2.5h9.57a2.5,2.5,0,0,0,2.5-2.5V15.9A2.5,2.5,0,0,0,111.14,13.4Zm-2.5,10.4h-4.57V18.4h4.57ZM83.56,38.31H74a2.5,2.5,0,0,0-2.5,2.5v10.4a2.5,2.5,0,0,0,2.5,2.5h9.57a2.5,2.5,0,0,0,2.5-2.5V40.81A2.5,2.5,0,0,0,83.56,38.31Zm-2.5,10.4H76.49V43.32h4.57Zm2.5-35.31H74a2.5,2.5,0,0,0-2.5,2.5V26.3A2.5,2.5,0,0,0,74,28.8h9.57a2.5,2.5,0,0,0,2.5-2.5V15.9A2.5,2.5,0,0,0,83.56,13.4Zm-2.5,10.4H76.49V18.4h4.57ZM50.29,70.21H30.51a2.5,2.5,0,0,0-2.5,2.5V84.28a2.5,2.5,0,0,0,2.5,2.5H50.29a2.5,2.5,0,0,0,2.5-2.5V72.71A2.5,2.5,0,0,0,50.29,70.21Zm-2.5,11.57H33V75.21H47.79Zm2.5,11H30.51a2.5,2.5,0,0,0-2.5,2.5V106.9a2.5,2.5,0,0,0,2.5,2.5H50.29a2.5,2.5,0,0,0,2.5-2.5V95.32A2.5,2.5,0,0,0,50.29,92.82Zm-2.5,11.58H33V97.82H47.79Zm2.5,11H30.51a2.5,2.5,0,0,0-2.5,2.5v11.58a2.5,2.5,0,0,0,2.5,2.5H50.29a2.5,2.5,0,0,0,2.5-2.5V117.94A2.5,2.5,0,0,0,50.29,115.44ZM47.79,127H33v-6.58H47.79Zm2.5,11H30.51a2.5,2.5,0,0,0-2.5,2.5v11.57a2.5,2.5,0,0,0,2.5,2.5H50.29a2.5,2.5,0,0,0,2.5-2.5V140.56A2.5,2.5,0,0,0,50.29,138.06Zm-2.5,11.57H33v-6.57H47.79ZM80.08,70.21H60.3a2.5,2.5,0,0,0-2.5,2.5V84.28a2.5,2.5,0,0,0,2.5,2.5H80.08a2.5,2.5,0,0,0,2.5-2.5V72.71A2.5,2.5,0,0,0,80.08,70.21Zm-2.5,11.57H62.8V75.21H77.58Zm2.5,11H60.3a2.5,2.5,0,0,0-2.5,2.5V106.9a2.5,2.5,0,0,0,2.5,2.5H80.08a2.5,2.5,0,0,0,2.5-2.5V95.32A2.5,2.5,0,0,0,80.08,92.82Zm-2.5,11.58H62.8V97.82H77.58Zm2.5,11H60.3a2.5,2.5,0,0,0-2.5,2.5v11.58a2.5,2.5,0,0,0,2.5,2.5H80.08a2.5,2.5,0,0,0,2.5-2.5V117.94A2.5,2.5,0,0,0,80.08,115.44ZM77.58,127H62.8v-6.58H77.58Zm2.5,11H60.3a2.5,2.5,0,0,0-2.5,2.5v11.57a2.5,2.5,0,0,0,2.5,2.5H80.08a2.5,2.5,0,0,0,2.5-2.5V140.56A2.5,2.5,0,0,0,80.08,138.06Zm-2.5,11.57H62.8v-6.57H77.58Zm6-136.23H74a2.5,2.5,0,0,0-2.5,2.5V26.3A2.5,2.5,0,0,0,74,28.8h9.57a2.5,2.5,0,0,0,2.5-2.5V15.9A2.5,2.5,0,0,0,83.56,13.4Zm-2.5,10.4H76.49V18.4h4.57Zm2.5,14.51H74a2.5,2.5,0,0,0-2.5,2.5v10.4a2.5,2.5,0,0,0,2.5,2.5h9.57a2.5,2.5,0,0,0,2.5-2.5V40.81A2.5,2.5,0,0,0,83.56,38.31Zm-2.5,10.4H76.49V43.32h4.57ZM111.14,13.4h-9.57a2.5,2.5,0,0,0-2.5,2.5V26.3a2.5,2.5,0,0,0,2.5,2.5h9.57a2.5,2.5,0,0,0,2.5-2.5V15.9A2.5,2.5,0,0,0,111.14,13.4Zm-2.5,10.4h-4.57V18.4h4.57Zm2.5,14.51h-9.57a2.5,2.5,0,0,0-2.5,2.5v10.4a2.5,2.5,0,0,0,2.5,2.5h9.57a2.5,2.5,0,0,0,2.5-2.5V40.81A2.5,2.5,0,0,0,111.14,38.31Zm-2.5,10.4h-4.57V43.32h4.57Zm2.5,14.52h-9.57a2.5,2.5,0,0,0-2.5,2.5V76.12a2.5,2.5,0,0,0,2.5,2.5h9.57a2.5,2.5,0,0,0,2.5-2.5V65.73A2.5,2.5,0,0,0,111.14,63.23Zm-2.5,10.39h-4.57V68.23h4.57Zm2.5,14.52h-9.57a2.5,2.5,0,0,0-2.5,2.5V101a2.5,2.5,0,0,0,2.5,2.5h9.57a2.5,2.5,0,0,0,2.5-2.5V90.64A2.5,2.5,0,0,0,111.14,88.14Zm-2.5,10.39h-4.57V93.14h4.57Zm2.5,14.52h-9.57a2.5,2.5,0,0,0-2.5,2.5v10.39a2.5,2.5,0,0,0,2.5,2.5h9.57a2.5,2.5,0,0,0,2.5-2.5V115.55A2.5,2.5,0,0,0,111.14,113.05Zm-2.5,10.39h-4.57v-5.39h4.57Zm2.5,14.52h-9.57a2.5,2.5,0,0,0-2.5,2.5v10.39a2.5,2.5,0,0,0,2.5,2.5h9.57a2.5,2.5,0,0,0,2.5-2.5V140.46A2.5,2.5,0,0,0,111.14,138Zm-2.5,10.39h-4.57V143h4.57ZM138.71,13.4h-9.56a2.5,2.5,0,0,0-2.5,2.5V26.3a2.5,2.5,0,0,0,2.5,2.5h9.56a2.49,2.49,0,0,0,2.5-2.5V15.9A2.49,2.49,0,0,0,138.71,13.4Zm-2.5,10.4h-4.56V18.4h4.56Zm2.5,14.51h-9.56a2.5,2.5,0,0,0-2.5,2.5v10.4a2.5,2.5,0,0,0,2.5,2.5h9.56a2.49,2.49,0,0,0,2.5-2.5V40.81A2.49,2.49,0,0,0,138.71,38.31Zm-2.5,10.4h-4.56V43.32h4.56Zm2.5,14.52h-9.56a2.5,2.5,0,0,0-2.5,2.5V76.12a2.5,2.5,0,0,0,2.5,2.5h9.56a2.49,2.49,0,0,0,2.5-2.5V65.73A2.49,2.49,0,0,0,138.71,63.23Zm-2.5,10.39h-4.56V68.23h4.56Zm2.5,14.52h-9.56a2.5,2.5,0,0,0-2.5,2.5V101a2.5,2.5,0,0,0,2.5,2.5h9.56a2.5,2.5,0,0,0,2.5-2.48V90.64A2.49,2.49,0,0,0,138.71,88.14Zm-2.5,10.39h-4.56V93.14h4.56ZM80.08,138.06H60.3a2.5,2.5,0,0,0-2.5,2.5v11.57a2.5,2.5,0,0,0,2.5,2.5H80.08a2.5,2.5,0,0,0,2.5-2.5V140.56A2.5,2.5,0,0,0,80.08,138.06Zm-2.5,11.57H62.8v-6.57H77.58Zm2.5-34.19H60.3a2.5,2.5,0,0,0-2.5,2.5v11.58a2.5,2.5,0,0,0,2.5,2.5H80.08a2.5,2.5,0,0,0,2.5-2.5V117.94A2.5,2.5,0,0,0,80.08,115.44ZM77.58,127H62.8v-6.58H77.58Zm2.5-34.2H60.3a2.5,2.5,0,0,0-2.5,2.5V106.9a2.5,2.5,0,0,0,2.5,2.5H80.08a2.5,2.5,0,0,0,2.5-2.5V95.32A2.5,2.5,0,0,0,80.08,92.82Zm-2.5,11.58H62.8V97.82H77.58Zm2.5-34.19H60.3a2.5,2.5,0,0,0-2.5,2.5V84.28a2.5,2.5,0,0,0,2.5,2.5H80.08a2.5,2.5,0,0,0,2.5-2.5V72.71A2.5,2.5,0,0,0,80.08,70.21Zm-2.5,11.57H62.8V75.21H77.58ZM50.29,138.06H30.51a2.5,2.5,0,0,0-2.5,2.5v11.57a2.5,2.5,0,0,0,2.5,2.5H50.29a2.5,2.5,0,0,0,2.5-2.5V140.56A2.5,2.5,0,0,0,50.29,138.06Zm-2.5,11.57H33v-6.57H47.79Zm2.5-34.19H30.51a2.5,2.5,0,0,0-2.5,2.5v11.58a2.5,2.5,0,0,0,2.5,2.5H50.29a2.5,2.5,0,0,0,2.5-2.5V117.94A2.5,2.5,0,0,0,50.29,115.44ZM47.79,127H33v-6.58H47.79Zm2.5-34.2H30.51a2.5,2.5,0,0,0-2.5,2.5V106.9a2.5,2.5,0,0,0,2.5,2.5H50.29a2.5,2.5,0,0,0,2.5-2.5V95.32A2.5,2.5,0,0,0,50.29,92.82Zm-2.5,11.58H33V97.82H47.79Zm2.5-34.19H30.51a2.5,2.5,0,0,0-2.5,2.5V84.28a2.5,2.5,0,0,0,2.5,2.5H50.29a2.5,2.5,0,0,0,2.5-2.5V72.71A2.5,2.5,0,0,0,50.29,70.21Zm-2.5,11.57H33V75.21H47.79Zm2.5-11.57H30.51a2.5,2.5,0,0,0-2.5,2.5V84.28a2.5,2.5,0,0,0,2.5,2.5H50.29a2.5,2.5,0,0,0,2.5-2.5V72.71A2.5,2.5,0,0,0,50.29,70.21Zm-2.5,11.57H33V75.21H47.79Zm2.5,11H30.51a2.5,2.5,0,0,0-2.5,2.5V106.9a2.5,2.5,0,0,0,2.5,2.5H50.29a2.5,2.5,0,0,0,2.5-2.5V95.32A2.5,2.5,0,0,0,50.29,92.82Zm-2.5,11.58H33V97.82H47.79Zm2.5,11H30.51a2.5,2.5,0,0,0-2.5,2.5v11.58a2.5,2.5,0,0,0,2.5,2.5H50.29a2.5,2.5,0,0,0,2.5-2.5V117.94A2.5,2.5,0,0,0,50.29,115.44ZM47.79,127H33v-6.58H47.79Zm2.5,11H30.51a2.5,2.5,0,0,0-2.5,2.5v11.57a2.5,2.5,0,0,0,2.5,2.5H50.29a2.5,2.5,0,0,0,2.5-2.5V140.56A2.5,2.5,0,0,0,50.29,138.06Zm-2.5,11.57H33v-6.57H47.79ZM80.08,70.21H60.3a2.5,2.5,0,0,0-2.5,2.5V84.28a2.5,2.5,0,0,0,2.5,2.5H80.08a2.5,2.5,0,0,0,2.5-2.5V72.71A2.5,2.5,0,0,0,80.08,70.21Zm-2.5,11.57H62.8V75.21H77.58Zm2.5,11H60.3a2.5,2.5,0,0,0-2.5,2.5V106.9a2.5,2.5,0,0,0,2.5,2.5H80.08a2.5,2.5,0,0,0,2.5-2.5V95.32A2.5,2.5,0,0,0,80.08,92.82Zm-2.5,11.58H62.8V97.82H77.58Zm2.5,11H60.3a2.5,2.5,0,0,0-2.5,2.5v11.58a2.5,2.5,0,0,0,2.5,2.5H80.08a2.5,2.5,0,0,0,2.5-2.5V117.94A2.5,2.5,0,0,0,80.08,115.44ZM77.58,127H62.8v-6.58H77.58Zm2.5,11H60.3a2.5,2.5,0,0,0-2.5,2.5v11.57a2.5,2.5,0,0,0,2.5,2.5H80.08a2.5,2.5,0,0,0,2.5-2.5V140.56A2.5,2.5,0,0,0,80.08,138.06Zm-2.5,11.57H62.8v-6.57H77.58Zm2.5-11.57H60.3a2.5,2.5,0,0,0-2.5,2.5v11.57a2.5,2.5,0,0,0,2.5,2.5H80.08a2.5,2.5,0,0,0,2.5-2.5V140.56A2.5,2.5,0,0,0,80.08,138.06Zm-2.5,11.57H62.8v-6.57H77.58Zm2.5-34.19H60.3a2.5,2.5,0,0,0-2.5,2.5v11.58a2.5,2.5,0,0,0,2.5,2.5H80.08a2.5,2.5,0,0,0,2.5-2.5V117.94A2.5,2.5,0,0,0,80.08,115.44ZM77.58,127H62.8v-6.58H77.58Zm2.5-34.2H60.3a2.5,2.5,0,0,0-2.5,2.5V106.9a2.5,2.5,0,0,0,2.5,2.5H80.08a2.5,2.5,0,0,0,2.5-2.5V95.32A2.5,2.5,0,0,0,80.08,92.82Zm-2.5,11.58H62.8V97.82H77.58Zm2.5-34.19H60.3a2.5,2.5,0,0,0-2.5,2.5V84.28a2.5,2.5,0,0,0,2.5,2.5H80.08a2.5,2.5,0,0,0,2.5-2.5V72.71A2.5,2.5,0,0,0,80.08,70.21Zm-2.5,11.57H62.8V75.21H77.58ZM50.29,138.06H30.51a2.5,2.5,0,0,0-2.5,2.5v11.57a2.5,2.5,0,0,0,2.5,2.5H50.29a2.5,2.5,0,0,0,2.5-2.5V140.56A2.5,2.5,0,0,0,50.29,138.06Zm-2.5,11.57H33v-6.57H47.79Zm2.5-34.19H30.51a2.5,2.5,0,0,0-2.5,2.5v11.58a2.5,2.5,0,0,0,2.5,2.5H50.29a2.5,2.5,0,0,0,2.5-2.5V117.94A2.5,2.5,0,0,0,50.29,115.44ZM47.79,127H33v-6.58H47.79Zm2.5-34.2H30.51a2.5,2.5,0,0,0-2.5,2.5V106.9a2.5,2.5,0,0,0,2.5,2.5H50.29a2.5,2.5,0,0,0,2.5-2.5V95.32A2.5,2.5,0,0,0,50.29,92.82Zm-2.5,11.58H33V97.82H47.79Zm2.5-34.19H30.51a2.5,2.5,0,0,0-2.5,2.5V84.28a2.5,2.5,0,0,0,2.5,2.5H50.29a2.5,2.5,0,0,0,2.5-2.5V72.71A2.5,2.5,0,0,0,50.29,70.21Zm-2.5,11.57H33V75.21H47.79Zm2.5-11.57H30.51a2.5,2.5,0,0,0-2.5,2.5V84.28a2.5,2.5,0,0,0,2.5,2.5H50.29a2.5,2.5,0,0,0,2.5-2.5V72.71A2.5,2.5,0,0,0,50.29,70.21Zm-2.5,11.57H33V75.21H47.79Zm2.5,11H30.51a2.5,2.5,0,0,0-2.5,2.5V106.9a2.5,2.5,0,0,0,2.5,2.5H50.29a2.5,2.5,0,0,0,2.5-2.5V95.32A2.5,2.5,0,0,0,50.29,92.82Zm-2.5,11.58H33V97.82H47.79Zm2.5,11H30.51a2.5,2.5,0,0,0-2.5,2.5v11.58a2.5,2.5,0,0,0,2.5,2.5H50.29a2.5,2.5,0,0,0,2.5-2.5V117.94A2.5,2.5,0,0,0,50.29,115.44ZM47.79,127H33v-6.58H47.79Zm2.5,11H30.51a2.5,2.5,0,0,0-2.5,2.5v11.57a2.5,2.5,0,0,0,2.5,2.5H50.29a2.5,2.5,0,0,0,2.5-2.5V140.56A2.5,2.5,0,0,0,50.29,138.06Zm-2.5,11.57H33v-6.57H47.79ZM80.08,70.21H60.3a2.5,2.5,0,0,0-2.5,2.5V84.28a2.5,2.5,0,0,0,2.5,2.5H80.08a2.5,2.5,0,0,0,2.5-2.5V72.71A2.5,2.5,0,0,0,80.08,70.21Zm-2.5,11.57H62.8V75.21H77.58Zm2.5,11H60.3a2.5,2.5,0,0,0-2.5,2.5V106.9a2.5,2.5,0,0,0,2.5,2.5H80.08a2.5,2.5,0,0,0,2.5-2.5V95.32A2.5,2.5,0,0,0,80.08,92.82Zm-2.5,11.58H62.8V97.82H77.58Zm2.5,11H60.3a2.5,2.5,0,0,0-2.5,2.5v11.58a2.5,2.5,0,0,0,2.5,2.5H80.08a2.5,2.5,0,0,0,2.5-2.5V117.94A2.5,2.5,0,0,0,80.08,115.44ZM77.58,127H62.8v-6.58H77.58Zm2.5,11H60.3a2.5,2.5,0,0,0-2.5,2.5v11.57a2.5,2.5,0,0,0,2.5,2.5H80.08a2.5,2.5,0,0,0,2.5-2.5V140.56A2.5,2.5,0,0,0,80.08,138.06Zm-2.5,11.57H62.8v-6.57H77.58Zm2.5-11.57H60.3a2.5,2.5,0,0,0-2.5,2.5v11.57a2.5,2.5,0,0,0,2.5,2.5H80.08a2.5,2.5,0,0,0,2.5-2.5V140.56A2.5,2.5,0,0,0,80.08,138.06Zm-2.5,11.57H62.8v-6.57H77.58Zm2.5-34.19H60.3a2.5,2.5,0,0,0-2.5,2.5v11.58a2.5,2.5,0,0,0,2.5,2.5H80.08a2.5,2.5,0,0,0,2.5-2.5V117.94A2.5,2.5,0,0,0,80.08,115.44ZM77.58,127H62.8v-6.58H77.58Zm2.5-34.2H60.3a2.5,2.5,0,0,0-2.5,2.5V106.9a2.5,2.5,0,0,0,2.5,2.5H80.08a2.5,2.5,0,0,0,2.5-2.5V95.32A2.5,2.5,0,0,0,80.08,92.82Zm-2.5,11.58H62.8V97.82H77.58Zm2.5-34.19H60.3a2.5,2.5,0,0,0-2.5,2.5V84.28a2.5,2.5,0,0,0,2.5,2.5H80.08a2.5,2.5,0,0,0,2.5-2.5V72.71A2.5,2.5,0,0,0,80.08,70.21Zm-2.5,11.57H62.8V75.21H77.58ZM50.29,138.06H30.51a2.5,2.5,0,0,0-2.5,2.5v11.57a2.5,2.5,0,0,0,2.5,2.5H50.29a2.5,2.5,0,0,0,2.5-2.5V140.56A2.5,2.5,0,0,0,50.29,138.06Zm-2.5,11.57H33v-6.57H47.79Zm2.5-34.19H30.51a2.5,2.5,0,0,0-2.5,2.5v11.58a2.5,2.5,0,0,0,2.5,2.5H50.29a2.5,2.5,0,0,0,2.5-2.5V117.94A2.5,2.5,0,0,0,50.29,115.44ZM47.79,127H33v-6.58H47.79Zm2.5-34.2H30.51a2.5,2.5,0,0,0-2.5,2.5V106.9a2.5,2.5,0,0,0,2.5,2.5H50.29a2.5,2.5,0,0,0,2.5-2.5V95.32A2.5,2.5,0,0,0,50.29,92.82Zm-2.5,11.58H33V97.82H47.79Zm2.5-34.19H30.51a2.5,2.5,0,0,0-2.5,2.5V84.28a2.5,2.5,0,0,0,2.5,2.5H50.29a2.5,2.5,0,0,0,2.5-2.5V72.71A2.5,2.5,0,0,0,50.29,70.21Zm-2.5,11.57H33V75.21H47.79Zm2.5-11.57H30.51a2.5,2.5,0,0,0-2.5,2.5V84.28a2.5,2.5,0,0,0,2.5,2.5H50.29a2.5,2.5,0,0,0,2.5-2.5V72.71A2.5,2.5,0,0,0,50.29,70.21Zm-2.5,11.57H33V75.21H47.79Zm2.5,11H30.51a2.5,2.5,0,0,0-2.5,2.5V106.9a2.5,2.5,0,0,0,2.5,2.5H50.29a2.5,2.5,0,0,0,2.5-2.5V95.32A2.5,2.5,0,0,0,50.29,92.82Zm-2.5,11.58H33V97.82H47.79Zm2.5,11H30.51a2.5,2.5,0,0,0-2.5,2.5v11.58a2.5,2.5,0,0,0,2.5,2.5H50.29a2.5,2.5,0,0,0,2.5-2.5V117.94A2.5,2.5,0,0,0,50.29,115.44ZM47.79,127H33v-6.58H47.79Zm2.5,11H30.51a2.5,2.5,0,0,0-2.5,2.5v11.57a2.5,2.5,0,0,0,2.5,2.5H50.29a2.5,2.5,0,0,0,2.5-2.5V140.56A2.5,2.5,0,0,0,50.29,138.06Zm-2.5,11.57H33v-6.57H47.79ZM80.08,70.21H60.3a2.5,2.5,0,0,0-2.5,2.5V84.28a2.5,2.5,0,0,0,2.5,2.5H80.08a2.5,2.5,0,0,0,2.5-2.5V72.71A2.5,2.5,0,0,0,80.08,70.21Zm-2.5,11.57H62.8V75.21H77.58Zm2.5,11H60.3a2.5,2.5,0,0,0-2.5,2.5V106.9a2.5,2.5,0,0,0,2.5,2.5H80.08a2.5,2.5,0,0,0,2.5-2.5V95.32A2.5,2.5,0,0,0,80.08,92.82Zm-2.5,11.58H62.8V97.82H77.58Zm2.5,11H60.3a2.5,2.5,0,0,0-2.5,2.5v11.58a2.5,2.5,0,0,0,2.5,2.5H80.08a2.5,2.5,0,0,0,2.5-2.5V117.94A2.5,2.5,0,0,0,80.08,115.44ZM77.58,127H62.8v-6.58H77.58Zm2.5,11H60.3a2.5,2.5,0,0,0-2.5,2.5v11.57a2.5,2.5,0,0,0,2.5,2.5H80.08a2.5,2.5,0,0,0,2.5-2.5V140.56A2.5,2.5,0,0,0,80.08,138.06Zm-2.5,11.57H62.8v-6.57H77.58Zm2.5-11.57H60.3a2.5,2.5,0,0,0-2.5,2.5v11.57a2.5,2.5,0,0,0,2.5,2.5H80.08a2.5,2.5,0,0,0,2.5-2.5V140.56A2.5,2.5,0,0,0,80.08,138.06Zm-2.5,11.57H62.8v-6.57H77.58Zm2.5-34.19H60.3a2.5,2.5,0,0,0-2.5,2.5v11.58a2.5,2.5,0,0,0,2.5,2.5H80.08a2.5,2.5,0,0,0,2.5-2.5V117.94A2.5,2.5,0,0,0,80.08,115.44ZM77.58,127H62.8v-6.58H77.58Zm2.5-34.2H60.3a2.5,2.5,0,0,0-2.5,2.5V106.9a2.5,2.5,0,0,0,2.5,2.5H80.08a2.5,2.5,0,0,0,2.5-2.5V95.32A2.5,2.5,0,0,0,80.08,92.82Zm-2.5,11.58H62.8V97.82H77.58Zm2.5-34.19H60.3a2.5,2.5,0,0,0-2.5,2.5V84.28a2.5,2.5,0,0,0,2.5,2.5H80.08a2.5,2.5,0,0,0,2.5-2.5V72.71A2.5,2.5,0,0,0,80.08,70.21Zm-2.5,11.57H62.8V75.21H77.58ZM50.29,138.06H30.51a2.5,2.5,0,0,0-2.5,2.5v11.57a2.5,2.5,0,0,0,2.5,2.5H50.29a2.5,2.5,0,0,0,2.5-2.5V140.56A2.5,2.5,0,0,0,50.29,138.06Zm-2.5,11.57H33v-6.57H47.79Zm2.5-34.19H30.51a2.5,2.5,0,0,0-2.5,2.5v11.58a2.5,2.5,0,0,0,2.5,2.5H50.29a2.5,2.5,0,0,0,2.5-2.5V117.94A2.5,2.5,0,0,0,50.29,115.44ZM47.79,127H33v-6.58H47.79Zm2.5-34.2H30.51a2.5,2.5,0,0,0-2.5,2.5V106.9a2.5,2.5,0,0,0,2.5,2.5H50.29a2.5,2.5,0,0,0,2.5-2.5V95.32A2.5,2.5,0,0,0,50.29,92.82Zm-2.5,11.58H33V97.82H47.79Zm2.5-34.19H30.51a2.5,2.5,0,0,0-2.5,2.5V84.28a2.5,2.5,0,0,0,2.5,2.5H50.29a2.5,2.5,0,0,0,2.5-2.5V72.71A2.5,2.5,0,0,0,50.29,70.21Zm-2.5,11.57H33V75.21H47.79Zm2.5-11.57H30.51a2.5,2.5,0,0,0-2.5,2.5V84.28a2.5,2.5,0,0,0,2.5,2.5H50.29a2.5,2.5,0,0,0,2.5-2.5V72.71A2.5,2.5,0,0,0,50.29,70.21Zm-2.5,11.57H33V75.21H47.79Zm2.5,11H30.51a2.5,2.5,0,0,0-2.5,2.5V106.9a2.5,2.5,0,0,0,2.5,2.5H50.29a2.5,2.5,0,0,0,2.5-2.5V95.32A2.5,2.5,0,0,0,50.29,92.82Zm-2.5,11.58H33V97.82H47.79Zm2.5,11H30.51a2.5,2.5,0,0,0-2.5,2.5v11.58a2.5,2.5,0,0,0,2.5,2.5H50.29a2.5,2.5,0,0,0,2.5-2.5V117.94A2.5,2.5,0,0,0,50.29,115.44ZM47.79,127H33v-6.58H47.79Zm2.5,11H30.51a2.5,2.5,0,0,0-2.5,2.5v11.57a2.5,2.5,0,0,0,2.5,2.5H50.29a2.5,2.5,0,0,0,2.5-2.5V140.56A2.5,2.5,0,0,0,50.29,138.06Zm-2.5,11.57H33v-6.57H47.79ZM80.08,70.21H60.3a2.5,2.5,0,0,0-2.5,2.5V84.28a2.5,2.5,0,0,0,2.5,2.5H80.08a2.5,2.5,0,0,0,2.5-2.5V72.71A2.5,2.5,0,0,0,80.08,70.21Zm-2.5,11.57H62.8V75.21H77.58Zm2.5,11H60.3a2.5,2.5,0,0,0-2.5,2.5V106.9a2.5,2.5,0,0,0,2.5,2.5H80.08a2.5,2.5,0,0,0,2.5-2.5V95.32A2.5,2.5,0,0,0,80.08,92.82Zm-2.5,11.58H62.8V97.82H77.58Zm2.5,11H60.3a2.5,2.5,0,0,0-2.5,2.5v11.58a2.5,2.5,0,0,0,2.5,2.5H80.08a2.5,2.5,0,0,0,2.5-2.5V117.94A2.5,2.5,0,0,0,80.08,115.44ZM77.58,127H62.8v-6.58H77.58Zm2.5,11H60.3a2.5,2.5,0,0,0-2.5,2.5v11.57a2.5,2.5,0,0,0,2.5,2.5H80.08a2.5,2.5,0,0,0,2.5-2.5V140.56A2.5,2.5,0,0,0,80.08,138.06Zm-2.5,11.57H62.8v-6.57H77.58Zm6-136.23H74a2.5,2.5,0,0,0-2.5,2.5V26.3A2.5,2.5,0,0,0,74,28.8h9.57a2.5,2.5,0,0,0,2.5-2.5V15.9A2.5,2.5,0,0,0,83.56,13.4Zm-2.5,10.4H76.49V18.4h4.57Zm2.5,14.51H74a2.5,2.5,0,0,0-2.5,2.5v10.4a2.5,2.5,0,0,0,2.5,2.5h9.57a2.5,2.5,0,0,0,2.5-2.5V40.81A2.5,2.5,0,0,0,83.56,38.31Zm-2.5,10.4H76.49V43.32h4.57ZM111.14,13.4h-9.57a2.5,2.5,0,0,0-2.5,2.5V26.3a2.5,2.5,0,0,0,2.5,2.5h9.57a2.5,2.5,0,0,0,2.5-2.5V15.9A2.5,2.5,0,0,0,111.14,13.4Zm-2.5,10.4h-4.57V18.4h4.57Zm2.5,14.51h-9.57a2.5,2.5,0,0,0-2.5,2.5v10.4a2.5,2.5,0,0,0,2.5,2.5h9.57a2.5,2.5,0,0,0,2.5-2.5V40.81A2.5,2.5,0,0,0,111.14,38.31Zm-2.5,10.4h-4.57V43.32h4.57Zm2.5,14.52h-9.57a2.5,2.5,0,0,0-2.5,2.5V76.12a2.5,2.5,0,0,0,2.5,2.5h9.57a2.5,2.5,0,0,0,2.5-2.5V65.73A2.5,2.5,0,0,0,111.14,63.23Zm-2.5,10.39h-4.57V68.23h4.57Zm2.5,14.52h-9.57a2.5,2.5,0,0,0-2.5,2.5V101a2.5,2.5,0,0,0,2.5,2.5h9.57a2.5,2.5,0,0,0,2.5-2.5V90.64A2.5,2.5,0,0,0,111.14,88.14Zm-2.5,10.39h-4.57V93.14h4.57Zm2.5,14.52h-9.57a2.5,2.5,0,0,0-2.5,2.5v10.39a2.5,2.5,0,0,0,2.5,2.5h9.57a2.5,2.5,0,0,0,2.5-2.5V115.55A2.5,2.5,0,0,0,111.14,113.05Zm-2.5,10.39h-4.57v-5.39h4.57Zm2.5,14.52h-9.57a2.5,2.5,0,0,0-2.5,2.5v10.39a2.5,2.5,0,0,0,2.5,2.5h9.57a2.5,2.5,0,0,0,2.5-2.5V140.46A2.5,2.5,0,0,0,111.14,138Zm-2.5,10.39h-4.57V143h4.57ZM138.71,13.4h-9.56a2.5,2.5,0,0,0-2.5,2.5V26.3a2.5,2.5,0,0,0,2.5,2.5h9.56a2.49,2.49,0,0,0,2.5-2.5V15.9A2.49,2.49,0,0,0,138.71,13.4Zm-2.5,10.4h-4.56V18.4h4.56Zm2.5,14.51h-9.56a2.5,2.5,0,0,0-2.5,2.5v10.4a2.5,2.5,0,0,0,2.5,2.5h9.56a2.49,2.49,0,0,0,2.5-2.5V40.81A2.49,2.49,0,0,0,138.71,38.31Zm-2.5,10.4h-4.56V43.32h4.56Zm2.5,14.52h-9.56a2.5,2.5,0,0,0-2.5,2.5V76.12a2.5,2.5,0,0,0,2.5,2.5h9.56a2.49,2.49,0,0,0,2.5-2.5V65.73A2.49,2.49,0,0,0,138.71,63.23Zm-2.5,10.39h-4.56V68.23h4.56Zm2.5,14.52h-9.56a2.5,2.5,0,0,0-2.5,2.5V101a2.5,2.5,0,0,0,2.5,2.5h9.56a2.5,2.5,0,0,0,2.5-2.48V90.64A2.49,2.49,0,0,0,138.71,88.14Zm-2.5,10.39h-4.56V93.14h4.56Zm2.5-10.39h-9.56a2.5,2.5,0,0,0-2.5,2.5V101a2.5,2.5,0,0,0,2.5,2.5h9.56a2.5,2.5,0,0,0,2.5-2.48V90.64A2.49,2.49,0,0,0,138.71,88.14Zm-2.5,10.39h-4.56V93.14h4.56Zm2.5-35.3h-9.56a2.5,2.5,0,0,0-2.5,2.5V76.12a2.5,2.5,0,0,0,2.5,2.5h9.56a2.49,2.49,0,0,0,2.5-2.5V65.73A2.49,2.49,0,0,0,138.71,63.23Zm-2.5,10.39h-4.56V68.23h4.56Zm2.5-35.31h-9.56a2.5,2.5,0,0,0-2.5,2.5v10.4a2.5,2.5,0,0,0,2.5,2.5h9.56a2.49,2.49,0,0,0,2.5-2.5V40.81A2.49,2.49,0,0,0,138.71,38.31Zm-2.5,10.4h-4.56V43.32h4.56Zm2.5-35.31h-9.56a2.5,2.5,0,0,0-2.5,2.5V26.3a2.5,2.5,0,0,0,2.5,2.5h9.56a2.49,2.49,0,0,0,2.5-2.5V15.9A2.49,2.49,0,0,0,138.71,13.4Zm-2.5,10.4h-4.56V18.4h4.56ZM111.14,138h-9.57a2.5,2.5,0,0,0-2.5,2.5v10.39a2.5,2.5,0,0,0,2.5,2.5h9.57a2.5,2.5,0,0,0,2.5-2.5V140.46A2.5,2.5,0,0,0,111.14,138Zm-2.5,10.39h-4.57V143h4.57Zm2.5-35.3h-9.57a2.5,2.5,0,0,0-2.5,2.5v10.39a2.5,2.5,0,0,0,2.5,2.5h9.57a2.5,2.5,0,0,0,2.5-2.5V115.55A2.5,2.5,0,0,0,111.14,113.05Zm-2.5,10.39h-4.57v-5.39h4.57Zm2.5-35.3h-9.57a2.5,2.5,0,0,0-2.5,2.5V101a2.5,2.5,0,0,0,2.5,2.5h9.57a2.5,2.5,0,0,0,2.5-2.5V90.64A2.5,2.5,0,0,0,111.14,88.14Zm-2.5,10.39h-4.57V93.14h4.57Zm2.5-35.3h-9.57a2.5,2.5,0,0,0-2.5,2.5V76.12a2.5,2.5,0,0,0,2.5,2.5h9.57a2.5,2.5,0,0,0,2.5-2.5V65.73A2.5,2.5,0,0,0,111.14,63.23Zm-2.5,10.39h-4.57V68.23h4.57Zm2.5-35.31h-9.57a2.5,2.5,0,0,0-2.5,2.5v10.4a2.5,2.5,0,0,0,2.5,2.5h9.57a2.5,2.5,0,0,0,2.5-2.5V40.81A2.5,2.5,0,0,0,111.14,38.31Zm-2.5,10.4h-4.57V43.32h4.57Zm2.5-35.31h-9.57a2.5,2.5,0,0,0-2.5,2.5V26.3a2.5,2.5,0,0,0,2.5,2.5h9.57a2.5,2.5,0,0,0,2.5-2.5V15.9A2.5,2.5,0,0,0,111.14,13.4Zm-2.5,10.4h-4.57V18.4h4.57ZM83.56,38.31H74a2.5,2.5,0,0,0-2.5,2.5v10.4a2.5,2.5,0,0,0,2.5,2.5h9.57a2.5,2.5,0,0,0,2.5-2.5V40.81A2.5,2.5,0,0,0,83.56,38.31Zm-2.5,10.4H76.49V43.32h4.57Zm2.5-35.31H74a2.5,2.5,0,0,0-2.5,2.5V26.3A2.5,2.5,0,0,0,74,28.8h9.57a2.5,2.5,0,0,0,2.5-2.5V15.9A2.5,2.5,0,0,0,83.56,13.4Zm-2.5,10.4H76.49V18.4h4.57Zm-1,114.26H60.3a2.5,2.5,0,0,0-2.5,2.5v11.57a2.5,2.5,0,0,0,2.5,2.5H80.08a2.5,2.5,0,0,0,2.5-2.5V140.56A2.5,2.5,0,0,0,80.08,138.06Zm-2.5,11.57H62.8v-6.57H77.58Zm2.5-34.19H60.3a2.5,2.5,0,0,0-2.5,2.5v11.58a2.5,2.5,0,0,0,2.5,2.5H80.08a2.5,2.5,0,0,0,2.5-2.5V117.94A2.5,2.5,0,0,0,80.08,115.44ZM77.58,127H62.8v-6.58H77.58Zm2.5-34.2H60.3a2.5,2.5,0,0,0-2.5,2.5V106.9a2.5,2.5,0,0,0,2.5,2.5H80.08a2.5,2.5,0,0,0,2.5-2.5V95.32A2.5,2.5,0,0,0,80.08,92.82Zm-2.5,11.58H62.8V97.82H77.58Zm2.5-34.19H60.3a2.5,2.5,0,0,0-2.5,2.5V84.28a2.5,2.5,0,0,0,2.5,2.5H80.08a2.5,2.5,0,0,0,2.5-2.5V72.71A2.5,2.5,0,0,0,80.08,70.21Zm-2.5,11.57H62.8V75.21H77.58ZM50.29,138.06H30.51a2.5,2.5,0,0,0-2.5,2.5v11.57a2.5,2.5,0,0,0,2.5,2.5H50.29a2.5,2.5,0,0,0,2.5-2.5V140.56A2.5,2.5,0,0,0,50.29,138.06Zm-2.5,11.57H33v-6.57H47.79Zm2.5-34.19H30.51a2.5,2.5,0,0,0-2.5,2.5v11.58a2.5,2.5,0,0,0,2.5,2.5H50.29a2.5,2.5,0,0,0,2.5-2.5V117.94A2.5,2.5,0,0,0,50.29,115.44ZM47.79,127H33v-6.58H47.79Zm2.5-34.2H30.51a2.5,2.5,0,0,0-2.5,2.5V106.9a2.5,2.5,0,0,0,2.5,2.5H50.29a2.5,2.5,0,0,0,2.5-2.5V95.32A2.5,2.5,0,0,0,50.29,92.82Zm-2.5,11.58H33V97.82H47.79Zm2.5-34.19H30.51a2.5,2.5,0,0,0-2.5,2.5V84.28a2.5,2.5,0,0,0,2.5,2.5H50.29a2.5,2.5,0,0,0,2.5-2.5V72.71A2.5,2.5,0,0,0,50.29,70.21Zm-2.5,11.57H33V75.21H47.79Zm2.5-11.57H30.51a2.5,2.5,0,0,0-2.5,2.5V84.28a2.5,2.5,0,0,0,2.5,2.5H50.29a2.5,2.5,0,0,0,2.5-2.5V72.71A2.5,2.5,0,0,0,50.29,70.21Zm-2.5,11.57H33V75.21H47.79Zm2.5,11H30.51a2.5,2.5,0,0,0-2.5,2.5V106.9a2.5,2.5,0,0,0,2.5,2.5H50.29a2.5,2.5,0,0,0,2.5-2.5V95.32A2.5,2.5,0,0,0,50.29,92.82Zm-2.5,11.58H33V97.82H47.79Zm2.5,11H30.51a2.5,2.5,0,0,0-2.5,2.5v11.58a2.5,2.5,0,0,0,2.5,2.5H50.29a2.5,2.5,0,0,0,2.5-2.5V117.94A2.5,2.5,0,0,0,50.29,115.44ZM47.79,127H33v-6.58H47.79Zm2.5,11H30.51a2.5,2.5,0,0,0-2.5,2.5v11.57a2.5,2.5,0,0,0,2.5,2.5H50.29a2.5,2.5,0,0,0,2.5-2.5V140.56A2.5,2.5,0,0,0,50.29,138.06Zm-2.5,11.57H33v-6.57H47.79ZM80.08,70.21H60.3a2.5,2.5,0,0,0-2.5,2.5V84.28a2.5,2.5,0,0,0,2.5,2.5H80.08a2.5,2.5,0,0,0,2.5-2.5V72.71A2.5,2.5,0,0,0,80.08,70.21Zm-2.5,11.57H62.8V75.21H77.58Zm2.5,11H60.3a2.5,2.5,0,0,0-2.5,2.5V106.9a2.5,2.5,0,0,0,2.5,2.5H80.08a2.5,2.5,0,0,0,2.5-2.5V95.32A2.5,2.5,0,0,0,80.08,92.82Zm-2.5,11.58H62.8V97.82H77.58Zm2.5,11H60.3a2.5,2.5,0,0,0-2.5,2.5v11.58a2.5,2.5,0,0,0,2.5,2.5H80.08a2.5,2.5,0,0,0,2.5-2.5V117.94A2.5,2.5,0,0,0,80.08,115.44ZM77.58,127H62.8v-6.58H77.58Zm2.5,11H60.3a2.5,2.5,0,0,0-2.5,2.5v11.57a2.5,2.5,0,0,0,2.5,2.5H80.08a2.5,2.5,0,0,0,2.5-2.5V140.56A2.5,2.5,0,0,0,80.08,138.06Zm-2.5,11.57H62.8v-6.57H77.58Zm2.5-11.57H60.3a2.5,2.5,0,0,0-2.5,2.5v11.57a2.5,2.5,0,0,0,2.5,2.5H80.08a2.5,2.5,0,0,0,2.5-2.5V140.56A2.5,2.5,0,0,0,80.08,138.06Zm-2.5,11.57H62.8v-6.57H77.58Zm2.5-34.19H60.3a2.5,2.5,0,0,0-2.5,2.5v11.58a2.5,2.5,0,0,0,2.5,2.5H80.08a2.5,2.5,0,0,0,2.5-2.5V117.94A2.5,2.5,0,0,0,80.08,115.44ZM77.58,127H62.8v-6.58H77.58Zm2.5-34.2H60.3a2.5,2.5,0,0,0-2.5,2.5V106.9a2.5,2.5,0,0,0,2.5,2.5H80.08a2.5,2.5,0,0,0,2.5-2.5V95.32A2.5,2.5,0,0,0,80.08,92.82Zm-2.5,11.58H62.8V97.82H77.58Zm2.5-34.19H60.3a2.5,2.5,0,0,0-2.5,2.5V84.28a2.5,2.5,0,0,0,2.5,2.5H80.08a2.5,2.5,0,0,0,2.5-2.5V72.71A2.5,2.5,0,0,0,80.08,70.21Zm-2.5,11.57H62.8V75.21H77.58ZM50.29,138.06H30.51a2.5,2.5,0,0,0-2.5,2.5v11.57a2.5,2.5,0,0,0,2.5,2.5H50.29a2.5,2.5,0,0,0,2.5-2.5V140.56A2.5,2.5,0,0,0,50.29,138.06Zm-2.5,11.57H33v-6.57H47.79Zm2.5-34.19H30.51a2.5,2.5,0,0,0-2.5,2.5v11.58a2.5,2.5,0,0,0,2.5,2.5H50.29a2.5,2.5,0,0,0,2.5-2.5V117.94A2.5,2.5,0,0,0,50.29,115.44ZM47.79,127H33v-6.58H47.79Zm2.5-34.2H30.51a2.5,2.5,0,0,0-2.5,2.5V106.9a2.5,2.5,0,0,0,2.5,2.5H50.29a2.5,2.5,0,0,0,2.5-2.5V95.32A2.5,2.5,0,0,0,50.29,92.82Zm-2.5,11.58H33V97.82H47.79Zm2.5-34.19H30.51a2.5,2.5,0,0,0-2.5,2.5V84.28a2.5,2.5,0,0,0,2.5,2.5H50.29a2.5,2.5,0,0,0,2.5-2.5V72.71A2.5,2.5,0,0,0,50.29,70.21Zm-2.5,11.57H33V75.21H47.79Zm2.5-11.57H30.51a2.5,2.5,0,0,0-2.5,2.5V84.28a2.5,2.5,0,0,0,2.5,2.5H50.29a2.5,2.5,0,0,0,2.5-2.5V72.71A2.5,2.5,0,0,0,50.29,70.21Zm-2.5,11.57H33V75.21H47.79Zm2.5,11H30.51a2.5,2.5,0,0,0-2.5,2.5V106.9a2.5,2.5,0,0,0,2.5,2.5H50.29a2.5,2.5,0,0,0,2.5-2.5V95.32A2.5,2.5,0,0,0,50.29,92.82Zm-2.5,11.58H33V97.82H47.79Zm2.5,11H30.51a2.5,2.5,0,0,0-2.5,2.5v11.58a2.5,2.5,0,0,0,2.5,2.5H50.29a2.5,2.5,0,0,0,2.5-2.5V117.94A2.5,2.5,0,0,0,50.29,115.44ZM47.79,127H33v-6.58H47.79Zm2.5,11H30.51a2.5,2.5,0,0,0-2.5,2.5v11.57a2.5,2.5,0,0,0,2.5,2.5H50.29a2.5,2.5,0,0,0,2.5-2.5V140.56A2.5,2.5,0,0,0,50.29,138.06Zm-2.5,11.57H33v-6.57H47.79ZM80.08,70.21H60.3a2.5,2.5,0,0,0-2.5,2.5V84.28a2.5,2.5,0,0,0,2.5,2.5H80.08a2.5,2.5,0,0,0,2.5-2.5V72.71A2.5,2.5,0,0,0,80.08,70.21Zm-2.5,11.57H62.8V75.21H77.58Zm2.5,11H60.3a2.5,2.5,0,0,0-2.5,2.5V106.9a2.5,2.5,0,0,0,2.5,2.5H80.08a2.5,2.5,0,0,0,2.5-2.5V95.32A2.5,2.5,0,0,0,80.08,92.82Zm-2.5,11.58H62.8V97.82H77.58Zm2.5,11H60.3a2.5,2.5,0,0,0-2.5,2.5v11.58a2.5,2.5,0,0,0,2.5,2.5H80.08a2.5,2.5,0,0,0,2.5-2.5V117.94A2.5,2.5,0,0,0,80.08,115.44ZM77.58,127H62.8v-6.58H77.58Zm2.5,11H60.3a2.5,2.5,0,0,0-2.5,2.5v11.57a2.5,2.5,0,0,0,2.5,2.5H80.08a2.5,2.5,0,0,0,2.5-2.5V140.56A2.5,2.5,0,0,0,80.08,138.06Zm-2.5,11.57H62.8v-6.57H77.58Zm2.5-11.57H60.3a2.5,2.5,0,0,0-2.5,2.5v11.57a2.5,2.5,0,0,0,2.5,2.5H80.08a2.5,2.5,0,0,0,2.5-2.5V140.56A2.5,2.5,0,0,0,80.08,138.06Zm-2.5,11.57H62.8v-6.57H77.58Zm2.5-34.19H60.3a2.5,2.5,0,0,0-2.5,2.5v11.58a2.5,2.5,0,0,0,2.5,2.5H80.08a2.5,2.5,0,0,0,2.5-2.5V117.94A2.5,2.5,0,0,0,80.08,115.44ZM77.58,127H62.8v-6.58H77.58Zm2.5-34.2H60.3a2.5,2.5,0,0,0-2.5,2.5V106.9a2.5,2.5,0,0,0,2.5,2.5H80.08a2.5,2.5,0,0,0,2.5-2.5V95.32A2.5,2.5,0,0,0,80.08,92.82Zm-2.5,11.58H62.8V97.82H77.58Zm2.5-34.19H60.3a2.5,2.5,0,0,0-2.5,2.5V84.28a2.5,2.5,0,0,0,2.5,2.5H80.08a2.5,2.5,0,0,0,2.5-2.5V72.71A2.5,2.5,0,0,0,80.08,70.21Zm-2.5,11.57H62.8V75.21H77.58ZM50.29,138.06H30.51a2.5,2.5,0,0,0-2.5,2.5v11.57a2.5,2.5,0,0,0,2.5,2.5H50.29a2.5,2.5,0,0,0,2.5-2.5V140.56A2.5,2.5,0,0,0,50.29,138.06Zm-2.5,11.57H33v-6.57H47.79Zm2.5-34.19H30.51a2.5,2.5,0,0,0-2.5,2.5v11.58a2.5,2.5,0,0,0,2.5,2.5H50.29a2.5,2.5,0,0,0,2.5-2.5V117.94A2.5,2.5,0,0,0,50.29,115.44ZM47.79,127H33v-6.58H47.79Zm2.5-34.2H30.51a2.5,2.5,0,0,0-2.5,2.5V106.9a2.5,2.5,0,0,0,2.5,2.5H50.29a2.5,2.5,0,0,0,2.5-2.5V95.32A2.5,2.5,0,0,0,50.29,92.82Zm-2.5,11.58H33V97.82H47.79Zm2.5-34.19H30.51a2.5,2.5,0,0,0-2.5,2.5V84.28a2.5,2.5,0,0,0,2.5,2.5H50.29a2.5,2.5,0,0,0,2.5-2.5V72.71A2.5,2.5,0,0,0,50.29,70.21Zm-2.5,11.57H33V75.21H47.79Zm2.5-11.57H30.51a2.5,2.5,0,0,0-2.5,2.5V84.28a2.5,2.5,0,0,0,2.5,2.5H50.29a2.5,2.5,0,0,0,2.5-2.5V72.71A2.5,2.5,0,0,0,50.29,70.21Zm-2.5,11.57H33V75.21H47.79Zm2.5,11H30.51a2.5,2.5,0,0,0-2.5,2.5V106.9a2.5,2.5,0,0,0,2.5,2.5H50.29a2.5,2.5,0,0,0,2.5-2.5V95.32A2.5,2.5,0,0,0,50.29,92.82Zm-2.5,11.58H33V97.82H47.79Zm2.5,11H30.51a2.5,2.5,0,0,0-2.5,2.5v11.58a2.5,2.5,0,0,0,2.5,2.5H50.29a2.5,2.5,0,0,0,2.5-2.5V117.94A2.5,2.5,0,0,0,50.29,115.44ZM47.79,127H33v-6.58H47.79Zm2.5,11H30.51a2.5,2.5,0,0,0-2.5,2.5v11.57a2.5,2.5,0,0,0,2.5,2.5H50.29a2.5,2.5,0,0,0,2.5-2.5V140.56A2.5,2.5,0,0,0,50.29,138.06Zm-2.5,11.57H33v-6.57H47.79ZM80.08,70.21H60.3a2.5,2.5,0,0,0-2.5,2.5V84.28a2.5,2.5,0,0,0,2.5,2.5H80.08a2.5,2.5,0,0,0,2.5-2.5V72.71A2.5,2.5,0,0,0,80.08,70.21Zm-2.5,11.57H62.8V75.21H77.58Zm2.5,11H60.3a2.5,2.5,0,0,0-2.5,2.5V106.9a2.5,2.5,0,0,0,2.5,2.5H80.08a2.5,2.5,0,0,0,2.5-2.5V95.32A2.5,2.5,0,0,0,80.08,92.82Zm-2.5,11.58H62.8V97.82H77.58Zm2.5,11H60.3a2.5,2.5,0,0,0-2.5,2.5v11.58a2.5,2.5,0,0,0,2.5,2.5H80.08a2.5,2.5,0,0,0,2.5-2.5V117.94A2.5,2.5,0,0,0,80.08,115.44ZM77.58,127H62.8v-6.58H77.58Zm2.5,11H60.3a2.5,2.5,0,0,0-2.5,2.5v11.57a2.5,2.5,0,0,0,2.5,2.5H80.08a2.5,2.5,0,0,0,2.5-2.5V140.56A2.5,2.5,0,0,0,80.08,138.06Zm-2.5,11.57H62.8v-6.57H77.58Zm2.5-11.57H60.3a2.5,2.5,0,0,0-2.5,2.5v11.57a2.5,2.5,0,0,0,2.5,2.5H80.08a2.5,2.5,0,0,0,2.5-2.5V140.56A2.5,2.5,0,0,0,80.08,138.06Zm-2.5,11.57H62.8v-6.57H77.58Zm2.5-34.19H60.3a2.5,2.5,0,0,0-2.5,2.5v11.58a2.5,2.5,0,0,0,2.5,2.5H80.08a2.5,2.5,0,0,0,2.5-2.5V117.94A2.5,2.5,0,0,0,80.08,115.44ZM77.58,127H62.8v-6.58H77.58Zm2.5-34.2H60.3a2.5,2.5,0,0,0-2.5,2.5V106.9a2.5,2.5,0,0,0,2.5,2.5H80.08a2.5,2.5,0,0,0,2.5-2.5V95.32A2.5,2.5,0,0,0,80.08,92.82Zm-2.5,11.58H62.8V97.82H77.58Zm2.5-34.19H60.3a2.5,2.5,0,0,0-2.5,2.5V84.28a2.5,2.5,0,0,0,2.5,2.5H80.08a2.5,2.5,0,0,0,2.5-2.5V72.71A2.5,2.5,0,0,0,80.08,70.21Zm-2.5,11.57H62.8V75.21H77.58ZM50.29,138.06H30.51a2.5,2.5,0,0,0-2.5,2.5v11.57a2.5,2.5,0,0,0,2.5,2.5H50.29a2.5,2.5,0,0,0,2.5-2.5V140.56A2.5,2.5,0,0,0,50.29,138.06Zm-2.5,11.57H33v-6.57H47.79Zm2.5-34.19H30.51a2.5,2.5,0,0,0-2.5,2.5v11.58a2.5,2.5,0,0,0,2.5,2.5H50.29a2.5,2.5,0,0,0,2.5-2.5V117.94A2.5,2.5,0,0,0,50.29,115.44ZM47.79,127H33v-6.58H47.79Zm2.5-34.2H30.51a2.5,2.5,0,0,0-2.5,2.5V106.9a2.5,2.5,0,0,0,2.5,2.5H50.29a2.5,2.5,0,0,0,2.5-2.5V95.32A2.5,2.5,0,0,0,50.29,92.82Zm-2.5,11.58H33V97.82H47.79Zm2.5-34.19H30.51a2.5,2.5,0,0,0-2.5,2.5V84.28a2.5,2.5,0,0,0,2.5,2.5H50.29a2.5,2.5,0,0,0,2.5-2.5V72.71A2.5,2.5,0,0,0,50.29,70.21Zm-2.5,11.57H33V75.21H47.79Zm2.5-11.57H30.51a2.5,2.5,0,0,0-2.5,2.5V84.28a2.5,2.5,0,0,0,2.5,2.5H50.29a2.5,2.5,0,0,0,2.5-2.5V72.71A2.5,2.5,0,0,0,50.29,70.21Zm-2.5,11.57H33V75.21H47.79Zm2.5,11H30.51a2.5,2.5,0,0,0-2.5,2.5V106.9a2.5,2.5,0,0,0,2.5,2.5H50.29a2.5,2.5,0,0,0,2.5-2.5V95.32A2.5,2.5,0,0,0,50.29,92.82Zm-2.5,11.58H33V97.82H47.79Zm2.5,11H30.51a2.5,2.5,0,0,0-2.5,2.5v11.58a2.5,2.5,0,0,0,2.5,2.5H50.29a2.5,2.5,0,0,0,2.5-2.5V117.94A2.5,2.5,0,0,0,50.29,115.44ZM47.79,127H33v-6.58H47.79Zm2.5,11H30.51a2.5,2.5,0,0,0-2.5,2.5v11.57a2.5,2.5,0,0,0,2.5,2.5H50.29a2.5,2.5,0,0,0,2.5-2.5V140.56A2.5,2.5,0,0,0,50.29,138.06Zm-2.5,11.57H33v-6.57H47.79ZM80.08,70.21H60.3a2.5,2.5,0,0,0-2.5,2.5V84.28a2.5,2.5,0,0,0,2.5,2.5H80.08a2.5,2.5,0,0,0,2.5-2.5V72.71A2.5,2.5,0,0,0,80.08,70.21Zm-2.5,11.57H62.8V75.21H77.58Zm2.5,11H60.3a2.5,2.5,0,0,0-2.5,2.5V106.9a2.5,2.5,0,0,0,2.5,2.5H80.08a2.5,2.5,0,0,0,2.5-2.5V95.32A2.5,2.5,0,0,0,80.08,92.82Zm-2.5,11.58H62.8V97.82H77.58Zm2.5,11H60.3a2.5,2.5,0,0,0-2.5,2.5v11.58a2.5,2.5,0,0,0,2.5,2.5H80.08a2.5,2.5,0,0,0,2.5-2.5V117.94A2.5,2.5,0,0,0,80.08,115.44ZM77.58,127H62.8v-6.58H77.58Zm2.5,11H60.3a2.5,2.5,0,0,0-2.5,2.5v11.57a2.5,2.5,0,0,0,2.5,2.5H80.08a2.5,2.5,0,0,0,2.5-2.5V140.56A2.5,2.5,0,0,0,80.08,138.06Zm-2.5,11.57H62.8v-6.57H77.58Zm2.5-11.57H60.3a2.5,2.5,0,0,0-2.5,2.5v11.57a2.5,2.5,0,0,0,2.5,2.5H80.08a2.5,2.5,0,0,0,2.5-2.5V140.56A2.5,2.5,0,0,0,80.08,138.06Zm-2.5,11.57H62.8v-6.57H77.58Zm2.5-34.19H60.3a2.5,2.5,0,0,0-2.5,2.5v11.58a2.5,2.5,0,0,0,2.5,2.5H80.08a2.5,2.5,0,0,0,2.5-2.5V117.94A2.5,2.5,0,0,0,80.08,115.44ZM77.58,127H62.8v-6.58H77.58Zm2.5-34.2H60.3a2.5,2.5,0,0,0-2.5,2.5V106.9a2.5,2.5,0,0,0,2.5,2.5H80.08a2.5,2.5,0,0,0,2.5-2.5V95.32A2.5,2.5,0,0,0,80.08,92.82Zm-2.5,11.58H62.8V97.82H77.58Zm2.5-34.19H60.3a2.5,2.5,0,0,0-2.5,2.5V84.28a2.5,2.5,0,0,0,2.5,2.5H80.08a2.5,2.5,0,0,0,2.5-2.5V72.71A2.5,2.5,0,0,0,80.08,70.21Zm-2.5,11.57H62.8V75.21H77.58ZM50.29,138.06H30.51a2.5,2.5,0,0,0-2.5,2.5v11.57a2.5,2.5,0,0,0,2.5,2.5H50.29a2.5,2.5,0,0,0,2.5-2.5V140.56A2.5,2.5,0,0,0,50.29,138.06Zm-2.5,11.57H33v-6.57H47.79Zm2.5-34.19H30.51a2.5,2.5,0,0,0-2.5,2.5v11.58a2.5,2.5,0,0,0,2.5,2.5H50.29a2.5,2.5,0,0,0,2.5-2.5V117.94A2.5,2.5,0,0,0,50.29,115.44ZM47.79,127H33v-6.58H47.79Zm2.5-34.2H30.51a2.5,2.5,0,0,0-2.5,2.5V106.9a2.5,2.5,0,0,0,2.5,2.5H50.29a2.5,2.5,0,0,0,2.5-2.5V95.32A2.5,2.5,0,0,0,50.29,92.82Zm-2.5,11.58H33V97.82H47.79Zm2.5-34.19H30.51a2.5,2.5,0,0,0-2.5,2.5V84.28a2.5,2.5,0,0,0,2.5,2.5H50.29a2.5,2.5,0,0,0,2.5-2.5V72.71A2.5,2.5,0,0,0,50.29,70.21Zm-2.5,11.57H33V75.21H47.79Zm2.5-11.57H30.51a2.5,2.5,0,0,0-2.5,2.5V84.28a2.5,2.5,0,0,0,2.5,2.5H50.29a2.5,2.5,0,0,0,2.5-2.5V72.71A2.5,2.5,0,0,0,50.29,70.21Zm-2.5,11.57H33V75.21H47.79Zm2.5,11H30.51a2.5,2.5,0,0,0-2.5,2.5V106.9a2.5,2.5,0,0,0,2.5,2.5H50.29a2.5,2.5,0,0,0,2.5-2.5V95.32A2.5,2.5,0,0,0,50.29,92.82Zm-2.5,11.58H33V97.82H47.79Zm2.5,11H30.51a2.5,2.5,0,0,0-2.5,2.5v11.58a2.5,2.5,0,0,0,2.5,2.5H50.29a2.5,2.5,0,0,0,2.5-2.5V117.94A2.5,2.5,0,0,0,50.29,115.44ZM47.79,127H33v-6.58H47.79Zm2.5,11H30.51a2.5,2.5,0,0,0-2.5,2.5v11.57a2.5,2.5,0,0,0,2.5,2.5H50.29a2.5,2.5,0,0,0,2.5-2.5V140.56A2.5,2.5,0,0,0,50.29,138.06Zm-2.5,11.57H33v-6.57H47.79ZM80.08,70.21H60.3a2.5,2.5,0,0,0-2.5,2.5V84.28a2.5,2.5,0,0,0,2.5,2.5H80.08a2.5,2.5,0,0,0,2.5-2.5V72.71A2.5,2.5,0,0,0,80.08,70.21Zm-2.5,11.57H62.8V75.21H77.58Zm2.5,11H60.3a2.5,2.5,0,0,0-2.5,2.5V106.9a2.5,2.5,0,0,0,2.5,2.5H80.08a2.5,2.5,0,0,0,2.5-2.5V95.32A2.5,2.5,0,0,0,80.08,92.82Zm-2.5,11.58H62.8V97.82H77.58Zm2.5,11H60.3a2.5,2.5,0,0,0-2.5,2.5v11.58a2.5,2.5,0,0,0,2.5,2.5H80.08a2.5,2.5,0,0,0,2.5-2.5V117.94A2.5,2.5,0,0,0,80.08,115.44ZM77.58,127H62.8v-6.58H77.58Zm2.5,11H60.3a2.5,2.5,0,0,0-2.5,2.5v11.57a2.5,2.5,0,0,0,2.5,2.5H80.08a2.5,2.5,0,0,0,2.5-2.5V140.56A2.5,2.5,0,0,0,80.08,138.06Zm-2.5,11.57H62.8v-6.57H77.58Zm2.5-11.57H60.3a2.5,2.5,0,0,0-2.5,2.5v11.57a2.5,2.5,0,0,0,2.5,2.5H80.08a2.5,2.5,0,0,0,2.5-2.5V140.56A2.5,2.5,0,0,0,80.08,138.06Zm-2.5,11.57H62.8v-6.57H77.58Zm2.5-34.19H60.3a2.5,2.5,0,0,0-2.5,2.5v11.58a2.5,2.5,0,0,0,2.5,2.5H80.08a2.5,2.5,0,0,0,2.5-2.5V117.94A2.5,2.5,0,0,0,80.08,115.44ZM77.58,127H62.8v-6.58H77.58Zm2.5-34.2H60.3a2.5,2.5,0,0,0-2.5,2.5V106.9a2.5,2.5,0,0,0,2.5,2.5H80.08a2.5,2.5,0,0,0,2.5-2.5V95.32A2.5,2.5,0,0,0,80.08,92.82Zm-2.5,11.58H62.8V97.82H77.58Zm2.5-34.19H60.3a2.5,2.5,0,0,0-2.5,2.5V84.28a2.5,2.5,0,0,0,2.5,2.5H80.08a2.5,2.5,0,0,0,2.5-2.5V72.71A2.5,2.5,0,0,0,80.08,70.21Zm-2.5,11.57H62.8V75.21H77.58ZM50.29,138.06H30.51a2.5,2.5,0,0,0-2.5,2.5v11.57a2.5,2.5,0,0,0,2.5,2.5H50.29a2.5,2.5,0,0,0,2.5-2.5V140.56A2.5,2.5,0,0,0,50.29,138.06Zm-2.5,11.57H33v-6.57H47.79Zm2.5-34.19H30.51a2.5,2.5,0,0,0-2.5,2.5v11.58a2.5,2.5,0,0,0,2.5,2.5H50.29a2.5,2.5,0,0,0,2.5-2.5V117.94A2.5,2.5,0,0,0,50.29,115.44ZM47.79,127H33v-6.58H47.79Zm2.5-34.2H30.51a2.5,2.5,0,0,0-2.5,2.5V106.9a2.5,2.5,0,0,0,2.5,2.5H50.29a2.5,2.5,0,0,0,2.5-2.5V95.32A2.5,2.5,0,0,0,50.29,92.82Zm-2.5,11.58H33V97.82H47.79Zm2.5-34.19H30.51a2.5,2.5,0,0,0-2.5,2.5V84.28a2.5,2.5,0,0,0,2.5,2.5H50.29a2.5,2.5,0,0,0,2.5-2.5V72.71A2.5,2.5,0,0,0,50.29,70.21Zm-2.5,11.57H33V75.21H47.79Zm2.5-11.57H30.51a2.5,2.5,0,0,0-2.5,2.5V84.28a2.5,2.5,0,0,0,2.5,2.5H50.29a2.5,2.5,0,0,0,2.5-2.5V72.71A2.5,2.5,0,0,0,50.29,70.21Zm-2.5,11.57H33V75.21H47.79Zm2.5,11H30.51a2.5,2.5,0,0,0-2.5,2.5V106.9a2.5,2.5,0,0,0,2.5,2.5H50.29a2.5,2.5,0,0,0,2.5-2.5V95.32A2.5,2.5,0,0,0,50.29,92.82Zm-2.5,11.58H33V97.82H47.79Zm2.5,11H30.51a2.5,2.5,0,0,0-2.5,2.5v11.58a2.5,2.5,0,0,0,2.5,2.5H50.29a2.5,2.5,0,0,0,2.5-2.5V117.94A2.5,2.5,0,0,0,50.29,115.44ZM47.79,127H33v-6.58H47.79Zm2.5,11H30.51a2.5,2.5,0,0,0-2.5,2.5v11.57a2.5,2.5,0,0,0,2.5,2.5H50.29a2.5,2.5,0,0,0,2.5-2.5V140.56A2.5,2.5,0,0,0,50.29,138.06Zm-2.5,11.57H33v-6.57H47.79ZM80.08,70.21H60.3a2.5,2.5,0,0,0-2.5,2.5V84.28a2.5,2.5,0,0,0,2.5,2.5H80.08a2.5,2.5,0,0,0,2.5-2.5V72.71A2.5,2.5,0,0,0,80.08,70.21Zm-2.5,11.57H62.8V75.21H77.58Zm2.5,11H60.3a2.5,2.5,0,0,0-2.5,2.5V106.9a2.5,2.5,0,0,0,2.5,2.5H80.08a2.5,2.5,0,0,0,2.5-2.5V95.32A2.5,2.5,0,0,0,80.08,92.82Zm-2.5,11.58H62.8V97.82H77.58Zm2.5,11H60.3a2.5,2.5,0,0,0-2.5,2.5v11.58a2.5,2.5,0,0,0,2.5,2.5H80.08a2.5,2.5,0,0,0,2.5-2.5V117.94A2.5,2.5,0,0,0,80.08,115.44ZM77.58,127H62.8v-6.58H77.58Zm2.5,11H60.3a2.5,2.5,0,0,0-2.5,2.5v11.57a2.5,2.5,0,0,0,2.5,2.5H80.08a2.5,2.5,0,0,0,2.5-2.5V140.56A2.5,2.5,0,0,0,80.08,138.06Zm-2.5,11.57H62.8v-6.57H77.58Zm2.5-11.57H60.3a2.5,2.5,0,0,0-2.5,2.5v11.57a2.5,2.5,0,0,0,2.5,2.5H80.08a2.5,2.5,0,0,0,2.5-2.5V140.56A2.5,2.5,0,0,0,80.08,138.06Zm-2.5,11.57H62.8v-6.57H77.58Zm2.5-34.19H60.3a2.5,2.5,0,0,0-2.5,2.5v11.58a2.5,2.5,0,0,0,2.5,2.5H80.08a2.5,2.5,0,0,0,2.5-2.5V117.94A2.5,2.5,0,0,0,80.08,115.44ZM77.58,127H62.8v-6.58H77.58Zm2.5-34.2H60.3a2.5,2.5,0,0,0-2.5,2.5V106.9a2.5,2.5,0,0,0,2.5,2.5H80.08a2.5,2.5,0,0,0,2.5-2.5V95.32A2.5,2.5,0,0,0,80.08,92.82Zm-2.5,11.58H62.8V97.82H77.58Zm2.5-34.19H60.3a2.5,2.5,0,0,0-2.5,2.5V84.28a2.5,2.5,0,0,0,2.5,2.5H80.08a2.5,2.5,0,0,0,2.5-2.5V72.71A2.5,2.5,0,0,0,80.08,70.21Zm-2.5,11.57H62.8V75.21H77.58ZM50.29,138.06H30.51a2.5,2.5,0,0,0-2.5,2.5v11.57a2.5,2.5,0,0,0,2.5,2.5H50.29a2.5,2.5,0,0,0,2.5-2.5V140.56A2.5,2.5,0,0,0,50.29,138.06Zm-2.5,11.57H33v-6.57H47.79Zm2.5-34.19H30.51a2.5,2.5,0,0,0-2.5,2.5v11.58a2.5,2.5,0,0,0,2.5,2.5H50.29a2.5,2.5,0,0,0,2.5-2.5V117.94A2.5,2.5,0,0,0,50.29,115.44ZM47.79,127H33v-6.58H47.79Zm2.5-34.2H30.51a2.5,2.5,0,0,0-2.5,2.5V106.9a2.5,2.5,0,0,0,2.5,2.5H50.29a2.5,2.5,0,0,0,2.5-2.5V95.32A2.5,2.5,0,0,0,50.29,92.82Zm-2.5,11.58H33V97.82H47.79Zm2.5-34.19H30.51a2.5,2.5,0,0,0-2.5,2.5V84.28a2.5,2.5,0,0,0,2.5,2.5H50.29a2.5,2.5,0,0,0,2.5-2.5V72.71A2.5,2.5,0,0,0,50.29,70.21Zm-2.5,11.57H33V75.21H47.79Zm2.5-11.57H30.51a2.5,2.5,0,0,0-2.5,2.5V84.28a2.5,2.5,0,0,0,2.5,2.5H50.29a2.5,2.5,0,0,0,2.5-2.5V72.71A2.5,2.5,0,0,0,50.29,70.21Zm-2.5,11.57H33V75.21H47.79Zm2.5,11H30.51a2.5,2.5,0,0,0-2.5,2.5V106.9a2.5,2.5,0,0,0,2.5,2.5H50.29a2.5,2.5,0,0,0,2.5-2.5V95.32A2.5,2.5,0,0,0,50.29,92.82Zm-2.5,11.58H33V97.82H47.79Zm2.5,11H30.51a2.5,2.5,0,0,0-2.5,2.5v11.58a2.5,2.5,0,0,0,2.5,2.5H50.29a2.5,2.5,0,0,0,2.5-2.5V117.94A2.5,2.5,0,0,0,50.29,115.44ZM47.79,127H33v-6.58H47.79Zm2.5,11H30.51a2.5,2.5,0,0,0-2.5,2.5v11.57a2.5,2.5,0,0,0,2.5,2.5H50.29a2.5,2.5,0,0,0,2.5-2.5V140.56A2.5,2.5,0,0,0,50.29,138.06Zm-2.5,11.57H33v-6.57H47.79ZM80.08,70.21H60.3a2.5,2.5,0,0,0-2.5,2.5V84.28a2.5,2.5,0,0,0,2.5,2.5H80.08a2.5,2.5,0,0,0,2.5-2.5V72.71A2.5,2.5,0,0,0,80.08,70.21Zm-2.5,11.57H62.8V75.21H77.58Zm2.5,11H60.3a2.5,2.5,0,0,0-2.5,2.5V106.9a2.5,2.5,0,0,0,2.5,2.5H80.08a2.5,2.5,0,0,0,2.5-2.5V95.32A2.5,2.5,0,0,0,80.08,92.82Zm-2.5,11.58H62.8V97.82H77.58Zm2.5,11H60.3a2.5,2.5,0,0,0-2.5,2.5v11.58a2.5,2.5,0,0,0,2.5,2.5H80.08a2.5,2.5,0,0,0,2.5-2.5V117.94A2.5,2.5,0,0,0,80.08,115.44ZM77.58,127H62.8v-6.58H77.58Zm2.5,11H60.3a2.5,2.5,0,0,0-2.5,2.5v11.57a2.5,2.5,0,0,0,2.5,2.5H80.08a2.5,2.5,0,0,0,2.5-2.5V140.56A2.5,2.5,0,0,0,80.08,138.06Zm-2.5,11.57H62.8v-6.57H77.58Zm2.5-11.57H60.3a2.5,2.5,0,0,0-2.5,2.5v11.57a2.5,2.5,0,0,0,2.5,2.5H80.08a2.5,2.5,0,0,0,2.5-2.5V140.56A2.5,2.5,0,0,0,80.08,138.06Zm-2.5,11.57H62.8v-6.57H77.58Zm2.5-34.19H60.3a2.5,2.5,0,0,0-2.5,2.5v11.58a2.5,2.5,0,0,0,2.5,2.5H80.08a2.5,2.5,0,0,0,2.5-2.5V117.94A2.5,2.5,0,0,0,80.08,115.44ZM77.58,127H62.8v-6.58H77.58Zm2.5-34.2H60.3a2.5,2.5,0,0,0-2.5,2.5V106.9a2.5,2.5,0,0,0,2.5,2.5H80.08a2.5,2.5,0,0,0,2.5-2.5V95.32A2.5,2.5,0,0,0,80.08,92.82Zm-2.5,11.58H62.8V97.82H77.58Zm2.5-34.19H60.3a2.5,2.5,0,0,0-2.5,2.5V84.28a2.5,2.5,0,0,0,2.5,2.5H80.08a2.5,2.5,0,0,0,2.5-2.5V72.71A2.5,2.5,0,0,0,80.08,70.21Zm-2.5,11.57H62.8V75.21H77.58ZM50.29,138.06H30.51a2.5,2.5,0,0,0-2.5,2.5v11.57a2.5,2.5,0,0,0,2.5,2.5H50.29a2.5,2.5,0,0,0,2.5-2.5V140.56A2.5,2.5,0,0,0,50.29,138.06Zm-2.5,11.57H33v-6.57H47.79Zm2.5-34.19H30.51a2.5,2.5,0,0,0-2.5,2.5v11.58a2.5,2.5,0,0,0,2.5,2.5H50.29a2.5,2.5,0,0,0,2.5-2.5V117.94A2.5,2.5,0,0,0,50.29,115.44ZM47.79,127H33v-6.58H47.79Zm2.5-34.2H30.51a2.5,2.5,0,0,0-2.5,2.5V106.9a2.5,2.5,0,0,0,2.5,2.5H50.29a2.5,2.5,0,0,0,2.5-2.5V95.32A2.5,2.5,0,0,0,50.29,92.82Zm-2.5,11.58H33V97.82H47.79Zm2.5-34.19H30.51a2.5,2.5,0,0,0-2.5,2.5V84.28a2.5,2.5,0,0,0,2.5,2.5H50.29a2.5,2.5,0,0,0,2.5-2.5V72.71A2.5,2.5,0,0,0,50.29,70.21Zm-2.5,11.57H33V75.21H47.79Zm2.5-11.57H30.51a2.5,2.5,0,0,0-2.5,2.5V84.28a2.5,2.5,0,0,0,2.5,2.5H50.29a2.5,2.5,0,0,0,2.5-2.5V72.71A2.5,2.5,0,0,0,50.29,70.21Zm-2.5,11.57H33V75.21H47.79Zm2.5,11H30.51a2.5,2.5,0,0,0-2.5,2.5V106.9a2.5,2.5,0,0,0,2.5,2.5H50.29a2.5,2.5,0,0,0,2.5-2.5V95.32A2.5,2.5,0,0,0,50.29,92.82Zm-2.5,11.58H33V97.82H47.79Zm2.5,11H30.51a2.5,2.5,0,0,0-2.5,2.5v11.58a2.5,2.5,0,0,0,2.5,2.5H50.29a2.5,2.5,0,0,0,2.5-2.5V117.94A2.5,2.5,0,0,0,50.29,115.44ZM47.79,127H33v-6.58H47.79Zm2.5,11H30.51a2.5,2.5,0,0,0-2.5,2.5v11.57a2.5,2.5,0,0,0,2.5,2.5H50.29a2.5,2.5,0,0,0,2.5-2.5V140.56A2.5,2.5,0,0,0,50.29,138.06Zm-2.5,11.57H33v-6.57H47.79ZM80.08,70.21H60.3a2.5,2.5,0,0,0-2.5,2.5V84.28a2.5,2.5,0,0,0,2.5,2.5H80.08a2.5,2.5,0,0,0,2.5-2.5V72.71A2.5,2.5,0,0,0,80.08,70.21Zm-2.5,11.57H62.8V75.21H77.58Zm2.5,11H60.3a2.5,2.5,0,0,0-2.5,2.5V106.9a2.5,2.5,0,0,0,2.5,2.5H80.08a2.5,2.5,0,0,0,2.5-2.5V95.32A2.5,2.5,0,0,0,80.08,92.82Zm-2.5,11.58H62.8V97.82H77.58Zm2.5,11H60.3a2.5,2.5,0,0,0-2.5,2.5v11.58a2.5,2.5,0,0,0,2.5,2.5H80.08a2.5,2.5,0,0,0,2.5-2.5V117.94A2.5,2.5,0,0,0,80.08,115.44ZM77.58,127H62.8v-6.58H77.58Zm2.5,11H60.3a2.5,2.5,0,0,0-2.5,2.5v11.57a2.5,2.5,0,0,0,2.5,2.5H80.08a2.5,2.5,0,0,0,2.5-2.5V140.56A2.5,2.5,0,0,0,80.08,138.06Zm-2.5,11.57H62.8v-6.57H77.58Zm2.5-11.57H60.3a2.5,2.5,0,0,0-2.5,2.5v11.57a2.5,2.5,0,0,0,2.5,2.5H80.08a2.5,2.5,0,0,0,2.5-2.5V140.56A2.5,2.5,0,0,0,80.08,138.06Zm-2.5,11.57H62.8v-6.57H77.58Zm2.5-34.19H60.3a2.5,2.5,0,0,0-2.5,2.5v11.58a2.5,2.5,0,0,0,2.5,2.5H80.08a2.5,2.5,0,0,0,2.5-2.5V117.94A2.5,2.5,0,0,0,80.08,115.44ZM77.58,127H62.8v-6.58H77.58Zm2.5-34.2H60.3a2.5,2.5,0,0,0-2.5,2.5V106.9a2.5,2.5,0,0,0,2.5,2.5H80.08a2.5,2.5,0,0,0,2.5-2.5V95.32A2.5,2.5,0,0,0,80.08,92.82Zm-2.5,11.58H62.8V97.82H77.58Zm2.5-34.19H60.3a2.5,2.5,0,0,0-2.5,2.5V84.28a2.5,2.5,0,0,0,2.5,2.5H80.08a2.5,2.5,0,0,0,2.5-2.5V72.71A2.5,2.5,0,0,0,80.08,70.21Zm-2.5,11.57H62.8V75.21H77.58ZM50.29,138.06H30.51a2.5,2.5,0,0,0-2.5,2.5v11.57a2.5,2.5,0,0,0,2.5,2.5H50.29a2.5,2.5,0,0,0,2.5-2.5V140.56A2.5,2.5,0,0,0,50.29,138.06Zm-2.5,11.57H33v-6.57H47.79Zm2.5-34.19H30.51a2.5,2.5,0,0,0-2.5,2.5v11.58a2.5,2.5,0,0,0,2.5,2.5H50.29a2.5,2.5,0,0,0,2.5-2.5V117.94A2.5,2.5,0,0,0,50.29,115.44ZM47.79,127H33v-6.58H47.79Zm2.5-34.2H30.51a2.5,2.5,0,0,0-2.5,2.5V106.9a2.5,2.5,0,0,0,2.5,2.5H50.29a2.5,2.5,0,0,0,2.5-2.5V95.32A2.5,2.5,0,0,0,50.29,92.82Zm-2.5,11.58H33V97.82H47.79Zm2.5-34.19H30.51a2.5,2.5,0,0,0-2.5,2.5V84.28a2.5,2.5,0,0,0,2.5,2.5H50.29a2.5,2.5,0,0,0,2.5-2.5V72.71A2.5,2.5,0,0,0,50.29,70.21Zm-2.5,11.57H33V75.21H47.79Zm2.5-11.57H30.51a2.5,2.5,0,0,0-2.5,2.5V84.28a2.5,2.5,0,0,0,2.5,2.5H50.29a2.5,2.5,0,0,0,2.5-2.5V72.71A2.5,2.5,0,0,0,50.29,70.21Zm-2.5,11.57H33V75.21H47.79Zm2.5,11H30.51a2.5,2.5,0,0,0-2.5,2.5V106.9a2.5,2.5,0,0,0,2.5,2.5H50.29a2.5,2.5,0,0,0,2.5-2.5V95.32A2.5,2.5,0,0,0,50.29,92.82Zm-2.5,11.58H33V97.82H47.79Zm2.5,11H30.51a2.5,2.5,0,0,0-2.5,2.5v11.58a2.5,2.5,0,0,0,2.5,2.5H50.29a2.5,2.5,0,0,0,2.5-2.5V117.94A2.5,2.5,0,0,0,50.29,115.44ZM47.79,127H33v-6.58H47.79Zm2.5,11H30.51a2.5,2.5,0,0,0-2.5,2.5v11.57a2.5,2.5,0,0,0,2.5,2.5H50.29a2.5,2.5,0,0,0,2.5-2.5V140.56A2.5,2.5,0,0,0,50.29,138.06Zm-2.5,11.57H33v-6.57H47.79ZM80.08,70.21H60.3a2.5,2.5,0,0,0-2.5,2.5V84.28a2.5,2.5,0,0,0,2.5,2.5H80.08a2.5,2.5,0,0,0,2.5-2.5V72.71A2.5,2.5,0,0,0,80.08,70.21Zm-2.5,11.57H62.8V75.21H77.58Zm2.5,11H60.3a2.5,2.5,0,0,0-2.5,2.5V106.9a2.5,2.5,0,0,0,2.5,2.5H80.08a2.5,2.5,0,0,0,2.5-2.5V95.32A2.5,2.5,0,0,0,80.08,92.82Zm-2.5,11.58H62.8V97.82H77.58Zm2.5,11H60.3a2.5,2.5,0,0,0-2.5,2.5v11.58a2.5,2.5,0,0,0,2.5,2.5H80.08a2.5,2.5,0,0,0,2.5-2.5V117.94A2.5,2.5,0,0,0,80.08,115.44ZM77.58,127H62.8v-6.58H77.58Zm2.5,11H60.3a2.5,2.5,0,0,0-2.5,2.5v11.57a2.5,2.5,0,0,0,2.5,2.5H80.08a2.5,2.5,0,0,0,2.5-2.5V140.56A2.5,2.5,0,0,0,80.08,138.06Zm-2.5,11.57H62.8v-6.57H77.58Zm2.5-11.57H60.3a2.5,2.5,0,0,0-2.5,2.5v11.57a2.5,2.5,0,0,0,2.5,2.5H80.08a2.5,2.5,0,0,0,2.5-2.5V140.56A2.5,2.5,0,0,0,80.08,138.06Zm-2.5,11.57H62.8v-6.57H77.58Zm2.5-34.19H60.3a2.5,2.5,0,0,0-2.5,2.5v11.58a2.5,2.5,0,0,0,2.5,2.5H80.08a2.5,2.5,0,0,0,2.5-2.5V117.94A2.5,2.5,0,0,0,80.08,115.44ZM77.58,127H62.8v-6.58H77.58Zm2.5-34.2H60.3a2.5,2.5,0,0,0-2.5,2.5V106.9a2.5,2.5,0,0,0,2.5,2.5H80.08a2.5,2.5,0,0,0,2.5-2.5V95.32A2.5,2.5,0,0,0,80.08,92.82Zm-2.5,11.58H62.8V97.82H77.58Zm2.5-34.19H60.3a2.5,2.5,0,0,0-2.5,2.5V84.28a2.5,2.5,0,0,0,2.5,2.5H80.08a2.5,2.5,0,0,0,2.5-2.5V72.71A2.5,2.5,0,0,0,80.08,70.21Zm-2.5,11.57H62.8V75.21H77.58ZM50.29,138.06H30.51a2.5,2.5,0,0,0-2.5,2.5v11.57a2.5,2.5,0,0,0,2.5,2.5H50.29a2.5,2.5,0,0,0,2.5-2.5V140.56A2.5,2.5,0,0,0,50.29,138.06Zm-2.5,11.57H33v-6.57H47.79Zm2.5-34.19H30.51a2.5,2.5,0,0,0-2.5,2.5v11.58a2.5,2.5,0,0,0,2.5,2.5H50.29a2.5,2.5,0,0,0,2.5-2.5V117.94A2.5,2.5,0,0,0,50.29,115.44ZM47.79,127H33v-6.58H47.79Zm2.5-34.2H30.51a2.5,2.5,0,0,0-2.5,2.5V106.9a2.5,2.5,0,0,0,2.5,2.5H50.29a2.5,2.5,0,0,0,2.5-2.5V95.32A2.5,2.5,0,0,0,50.29,92.82Zm-2.5,11.58H33V97.82H47.79Zm2.5-34.19H30.51a2.5,2.5,0,0,0-2.5,2.5V84.28a2.5,2.5,0,0,0,2.5,2.5H50.29a2.5,2.5,0,0,0,2.5-2.5V72.71A2.5,2.5,0,0,0,50.29,70.21Zm-2.5,11.57H33V75.21H47.79Zm40-18.38V170.88h-65V63.4ZM60.3,154.63H80.08a2.5,2.5,0,0,0,2.5-2.5V140.56a2.5,2.5,0,0,0-2.5-2.5H60.3a2.5,2.5,0,0,0-2.5,2.5v11.57A2.5,2.5,0,0,0,60.3,154.63Zm2.5-11.57H77.58v6.57H62.8Zm-2.5-11H80.08a2.5,2.5,0,0,0,2.5-2.5V117.94a2.5,2.5,0,0,0-2.5-2.5H60.3a2.5,2.5,0,0,0-2.5,2.5v11.58A2.5,2.5,0,0,0,60.3,132Zm2.5-11.58H77.58V127H62.8Zm-2.5-11H80.08a2.5,2.5,0,0,0,2.5-2.5V95.32a2.5,2.5,0,0,0-2.5-2.5H60.3a2.5,2.5,0,0,0-2.5,2.5V106.9A2.5,2.5,0,0,0,60.3,109.4Zm2.5-11.58H77.58v6.58H62.8Zm-2.5-11H80.08a2.5,2.5,0,0,0,2.5-2.5V72.71a2.5,2.5,0,0,0-2.5-2.5H60.3a2.5,2.5,0,0,0-2.5,2.5V84.28A2.5,2.5,0,0,0,60.3,86.78Zm2.5-11.57H77.58v6.57H62.8ZM30.51,154.63H50.29a2.5,2.5,0,0,0,2.5-2.5V140.56a2.5,2.5,0,0,0-2.5-2.5H30.51a2.5,2.5,0,0,0-2.5,2.5v11.57A2.5,2.5,0,0,0,30.51,154.63ZM33,143.06H47.79v6.57H33Zm-2.5-11H50.29a2.5,2.5,0,0,0,2.5-2.5V117.94a2.5,2.5,0,0,0-2.5-2.5H30.51a2.5,2.5,0,0,0-2.5,2.5v11.58A2.5,2.5,0,0,0,30.51,132ZM33,120.44H47.79V127H33Zm-2.5-11H50.29a2.5,2.5,0,0,0,2.5-2.5V95.32a2.5,2.5,0,0,0-2.5-2.5H30.51a2.5,2.5,0,0,0-2.5,2.5V106.9A2.5,2.5,0,0,0,30.51,109.4ZM33,97.82H47.79v6.58H33Zm-2.5-11H50.29a2.5,2.5,0,0,0,2.5-2.5V72.71a2.5,2.5,0,0,0-2.5-2.5H30.51a2.5,2.5,0,0,0-2.5,2.5V84.28A2.5,2.5,0,0,0,30.51,86.78ZM33,75.21H47.79v6.57H33Zm17.28-5H30.51a2.5,2.5,0,0,0-2.5,2.5V84.28a2.5,2.5,0,0,0,2.5,2.5H50.29a2.5,2.5,0,0,0,2.5-2.5V72.71A2.5,2.5,0,0,0,50.29,70.21Zm-2.5,11.57H33V75.21H47.79Zm2.5,11H30.51a2.5,2.5,0,0,0-2.5,2.5V106.9a2.5,2.5,0,0,0,2.5,2.5H50.29a2.5,2.5,0,0,0,2.5-2.5V95.32A2.5,2.5,0,0,0,50.29,92.82Zm-2.5,11.58H33V97.82H47.79Zm2.5,11H30.51a2.5,2.5,0,0,0-2.5,2.5v11.58a2.5,2.5,0,0,0,2.5,2.5H50.29a2.5,2.5,0,0,0,2.5-2.5V117.94A2.5,2.5,0,0,0,50.29,115.44ZM47.79,127H33v-6.58H47.79Zm2.5,11H30.51a2.5,2.5,0,0,0-2.5,2.5v11.57a2.5,2.5,0,0,0,2.5,2.5H50.29a2.5,2.5,0,0,0,2.5-2.5V140.56A2.5,2.5,0,0,0,50.29,138.06Zm-2.5,11.57H33v-6.57H47.79ZM80.08,70.21H60.3a2.5,2.5,0,0,0-2.5,2.5V84.28a2.5,2.5,0,0,0,2.5,2.5H80.08a2.5,2.5,0,0,0,2.5-2.5V72.71A2.5,2.5,0,0,0,80.08,70.21Zm-2.5,11.57H62.8V75.21H77.58Zm2.5,11H60.3a2.5,2.5,0,0,0-2.5,2.5V106.9a2.5,2.5,0,0,0,2.5,2.5H80.08a2.5,2.5,0,0,0,2.5-2.5V95.32A2.5,2.5,0,0,0,80.08,92.82Zm-2.5,11.58H62.8V97.82H77.58Zm2.5,11H60.3a2.5,2.5,0,0,0-2.5,2.5v11.58a2.5,2.5,0,0,0,2.5,2.5H80.08a2.5,2.5,0,0,0,2.5-2.5V117.94A2.5,2.5,0,0,0,80.08,115.44ZM77.58,127H62.8v-6.58H77.58Zm2.5,11H60.3a2.5,2.5,0,0,0-2.5,2.5v11.57a2.5,2.5,0,0,0,2.5,2.5H80.08a2.5,2.5,0,0,0,2.5-2.5V140.56A2.5,2.5,0,0,0,80.08,138.06Zm-2.5,11.57H62.8v-6.57H77.58Zm2.5-11.57H60.3a2.5,2.5,0,0,0-2.5,2.5v11.57a2.5,2.5,0,0,0,2.5,2.5H80.08a2.5,2.5,0,0,0,2.5-2.5V140.56A2.5,2.5,0,0,0,80.08,138.06Zm-2.5,11.57H62.8v-6.57H77.58Zm2.5-34.19H60.3a2.5,2.5,0,0,0-2.5,2.5v11.58a2.5,2.5,0,0,0,2.5,2.5H80.08a2.5,2.5,0,0,0,2.5-2.5V117.94A2.5,2.5,0,0,0,80.08,115.44ZM77.58,127H62.8v-6.58H77.58Zm2.5-34.2H60.3a2.5,2.5,0,0,0-2.5,2.5V106.9a2.5,2.5,0,0,0,2.5,2.5H80.08a2.5,2.5,0,0,0,2.5-2.5V95.32A2.5,2.5,0,0,0,80.08,92.82Zm-2.5,11.58H62.8V97.82H77.58Zm2.5-34.19H60.3a2.5,2.5,0,0,0-2.5,2.5V84.28a2.5,2.5,0,0,0,2.5,2.5H80.08a2.5,2.5,0,0,0,2.5-2.5V72.71A2.5,2.5,0,0,0,80.08,70.21Zm-2.5,11.57H62.8V75.21H77.58ZM50.29,138.06H30.51a2.5,2.5,0,0,0-2.5,2.5v11.57a2.5,2.5,0,0,0,2.5,2.5H50.29a2.5,2.5,0,0,0,2.5-2.5V140.56A2.5,2.5,0,0,0,50.29,138.06Zm-2.5,11.57H33v-6.57H47.79Zm2.5-34.19H30.51a2.5,2.5,0,0,0-2.5,2.5v11.58a2.5,2.5,0,0,0,2.5,2.5H50.29a2.5,2.5,0,0,0,2.5-2.5V117.94A2.5,2.5,0,0,0,50.29,115.44ZM47.79,127H33v-6.58H47.79Zm2.5-34.2H30.51a2.5,2.5,0,0,0-2.5,2.5V106.9a2.5,2.5,0,0,0,2.5,2.5H50.29a2.5,2.5,0,0,0,2.5-2.5V95.32A2.5,2.5,0,0,0,50.29,92.82Zm-2.5,11.58H33V97.82H47.79Zm2.5-34.19H30.51a2.5,2.5,0,0,0-2.5,2.5V84.28a2.5,2.5,0,0,0,2.5,2.5H50.29a2.5,2.5,0,0,0,2.5-2.5V72.71A2.5,2.5,0,0,0,50.29,70.21Zm-2.5,11.57H33V75.21H47.79Zm2.5-11.57H30.51a2.5,2.5,0,0,0-2.5,2.5V84.28a2.5,2.5,0,0,0,2.5,2.5H50.29a2.5,2.5,0,0,0,2.5-2.5V72.71A2.5,2.5,0,0,0,50.29,70.21Zm-2.5,11.57H33V75.21H47.79Zm2.5,11H30.51a2.5,2.5,0,0,0-2.5,2.5V106.9a2.5,2.5,0,0,0,2.5,2.5H50.29a2.5,2.5,0,0,0,2.5-2.5V95.32A2.5,2.5,0,0,0,50.29,92.82Zm-2.5,11.58H33V97.82H47.79Zm2.5,11H30.51a2.5,2.5,0,0,0-2.5,2.5v11.58a2.5,2.5,0,0,0,2.5,2.5H50.29a2.5,2.5,0,0,0,2.5-2.5V117.94A2.5,2.5,0,0,0,50.29,115.44ZM47.79,127H33v-6.58H47.79Zm2.5,11H30.51a2.5,2.5,0,0,0-2.5,2.5v11.57a2.5,2.5,0,0,0,2.5,2.5H50.29a2.5,2.5,0,0,0,2.5-2.5V140.56A2.5,2.5,0,0,0,50.29,138.06Zm-2.5,11.57H33v-6.57H47.79ZM80.08,70.21H60.3a2.5,2.5,0,0,0-2.5,2.5V84.28a2.5,2.5,0,0,0,2.5,2.5H80.08a2.5,2.5,0,0,0,2.5-2.5V72.71A2.5,2.5,0,0,0,80.08,70.21Zm-2.5,11.57H62.8V75.21H77.58Zm2.5,11H60.3a2.5,2.5,0,0,0-2.5,2.5V106.9a2.5,2.5,0,0,0,2.5,2.5H80.08a2.5,2.5,0,0,0,2.5-2.5V95.32A2.5,2.5,0,0,0,80.08,92.82Zm-2.5,11.58H62.8V97.82H77.58Zm2.5,11H60.3a2.5,2.5,0,0,0-2.5,2.5v11.58a2.5,2.5,0,0,0,2.5,2.5H80.08a2.5,2.5,0,0,0,2.5-2.5V117.94A2.5,2.5,0,0,0,80.08,115.44ZM77.58,127H62.8v-6.58H77.58Zm2.5,11H60.3a2.5,2.5,0,0,0-2.5,2.5v11.57a2.5,2.5,0,0,0,2.5,2.5H80.08a2.5,2.5,0,0,0,2.5-2.5V140.56A2.5,2.5,0,0,0,80.08,138.06Zm-2.5,11.57H62.8v-6.57H77.58Zm2.5-11.57H60.3a2.5,2.5,0,0,0-2.5,2.5v11.57a2.5,2.5,0,0,0,2.5,2.5H80.08a2.5,2.5,0,0,0,2.5-2.5V140.56A2.5,2.5,0,0,0,80.08,138.06Zm-2.5,11.57H62.8v-6.57H77.58Zm2.5-34.19H60.3a2.5,2.5,0,0,0-2.5,2.5v11.58a2.5,2.5,0,0,0,2.5,2.5H80.08a2.5,2.5,0,0,0,2.5-2.5V117.94A2.5,2.5,0,0,0,80.08,115.44ZM77.58,127H62.8v-6.58H77.58Zm2.5-34.2H60.3a2.5,2.5,0,0,0-2.5,2.5V106.9a2.5,2.5,0,0,0,2.5,2.5H80.08a2.5,2.5,0,0,0,2.5-2.5V95.32A2.5,2.5,0,0,0,80.08,92.82Zm-2.5,11.58H62.8V97.82H77.58Zm2.5-34.19H60.3a2.5,2.5,0,0,0-2.5,2.5V84.28a2.5,2.5,0,0,0,2.5,2.5H80.08a2.5,2.5,0,0,0,2.5-2.5V72.71A2.5,2.5,0,0,0,80.08,70.21Zm-2.5,11.57H62.8V75.21H77.58ZM50.29,138.06H30.51a2.5,2.5,0,0,0-2.5,2.5v11.57a2.5,2.5,0,0,0,2.5,2.5H50.29a2.5,2.5,0,0,0,2.5-2.5V140.56A2.5,2.5,0,0,0,50.29,138.06Zm-2.5,11.57H33v-6.57H47.79Zm2.5-34.19H30.51a2.5,2.5,0,0,0-2.5,2.5v11.58a2.5,2.5,0,0,0,2.5,2.5H50.29a2.5,2.5,0,0,0,2.5-2.5V117.94A2.5,2.5,0,0,0,50.29,115.44ZM47.79,127H33v-6.58H47.79Zm2.5-34.2H30.51a2.5,2.5,0,0,0-2.5,2.5V106.9a2.5,2.5,0,0,0,2.5,2.5H50.29a2.5,2.5,0,0,0,2.5-2.5V95.32A2.5,2.5,0,0,0,50.29,92.82Zm-2.5,11.58H33V97.82H47.79Zm2.5-34.19H30.51a2.5,2.5,0,0,0-2.5,2.5V84.28a2.5,2.5,0,0,0,2.5,2.5H50.29a2.5,2.5,0,0,0,2.5-2.5V72.71A2.5,2.5,0,0,0,50.29,70.21Zm-2.5,11.57H33V75.21H47.79Zm2.5-11.57H30.51a2.5,2.5,0,0,0-2.5,2.5V84.28a2.5,2.5,0,0,0,2.5,2.5H50.29a2.5,2.5,0,0,0,2.5-2.5V72.71A2.5,2.5,0,0,0,50.29,70.21Zm-2.5,11.57H33V75.21H47.79Zm2.5,11H30.51a2.5,2.5,0,0,0-2.5,2.5V106.9a2.5,2.5,0,0,0,2.5,2.5H50.29a2.5,2.5,0,0,0,2.5-2.5V95.32A2.5,2.5,0,0,0,50.29,92.82Zm-2.5,11.58H33V97.82H47.79Zm2.5,11H30.51a2.5,2.5,0,0,0-2.5,2.5v11.58a2.5,2.5,0,0,0,2.5,2.5H50.29a2.5,2.5,0,0,0,2.5-2.5V117.94A2.5,2.5,0,0,0,50.29,115.44ZM47.79,127H33v-6.58H47.79Zm2.5,11H30.51a2.5,2.5,0,0,0-2.5,2.5v11.57a2.5,2.5,0,0,0,2.5,2.5H50.29a2.5,2.5,0,0,0,2.5-2.5V140.56A2.5,2.5,0,0,0,50.29,138.06Zm-2.5,11.57H33v-6.57H47.79ZM80.08,70.21H60.3a2.5,2.5,0,0,0-2.5,2.5V84.28a2.5,2.5,0,0,0,2.5,2.5H80.08a2.5,2.5,0,0,0,2.5-2.5V72.71A2.5,2.5,0,0,0,80.08,70.21Zm-2.5,11.57H62.8V75.21H77.58Zm2.5,11H60.3a2.5,2.5,0,0,0-2.5,2.5V106.9a2.5,2.5,0,0,0,2.5,2.5H80.08a2.5,2.5,0,0,0,2.5-2.5V95.32A2.5,2.5,0,0,0,80.08,92.82Zm-2.5,11.58H62.8V97.82H77.58Zm2.5,11H60.3a2.5,2.5,0,0,0-2.5,2.5v11.58a2.5,2.5,0,0,0,2.5,2.5H80.08a2.5,2.5,0,0,0,2.5-2.5V117.94A2.5,2.5,0,0,0,80.08,115.44ZM77.58,127H62.8v-6.58H77.58Zm2.5,11H60.3a2.5,2.5,0,0,0-2.5,2.5v11.57a2.5,2.5,0,0,0,2.5,2.5H80.08a2.5,2.5,0,0,0,2.5-2.5V140.56A2.5,2.5,0,0,0,80.08,138.06Zm-2.5,11.57H62.8v-6.57H77.58Zm2.5-11.57H60.3a2.5,2.5,0,0,0-2.5,2.5v11.57a2.5,2.5,0,0,0,2.5,2.5H80.08a2.5,2.5,0,0,0,2.5-2.5V140.56A2.5,2.5,0,0,0,80.08,138.06Zm-2.5,11.57H62.8v-6.57H77.58Zm2.5-34.19H60.3a2.5,2.5,0,0,0-2.5,2.5v11.58a2.5,2.5,0,0,0,2.5,2.5H80.08a2.5,2.5,0,0,0,2.5-2.5V117.94A2.5,2.5,0,0,0,80.08,115.44ZM77.58,127H62.8v-6.58H77.58Zm2.5-34.2H60.3a2.5,2.5,0,0,0-2.5,2.5V106.9a2.5,2.5,0,0,0,2.5,2.5H80.08a2.5,2.5,0,0,0,2.5-2.5V95.32A2.5,2.5,0,0,0,80.08,92.82Zm-2.5,11.58H62.8V97.82H77.58Zm2.5-34.19H60.3a2.5,2.5,0,0,0-2.5,2.5V84.28a2.5,2.5,0,0,0,2.5,2.5H80.08a2.5,2.5,0,0,0,2.5-2.5V72.71A2.5,2.5,0,0,0,80.08,70.21Zm-2.5,11.57H62.8V75.21H77.58ZM50.29,138.06H30.51a2.5,2.5,0,0,0-2.5,2.5v11.57a2.5,2.5,0,0,0,2.5,2.5H50.29a2.5,2.5,0,0,0,2.5-2.5V140.56A2.5,2.5,0,0,0,50.29,138.06Zm-2.5,11.57H33v-6.57H47.79Zm2.5-34.19H30.51a2.5,2.5,0,0,0-2.5,2.5v11.58a2.5,2.5,0,0,0,2.5,2.5H50.29a2.5,2.5,0,0,0,2.5-2.5V117.94A2.5,2.5,0,0,0,50.29,115.44ZM47.79,127H33v-6.58H47.79Zm2.5-34.2H30.51a2.5,2.5,0,0,0-2.5,2.5V106.9a2.5,2.5,0,0,0,2.5,2.5H50.29a2.5,2.5,0,0,0,2.5-2.5V95.32A2.5,2.5,0,0,0,50.29,92.82Zm-2.5,11.58H33V97.82H47.79Zm2.5-34.19H30.51a2.5,2.5,0,0,0-2.5,2.5V84.28a2.5,2.5,0,0,0,2.5,2.5H50.29a2.5,2.5,0,0,0,2.5-2.5V72.71A2.5,2.5,0,0,0,50.29,70.21Zm-2.5,11.57H33V75.21H47.79Zm2.5-11.57H30.51a2.5,2.5,0,0,0-2.5,2.5V84.28a2.5,2.5,0,0,0,2.5,2.5H50.29a2.5,2.5,0,0,0,2.5-2.5V72.71A2.5,2.5,0,0,0,50.29,70.21Zm-2.5,11.57H33V75.21H47.79Zm2.5,11H30.51a2.5,2.5,0,0,0-2.5,2.5V106.9a2.5,2.5,0,0,0,2.5,2.5H50.29a2.5,2.5,0,0,0,2.5-2.5V95.32A2.5,2.5,0,0,0,50.29,92.82Zm-2.5,11.58H33V97.82H47.79Zm2.5,11H30.51a2.5,2.5,0,0,0-2.5,2.5v11.58a2.5,2.5,0,0,0,2.5,2.5H50.29a2.5,2.5,0,0,0,2.5-2.5V117.94A2.5,2.5,0,0,0,50.29,115.44ZM47.79,127H33v-6.58H47.79Zm2.5,11H30.51a2.5,2.5,0,0,0-2.5,2.5v11.57a2.5,2.5,0,0,0,2.5,2.5H50.29a2.5,2.5,0,0,0,2.5-2.5V140.56A2.5,2.5,0,0,0,50.29,138.06Zm-2.5,11.57H33v-6.57H47.79ZM80.08,70.21H60.3a2.5,2.5,0,0,0-2.5,2.5V84.28a2.5,2.5,0,0,0,2.5,2.5H80.08a2.5,2.5,0,0,0,2.5-2.5V72.71A2.5,2.5,0,0,0,80.08,70.21Zm-2.5,11.57H62.8V75.21H77.58Zm2.5,11H60.3a2.5,2.5,0,0,0-2.5,2.5V106.9a2.5,2.5,0,0,0,2.5,2.5H80.08a2.5,2.5,0,0,0,2.5-2.5V95.32A2.5,2.5,0,0,0,80.08,92.82Zm-2.5,11.58H62.8V97.82H77.58Zm2.5,11H60.3a2.5,2.5,0,0,0-2.5,2.5v11.58a2.5,2.5,0,0,0,2.5,2.5H80.08a2.5,2.5,0,0,0,2.5-2.5V117.94A2.5,2.5,0,0,0,80.08,115.44ZM77.58,127H62.8v-6.58H77.58Zm2.5,11H60.3a2.5,2.5,0,0,0-2.5,2.5v11.57a2.5,2.5,0,0,0,2.5,2.5H80.08a2.5,2.5,0,0,0,2.5-2.5V140.56A2.5,2.5,0,0,0,80.08,138.06Zm-2.5,11.57H62.8v-6.57H77.58Zm2.5-11.57H60.3a2.5,2.5,0,0,0-2.5,2.5v11.57a2.5,2.5,0,0,0,2.5,2.5H80.08a2.5,2.5,0,0,0,2.5-2.5V140.56A2.5,2.5,0,0,0,80.08,138.06Zm-2.5,11.57H62.8v-6.57H77.58Zm2.5-34.19H60.3a2.5,2.5,0,0,0-2.5,2.5v11.58a2.5,2.5,0,0,0,2.5,2.5H80.08a2.5,2.5,0,0,0,2.5-2.5V117.94A2.5,2.5,0,0,0,80.08,115.44ZM77.58,127H62.8v-6.58H77.58Zm2.5-34.2H60.3a2.5,2.5,0,0,0-2.5,2.5V106.9a2.5,2.5,0,0,0,2.5,2.5H80.08a2.5,2.5,0,0,0,2.5-2.5V95.32A2.5,2.5,0,0,0,80.08,92.82Zm-2.5,11.58H62.8V97.82H77.58Zm2.5-34.19H60.3a2.5,2.5,0,0,0-2.5,2.5V84.28a2.5,2.5,0,0,0,2.5,2.5H80.08a2.5,2.5,0,0,0,2.5-2.5V72.71A2.5,2.5,0,0,0,80.08,70.21Zm-2.5,11.57H62.8V75.21H77.58ZM50.29,138.06H30.51a2.5,2.5,0,0,0-2.5,2.5v11.57a2.5,2.5,0,0,0,2.5,2.5H50.29a2.5,2.5,0,0,0,2.5-2.5V140.56A2.5,2.5,0,0,0,50.29,138.06Zm-2.5,11.57H33v-6.57H47.79Zm2.5-34.19H30.51a2.5,2.5,0,0,0-2.5,2.5v11.58a2.5,2.5,0,0,0,2.5,2.5H50.29a2.5,2.5,0,0,0,2.5-2.5V117.94A2.5,2.5,0,0,0,50.29,115.44ZM47.79,127H33v-6.58H47.79Zm2.5-34.2H30.51a2.5,2.5,0,0,0-2.5,2.5V106.9a2.5,2.5,0,0,0,2.5,2.5H50.29a2.5,2.5,0,0,0,2.5-2.5V95.32A2.5,2.5,0,0,0,50.29,92.82Zm-2.5,11.58H33V97.82H47.79Zm2.5-34.19H30.51a2.5,2.5,0,0,0-2.5,2.5V84.28a2.5,2.5,0,0,0,2.5,2.5H50.29a2.5,2.5,0,0,0,2.5-2.5V72.71A2.5,2.5,0,0,0,50.29,70.21Zm-2.5,11.57H33V75.21H47.79Zm2.5-11.57H30.51a2.5,2.5,0,0,0-2.5,2.5V84.28a2.5,2.5,0,0,0,2.5,2.5H50.29a2.5,2.5,0,0,0,2.5-2.5V72.71A2.5,2.5,0,0,0,50.29,70.21Zm-2.5,11.57H33V75.21H47.79Zm2.5,11H30.51a2.5,2.5,0,0,0-2.5,2.5V106.9a2.5,2.5,0,0,0,2.5,2.5H50.29a2.5,2.5,0,0,0,2.5-2.5V95.32A2.5,2.5,0,0,0,50.29,92.82Zm-2.5,11.58H33V97.82H47.79Zm2.5,11H30.51a2.5,2.5,0,0,0-2.5,2.5v11.58a2.5,2.5,0,0,0,2.5,2.5H50.29a2.5,2.5,0,0,0,2.5-2.5V117.94A2.5,2.5,0,0,0,50.29,115.44ZM47.79,127H33v-6.58H47.79Zm2.5,11H30.51a2.5,2.5,0,0,0-2.5,2.5v11.57a2.5,2.5,0,0,0,2.5,2.5H50.29a2.5,2.5,0,0,0,2.5-2.5V140.56A2.5,2.5,0,0,0,50.29,138.06Zm-2.5,11.57H33v-6.57H47.79ZM80.08,70.21H60.3a2.5,2.5,0,0,0-2.5,2.5V84.28a2.5,2.5,0,0,0,2.5,2.5H80.08a2.5,2.5,0,0,0,2.5-2.5V72.71A2.5,2.5,0,0,0,80.08,70.21Zm-2.5,11.57H62.8V75.21H77.58Zm2.5,11H60.3a2.5,2.5,0,0,0-2.5,2.5V106.9a2.5,2.5,0,0,0,2.5,2.5H80.08a2.5,2.5,0,0,0,2.5-2.5V95.32A2.5,2.5,0,0,0,80.08,92.82Zm-2.5,11.58H62.8V97.82H77.58Zm2.5,11H60.3a2.5,2.5,0,0,0-2.5,2.5v11.58a2.5,2.5,0,0,0,2.5,2.5H80.08a2.5,2.5,0,0,0,2.5-2.5V117.94A2.5,2.5,0,0,0,80.08,115.44ZM77.58,127H62.8v-6.58H77.58Zm2.5,11H60.3a2.5,2.5,0,0,0-2.5,2.5v11.57a2.5,2.5,0,0,0,2.5,2.5H80.08a2.5,2.5,0,0,0,2.5-2.5V140.56A2.5,2.5,0,0,0,80.08,138.06Zm-2.5,11.57H62.8v-6.57H77.58Zm2.5-11.57H60.3a2.5,2.5,0,0,0-2.5,2.5v11.57a2.5,2.5,0,0,0,2.5,2.5H80.08a2.5,2.5,0,0,0,2.5-2.5V140.56A2.5,2.5,0,0,0,80.08,138.06Zm-2.5,11.57H62.8v-6.57H77.58Zm2.5-34.19H60.3a2.5,2.5,0,0,0-2.5,2.5v11.58a2.5,2.5,0,0,0,2.5,2.5H80.08a2.5,2.5,0,0,0,2.5-2.5V117.94A2.5,2.5,0,0,0,80.08,115.44ZM77.58,127H62.8v-6.58H77.58Zm2.5-34.2H60.3a2.5,2.5,0,0,0-2.5,2.5V106.9a2.5,2.5,0,0,0,2.5,2.5H80.08a2.5,2.5,0,0,0,2.5-2.5V95.32A2.5,2.5,0,0,0,80.08,92.82Zm-2.5,11.58H62.8V97.82H77.58Zm2.5-34.19H60.3a2.5,2.5,0,0,0-2.5,2.5V84.28a2.5,2.5,0,0,0,2.5,2.5H80.08a2.5,2.5,0,0,0,2.5-2.5V72.71A2.5,2.5,0,0,0,80.08,70.21Zm-2.5,11.57H62.8V75.21H77.58ZM50.29,138.06H30.51a2.5,2.5,0,0,0-2.5,2.5v11.57a2.5,2.5,0,0,0,2.5,2.5H50.29a2.5,2.5,0,0,0,2.5-2.5V140.56A2.5,2.5,0,0,0,50.29,138.06Zm-2.5,11.57H33v-6.57H47.79Zm2.5-34.19H30.51a2.5,2.5,0,0,0-2.5,2.5v11.58a2.5,2.5,0,0,0,2.5,2.5H50.29a2.5,2.5,0,0,0,2.5-2.5V117.94A2.5,2.5,0,0,0,50.29,115.44ZM47.79,127H33v-6.58H47.79Zm2.5-34.2H30.51a2.5,2.5,0,0,0-2.5,2.5V106.9a2.5,2.5,0,0,0,2.5,2.5H50.29a2.5,2.5,0,0,0,2.5-2.5V95.32A2.5,2.5,0,0,0,50.29,92.82Zm-2.5,11.58H33V97.82H47.79Zm2.5-34.19H30.51a2.5,2.5,0,0,0-2.5,2.5V84.28a2.5,2.5,0,0,0,2.5,2.5H50.29a2.5,2.5,0,0,0,2.5-2.5V72.71A2.5,2.5,0,0,0,50.29,70.21Zm-2.5,11.57H33V75.21H47.79Zm2.5-11.57H30.51a2.5,2.5,0,0,0-2.5,2.5V84.28a2.5,2.5,0,0,0,2.5,2.5H50.29a2.5,2.5,0,0,0,2.5-2.5V72.71A2.5,2.5,0,0,0,50.29,70.21Zm-2.5,11.57H33V75.21H47.79Zm2.5,11H30.51a2.5,2.5,0,0,0-2.5,2.5V106.9a2.5,2.5,0,0,0,2.5,2.5H50.29a2.5,2.5,0,0,0,2.5-2.5V95.32A2.5,2.5,0,0,0,50.29,92.82Zm-2.5,11.58H33V97.82H47.79Zm2.5,11H30.51a2.5,2.5,0,0,0-2.5,2.5v11.58a2.5,2.5,0,0,0,2.5,2.5H50.29a2.5,2.5,0,0,0,2.5-2.5V117.94A2.5,2.5,0,0,0,50.29,115.44ZM47.79,127H33v-6.58H47.79Zm2.5,11H30.51a2.5,2.5,0,0,0-2.5,2.5v11.57a2.5,2.5,0,0,0,2.5,2.5H50.29a2.5,2.5,0,0,0,2.5-2.5V140.56A2.5,2.5,0,0,0,50.29,138.06Zm-2.5,11.57H33v-6.57H47.79ZM80.08,70.21H60.3a2.5,2.5,0,0,0-2.5,2.5V84.28a2.5,2.5,0,0,0,2.5,2.5H80.08a2.5,2.5,0,0,0,2.5-2.5V72.71A2.5,2.5,0,0,0,80.08,70.21Zm-2.5,11.57H62.8V75.21H77.58Zm2.5,11H60.3a2.5,2.5,0,0,0-2.5,2.5V106.9a2.5,2.5,0,0,0,2.5,2.5H80.08a2.5,2.5,0,0,0,2.5-2.5V95.32A2.5,2.5,0,0,0,80.08,92.82Zm-2.5,11.58H62.8V97.82H77.58Zm2.5,11H60.3a2.5,2.5,0,0,0-2.5,2.5v11.58a2.5,2.5,0,0,0,2.5,2.5H80.08a2.5,2.5,0,0,0,2.5-2.5V117.94A2.5,2.5,0,0,0,80.08,115.44ZM77.58,127H62.8v-6.58H77.58Zm2.5,11H60.3a2.5,2.5,0,0,0-2.5,2.5v11.57a2.5,2.5,0,0,0,2.5,2.5H80.08a2.5,2.5,0,0,0,2.5-2.5V140.56A2.5,2.5,0,0,0,80.08,138.06Zm-2.5,11.57H62.8v-6.57H77.58Zm2.5-11.57H60.3a2.5,2.5,0,0,0-2.5,2.5v11.57a2.5,2.5,0,0,0,2.5,2.5H80.08a2.5,2.5,0,0,0,2.5-2.5V140.56A2.5,2.5,0,0,0,80.08,138.06Zm-2.5,11.57H62.8v-6.57H77.58Zm2.5-34.19H60.3a2.5,2.5,0,0,0-2.5,2.5v11.58a2.5,2.5,0,0,0,2.5,2.5H80.08a2.5,2.5,0,0,0,2.5-2.5V117.94A2.5,2.5,0,0,0,80.08,115.44ZM77.58,127H62.8v-6.58H77.58Zm2.5-34.2H60.3a2.5,2.5,0,0,0-2.5,2.5V106.9a2.5,2.5,0,0,0,2.5,2.5H80.08a2.5,2.5,0,0,0,2.5-2.5V95.32A2.5,2.5,0,0,0,80.08,92.82Zm-2.5,11.58H62.8V97.82H77.58Zm2.5-34.19H60.3a2.5,2.5,0,0,0-2.5,2.5V84.28a2.5,2.5,0,0,0,2.5,2.5H80.08a2.5,2.5,0,0,0,2.5-2.5V72.71A2.5,2.5,0,0,0,80.08,70.21Zm-2.5,11.57H62.8V75.21H77.58ZM50.29,138.06H30.51a2.5,2.5,0,0,0-2.5,2.5v11.57a2.5,2.5,0,0,0,2.5,2.5H50.29a2.5,2.5,0,0,0,2.5-2.5V140.56A2.5,2.5,0,0,0,50.29,138.06Zm-2.5,11.57H33v-6.57H47.79Zm2.5-34.19H30.51a2.5,2.5,0,0,0-2.5,2.5v11.58a2.5,2.5,0,0,0,2.5,2.5H50.29a2.5,2.5,0,0,0,2.5-2.5V117.94A2.5,2.5,0,0,0,50.29,115.44ZM47.79,127H33v-6.58H47.79Zm2.5-34.2H30.51a2.5,2.5,0,0,0-2.5,2.5V106.9a2.5,2.5,0,0,0,2.5,2.5H50.29a2.5,2.5,0,0,0,2.5-2.5V95.32A2.5,2.5,0,0,0,50.29,92.82Zm-2.5,11.58H33V97.82H47.79Zm2.5-34.19H30.51a2.5,2.5,0,0,0-2.5,2.5V84.28a2.5,2.5,0,0,0,2.5,2.5H50.29a2.5,2.5,0,0,0,2.5-2.5V72.71A2.5,2.5,0,0,0,50.29,70.21Zm-2.5,11.57H33V75.21H47.79Zm2.5-11.57H30.51a2.5,2.5,0,0,0-2.5,2.5V84.28a2.5,2.5,0,0,0,2.5,2.5H50.29a2.5,2.5,0,0,0,2.5-2.5V72.71A2.5,2.5,0,0,0,50.29,70.21Zm-2.5,11.57H33V75.21H47.79Zm2.5,11H30.51a2.5,2.5,0,0,0-2.5,2.5V106.9a2.5,2.5,0,0,0,2.5,2.5H50.29a2.5,2.5,0,0,0,2.5-2.5V95.32A2.5,2.5,0,0,0,50.29,92.82Zm-2.5,11.58H33V97.82H47.79Zm2.5,11H30.51a2.5,2.5,0,0,0-2.5,2.5v11.58a2.5,2.5,0,0,0,2.5,2.5H50.29a2.5,2.5,0,0,0,2.5-2.5V117.94A2.5,2.5,0,0,0,50.29,115.44ZM47.79,127H33v-6.58H47.79Zm2.5,11H30.51a2.5,2.5,0,0,0-2.5,2.5v11.57a2.5,2.5,0,0,0,2.5,2.5H50.29a2.5,2.5,0,0,0,2.5-2.5V140.56A2.5,2.5,0,0,0,50.29,138.06Zm-2.5,11.57H33v-6.57H47.79ZM80.08,70.21H60.3a2.5,2.5,0,0,0-2.5,2.5V84.28a2.5,2.5,0,0,0,2.5,2.5H80.08a2.5,2.5,0,0,0,2.5-2.5V72.71A2.5,2.5,0,0,0,80.08,70.21Zm-2.5,11.57H62.8V75.21H77.58Zm2.5,11H60.3a2.5,2.5,0,0,0-2.5,2.5V106.9a2.5,2.5,0,0,0,2.5,2.5H80.08a2.5,2.5,0,0,0,2.5-2.5V95.32A2.5,2.5,0,0,0,80.08,92.82Zm-2.5,11.58H62.8V97.82H77.58Zm2.5,11H60.3a2.5,2.5,0,0,0-2.5,2.5v11.58a2.5,2.5,0,0,0,2.5,2.5H80.08a2.5,2.5,0,0,0,2.5-2.5V117.94A2.5,2.5,0,0,0,80.08,115.44ZM77.58,127H62.8v-6.58H77.58Zm2.5,11H60.3a2.5,2.5,0,0,0-2.5,2.5v11.57a2.5,2.5,0,0,0,2.5,2.5H80.08a2.5,2.5,0,0,0,2.5-2.5V140.56A2.5,2.5,0,0,0,80.08,138.06Zm-2.5,11.57H62.8v-6.57H77.58Zm2.5-11.57H60.3a2.5,2.5,0,0,0-2.5,2.5v11.57a2.5,2.5,0,0,0,2.5,2.5H80.08a2.5,2.5,0,0,0,2.5-2.5V140.56A2.5,2.5,0,0,0,80.08,138.06Zm-2.5,11.57H62.8v-6.57H77.58Zm2.5-34.19H60.3a2.5,2.5,0,0,0-2.5,2.5v11.58a2.5,2.5,0,0,0,2.5,2.5H80.08a2.5,2.5,0,0,0,2.5-2.5V117.94A2.5,2.5,0,0,0,80.08,115.44ZM77.58,127H62.8v-6.58H77.58Zm2.5-34.2H60.3a2.5,2.5,0,0,0-2.5,2.5V106.9a2.5,2.5,0,0,0,2.5,2.5H80.08a2.5,2.5,0,0,0,2.5-2.5V95.32A2.5,2.5,0,0,0,80.08,92.82Zm-2.5,11.58H62.8V97.82H77.58Zm2.5-34.19H60.3a2.5,2.5,0,0,0-2.5,2.5V84.28a2.5,2.5,0,0,0,2.5,2.5H80.08a2.5,2.5,0,0,0,2.5-2.5V72.71A2.5,2.5,0,0,0,80.08,70.21Zm-2.5,11.57H62.8V75.21H77.58ZM50.29,138.06H30.51a2.5,2.5,0,0,0-2.5,2.5v11.57a2.5,2.5,0,0,0,2.5,2.5H50.29a2.5,2.5,0,0,0,2.5-2.5V140.56A2.5,2.5,0,0,0,50.29,138.06Zm-2.5,11.57H33v-6.57H47.79Zm2.5-34.19H30.51a2.5,2.5,0,0,0-2.5,2.5v11.58a2.5,2.5,0,0,0,2.5,2.5H50.29a2.5,2.5,0,0,0,2.5-2.5V117.94A2.5,2.5,0,0,0,50.29,115.44ZM47.79,127H33v-6.58H47.79Zm2.5-34.2H30.51a2.5,2.5,0,0,0-2.5,2.5V106.9a2.5,2.5,0,0,0,2.5,2.5H50.29a2.5,2.5,0,0,0,2.5-2.5V95.32A2.5,2.5,0,0,0,50.29,92.82Zm-2.5,11.58H33V97.82H47.79Zm2.5-34.19H30.51a2.5,2.5,0,0,0-2.5,2.5V84.28a2.5,2.5,0,0,0,2.5,2.5H50.29a2.5,2.5,0,0,0,2.5-2.5V72.71A2.5,2.5,0,0,0,50.29,70.21Zm-2.5,11.57H33V75.21H47.79Zm2.5-11.57H30.51a2.5,2.5,0,0,0-2.5,2.5V84.28a2.5,2.5,0,0,0,2.5,2.5H50.29a2.5,2.5,0,0,0,2.5-2.5V72.71A2.5,2.5,0,0,0,50.29,70.21Zm-2.5,11.57H33V75.21H47.79Zm2.5,11H30.51a2.5,2.5,0,0,0-2.5,2.5V106.9a2.5,2.5,0,0,0,2.5,2.5H50.29a2.5,2.5,0,0,0,2.5-2.5V95.32A2.5,2.5,0,0,0,50.29,92.82Zm-2.5,11.58H33V97.82H47.79Zm2.5,11H30.51a2.5,2.5,0,0,0-2.5,2.5v11.58a2.5,2.5,0,0,0,2.5,2.5H50.29a2.5,2.5,0,0,0,2.5-2.5V117.94A2.5,2.5,0,0,0,50.29,115.44ZM47.79,127H33v-6.58H47.79Zm2.5,11H30.51a2.5,2.5,0,0,0-2.5,2.5v11.57a2.5,2.5,0,0,0,2.5,2.5H50.29a2.5,2.5,0,0,0,2.5-2.5V140.56A2.5,2.5,0,0,0,50.29,138.06Zm-2.5,11.57H33v-6.57H47.79ZM80.08,70.21H60.3a2.5,2.5,0,0,0-2.5,2.5V84.28a2.5,2.5,0,0,0,2.5,2.5H80.08a2.5,2.5,0,0,0,2.5-2.5V72.71A2.5,2.5,0,0,0,80.08,70.21Zm-2.5,11.57H62.8V75.21H77.58Zm2.5,11H60.3a2.5,2.5,0,0,0-2.5,2.5V106.9a2.5,2.5,0,0,0,2.5,2.5H80.08a2.5,2.5,0,0,0,2.5-2.5V95.32A2.5,2.5,0,0,0,80.08,92.82Zm-2.5,11.58H62.8V97.82H77.58Zm2.5,11H60.3a2.5,2.5,0,0,0-2.5,2.5v11.58a2.5,2.5,0,0,0,2.5,2.5H80.08a2.5,2.5,0,0,0,2.5-2.5V117.94A2.5,2.5,0,0,0,80.08,115.44ZM77.58,127H62.8v-6.58H77.58Zm2.5,11H60.3a2.5,2.5,0,0,0-2.5,2.5v11.57a2.5,2.5,0,0,0,2.5,2.5H80.08a2.5,2.5,0,0,0,2.5-2.5V140.56A2.5,2.5,0,0,0,80.08,138.06Zm-2.5,11.57H62.8v-6.57H77.58Zm2.5-11.57H60.3a2.5,2.5,0,0,0-2.5,2.5v11.57a2.5,2.5,0,0,0,2.5,2.5H80.08a2.5,2.5,0,0,0,2.5-2.5V140.56A2.5,2.5,0,0,0,80.08,138.06Zm-2.5,11.57H62.8v-6.57H77.58Zm2.5-34.19H60.3a2.5,2.5,0,0,0-2.5,2.5v11.58a2.5,2.5,0,0,0,2.5,2.5H80.08a2.5,2.5,0,0,0,2.5-2.5V117.94A2.5,2.5,0,0,0,80.08,115.44ZM77.58,127H62.8v-6.58H77.58Zm2.5-34.2H60.3a2.5,2.5,0,0,0-2.5,2.5V106.9a2.5,2.5,0,0,0,2.5,2.5H80.08a2.5,2.5,0,0,0,2.5-2.5V95.32A2.5,2.5,0,0,0,80.08,92.82Zm-2.5,11.58H62.8V97.82H77.58Zm2.5-34.19H60.3a2.5,2.5,0,0,0-2.5,2.5V84.28a2.5,2.5,0,0,0,2.5,2.5H80.08a2.5,2.5,0,0,0,2.5-2.5V72.71A2.5,2.5,0,0,0,80.08,70.21Zm-2.5,11.57H62.8V75.21H77.58ZM50.29,138.06H30.51a2.5,2.5,0,0,0-2.5,2.5v11.57a2.5,2.5,0,0,0,2.5,2.5H50.29a2.5,2.5,0,0,0,2.5-2.5V140.56A2.5,2.5,0,0,0,50.29,138.06Zm-2.5,11.57H33v-6.57H47.79Zm2.5-34.19H30.51a2.5,2.5,0,0,0-2.5,2.5v11.58a2.5,2.5,0,0,0,2.5,2.5H50.29a2.5,2.5,0,0,0,2.5-2.5V117.94A2.5,2.5,0,0,0,50.29,115.44ZM47.79,127H33v-6.58H47.79Zm2.5-34.2H30.51a2.5,2.5,0,0,0-2.5,2.5V106.9a2.5,2.5,0,0,0,2.5,2.5H50.29a2.5,2.5,0,0,0,2.5-2.5V95.32A2.5,2.5,0,0,0,50.29,92.82Zm-2.5,11.58H33V97.82H47.79Zm2.5-34.19H30.51a2.5,2.5,0,0,0-2.5,2.5V84.28a2.5,2.5,0,0,0,2.5,2.5H50.29a2.5,2.5,0,0,0,2.5-2.5V72.71A2.5,2.5,0,0,0,50.29,70.21Zm-2.5,11.57H33V75.21H47.79ZM158.21,102V2.5a2.5,2.5,0,0,0-2.5-2.5h-98a2.49,2.49,0,0,0-2.5,2.5V58.4H20.29a2.5,2.5,0,0,0-2.5,2.5V173.38a2.5,2.5,0,0,0,2.5,2.5h70l17.66,0,.58-5-15.74,0V60.9a2.49,2.49,0,0,0-2.5-2.5H60.21V5h93v95.34Z" transform="translate(-17.79)"/><path class="cls-2" d="M168.52,126.37a20,20,0,0,1-10.31,17.49,20.26,20.26,0,0,1-9.67,2.49,19.83,19.83,0,0,1-7.33-1.39,20,20,0,0,1-11.89-13.13,20,20,0,0,1,1.88-15.39,20,20,0,0,1,17.34-10,20.26,20.26,0,0,1,9.67,2.49A20,20,0,0,1,168.52,126.37Z" transform="translate(-17.79)"/><path class="cls-3" d="M168.52,154.33h1.41a12,12,0,0,1,11.89,10.5l1.56,12.49a8,8,0,0,1-7.93,9H121.63a8,8,0,0,1-7.93-7,7.72,7.72,0,0,1,0-2l.38-3,1.18-9.47a12,12,0,0,1,11.39-10.49h1.91" transform="translate(-17.79)"/></svg>