<?xml version="1.0" encoding="utf-8"?>
<!-- Generator: Adobe Illustrator 26.0.2, SVG Export Plug-In . SVG Version: 6.00 Build 0)  -->
<svg version="1.1" id="Capa_1" xmlns="http://www.w3.org/2000/svg" xmlns:xlink="http://www.w3.org/1999/xlink" x="0px" y="0px"
	 viewBox="0 0 248.6 192.1" style="enable-background:new 0 0 248.6 192.1;" xml:space="preserve">
<style type="text/css">
	.st0{fill:#000002;}
	.st1{fill:none;stroke:#000000;stroke-width:5;}
	.st2{fill:none;stroke:#000000;stroke-width:5;stroke-linecap:round;stroke-linejoin:round;}
</style>
<path class="st0" d="M83.6,13.4H74c-1.4,0-2.5,1.1-2.5,2.5v10.4c0,1.4,1.1,2.5,2.5,2.5h9.6c1.4,0,2.5-1.1,2.5-2.5V15.9
	C86.1,14.5,84.9,13.4,83.6,13.4z M81.1,23.8h-4.6v-5.4h4.6V23.8z M111.1,13.4h-9.6c-1.4,0-2.5,1.1-2.5,2.5v10.4
	c0,1.4,1.1,2.5,2.5,2.5h9.6c1.4,0,2.5-1.1,2.5-2.5V15.9C113.6,14.5,112.5,13.4,111.1,13.4z M108.6,23.8h-4.6v-5.4h4.6V23.8z
	 M138.7,13.4h-9.6c-1.4,0-2.5,1.1-2.5,2.5v10.4c0,1.4,1.1,2.5,2.5,2.5h9.6c1.4,0,2.5-1.1,2.5-2.5V15.9
	C141.2,14.5,140.1,13.4,138.7,13.4z M136.2,23.8h-4.6v-5.4h4.6V23.8z M83.6,38.3H74c-1.4,0-2.5,1.1-2.5,2.5v10.4
	c0,1.4,1.1,2.5,2.5,2.5h9.6c1.4,0,2.5-1.1,2.5-2.5V40.8C86.1,39.4,84.9,38.3,83.6,38.3z M81.1,48.7h-4.6v-5.4h4.6V48.7z M111.1,38.3
	h-9.6c-1.4,0-2.5,1.1-2.5,2.5v10.4c0,1.4,1.1,2.5,2.5,2.5h9.6c1.4,0,2.5-1.1,2.5-2.5V40.8C113.6,39.4,112.5,38.3,111.1,38.3z
	 M108.6,48.7h-4.6v-5.4h4.6V48.7z M138.7,38.3h-9.6c-1.4,0-2.5,1.1-2.5,2.5v10.4c0,1.4,1.1,2.5,2.5,2.5h9.6c1.4,0,2.5-1.1,2.5-2.5
	V40.8C141.2,39.4,140.1,38.3,138.7,38.3z M136.2,48.7h-4.6v-5.4h4.6V48.7z M111.1,63.2h-9.6c-1.4,0-2.5,1.1-2.5,2.5v10.4
	c0,1.4,1.1,2.5,2.5,2.5h9.6c1.4,0,2.5-1.1,2.5-2.5V65.7C113.6,64.3,112.5,63.2,111.1,63.2z M108.6,73.6h-4.6v-5.4h4.6V73.6z
	 M138.7,63.2h-9.6c-1.4,0-2.5,1.1-2.5,2.5v10.4c0,1.4,1.1,2.5,2.5,2.5h9.6c1.4,0,2.5-1.1,2.5-2.5V65.7
	C141.2,64.3,140.1,63.2,138.7,63.2z M136.2,73.6h-4.6v-5.4h4.6V73.6z M50.3,70.2H30.5c-1.4,0-2.5,1.1-2.5,2.5v11.6
	c0,1.4,1.1,2.5,2.5,2.5h19.8c1.4,0,2.5-1.1,2.5-2.5V72.7C52.8,71.3,51.7,70.2,50.3,70.2z M47.8,81.8H33v-6.6h14.8V81.8z M80.1,70.2
	H60.3c-1.4,0-2.5,1.1-2.5,2.5v11.6c0,1.4,1.1,2.5,2.5,2.5h19.8c1.4,0,2.5-1.1,2.5-2.5V72.7C82.6,71.3,81.5,70.2,80.1,70.2z
	 M77.6,81.8H62.8v-6.6h14.8V81.8z M111.1,88.1h-9.6c-1.4,0-2.5,1.1-2.5,2.5V101c0,1.4,1.1,2.5,2.5,2.5h9.6c1.4,0,2.5-1.1,2.5-2.5
	V90.6C113.6,89.3,112.5,88.1,111.1,88.1z M108.6,98.5h-4.6v-5.4h4.6V98.5z M138.7,88.1h-9.6c-1.4,0-2.5,1.1-2.5,2.5V101
	c0,1.4,1.1,2.5,2.5,2.5h9.6c1.4,0,2.5-1.1,2.5-2.5c0,0,0,0,0,0V90.6C141.2,89.3,140.1,88.1,138.7,88.1z M136.2,98.5h-4.6v-5.4h4.6
	V98.5z M50.3,92.8H30.5c-1.4,0-2.5,1.1-2.5,2.5v11.6c0,1.4,1.1,2.5,2.5,2.5h19.8c1.4,0,2.5-1.1,2.5-2.5V95.3
	C52.8,93.9,51.7,92.8,50.3,92.8z M47.8,104.4H33v-6.6h14.8V104.4z M80.1,92.8H60.3c-1.4,0-2.5,1.1-2.5,2.5v11.6
	c0,1.4,1.1,2.5,2.5,2.5h19.8c1.4,0,2.5-1.1,2.5-2.5V95.3C82.6,93.9,81.5,92.8,80.1,92.8z M77.6,104.4H62.8v-6.6h14.8V104.4z
	 M111.1,113h-9.6c-1.4,0-2.5,1.1-2.5,2.5v10.4c0,1.4,1.1,2.5,2.5,2.5h9.6c1.4,0,2.5-1.1,2.5-2.5v-10.4
	C113.6,114.2,112.5,113,111.1,113z M108.6,123.4h-4.6V118h4.6V123.4z M50.3,115.4H30.5c-1.4,0-2.5,1.1-2.5,2.5v11.6
	c0,1.4,1.1,2.5,2.5,2.5h19.8c1.4,0,2.5-1.1,2.5-2.5v-11.6C52.8,116.6,51.7,115.4,50.3,115.4z M47.8,127H33v-6.6h14.8V127z
	 M80.1,115.4H60.3c-1.4,0-2.5,1.1-2.5,2.5v11.6c0,1.4,1.1,2.5,2.5,2.5h19.8c1.4,0,2.5-1.1,2.5-2.5v-11.6
	C82.6,116.6,81.5,115.4,80.1,115.4z M77.6,127H62.8v-6.6h14.8V127z M111.1,138h-9.6c-1.4,0-2.5,1.1-2.5,2.5v10.4
	c0,1.4,1.1,2.5,2.5,2.5h9.6c1.4,0,2.5-1.1,2.5-2.5v-10.4C113.6,139.1,112.5,138,111.1,138z M108.6,148.3h-4.6V143h4.6V148.3z
	 M50.3,138.1H30.5c-1.4,0-2.5,1.1-2.5,2.5v11.6c0,1.4,1.1,2.5,2.5,2.5h19.8c1.4,0,2.5-1.1,2.5-2.5v-11.6
	C52.8,139.2,51.7,138.1,50.3,138.1z M47.8,149.6H33v-6.6h14.8V149.6z M80.1,138.1H60.3c-1.4,0-2.5,1.1-2.5,2.5v11.6
	c0,1.4,1.1,2.5,2.5,2.5h19.8c1.4,0,2.5-1.1,2.5-2.5v-11.6C82.6,139.2,81.5,138.1,80.1,138.1z M77.6,149.6H62.8v-6.6h14.8V149.6z
	 M80.1,138.1H60.3c-1.4,0-2.5,1.1-2.5,2.5v11.6c0,1.4,1.1,2.5,2.5,2.5h19.8c1.4,0,2.5-1.1,2.5-2.5v-11.6
	C82.6,139.2,81.5,138.1,80.1,138.1z M77.6,149.6H62.8v-6.6h14.8V149.6z M80.1,115.4H60.3c-1.4,0-2.5,1.1-2.5,2.5v11.6
	c0,1.4,1.1,2.5,2.5,2.5h19.8c1.4,0,2.5-1.1,2.5-2.5v-11.6C82.6,116.6,81.5,115.4,80.1,115.4z M77.6,127H62.8v-6.6h14.8V127z
	 M80.1,92.8H60.3c-1.4,0-2.5,1.1-2.5,2.5v11.6c0,1.4,1.1,2.5,2.5,2.5h19.8c1.4,0,2.5-1.1,2.5-2.5V95.3
	C82.6,93.9,81.5,92.8,80.1,92.8z M77.6,104.4H62.8v-6.6h14.8V104.4z M80.1,70.2H60.3c-1.4,0-2.5,1.1-2.5,2.5v11.6
	c0,1.4,1.1,2.5,2.5,2.5h19.8c1.4,0,2.5-1.1,2.5-2.5V72.7C82.6,71.3,81.5,70.2,80.1,70.2z M77.6,81.8H62.8v-6.6h14.8V81.8z
	 M50.3,138.1H30.5c-1.4,0-2.5,1.1-2.5,2.5v11.6c0,1.4,1.1,2.5,2.5,2.5h19.8c1.4,0,2.5-1.1,2.5-2.5v-11.6
	C52.8,139.2,51.7,138.1,50.3,138.1z M47.8,149.6H33v-6.6h14.8V149.6z M50.3,115.4H30.5c-1.4,0-2.5,1.1-2.5,2.5v11.6
	c0,1.4,1.1,2.5,2.5,2.5h19.8c1.4,0,2.5-1.1,2.5-2.5v-11.6C52.8,116.6,51.7,115.4,50.3,115.4z M47.8,127H33v-6.6h14.8V127z
	 M50.3,92.8H30.5c-1.4,0-2.5,1.1-2.5,2.5v11.6c0,1.4,1.1,2.5,2.5,2.5h19.8c1.4,0,2.5-1.1,2.5-2.5V95.3
	C52.8,93.9,51.7,92.8,50.3,92.8z M47.8,104.4H33v-6.6h14.8V104.4z M50.3,70.2H30.5c-1.4,0-2.5,1.1-2.5,2.5v11.6
	c0,1.4,1.1,2.5,2.5,2.5h19.8c1.4,0,2.5-1.1,2.5-2.5V72.7C52.8,71.3,51.7,70.2,50.3,70.2z M47.8,81.8H33v-6.6h14.8V81.8z M138.7,88.1
	h-9.6c-1.4,0-2.5,1.1-2.5,2.5V101c0,1.4,1.1,2.5,2.5,2.5h9.6c1.4,0,2.5-1.1,2.5-2.5c0,0,0,0,0,0V90.6
	C141.2,89.3,140.1,88.1,138.7,88.1z M136.2,98.5h-4.6v-5.4h4.6V98.5z M138.7,63.2h-9.6c-1.4,0-2.5,1.1-2.5,2.5v10.4
	c0,1.4,1.1,2.5,2.5,2.5h9.6c1.4,0,2.5-1.1,2.5-2.5V65.7C141.2,64.3,140.1,63.2,138.7,63.2z M136.2,73.6h-4.6v-5.4h4.6V73.6z
	 M138.7,38.3h-9.6c-1.4,0-2.5,1.1-2.5,2.5v10.4c0,1.4,1.1,2.5,2.5,2.5h9.6c1.4,0,2.5-1.1,2.5-2.5V40.8
	C141.2,39.4,140.1,38.3,138.7,38.3z M136.2,48.7h-4.6v-5.4h4.6V48.7z M138.7,13.4h-9.6c-1.4,0-2.5,1.1-2.5,2.5v10.4
	c0,1.4,1.1,2.5,2.5,2.5h9.6c1.4,0,2.5-1.1,2.5-2.5V15.9C141.2,14.5,140.1,13.4,138.7,13.4z M136.2,23.8h-4.6v-5.4h4.6V23.8z
	 M111.1,138h-9.6c-1.4,0-2.5,1.1-2.5,2.5v10.4c0,1.4,1.1,2.5,2.5,2.5h9.6c1.4,0,2.5-1.1,2.5-2.5v-10.4
	C113.6,139.1,112.5,138,111.1,138z M108.6,148.3h-4.6V143h4.6V148.3z M111.1,113h-9.6c-1.4,0-2.5,1.1-2.5,2.5v10.4
	c0,1.4,1.1,2.5,2.5,2.5h9.6c1.4,0,2.5-1.1,2.5-2.5v-10.4C113.6,114.2,112.5,113,111.1,113z M108.6,123.4h-4.6V118h4.6V123.4z
	 M111.1,88.1h-9.6c-1.4,0-2.5,1.1-2.5,2.5V101c0,1.4,1.1,2.5,2.5,2.5h9.6c1.4,0,2.5-1.1,2.5-2.5V90.6
	C113.6,89.3,112.5,88.1,111.1,88.1z M108.6,98.5h-4.6v-5.4h4.6V98.5z M111.1,63.2h-9.6c-1.4,0-2.5,1.1-2.5,2.5v10.4
	c0,1.4,1.1,2.5,2.5,2.5h9.6c1.4,0,2.5-1.1,2.5-2.5V65.7C113.6,64.3,112.5,63.2,111.1,63.2z M108.6,73.6h-4.6v-5.4h4.6V73.6z
	 M111.1,38.3h-9.6c-1.4,0-2.5,1.1-2.5,2.5v10.4c0,1.4,1.1,2.5,2.5,2.5h9.6c1.4,0,2.5-1.1,2.5-2.5V40.8
	C113.6,39.4,112.5,38.3,111.1,38.3z M108.6,48.7h-4.6v-5.4h4.6V48.7z M111.1,13.4h-9.6c-1.4,0-2.5,1.1-2.5,2.5v10.4
	c0,1.4,1.1,2.5,2.5,2.5h9.6c1.4,0,2.5-1.1,2.5-2.5V15.9C113.6,14.5,112.5,13.4,111.1,13.4z M108.6,23.8h-4.6v-5.4h4.6V23.8z
	 M83.6,38.3H74c-1.4,0-2.5,1.1-2.5,2.5v10.4c0,1.4,1.1,2.5,2.5,2.5h9.6c1.4,0,2.5-1.1,2.5-2.5V40.8C86.1,39.4,84.9,38.3,83.6,38.3z
	 M81.1,48.7h-4.6v-5.4h4.6V48.7z M83.6,13.4H74c-1.4,0-2.5,1.1-2.5,2.5v10.4c0,1.4,1.1,2.5,2.5,2.5h9.6c1.4,0,2.5-1.1,2.5-2.5V15.9
	C86.1,14.5,84.9,13.4,83.6,13.4z M81.1,23.8h-4.6v-5.4h4.6V23.8z M50.3,70.2H30.5c-1.4,0-2.5,1.1-2.5,2.5v11.6
	c0,1.4,1.1,2.5,2.5,2.5h19.8c1.4,0,2.5-1.1,2.5-2.5V72.7C52.8,71.3,51.7,70.2,50.3,70.2z M47.8,81.8H33v-6.6h14.8V81.8z M50.3,92.8
	H30.5c-1.4,0-2.5,1.1-2.5,2.5v11.6c0,1.4,1.1,2.5,2.5,2.5h19.8c1.4,0,2.5-1.1,2.5-2.5V95.3C52.8,93.9,51.7,92.8,50.3,92.8z
	 M47.8,104.4H33v-6.6h14.8V104.4z M50.3,115.4H30.5c-1.4,0-2.5,1.1-2.5,2.5v11.6c0,1.4,1.1,2.5,2.5,2.5h19.8c1.4,0,2.5-1.1,2.5-2.5
	v-11.6C52.8,116.6,51.7,115.4,50.3,115.4z M47.8,127H33v-6.6h14.8V127z M50.3,138.1H30.5c-1.4,0-2.5,1.1-2.5,2.5v11.6
	c0,1.4,1.1,2.5,2.5,2.5h19.8c1.4,0,2.5-1.1,2.5-2.5v-11.6C52.8,139.2,51.7,138.1,50.3,138.1z M47.8,149.6H33v-6.6h14.8V149.6z
	 M80.1,70.2H60.3c-1.4,0-2.5,1.1-2.5,2.5v11.6c0,1.4,1.1,2.5,2.5,2.5h19.8c1.4,0,2.5-1.1,2.5-2.5V72.7
	C82.6,71.3,81.5,70.2,80.1,70.2z M77.6,81.8H62.8v-6.6h14.8V81.8z M80.1,92.8H60.3c-1.4,0-2.5,1.1-2.5,2.5v11.6
	c0,1.4,1.1,2.5,2.5,2.5h19.8c1.4,0,2.5-1.1,2.5-2.5V95.3C82.6,93.9,81.5,92.8,80.1,92.8z M77.6,104.4H62.8v-6.6h14.8V104.4z
	 M80.1,115.4H60.3c-1.4,0-2.5,1.1-2.5,2.5v11.6c0,1.4,1.1,2.5,2.5,2.5h19.8c1.4,0,2.5-1.1,2.5-2.5v-11.6
	C82.6,116.6,81.5,115.4,80.1,115.4z M77.6,127H62.8v-6.6h14.8V127z M80.1,138.1H60.3c-1.4,0-2.5,1.1-2.5,2.5v11.6
	c0,1.4,1.1,2.5,2.5,2.5h19.8c1.4,0,2.5-1.1,2.5-2.5v-11.6C82.6,139.2,81.5,138.1,80.1,138.1z M77.6,149.6H62.8v-6.6h14.8V149.6z
	 M83.6,13.4H74c-1.4,0-2.5,1.1-2.5,2.5v10.4c0,1.4,1.1,2.5,2.5,2.5h9.6c1.4,0,2.5-1.1,2.5-2.5V15.9C86.1,14.5,84.9,13.4,83.6,13.4z
	 M81.1,23.8h-4.6v-5.4h4.6V23.8z M83.6,38.3H74c-1.4,0-2.5,1.1-2.5,2.5v10.4c0,1.4,1.1,2.5,2.5,2.5h9.6c1.4,0,2.5-1.1,2.5-2.5V40.8
	C86.1,39.4,84.9,38.3,83.6,38.3z M81.1,48.7h-4.6v-5.4h4.6V48.7z M111.1,13.4h-9.6c-1.4,0-2.5,1.1-2.5,2.5v10.4
	c0,1.4,1.1,2.5,2.5,2.5h9.6c1.4,0,2.5-1.1,2.5-2.5V15.9C113.6,14.5,112.5,13.4,111.1,13.4z M108.6,23.8h-4.6v-5.4h4.6V23.8z
	 M111.1,38.3h-9.6c-1.4,0-2.5,1.1-2.5,2.5v10.4c0,1.4,1.1,2.5,2.5,2.5h9.6c1.4,0,2.5-1.1,2.5-2.5V40.8
	C113.6,39.4,112.5,38.3,111.1,38.3z M108.6,48.7h-4.6v-5.4h4.6V48.7z M111.1,63.2h-9.6c-1.4,0-2.5,1.1-2.5,2.5v10.4
	c0,1.4,1.1,2.5,2.5,2.5h9.6c1.4,0,2.5-1.1,2.5-2.5V65.7C113.6,64.3,112.5,63.2,111.1,63.2z M108.6,73.6h-4.6v-5.4h4.6V73.6z
	 M111.1,88.1h-9.6c-1.4,0-2.5,1.1-2.5,2.5V101c0,1.4,1.1,2.5,2.5,2.5h9.6c1.4,0,2.5-1.1,2.5-2.5V90.6
	C113.6,89.3,112.5,88.1,111.1,88.1z M108.6,98.5h-4.6v-5.4h4.6V98.5z M111.1,113h-9.6c-1.4,0-2.5,1.1-2.5,2.5v10.4
	c0,1.4,1.1,2.5,2.5,2.5h9.6c1.4,0,2.5-1.1,2.5-2.5v-10.4C113.6,114.2,112.5,113,111.1,113z M108.6,123.4h-4.6V118h4.6V123.4z
	 M111.1,138h-9.6c-1.4,0-2.5,1.1-2.5,2.5v10.4c0,1.4,1.1,2.5,2.5,2.5h9.6c1.4,0,2.5-1.1,2.5-2.5v-10.4
	C113.6,139.1,112.5,138,111.1,138z M108.6,148.3h-4.6V143h4.6V148.3z M138.7,13.4h-9.6c-1.4,0-2.5,1.1-2.5,2.5v10.4
	c0,1.4,1.1,2.5,2.5,2.5h9.6c1.4,0,2.5-1.1,2.5-2.5V15.9C141.2,14.5,140.1,13.4,138.7,13.4z M136.2,23.8h-4.6v-5.4h4.6V23.8z
	 M138.7,38.3h-9.6c-1.4,0-2.5,1.1-2.5,2.5v10.4c0,1.4,1.1,2.5,2.5,2.5h9.6c1.4,0,2.5-1.1,2.5-2.5V40.8
	C141.2,39.4,140.1,38.3,138.7,38.3z M136.2,48.7h-4.6v-5.4h4.6V48.7z M138.7,63.2h-9.6c-1.4,0-2.5,1.1-2.5,2.5v10.4
	c0,1.4,1.1,2.5,2.5,2.5h9.6c1.4,0,2.5-1.1,2.5-2.5V65.7C141.2,64.3,140.1,63.2,138.7,63.2z M136.2,73.6h-4.6v-5.4h4.6V73.6z
	 M138.7,88.1h-9.6c-1.4,0-2.5,1.1-2.5,2.5V101c0,1.4,1.1,2.5,2.5,2.5h9.6c1.4,0,2.5-1.1,2.5-2.5c0,0,0,0,0,0V90.6
	C141.2,89.3,140.1,88.1,138.7,88.1z M136.2,98.5h-4.6v-5.4h4.6V98.5z M80.1,138.1H60.3c-1.4,0-2.5,1.1-2.5,2.5v11.6
	c0,1.4,1.1,2.5,2.5,2.5h19.8c1.4,0,2.5-1.1,2.5-2.5v-11.6C82.6,139.2,81.5,138.1,80.1,138.1z M77.6,149.6H62.8v-6.6h14.8V149.6z
	 M80.1,115.4H60.3c-1.4,0-2.5,1.1-2.5,2.5v11.6c0,1.4,1.1,2.5,2.5,2.5h19.8c1.4,0,2.5-1.1,2.5-2.5v-11.6
	C82.6,116.6,81.5,115.4,80.1,115.4z M77.6,127H62.8v-6.6h14.8V127z M80.1,92.8H60.3c-1.4,0-2.5,1.1-2.5,2.5v11.6
	c0,1.4,1.1,2.5,2.5,2.5h19.8c1.4,0,2.5-1.1,2.5-2.5V95.3C82.6,93.9,81.5,92.8,80.1,92.8z M77.6,104.4H62.8v-6.6h14.8V104.4z
	 M80.1,70.2H60.3c-1.4,0-2.5,1.1-2.5,2.5v11.6c0,1.4,1.1,2.5,2.5,2.5h19.8c1.4,0,2.5-1.1,2.5-2.5V72.7
	C82.6,71.3,81.5,70.2,80.1,70.2z M77.6,81.8H62.8v-6.6h14.8V81.8z M50.3,138.1H30.5c-1.4,0-2.5,1.1-2.5,2.5v11.6
	c0,1.4,1.1,2.5,2.5,2.5h19.8c1.4,0,2.5-1.1,2.5-2.5v-11.6C52.8,139.2,51.7,138.1,50.3,138.1z M47.8,149.6H33v-6.6h14.8V149.6z
	 M50.3,115.4H30.5c-1.4,0-2.5,1.1-2.5,2.5v11.6c0,1.4,1.1,2.5,2.5,2.5h19.8c1.4,0,2.5-1.1,2.5-2.5v-11.6
	C52.8,116.6,51.7,115.4,50.3,115.4z M47.8,127H33v-6.6h14.8V127z M50.3,92.8H30.5c-1.4,0-2.5,1.1-2.5,2.5v11.6
	c0,1.4,1.1,2.5,2.5,2.5h19.8c1.4,0,2.5-1.1,2.5-2.5V95.3C52.8,93.9,51.7,92.8,50.3,92.8z M47.8,104.4H33v-6.6h14.8V104.4z
	 M50.3,70.2H30.5c-1.4,0-2.5,1.1-2.5,2.5v11.6c0,1.4,1.1,2.5,2.5,2.5h19.8c1.4,0,2.5-1.1,2.5-2.5V72.7
	C52.8,71.3,51.7,70.2,50.3,70.2z M47.8,81.8H33v-6.6h14.8V81.8z M50.3,70.2H30.5c-1.4,0-2.5,1.1-2.5,2.5v11.6c0,1.4,1.1,2.5,2.5,2.5
	h19.8c1.4,0,2.5-1.1,2.5-2.5V72.7C52.8,71.3,51.7,70.2,50.3,70.2z M47.8,81.8H33v-6.6h14.8V81.8z M50.3,92.8H30.5
	c-1.4,0-2.5,1.1-2.5,2.5v11.6c0,1.4,1.1,2.5,2.5,2.5h19.8c1.4,0,2.5-1.1,2.5-2.5V95.3C52.8,93.9,51.7,92.8,50.3,92.8z M47.8,104.4
	H33v-6.6h14.8V104.4z M50.3,115.4H30.5c-1.4,0-2.5,1.1-2.5,2.5v11.6c0,1.4,1.1,2.5,2.5,2.5h19.8c1.4,0,2.5-1.1,2.5-2.5v-11.6
	C52.8,116.6,51.7,115.4,50.3,115.4z M47.8,127H33v-6.6h14.8V127z M50.3,138.1H30.5c-1.4,0-2.5,1.1-2.5,2.5v11.6
	c0,1.4,1.1,2.5,2.5,2.5h19.8c1.4,0,2.5-1.1,2.5-2.5v-11.6C52.8,139.2,51.7,138.1,50.3,138.1z M47.8,149.6H33v-6.6h14.8V149.6z
	 M80.1,70.2H60.3c-1.4,0-2.5,1.1-2.5,2.5v11.6c0,1.4,1.1,2.5,2.5,2.5h19.8c1.4,0,2.5-1.1,2.5-2.5V72.7
	C82.6,71.3,81.5,70.2,80.1,70.2z M77.6,81.8H62.8v-6.6h14.8V81.8z M80.1,92.8H60.3c-1.4,0-2.5,1.1-2.5,2.5v11.6
	c0,1.4,1.1,2.5,2.5,2.5h19.8c1.4,0,2.5-1.1,2.5-2.5V95.3C82.6,93.9,81.5,92.8,80.1,92.8z M77.6,104.4H62.8v-6.6h14.8V104.4z
	 M80.1,115.4H60.3c-1.4,0-2.5,1.1-2.5,2.5v11.6c0,1.4,1.1,2.5,2.5,2.5h19.8c1.4,0,2.5-1.1,2.5-2.5v-11.6
	C82.6,116.6,81.5,115.4,80.1,115.4z M77.6,127H62.8v-6.6h14.8V127z M80.1,138.1H60.3c-1.4,0-2.5,1.1-2.5,2.5v11.6
	c0,1.4,1.1,2.5,2.5,2.5h19.8c1.4,0,2.5-1.1,2.5-2.5v-11.6C82.6,139.2,81.5,138.1,80.1,138.1z M77.6,149.6H62.8v-6.6h14.8V149.6z
	 M80.1,138.1H60.3c-1.4,0-2.5,1.1-2.5,2.5v11.6c0,1.4,1.1,2.5,2.5,2.5h19.8c1.4,0,2.5-1.1,2.5-2.5v-11.6
	C82.6,139.2,81.5,138.1,80.1,138.1z M77.6,149.6H62.8v-6.6h14.8V149.6z M80.1,115.4H60.3c-1.4,0-2.5,1.1-2.5,2.5v11.6
	c0,1.4,1.1,2.5,2.5,2.5h19.8c1.4,0,2.5-1.1,2.5-2.5v-11.6C82.6,116.6,81.5,115.4,80.1,115.4z M77.6,127H62.8v-6.6h14.8V127z
	 M80.1,92.8H60.3c-1.4,0-2.5,1.1-2.5,2.5v11.6c0,1.4,1.1,2.5,2.5,2.5h19.8c1.4,0,2.5-1.1,2.5-2.5V95.3
	C82.6,93.9,81.5,92.8,80.1,92.8z M77.6,104.4H62.8v-6.6h14.8V104.4z M80.1,70.2H60.3c-1.4,0-2.5,1.1-2.5,2.5v11.6
	c0,1.4,1.1,2.5,2.5,2.5h19.8c1.4,0,2.5-1.1,2.5-2.5V72.7C82.6,71.3,81.5,70.2,80.1,70.2z M77.6,81.8H62.8v-6.6h14.8V81.8z
	 M50.3,138.1H30.5c-1.4,0-2.5,1.1-2.5,2.5v11.6c0,1.4,1.1,2.5,2.5,2.5h19.8c1.4,0,2.5-1.1,2.5-2.5v-11.6
	C52.8,139.2,51.7,138.1,50.3,138.1z M47.8,149.6H33v-6.6h14.8V149.6z M50.3,115.4H30.5c-1.4,0-2.5,1.1-2.5,2.5v11.6
	c0,1.4,1.1,2.5,2.5,2.5h19.8c1.4,0,2.5-1.1,2.5-2.5v-11.6C52.8,116.6,51.7,115.4,50.3,115.4z M47.8,127H33v-6.6h14.8V127z
	 M50.3,92.8H30.5c-1.4,0-2.5,1.1-2.5,2.5v11.6c0,1.4,1.1,2.5,2.5,2.5h19.8c1.4,0,2.5-1.1,2.5-2.5V95.3
	C52.8,93.9,51.7,92.8,50.3,92.8z M47.8,104.4H33v-6.6h14.8V104.4z M50.3,70.2H30.5c-1.4,0-2.5,1.1-2.5,2.5v11.6
	c0,1.4,1.1,2.5,2.5,2.5h19.8c1.4,0,2.5-1.1,2.5-2.5V72.7C52.8,71.3,51.7,70.2,50.3,70.2z M47.8,81.8H33v-6.6h14.8V81.8z M50.3,70.2
	H30.5c-1.4,0-2.5,1.1-2.5,2.5v11.6c0,1.4,1.1,2.5,2.5,2.5h19.8c1.4,0,2.5-1.1,2.5-2.5V72.7C52.8,71.3,51.7,70.2,50.3,70.2z
	 M47.8,81.8H33v-6.6h14.8V81.8z M50.3,92.8H30.5c-1.4,0-2.5,1.1-2.5,2.5v11.6c0,1.4,1.1,2.5,2.5,2.5h19.8c1.4,0,2.5-1.1,2.5-2.5
	V95.3C52.8,93.9,51.7,92.8,50.3,92.8z M47.8,104.4H33v-6.6h14.8V104.4z M50.3,115.4H30.5c-1.4,0-2.5,1.1-2.5,2.5v11.6
	c0,1.4,1.1,2.5,2.5,2.5h19.8c1.4,0,2.5-1.1,2.5-2.5v-11.6C52.8,116.6,51.7,115.4,50.3,115.4z M47.8,127H33v-6.6h14.8V127z
	 M50.3,138.1H30.5c-1.4,0-2.5,1.1-2.5,2.5v11.6c0,1.4,1.1,2.5,2.5,2.5h19.8c1.4,0,2.5-1.1,2.5-2.5v-11.6
	C52.8,139.2,51.7,138.1,50.3,138.1z M47.8,149.6H33v-6.6h14.8V149.6z M80.1,70.2H60.3c-1.4,0-2.5,1.1-2.5,2.5v11.6
	c0,1.4,1.1,2.5,2.5,2.5h19.8c1.4,0,2.5-1.1,2.5-2.5V72.7C82.6,71.3,81.5,70.2,80.1,70.2z M77.6,81.8H62.8v-6.6h14.8V81.8z
	 M80.1,92.8H60.3c-1.4,0-2.5,1.1-2.5,2.5v11.6c0,1.4,1.1,2.5,2.5,2.5h19.8c1.4,0,2.5-1.1,2.5-2.5V95.3
	C82.6,93.9,81.5,92.8,80.1,92.8z M77.6,104.4H62.8v-6.6h14.8V104.4z M80.1,115.4H60.3c-1.4,0-2.5,1.1-2.5,2.5v11.6
	c0,1.4,1.1,2.5,2.5,2.5h19.8c1.4,0,2.5-1.1,2.5-2.5v-11.6C82.6,116.6,81.5,115.4,80.1,115.4z M77.6,127H62.8v-6.6h14.8V127z
	 M80.1,138.1H60.3c-1.4,0-2.5,1.1-2.5,2.5v11.6c0,1.4,1.1,2.5,2.5,2.5h19.8c1.4,0,2.5-1.1,2.5-2.5v-11.6
	C82.6,139.2,81.5,138.1,80.1,138.1z M77.6,149.6H62.8v-6.6h14.8V149.6z M80.1,138.1H60.3c-1.4,0-2.5,1.1-2.5,2.5v11.6
	c0,1.4,1.1,2.5,2.5,2.5h19.8c1.4,0,2.5-1.1,2.5-2.5v-11.6C82.6,139.2,81.5,138.1,80.1,138.1z M77.6,149.6H62.8v-6.6h14.8V149.6z
	 M80.1,115.4H60.3c-1.4,0-2.5,1.1-2.5,2.5v11.6c0,1.4,1.1,2.5,2.5,2.5h19.8c1.4,0,2.5-1.1,2.5-2.5v-11.6
	C82.6,116.6,81.5,115.4,80.1,115.4z M77.6,127H62.8v-6.6h14.8V127z M80.1,92.8H60.3c-1.4,0-2.5,1.1-2.5,2.5v11.6
	c0,1.4,1.1,2.5,2.5,2.5h19.8c1.4,0,2.5-1.1,2.5-2.5V95.3C82.6,93.9,81.5,92.8,80.1,92.8z M77.6,104.4H62.8v-6.6h14.8V104.4z
	 M80.1,70.2H60.3c-1.4,0-2.5,1.1-2.5,2.5v11.6c0,1.4,1.1,2.5,2.5,2.5h19.8c1.4,0,2.5-1.1,2.5-2.5V72.7
	C82.6,71.3,81.5,70.2,80.1,70.2z M77.6,81.8H62.8v-6.6h14.8V81.8z M50.3,138.1H30.5c-1.4,0-2.5,1.1-2.5,2.5v11.6
	c0,1.4,1.1,2.5,2.5,2.5h19.8c1.4,0,2.5-1.1,2.5-2.5v-11.6C52.8,139.2,51.7,138.1,50.3,138.1z M47.8,149.6H33v-6.6h14.8V149.6z
	 M50.3,115.4H30.5c-1.4,0-2.5,1.1-2.5,2.5v11.6c0,1.4,1.1,2.5,2.5,2.5h19.8c1.4,0,2.5-1.1,2.5-2.5v-11.6
	C52.8,116.6,51.7,115.4,50.3,115.4z M47.8,127H33v-6.6h14.8V127z M50.3,92.8H30.5c-1.4,0-2.5,1.1-2.5,2.5v11.6
	c0,1.4,1.1,2.5,2.5,2.5h19.8c1.4,0,2.5-1.1,2.5-2.5V95.3C52.8,93.9,51.7,92.8,50.3,92.8z M47.8,104.4H33v-6.6h14.8V104.4z
	 M50.3,70.2H30.5c-1.4,0-2.5,1.1-2.5,2.5v11.6c0,1.4,1.1,2.5,2.5,2.5h19.8c1.4,0,2.5-1.1,2.5-2.5V72.7
	C52.8,71.3,51.7,70.2,50.3,70.2z M47.8,81.8H33v-6.6h14.8V81.8z M50.3,70.2H30.5c-1.4,0-2.5,1.1-2.5,2.5v11.6c0,1.4,1.1,2.5,2.5,2.5
	h19.8c1.4,0,2.5-1.1,2.5-2.5V72.7C52.8,71.3,51.7,70.2,50.3,70.2z M47.8,81.8H33v-6.6h14.8V81.8z M50.3,92.8H30.5
	c-1.4,0-2.5,1.1-2.5,2.5v11.6c0,1.4,1.1,2.5,2.5,2.5h19.8c1.4,0,2.5-1.1,2.5-2.5V95.3C52.8,93.9,51.7,92.8,50.3,92.8z M47.8,104.4
	H33v-6.6h14.8V104.4z M50.3,115.4H30.5c-1.4,0-2.5,1.1-2.5,2.5v11.6c0,1.4,1.1,2.5,2.5,2.5h19.8c1.4,0,2.5-1.1,2.5-2.5v-11.6
	C52.8,116.6,51.7,115.4,50.3,115.4z M47.8,127H33v-6.6h14.8V127z M50.3,138.1H30.5c-1.4,0-2.5,1.1-2.5,2.5v11.6
	c0,1.4,1.1,2.5,2.5,2.5h19.8c1.4,0,2.5-1.1,2.5-2.5v-11.6C52.8,139.2,51.7,138.1,50.3,138.1z M47.8,149.6H33v-6.6h14.8V149.6z
	 M80.1,70.2H60.3c-1.4,0-2.5,1.1-2.5,2.5v11.6c0,1.4,1.1,2.5,2.5,2.5h19.8c1.4,0,2.5-1.1,2.5-2.5V72.7
	C82.6,71.3,81.5,70.2,80.1,70.2z M77.6,81.8H62.8v-6.6h14.8V81.8z M80.1,92.8H60.3c-1.4,0-2.5,1.1-2.5,2.5v11.6
	c0,1.4,1.1,2.5,2.5,2.5h19.8c1.4,0,2.5-1.1,2.5-2.5V95.3C82.6,93.9,81.5,92.8,80.1,92.8z M77.6,104.4H62.8v-6.6h14.8V104.4z
	 M80.1,115.4H60.3c-1.4,0-2.5,1.1-2.5,2.5v11.6c0,1.4,1.1,2.5,2.5,2.5h19.8c1.4,0,2.5-1.1,2.5-2.5v-11.6
	C82.6,116.6,81.5,115.4,80.1,115.4z M77.6,127H62.8v-6.6h14.8V127z M80.1,138.1H60.3c-1.4,0-2.5,1.1-2.5,2.5v11.6
	c0,1.4,1.1,2.5,2.5,2.5h19.8c1.4,0,2.5-1.1,2.5-2.5v-11.6C82.6,139.2,81.5,138.1,80.1,138.1z M77.6,149.6H62.8v-6.6h14.8V149.6z
	 M80.1,138.1H60.3c-1.4,0-2.5,1.1-2.5,2.5v11.6c0,1.4,1.1,2.5,2.5,2.5h19.8c1.4,0,2.5-1.1,2.5-2.5v-11.6
	C82.6,139.2,81.5,138.1,80.1,138.1z M77.6,149.6H62.8v-6.6h14.8V149.6z M80.1,115.4H60.3c-1.4,0-2.5,1.1-2.5,2.5v11.6
	c0,1.4,1.1,2.5,2.5,2.5h19.8c1.4,0,2.5-1.1,2.5-2.5v-11.6C82.6,116.6,81.5,115.4,80.1,115.4z M77.6,127H62.8v-6.6h14.8V127z
	 M80.1,92.8H60.3c-1.4,0-2.5,1.1-2.5,2.5v11.6c0,1.4,1.1,2.5,2.5,2.5h19.8c1.4,0,2.5-1.1,2.5-2.5V95.3
	C82.6,93.9,81.5,92.8,80.1,92.8z M77.6,104.4H62.8v-6.6h14.8V104.4z M80.1,70.2H60.3c-1.4,0-2.5,1.1-2.5,2.5v11.6
	c0,1.4,1.1,2.5,2.5,2.5h19.8c1.4,0,2.5-1.1,2.5-2.5V72.7C82.6,71.3,81.5,70.2,80.1,70.2z M77.6,81.8H62.8v-6.6h14.8V81.8z
	 M50.3,138.1H30.5c-1.4,0-2.5,1.1-2.5,2.5v11.6c0,1.4,1.1,2.5,2.5,2.5h19.8c1.4,0,2.5-1.1,2.5-2.5v-11.6
	C52.8,139.2,51.7,138.1,50.3,138.1z M47.8,149.6H33v-6.6h14.8V149.6z M50.3,115.4H30.5c-1.4,0-2.5,1.1-2.5,2.5v11.6
	c0,1.4,1.1,2.5,2.5,2.5h19.8c1.4,0,2.5-1.1,2.5-2.5v-11.6C52.8,116.6,51.7,115.4,50.3,115.4z M47.8,127H33v-6.6h14.8V127z
	 M50.3,92.8H30.5c-1.4,0-2.5,1.1-2.5,2.5v11.6c0,1.4,1.1,2.5,2.5,2.5h19.8c1.4,0,2.5-1.1,2.5-2.5V95.3
	C52.8,93.9,51.7,92.8,50.3,92.8z M47.8,104.4H33v-6.6h14.8V104.4z M50.3,70.2H30.5c-1.4,0-2.5,1.1-2.5,2.5v11.6
	c0,1.4,1.1,2.5,2.5,2.5h19.8c1.4,0,2.5-1.1,2.5-2.5V72.7C52.8,71.3,51.7,70.2,50.3,70.2z M47.8,81.8H33v-6.6h14.8V81.8z M50.3,70.2
	H30.5c-1.4,0-2.5,1.1-2.5,2.5v11.6c0,1.4,1.1,2.5,2.5,2.5h19.8c1.4,0,2.5-1.1,2.5-2.5V72.7C52.8,71.3,51.7,70.2,50.3,70.2z
	 M47.8,81.8H33v-6.6h14.8V81.8z M50.3,92.8H30.5c-1.4,0-2.5,1.1-2.5,2.5v11.6c0,1.4,1.1,2.5,2.5,2.5h19.8c1.4,0,2.5-1.1,2.5-2.5
	V95.3C52.8,93.9,51.7,92.8,50.3,92.8z M47.8,104.4H33v-6.6h14.8V104.4z M50.3,115.4H30.5c-1.4,0-2.5,1.1-2.5,2.5v11.6
	c0,1.4,1.1,2.5,2.5,2.5h19.8c1.4,0,2.5-1.1,2.5-2.5v-11.6C52.8,116.6,51.7,115.4,50.3,115.4z M47.8,127H33v-6.6h14.8V127z
	 M50.3,138.1H30.5c-1.4,0-2.5,1.1-2.5,2.5v11.6c0,1.4,1.1,2.5,2.5,2.5h19.8c1.4,0,2.5-1.1,2.5-2.5v-11.6
	C52.8,139.2,51.7,138.1,50.3,138.1z M47.8,149.6H33v-6.6h14.8V149.6z M80.1,70.2H60.3c-1.4,0-2.5,1.1-2.5,2.5v11.6
	c0,1.4,1.1,2.5,2.5,2.5h19.8c1.4,0,2.5-1.1,2.5-2.5V72.7C82.6,71.3,81.5,70.2,80.1,70.2z M77.6,81.8H62.8v-6.6h14.8V81.8z
	 M80.1,92.8H60.3c-1.4,0-2.5,1.1-2.5,2.5v11.6c0,1.4,1.1,2.5,2.5,2.5h19.8c1.4,0,2.5-1.1,2.5-2.5V95.3
	C82.6,93.9,81.5,92.8,80.1,92.8z M77.6,104.4H62.8v-6.6h14.8V104.4z M80.1,115.4H60.3c-1.4,0-2.5,1.1-2.5,2.5v11.6
	c0,1.4,1.1,2.5,2.5,2.5h19.8c1.4,0,2.5-1.1,2.5-2.5v-11.6C82.6,116.6,81.5,115.4,80.1,115.4z M77.6,127H62.8v-6.6h14.8V127z
	 M80.1,138.1H60.3c-1.4,0-2.5,1.1-2.5,2.5v11.6c0,1.4,1.1,2.5,2.5,2.5h19.8c1.4,0,2.5-1.1,2.5-2.5v-11.6
	C82.6,139.2,81.5,138.1,80.1,138.1z M77.6,149.6H62.8v-6.6h14.8V149.6z M83.6,13.4H74c-1.4,0-2.5,1.1-2.5,2.5v10.4
	c0,1.4,1.1,2.5,2.5,2.5h9.6c1.4,0,2.5-1.1,2.5-2.5V15.9C86.1,14.5,84.9,13.4,83.6,13.4z M81.1,23.8h-4.6v-5.4h4.6V23.8z M83.6,38.3
	H74c-1.4,0-2.5,1.1-2.5,2.5v10.4c0,1.4,1.1,2.5,2.5,2.5h9.6c1.4,0,2.5-1.1,2.5-2.5V40.8C86.1,39.4,84.9,38.3,83.6,38.3z M81.1,48.7
	h-4.6v-5.4h4.6V48.7z M111.1,13.4h-9.6c-1.4,0-2.5,1.1-2.5,2.5v10.4c0,1.4,1.1,2.5,2.5,2.5h9.6c1.4,0,2.5-1.1,2.5-2.5V15.9
	C113.6,14.5,112.5,13.4,111.1,13.4z M108.6,23.8h-4.6v-5.4h4.6V23.8z M111.1,38.3h-9.6c-1.4,0-2.5,1.1-2.5,2.5v10.4
	c0,1.4,1.1,2.5,2.5,2.5h9.6c1.4,0,2.5-1.1,2.5-2.5V40.8C113.6,39.4,112.5,38.3,111.1,38.3z M108.6,48.7h-4.6v-5.4h4.6V48.7z
	 M111.1,63.2h-9.6c-1.4,0-2.5,1.1-2.5,2.5v10.4c0,1.4,1.1,2.5,2.5,2.5h9.6c1.4,0,2.5-1.1,2.5-2.5V65.7
	C113.6,64.3,112.5,63.2,111.1,63.2z M108.6,73.6h-4.6v-5.4h4.6V73.6z M111.1,88.1h-9.6c-1.4,0-2.5,1.1-2.5,2.5V101
	c0,1.4,1.1,2.5,2.5,2.5h9.6c1.4,0,2.5-1.1,2.5-2.5V90.6C113.6,89.3,112.5,88.1,111.1,88.1z M108.6,98.5h-4.6v-5.4h4.6V98.5z
	 M111.1,113h-9.6c-1.4,0-2.5,1.1-2.5,2.5v10.4c0,1.4,1.1,2.5,2.5,2.5h9.6c1.4,0,2.5-1.1,2.5-2.5v-10.4
	C113.6,114.2,112.5,113,111.1,113z M108.6,123.4h-4.6V118h4.6V123.4z M111.1,138h-9.6c-1.4,0-2.5,1.1-2.5,2.5v10.4
	c0,1.4,1.1,2.5,2.5,2.5h9.6c1.4,0,2.5-1.1,2.5-2.5v-10.4C113.6,139.1,112.5,138,111.1,138z M108.6,148.3h-4.6V143h4.6V148.3z
	 M138.7,13.4h-9.6c-1.4,0-2.5,1.1-2.5,2.5v10.4c0,1.4,1.1,2.5,2.5,2.5h9.6c1.4,0,2.5-1.1,2.5-2.5V15.9
	C141.2,14.5,140.1,13.4,138.7,13.4z M136.2,23.8h-4.6v-5.4h4.6V23.8z M138.7,38.3h-9.6c-1.4,0-2.5,1.1-2.5,2.5v10.4
	c0,1.4,1.1,2.5,2.5,2.5h9.6c1.4,0,2.5-1.1,2.5-2.5V40.8C141.2,39.4,140.1,38.3,138.7,38.3z M136.2,48.7h-4.6v-5.4h4.6V48.7z
	 M138.7,63.2h-9.6c-1.4,0-2.5,1.1-2.5,2.5v10.4c0,1.4,1.1,2.5,2.5,2.5h9.6c1.4,0,2.5-1.1,2.5-2.5V65.7
	C141.2,64.3,140.1,63.2,138.7,63.2z M136.2,73.6h-4.6v-5.4h4.6V73.6z M138.7,88.1h-9.6c-1.4,0-2.5,1.1-2.5,2.5V101
	c0,1.4,1.1,2.5,2.5,2.5h9.6c1.4,0,2.5-1.1,2.5-2.5c0,0,0,0,0,0V90.6C141.2,89.3,140.1,88.1,138.7,88.1z M136.2,98.5h-4.6v-5.4h4.6
	V98.5z M138.7,88.1h-9.6c-1.4,0-2.5,1.1-2.5,2.5V101c0,1.4,1.1,2.5,2.5,2.5h9.6c1.4,0,2.5-1.1,2.5-2.5c0,0,0,0,0,0V90.6
	C141.2,89.3,140.1,88.1,138.7,88.1z M136.2,98.5h-4.6v-5.4h4.6V98.5z M138.7,63.2h-9.6c-1.4,0-2.5,1.1-2.5,2.5v10.4
	c0,1.4,1.1,2.5,2.5,2.5h9.6c1.4,0,2.5-1.1,2.5-2.5V65.7C141.2,64.3,140.1,63.2,138.7,63.2z M136.2,73.6h-4.6v-5.4h4.6V73.6z
	 M138.7,38.3h-9.6c-1.4,0-2.5,1.1-2.5,2.5v10.4c0,1.4,1.1,2.5,2.5,2.5h9.6c1.4,0,2.5-1.1,2.5-2.5V40.8
	C141.2,39.4,140.1,38.3,138.7,38.3z M136.2,48.7h-4.6v-5.4h4.6V48.7z M138.7,13.4h-9.6c-1.4,0-2.5,1.1-2.5,2.5v10.4
	c0,1.4,1.1,2.5,2.5,2.5h9.6c1.4,0,2.5-1.1,2.5-2.5V15.9C141.2,14.5,140.1,13.4,138.7,13.4z M136.2,23.8h-4.6v-5.4h4.6V23.8z
	 M111.1,138h-9.6c-1.4,0-2.5,1.1-2.5,2.5v10.4c0,1.4,1.1,2.5,2.5,2.5h9.6c1.4,0,2.5-1.1,2.5-2.5v-10.4
	C113.6,139.1,112.5,138,111.1,138z M108.6,148.3h-4.6V143h4.6V148.3z M111.1,113h-9.6c-1.4,0-2.5,1.1-2.5,2.5v10.4
	c0,1.4,1.1,2.5,2.5,2.5h9.6c1.4,0,2.5-1.1,2.5-2.5v-10.4C113.6,114.2,112.5,113,111.1,113z M108.6,123.4h-4.6V118h4.6V123.4z
	 M111.1,88.1h-9.6c-1.4,0-2.5,1.1-2.5,2.5V101c0,1.4,1.1,2.5,2.5,2.5h9.6c1.4,0,2.5-1.1,2.5-2.5V90.6
	C113.6,89.3,112.5,88.1,111.1,88.1z M108.6,98.5h-4.6v-5.4h4.6V98.5z M111.1,63.2h-9.6c-1.4,0-2.5,1.1-2.5,2.5v10.4
	c0,1.4,1.1,2.5,2.5,2.5h9.6c1.4,0,2.5-1.1,2.5-2.5V65.7C113.6,64.3,112.5,63.2,111.1,63.2z M108.6,73.6h-4.6v-5.4h4.6V73.6z
	 M111.1,38.3h-9.6c-1.4,0-2.5,1.1-2.5,2.5v10.4c0,1.4,1.1,2.5,2.5,2.5h9.6c1.4,0,2.5-1.1,2.5-2.5V40.8
	C113.6,39.4,112.5,38.3,111.1,38.3z M108.6,48.7h-4.6v-5.4h4.6V48.7z M111.1,13.4h-9.6c-1.4,0-2.5,1.1-2.5,2.5v10.4
	c0,1.4,1.1,2.5,2.5,2.5h9.6c1.4,0,2.5-1.1,2.5-2.5V15.9C113.6,14.5,112.5,13.4,111.1,13.4z M108.6,23.8h-4.6v-5.4h4.6V23.8z
	 M83.6,38.3H74c-1.4,0-2.5,1.1-2.5,2.5v10.4c0,1.4,1.1,2.5,2.5,2.5h9.6c1.4,0,2.5-1.1,2.5-2.5V40.8C86.1,39.4,84.9,38.3,83.6,38.3z
	 M81.1,48.7h-4.6v-5.4h4.6V48.7z M83.6,13.4H74c-1.4,0-2.5,1.1-2.5,2.5v10.4c0,1.4,1.1,2.5,2.5,2.5h9.6c1.4,0,2.5-1.1,2.5-2.5V15.9
	C86.1,14.5,84.9,13.4,83.6,13.4z M81.1,23.8h-4.6v-5.4h4.6V23.8z M80.1,138.1H60.3c-1.4,0-2.5,1.1-2.5,2.5v11.6
	c0,1.4,1.1,2.5,2.5,2.5h19.8c1.4,0,2.5-1.1,2.5-2.5v-11.6C82.6,139.2,81.5,138.1,80.1,138.1z M77.6,149.6H62.8v-6.6h14.8V149.6z
	 M80.1,115.4H60.3c-1.4,0-2.5,1.1-2.5,2.5v11.6c0,1.4,1.1,2.5,2.5,2.5h19.8c1.4,0,2.5-1.1,2.5-2.5v-11.6
	C82.6,116.6,81.5,115.4,80.1,115.4z M77.6,127H62.8v-6.6h14.8V127z M80.1,92.8H60.3c-1.4,0-2.5,1.1-2.5,2.5v11.6
	c0,1.4,1.1,2.5,2.5,2.5h19.8c1.4,0,2.5-1.1,2.5-2.5V95.3C82.6,93.9,81.5,92.8,80.1,92.8z M77.6,104.4H62.8v-6.6h14.8V104.4z
	 M80.1,70.2H60.3c-1.4,0-2.5,1.1-2.5,2.5v11.6c0,1.4,1.1,2.5,2.5,2.5h19.8c1.4,0,2.5-1.1,2.5-2.5V72.7
	C82.6,71.3,81.5,70.2,80.1,70.2z M77.6,81.8H62.8v-6.6h14.8V81.8z M50.3,138.1H30.5c-1.4,0-2.5,1.1-2.5,2.5v11.6
	c0,1.4,1.1,2.5,2.5,2.5h19.8c1.4,0,2.5-1.1,2.5-2.5v-11.6C52.8,139.2,51.7,138.1,50.3,138.1z M47.8,149.6H33v-6.6h14.8V149.6z
	 M50.3,115.4H30.5c-1.4,0-2.5,1.1-2.5,2.5v11.6c0,1.4,1.1,2.5,2.5,2.5h19.8c1.4,0,2.5-1.1,2.5-2.5v-11.6
	C52.8,116.6,51.7,115.4,50.3,115.4z M47.8,127H33v-6.6h14.8V127z M50.3,92.8H30.5c-1.4,0-2.5,1.1-2.5,2.5v11.6
	c0,1.4,1.1,2.5,2.5,2.5h19.8c1.4,0,2.5-1.1,2.5-2.5V95.3C52.8,93.9,51.7,92.8,50.3,92.8z M47.8,104.4H33v-6.6h14.8V104.4z
	 M50.3,70.2H30.5c-1.4,0-2.5,1.1-2.5,2.5v11.6c0,1.4,1.1,2.5,2.5,2.5h19.8c1.4,0,2.5-1.1,2.5-2.5V72.7
	C52.8,71.3,51.7,70.2,50.3,70.2z M47.8,81.8H33v-6.6h14.8V81.8z M50.3,70.2H30.5c-1.4,0-2.5,1.1-2.5,2.5v11.6c0,1.4,1.1,2.5,2.5,2.5
	h19.8c1.4,0,2.5-1.1,2.5-2.5V72.7C52.8,71.3,51.7,70.2,50.3,70.2z M47.8,81.8H33v-6.6h14.8V81.8z M50.3,92.8H30.5
	c-1.4,0-2.5,1.1-2.5,2.5v11.6c0,1.4,1.1,2.5,2.5,2.5h19.8c1.4,0,2.5-1.1,2.5-2.5V95.3C52.8,93.9,51.7,92.8,50.3,92.8z M47.8,104.4
	H33v-6.6h14.8V104.4z M50.3,115.4H30.5c-1.4,0-2.5,1.1-2.5,2.5v11.6c0,1.4,1.1,2.5,2.5,2.5h19.8c1.4,0,2.5-1.1,2.5-2.5v-11.6
	C52.8,116.6,51.7,115.4,50.3,115.4z M47.8,127H33v-6.6h14.8V127z M50.3,138.1H30.5c-1.4,0-2.5,1.1-2.5,2.5v11.6
	c0,1.4,1.1,2.5,2.5,2.5h19.8c1.4,0,2.5-1.1,2.5-2.5v-11.6C52.8,139.2,51.7,138.1,50.3,138.1z M47.8,149.6H33v-6.6h14.8V149.6z
	 M80.1,70.2H60.3c-1.4,0-2.5,1.1-2.5,2.5v11.6c0,1.4,1.1,2.5,2.5,2.5h19.8c1.4,0,2.5-1.1,2.5-2.5V72.7
	C82.6,71.3,81.5,70.2,80.1,70.2z M77.6,81.8H62.8v-6.6h14.8V81.8z M80.1,92.8H60.3c-1.4,0-2.5,1.1-2.5,2.5v11.6
	c0,1.4,1.1,2.5,2.5,2.5h19.8c1.4,0,2.5-1.1,2.5-2.5V95.3C82.6,93.9,81.5,92.8,80.1,92.8z M77.6,104.4H62.8v-6.6h14.8V104.4z
	 M80.1,115.4H60.3c-1.4,0-2.5,1.1-2.5,2.5v11.6c0,1.4,1.1,2.5,2.5,2.5h19.8c1.4,0,2.5-1.1,2.5-2.5v-11.6
	C82.6,116.6,81.5,115.4,80.1,115.4z M77.6,127H62.8v-6.6h14.8V127z M80.1,138.1H60.3c-1.4,0-2.5,1.1-2.5,2.5v11.6
	c0,1.4,1.1,2.5,2.5,2.5h19.8c1.4,0,2.5-1.1,2.5-2.5v-11.6C82.6,139.2,81.5,138.1,80.1,138.1z M77.6,149.6H62.8v-6.6h14.8V149.6z
	 M80.1,138.1H60.3c-1.4,0-2.5,1.1-2.5,2.5v11.6c0,1.4,1.1,2.5,2.5,2.5h19.8c1.4,0,2.5-1.1,2.5-2.5v-11.6
	C82.6,139.2,81.5,138.1,80.1,138.1z M77.6,149.6H62.8v-6.6h14.8V149.6z M80.1,115.4H60.3c-1.4,0-2.5,1.1-2.5,2.5v11.6
	c0,1.4,1.1,2.5,2.5,2.5h19.8c1.4,0,2.5-1.1,2.5-2.5v-11.6C82.6,116.6,81.5,115.4,80.1,115.4z M77.6,127H62.8v-6.6h14.8V127z
	 M80.1,92.8H60.3c-1.4,0-2.5,1.1-2.5,2.5v11.6c0,1.4,1.1,2.5,2.5,2.5h19.8c1.4,0,2.5-1.1,2.5-2.5V95.3
	C82.6,93.9,81.5,92.8,80.1,92.8z M77.6,104.4H62.8v-6.6h14.8V104.4z M80.1,70.2H60.3c-1.4,0-2.5,1.1-2.5,2.5v11.6
	c0,1.4,1.1,2.5,2.5,2.5h19.8c1.4,0,2.5-1.1,2.5-2.5V72.7C82.6,71.3,81.5,70.2,80.1,70.2z M77.6,81.8H62.8v-6.6h14.8V81.8z
	 M50.3,138.1H30.5c-1.4,0-2.5,1.1-2.5,2.5v11.6c0,1.4,1.1,2.5,2.5,2.5h19.8c1.4,0,2.5-1.1,2.5-2.5v-11.6
	C52.8,139.2,51.7,138.1,50.3,138.1z M47.8,149.6H33v-6.6h14.8V149.6z M50.3,115.4H30.5c-1.4,0-2.5,1.1-2.5,2.5v11.6
	c0,1.4,1.1,2.5,2.5,2.5h19.8c1.4,0,2.5-1.1,2.5-2.5v-11.6C52.8,116.6,51.7,115.4,50.3,115.4z M47.8,127H33v-6.6h14.8V127z
	 M50.3,92.8H30.5c-1.4,0-2.5,1.1-2.5,2.5v11.6c0,1.4,1.1,2.5,2.5,2.5h19.8c1.4,0,2.5-1.1,2.5-2.5V95.3
	C52.8,93.9,51.7,92.8,50.3,92.8z M47.8,104.4H33v-6.6h14.8V104.4z M50.3,70.2H30.5c-1.4,0-2.5,1.1-2.5,2.5v11.6
	c0,1.4,1.1,2.5,2.5,2.5h19.8c1.4,0,2.5-1.1,2.5-2.5V72.7C52.8,71.3,51.7,70.2,50.3,70.2z M47.8,81.8H33v-6.6h14.8V81.8z M50.3,70.2
	H30.5c-1.4,0-2.5,1.1-2.5,2.5v11.6c0,1.4,1.1,2.5,2.5,2.5h19.8c1.4,0,2.5-1.1,2.5-2.5V72.7C52.8,71.3,51.7,70.2,50.3,70.2z
	 M47.8,81.8H33v-6.6h14.8V81.8z M50.3,92.8H30.5c-1.4,0-2.5,1.1-2.5,2.5v11.6c0,1.4,1.1,2.5,2.5,2.5h19.8c1.4,0,2.5-1.1,2.5-2.5
	V95.3C52.8,93.9,51.7,92.8,50.3,92.8z M47.8,104.4H33v-6.6h14.8V104.4z M50.3,115.4H30.5c-1.4,0-2.5,1.1-2.5,2.5v11.6
	c0,1.4,1.1,2.5,2.5,2.5h19.8c1.4,0,2.5-1.1,2.5-2.5v-11.6C52.8,116.6,51.7,115.4,50.3,115.4z M47.8,127H33v-6.6h14.8V127z
	 M50.3,138.1H30.5c-1.4,0-2.5,1.1-2.5,2.5v11.6c0,1.4,1.1,2.5,2.5,2.5h19.8c1.4,0,2.5-1.1,2.5-2.5v-11.6
	C52.8,139.2,51.7,138.1,50.3,138.1z M47.8,149.6H33v-6.6h14.8V149.6z M80.1,70.2H60.3c-1.4,0-2.5,1.1-2.5,2.5v11.6
	c0,1.4,1.1,2.5,2.5,2.5h19.8c1.4,0,2.5-1.1,2.5-2.5V72.7C82.6,71.3,81.5,70.2,80.1,70.2z M77.6,81.8H62.8v-6.6h14.8V81.8z
	 M80.1,92.8H60.3c-1.4,0-2.5,1.1-2.5,2.5v11.6c0,1.4,1.1,2.5,2.5,2.5h19.8c1.4,0,2.5-1.1,2.5-2.5V95.3
	C82.6,93.9,81.5,92.8,80.1,92.8z M77.6,104.4H62.8v-6.6h14.8V104.4z M80.1,115.4H60.3c-1.4,0-2.5,1.1-2.5,2.5v11.6
	c0,1.4,1.1,2.5,2.5,2.5h19.8c1.4,0,2.5-1.1,2.5-2.5v-11.6C82.6,116.6,81.5,115.4,80.1,115.4z M77.6,127H62.8v-6.6h14.8V127z
	 M80.1,138.1H60.3c-1.4,0-2.5,1.1-2.5,2.5v11.6c0,1.4,1.1,2.5,2.5,2.5h19.8c1.4,0,2.5-1.1,2.5-2.5v-11.6
	C82.6,139.2,81.5,138.1,80.1,138.1z M77.6,149.6H62.8v-6.6h14.8V149.6z M80.1,138.1H60.3c-1.4,0-2.5,1.1-2.5,2.5v11.6
	c0,1.4,1.1,2.5,2.5,2.5h19.8c1.4,0,2.5-1.1,2.5-2.5v-11.6C82.6,139.2,81.5,138.1,80.1,138.1z M77.6,149.6H62.8v-6.6h14.8V149.6z
	 M80.1,115.4H60.3c-1.4,0-2.5,1.1-2.5,2.5v11.6c0,1.4,1.1,2.5,2.5,2.5h19.8c1.4,0,2.5-1.1,2.5-2.5v-11.6
	C82.6,116.6,81.5,115.4,80.1,115.4z M77.6,127H62.8v-6.6h14.8V127z M80.1,92.8H60.3c-1.4,0-2.5,1.1-2.5,2.5v11.6
	c0,1.4,1.1,2.5,2.5,2.5h19.8c1.4,0,2.5-1.1,2.5-2.5V95.3C82.6,93.9,81.5,92.8,80.1,92.8z M77.6,104.4H62.8v-6.6h14.8V104.4z
	 M80.1,70.2H60.3c-1.4,0-2.5,1.1-2.5,2.5v11.6c0,1.4,1.1,2.5,2.5,2.5h19.8c1.4,0,2.5-1.1,2.5-2.5V72.7
	C82.6,71.3,81.5,70.2,80.1,70.2z M77.6,81.8H62.8v-6.6h14.8V81.8z M50.3,138.1H30.5c-1.4,0-2.5,1.1-2.5,2.5v11.6
	c0,1.4,1.1,2.5,2.5,2.5h19.8c1.4,0,2.5-1.1,2.5-2.5v-11.6C52.8,139.2,51.7,138.1,50.3,138.1z M47.8,149.6H33v-6.6h14.8V149.6z
	 M50.3,115.4H30.5c-1.4,0-2.5,1.1-2.5,2.5v11.6c0,1.4,1.1,2.5,2.5,2.5h19.8c1.4,0,2.5-1.1,2.5-2.5v-11.6
	C52.8,116.6,51.7,115.4,50.3,115.4z M47.8,127H33v-6.6h14.8V127z M50.3,92.8H30.5c-1.4,0-2.5,1.1-2.5,2.5v11.6
	c0,1.4,1.1,2.5,2.5,2.5h19.8c1.4,0,2.5-1.1,2.5-2.5V95.3C52.8,93.9,51.7,92.8,50.3,92.8z M47.8,104.4H33v-6.6h14.8V104.4z
	 M50.3,70.2H30.5c-1.4,0-2.5,1.1-2.5,2.5v11.6c0,1.4,1.1,2.5,2.5,2.5h19.8c1.4,0,2.5-1.1,2.5-2.5V72.7
	C52.8,71.3,51.7,70.2,50.3,70.2z M47.8,81.8H33v-6.6h14.8V81.8z M50.3,70.2H30.5c-1.4,0-2.5,1.1-2.5,2.5v11.6c0,1.4,1.1,2.5,2.5,2.5
	h19.8c1.4,0,2.5-1.1,2.5-2.5V72.7C52.8,71.3,51.7,70.2,50.3,70.2z M47.8,81.8H33v-6.6h14.8V81.8z M50.3,92.8H30.5
	c-1.4,0-2.5,1.1-2.5,2.5v11.6c0,1.4,1.1,2.5,2.5,2.5h19.8c1.4,0,2.5-1.1,2.5-2.5V95.3C52.8,93.9,51.7,92.8,50.3,92.8z M47.8,104.4
	H33v-6.6h14.8V104.4z M50.3,115.4H30.5c-1.4,0-2.5,1.1-2.5,2.5v11.6c0,1.4,1.1,2.5,2.5,2.5h19.8c1.4,0,2.5-1.1,2.5-2.5v-11.6
	C52.8,116.6,51.7,115.4,50.3,115.4z M47.8,127H33v-6.6h14.8V127z M50.3,138.1H30.5c-1.4,0-2.5,1.1-2.5,2.5v11.6
	c0,1.4,1.1,2.5,2.5,2.5h19.8c1.4,0,2.5-1.1,2.5-2.5v-11.6C52.8,139.2,51.7,138.1,50.3,138.1z M47.8,149.6H33v-6.6h14.8V149.6z
	 M80.1,70.2H60.3c-1.4,0-2.5,1.1-2.5,2.5v11.6c0,1.4,1.1,2.5,2.5,2.5h19.8c1.4,0,2.5-1.1,2.5-2.5V72.7
	C82.6,71.3,81.5,70.2,80.1,70.2z M77.6,81.8H62.8v-6.6h14.8V81.8z M80.1,92.8H60.3c-1.4,0-2.5,1.1-2.5,2.5v11.6
	c0,1.4,1.1,2.5,2.5,2.5h19.8c1.4,0,2.5-1.1,2.5-2.5V95.3C82.6,93.9,81.5,92.8,80.1,92.8z M77.6,104.4H62.8v-6.6h14.8V104.4z
	 M80.1,115.4H60.3c-1.4,0-2.5,1.1-2.5,2.5v11.6c0,1.4,1.1,2.5,2.5,2.5h19.8c1.4,0,2.5-1.1,2.5-2.5v-11.6
	C82.6,116.6,81.5,115.4,80.1,115.4z M77.6,127H62.8v-6.6h14.8V127z M80.1,138.1H60.3c-1.4,0-2.5,1.1-2.5,2.5v11.6
	c0,1.4,1.1,2.5,2.5,2.5h19.8c1.4,0,2.5-1.1,2.5-2.5v-11.6C82.6,139.2,81.5,138.1,80.1,138.1z M77.6,149.6H62.8v-6.6h14.8V149.6z
	 M80.1,138.1H60.3c-1.4,0-2.5,1.1-2.5,2.5v11.6c0,1.4,1.1,2.5,2.5,2.5h19.8c1.4,0,2.5-1.1,2.5-2.5v-11.6
	C82.6,139.2,81.5,138.1,80.1,138.1z M77.6,149.6H62.8v-6.6h14.8V149.6z M80.1,115.4H60.3c-1.4,0-2.5,1.1-2.5,2.5v11.6
	c0,1.4,1.1,2.5,2.5,2.5h19.8c1.4,0,2.5-1.1,2.5-2.5v-11.6C82.6,116.6,81.5,115.4,80.1,115.4z M77.6,127H62.8v-6.6h14.8V127z
	 M80.1,92.8H60.3c-1.4,0-2.5,1.1-2.5,2.5v11.6c0,1.4,1.1,2.5,2.5,2.5h19.8c1.4,0,2.5-1.1,2.5-2.5V95.3
	C82.6,93.9,81.5,92.8,80.1,92.8z M77.6,104.4H62.8v-6.6h14.8V104.4z M80.1,70.2H60.3c-1.4,0-2.5,1.1-2.5,2.5v11.6
	c0,1.4,1.1,2.5,2.5,2.5h19.8c1.4,0,2.5-1.1,2.5-2.5V72.7C82.6,71.3,81.5,70.2,80.1,70.2z M77.6,81.8H62.8v-6.6h14.8V81.8z
	 M50.3,138.1H30.5c-1.4,0-2.5,1.1-2.5,2.5v11.6c0,1.4,1.1,2.5,2.5,2.5h19.8c1.4,0,2.5-1.1,2.5-2.5v-11.6
	C52.8,139.2,51.7,138.1,50.3,138.1z M47.8,149.6H33v-6.6h14.8V149.6z M50.3,115.4H30.5c-1.4,0-2.5,1.1-2.5,2.5v11.6
	c0,1.4,1.1,2.5,2.5,2.5h19.8c1.4,0,2.5-1.1,2.5-2.5v-11.6C52.8,116.6,51.7,115.4,50.3,115.4z M47.8,127H33v-6.6h14.8V127z
	 M50.3,92.8H30.5c-1.4,0-2.5,1.1-2.5,2.5v11.6c0,1.4,1.1,2.5,2.5,2.5h19.8c1.4,0,2.5-1.1,2.5-2.5V95.3
	C52.8,93.9,51.7,92.8,50.3,92.8z M47.8,104.4H33v-6.6h14.8V104.4z M50.3,70.2H30.5c-1.4,0-2.5,1.1-2.5,2.5v11.6
	c0,1.4,1.1,2.5,2.5,2.5h19.8c1.4,0,2.5-1.1,2.5-2.5V72.7C52.8,71.3,51.7,70.2,50.3,70.2z M47.8,81.8H33v-6.6h14.8V81.8z M50.3,70.2
	H30.5c-1.4,0-2.5,1.1-2.5,2.5v11.6c0,1.4,1.1,2.5,2.5,2.5h19.8c1.4,0,2.5-1.1,2.5-2.5V72.7C52.8,71.3,51.7,70.2,50.3,70.2z
	 M47.8,81.8H33v-6.6h14.8V81.8z M50.3,92.8H30.5c-1.4,0-2.5,1.1-2.5,2.5v11.6c0,1.4,1.1,2.5,2.5,2.5h19.8c1.4,0,2.5-1.1,2.5-2.5
	V95.3C52.8,93.9,51.7,92.8,50.3,92.8z M47.8,104.4H33v-6.6h14.8V104.4z M50.3,115.4H30.5c-1.4,0-2.5,1.1-2.5,2.5v11.6
	c0,1.4,1.1,2.5,2.5,2.5h19.8c1.4,0,2.5-1.1,2.5-2.5v-11.6C52.8,116.6,51.7,115.4,50.3,115.4z M47.8,127H33v-6.6h14.8V127z
	 M50.3,138.1H30.5c-1.4,0-2.5,1.1-2.5,2.5v11.6c0,1.4,1.1,2.5,2.5,2.5h19.8c1.4,0,2.5-1.1,2.5-2.5v-11.6
	C52.8,139.2,51.7,138.1,50.3,138.1z M47.8,149.6H33v-6.6h14.8V149.6z M80.1,70.2H60.3c-1.4,0-2.5,1.1-2.5,2.5v11.6
	c0,1.4,1.1,2.5,2.5,2.5h19.8c1.4,0,2.5-1.1,2.5-2.5V72.7C82.6,71.3,81.5,70.2,80.1,70.2z M77.6,81.8H62.8v-6.6h14.8V81.8z
	 M80.1,92.8H60.3c-1.4,0-2.5,1.1-2.5,2.5v11.6c0,1.4,1.1,2.5,2.5,2.5h19.8c1.4,0,2.5-1.1,2.5-2.5V95.3
	C82.6,93.9,81.5,92.8,80.1,92.8z M77.6,104.4H62.8v-6.6h14.8V104.4z M80.1,115.4H60.3c-1.4,0-2.5,1.1-2.5,2.5v11.6
	c0,1.4,1.1,2.5,2.5,2.5h19.8c1.4,0,2.5-1.1,2.5-2.5v-11.6C82.6,116.6,81.5,115.4,80.1,115.4z M77.6,127H62.8v-6.6h14.8V127z
	 M80.1,138.1H60.3c-1.4,0-2.5,1.1-2.5,2.5v11.6c0,1.4,1.1,2.5,2.5,2.5h19.8c1.4,0,2.5-1.1,2.5-2.5v-11.6
	C82.6,139.2,81.5,138.1,80.1,138.1z M77.6,149.6H62.8v-6.6h14.8V149.6z M80.1,138.1H60.3c-1.4,0-2.5,1.1-2.5,2.5v11.6
	c0,1.4,1.1,2.5,2.5,2.5h19.8c1.4,0,2.5-1.1,2.5-2.5v-11.6C82.6,139.2,81.5,138.1,80.1,138.1z M77.6,149.6H62.8v-6.6h14.8V149.6z
	 M80.1,115.4H60.3c-1.4,0-2.5,1.1-2.5,2.5v11.6c0,1.4,1.1,2.5,2.5,2.5h19.8c1.4,0,2.5-1.1,2.5-2.5v-11.6
	C82.6,116.6,81.5,115.4,80.1,115.4z M77.6,127H62.8v-6.6h14.8V127z M80.1,92.8H60.3c-1.4,0-2.5,1.1-2.5,2.5v11.6
	c0,1.4,1.1,2.5,2.5,2.5h19.8c1.4,0,2.5-1.1,2.5-2.5V95.3C82.6,93.9,81.5,92.8,80.1,92.8z M77.6,104.4H62.8v-6.6h14.8V104.4z
	 M80.1,70.2H60.3c-1.4,0-2.5,1.1-2.5,2.5v11.6c0,1.4,1.1,2.5,2.5,2.5h19.8c1.4,0,2.5-1.1,2.5-2.5V72.7
	C82.6,71.3,81.5,70.2,80.1,70.2z M77.6,81.8H62.8v-6.6h14.8V81.8z M50.3,138.1H30.5c-1.4,0-2.5,1.1-2.5,2.5v11.6
	c0,1.4,1.1,2.5,2.5,2.5h19.8c1.4,0,2.5-1.1,2.5-2.5v-11.6C52.8,139.2,51.7,138.1,50.3,138.1z M47.8,149.6H33v-6.6h14.8V149.6z
	 M50.3,115.4H30.5c-1.4,0-2.5,1.1-2.5,2.5v11.6c0,1.4,1.1,2.5,2.5,2.5h19.8c1.4,0,2.5-1.1,2.5-2.5v-11.6
	C52.8,116.6,51.7,115.4,50.3,115.4z M47.8,127H33v-6.6h14.8V127z M50.3,92.8H30.5c-1.4,0-2.5,1.1-2.5,2.5v11.6
	c0,1.4,1.1,2.5,2.5,2.5h19.8c1.4,0,2.5-1.1,2.5-2.5V95.3C52.8,93.9,51.7,92.8,50.3,92.8z M47.8,104.4H33v-6.6h14.8V104.4z
	 M50.3,70.2H30.5c-1.4,0-2.5,1.1-2.5,2.5v11.6c0,1.4,1.1,2.5,2.5,2.5h19.8c1.4,0,2.5-1.1,2.5-2.5V72.7
	C52.8,71.3,51.7,70.2,50.3,70.2z M47.8,81.8H33v-6.6h14.8V81.8z M50.3,70.2H30.5c-1.4,0-2.5,1.1-2.5,2.5v11.6c0,1.4,1.1,2.5,2.5,2.5
	h19.8c1.4,0,2.5-1.1,2.5-2.5V72.7C52.8,71.3,51.7,70.2,50.3,70.2z M47.8,81.8H33v-6.6h14.8V81.8z M50.3,92.8H30.5
	c-1.4,0-2.5,1.1-2.5,2.5v11.6c0,1.4,1.1,2.5,2.5,2.5h19.8c1.4,0,2.5-1.1,2.5-2.5V95.3C52.8,93.9,51.7,92.8,50.3,92.8z M47.8,104.4
	H33v-6.6h14.8V104.4z M50.3,115.4H30.5c-1.4,0-2.5,1.1-2.5,2.5v11.6c0,1.4,1.1,2.5,2.5,2.5h19.8c1.4,0,2.5-1.1,2.5-2.5v-11.6
	C52.8,116.6,51.7,115.4,50.3,115.4z M47.8,127H33v-6.6h14.8V127z M50.3,138.1H30.5c-1.4,0-2.5,1.1-2.5,2.5v11.6
	c0,1.4,1.1,2.5,2.5,2.5h19.8c1.4,0,2.5-1.1,2.5-2.5v-11.6C52.8,139.2,51.7,138.1,50.3,138.1z M47.8,149.6H33v-6.6h14.8V149.6z
	 M80.1,70.2H60.3c-1.4,0-2.5,1.1-2.5,2.5v11.6c0,1.4,1.1,2.5,2.5,2.5h19.8c1.4,0,2.5-1.1,2.5-2.5V72.7
	C82.6,71.3,81.5,70.2,80.1,70.2z M77.6,81.8H62.8v-6.6h14.8V81.8z M80.1,92.8H60.3c-1.4,0-2.5,1.1-2.5,2.5v11.6
	c0,1.4,1.1,2.5,2.5,2.5h19.8c1.4,0,2.5-1.1,2.5-2.5V95.3C82.6,93.9,81.5,92.8,80.1,92.8z M77.6,104.4H62.8v-6.6h14.8V104.4z
	 M80.1,115.4H60.3c-1.4,0-2.5,1.1-2.5,2.5v11.6c0,1.4,1.1,2.5,2.5,2.5h19.8c1.4,0,2.5-1.1,2.5-2.5v-11.6
	C82.6,116.6,81.5,115.4,80.1,115.4z M77.6,127H62.8v-6.6h14.8V127z M80.1,138.1H60.3c-1.4,0-2.5,1.1-2.5,2.5v11.6
	c0,1.4,1.1,2.5,2.5,2.5h19.8c1.4,0,2.5-1.1,2.5-2.5v-11.6C82.6,139.2,81.5,138.1,80.1,138.1z M77.6,149.6H62.8v-6.6h14.8V149.6z
	 M80.1,138.1H60.3c-1.4,0-2.5,1.1-2.5,2.5v11.6c0,1.4,1.1,2.5,2.5,2.5h19.8c1.4,0,2.5-1.1,2.5-2.5v-11.6
	C82.6,139.2,81.5,138.1,80.1,138.1z M77.6,149.6H62.8v-6.6h14.8V149.6z M80.1,115.4H60.3c-1.4,0-2.5,1.1-2.5,2.5v11.6
	c0,1.4,1.1,2.5,2.5,2.5h19.8c1.4,0,2.5-1.1,2.5-2.5v-11.6C82.6,116.6,81.5,115.4,80.1,115.4z M77.6,127H62.8v-6.6h14.8V127z
	 M80.1,92.8H60.3c-1.4,0-2.5,1.1-2.5,2.5v11.6c0,1.4,1.1,2.5,2.5,2.5h19.8c1.4,0,2.5-1.1,2.5-2.5V95.3
	C82.6,93.9,81.5,92.8,80.1,92.8z M77.6,104.4H62.8v-6.6h14.8V104.4z M80.1,70.2H60.3c-1.4,0-2.5,1.1-2.5,2.5v11.6
	c0,1.4,1.1,2.5,2.5,2.5h19.8c1.4,0,2.5-1.1,2.5-2.5V72.7C82.6,71.3,81.5,70.2,80.1,70.2z M77.6,81.8H62.8v-6.6h14.8V81.8z
	 M50.3,138.1H30.5c-1.4,0-2.5,1.1-2.5,2.5v11.6c0,1.4,1.1,2.5,2.5,2.5h19.8c1.4,0,2.5-1.1,2.5-2.5v-11.6
	C52.8,139.2,51.7,138.1,50.3,138.1z M47.8,149.6H33v-6.6h14.8V149.6z M50.3,115.4H30.5c-1.4,0-2.5,1.1-2.5,2.5v11.6
	c0,1.4,1.1,2.5,2.5,2.5h19.8c1.4,0,2.5-1.1,2.5-2.5v-11.6C52.8,116.6,51.7,115.4,50.3,115.4z M47.8,127H33v-6.6h14.8V127z
	 M50.3,92.8H30.5c-1.4,0-2.5,1.1-2.5,2.5v11.6c0,1.4,1.1,2.5,2.5,2.5h19.8c1.4,0,2.5-1.1,2.5-2.5V95.3
	C52.8,93.9,51.7,92.8,50.3,92.8z M47.8,104.4H33v-6.6h14.8V104.4z M50.3,70.2H30.5c-1.4,0-2.5,1.1-2.5,2.5v11.6
	c0,1.4,1.1,2.5,2.5,2.5h19.8c1.4,0,2.5-1.1,2.5-2.5V72.7C52.8,71.3,51.7,70.2,50.3,70.2z M47.8,81.8H33v-6.6h14.8V81.8z M50.3,70.2
	H30.5c-1.4,0-2.5,1.1-2.5,2.5v11.6c0,1.4,1.1,2.5,2.5,2.5h19.8c1.4,0,2.5-1.1,2.5-2.5V72.7C52.8,71.3,51.7,70.2,50.3,70.2z
	 M47.8,81.8H33v-6.6h14.8V81.8z M50.3,92.8H30.5c-1.4,0-2.5,1.1-2.5,2.5v11.6c0,1.4,1.1,2.5,2.5,2.5h19.8c1.4,0,2.5-1.1,2.5-2.5
	V95.3C52.8,93.9,51.7,92.8,50.3,92.8z M47.8,104.4H33v-6.6h14.8V104.4z M50.3,115.4H30.5c-1.4,0-2.5,1.1-2.5,2.5v11.6
	c0,1.4,1.1,2.5,2.5,2.5h19.8c1.4,0,2.5-1.1,2.5-2.5v-11.6C52.8,116.6,51.7,115.4,50.3,115.4z M47.8,127H33v-6.6h14.8V127z
	 M50.3,138.1H30.5c-1.4,0-2.5,1.1-2.5,2.5v11.6c0,1.4,1.1,2.5,2.5,2.5h19.8c1.4,0,2.5-1.1,2.5-2.5v-11.6
	C52.8,139.2,51.7,138.1,50.3,138.1z M47.8,149.6H33v-6.6h14.8V149.6z M80.1,70.2H60.3c-1.4,0-2.5,1.1-2.5,2.5v11.6
	c0,1.4,1.1,2.5,2.5,2.5h19.8c1.4,0,2.5-1.1,2.5-2.5V72.7C82.6,71.3,81.5,70.2,80.1,70.2z M77.6,81.8H62.8v-6.6h14.8V81.8z
	 M80.1,92.8H60.3c-1.4,0-2.5,1.1-2.5,2.5v11.6c0,1.4,1.1,2.5,2.5,2.5h19.8c1.4,0,2.5-1.1,2.5-2.5V95.3
	C82.6,93.9,81.5,92.8,80.1,92.8z M77.6,104.4H62.8v-6.6h14.8V104.4z M80.1,115.4H60.3c-1.4,0-2.5,1.1-2.5,2.5v11.6
	c0,1.4,1.1,2.5,2.5,2.5h19.8c1.4,0,2.5-1.1,2.5-2.5v-11.6C82.6,116.6,81.5,115.4,80.1,115.4z M77.6,127H62.8v-6.6h14.8V127z
	 M80.1,138.1H60.3c-1.4,0-2.5,1.1-2.5,2.5v11.6c0,1.4,1.1,2.5,2.5,2.5h19.8c1.4,0,2.5-1.1,2.5-2.5v-11.6
	C82.6,139.2,81.5,138.1,80.1,138.1z M77.6,149.6H62.8v-6.6h14.8V149.6z M80.1,138.1H60.3c-1.4,0-2.5,1.1-2.5,2.5v11.6
	c0,1.4,1.1,2.5,2.5,2.5h19.8c1.4,0,2.5-1.1,2.5-2.5v-11.6C82.6,139.2,81.5,138.1,80.1,138.1z M77.6,149.6H62.8v-6.6h14.8V149.6z
	 M80.1,115.4H60.3c-1.4,0-2.5,1.1-2.5,2.5v11.6c0,1.4,1.1,2.5,2.5,2.5h19.8c1.4,0,2.5-1.1,2.5-2.5v-11.6
	C82.6,116.6,81.5,115.4,80.1,115.4z M77.6,127H62.8v-6.6h14.8V127z M80.1,92.8H60.3c-1.4,0-2.5,1.1-2.5,2.5v11.6
	c0,1.4,1.1,2.5,2.5,2.5h19.8c1.4,0,2.5-1.1,2.5-2.5V95.3C82.6,93.9,81.5,92.8,80.1,92.8z M77.6,104.4H62.8v-6.6h14.8V104.4z
	 M80.1,70.2H60.3c-1.4,0-2.5,1.1-2.5,2.5v11.6c0,1.4,1.1,2.5,2.5,2.5h19.8c1.4,0,2.5-1.1,2.5-2.5V72.7
	C82.6,71.3,81.5,70.2,80.1,70.2z M77.6,81.8H62.8v-6.6h14.8V81.8z M50.3,138.1H30.5c-1.4,0-2.5,1.1-2.5,2.5v11.6
	c0,1.4,1.1,2.5,2.5,2.5h19.8c1.4,0,2.5-1.1,2.5-2.5v-11.6C52.8,139.2,51.7,138.1,50.3,138.1z M47.8,149.6H33v-6.6h14.8V149.6z
	 M50.3,115.4H30.5c-1.4,0-2.5,1.1-2.5,2.5v11.6c0,1.4,1.1,2.5,2.5,2.5h19.8c1.4,0,2.5-1.1,2.5-2.5v-11.6
	C52.8,116.6,51.7,115.4,50.3,115.4z M47.8,127H33v-6.6h14.8V127z M50.3,92.8H30.5c-1.4,0-2.5,1.1-2.5,2.5v11.6
	c0,1.4,1.1,2.5,2.5,2.5h19.8c1.4,0,2.5-1.1,2.5-2.5V95.3C52.8,93.9,51.7,92.8,50.3,92.8z M47.8,104.4H33v-6.6h14.8V104.4z
	 M50.3,70.2H30.5c-1.4,0-2.5,1.1-2.5,2.5v11.6c0,1.4,1.1,2.5,2.5,2.5h19.8c1.4,0,2.5-1.1,2.5-2.5V72.7
	C52.8,71.3,51.7,70.2,50.3,70.2z M47.8,81.8H33v-6.6h14.8V81.8z M50.3,70.2H30.5c-1.4,0-2.5,1.1-2.5,2.5v11.6c0,1.4,1.1,2.5,2.5,2.5
	h19.8c1.4,0,2.5-1.1,2.5-2.5V72.7C52.8,71.3,51.7,70.2,50.3,70.2z M47.8,81.8H33v-6.6h14.8V81.8z M50.3,92.8H30.5
	c-1.4,0-2.5,1.1-2.5,2.5v11.6c0,1.4,1.1,2.5,2.5,2.5h19.8c1.4,0,2.5-1.1,2.5-2.5V95.3C52.8,93.9,51.7,92.8,50.3,92.8z M47.8,104.4
	H33v-6.6h14.8V104.4z M50.3,115.4H30.5c-1.4,0-2.5,1.1-2.5,2.5v11.6c0,1.4,1.1,2.5,2.5,2.5h19.8c1.4,0,2.5-1.1,2.5-2.5v-11.6
	C52.8,116.6,51.7,115.4,50.3,115.4z M47.8,127H33v-6.6h14.8V127z M50.3,138.1H30.5c-1.4,0-2.5,1.1-2.5,2.5v11.6
	c0,1.4,1.1,2.5,2.5,2.5h19.8c1.4,0,2.5-1.1,2.5-2.5v-11.6C52.8,139.2,51.7,138.1,50.3,138.1z M47.8,149.6H33v-6.6h14.8V149.6z
	 M80.1,70.2H60.3c-1.4,0-2.5,1.1-2.5,2.5v11.6c0,1.4,1.1,2.5,2.5,2.5h19.8c1.4,0,2.5-1.1,2.5-2.5V72.7
	C82.6,71.3,81.5,70.2,80.1,70.2z M77.6,81.8H62.8v-6.6h14.8V81.8z M80.1,92.8H60.3c-1.4,0-2.5,1.1-2.5,2.5v11.6
	c0,1.4,1.1,2.5,2.5,2.5h19.8c1.4,0,2.5-1.1,2.5-2.5V95.3C82.6,93.9,81.5,92.8,80.1,92.8z M77.6,104.4H62.8v-6.6h14.8V104.4z
	 M80.1,115.4H60.3c-1.4,0-2.5,1.1-2.5,2.5v11.6c0,1.4,1.1,2.5,2.5,2.5h19.8c1.4,0,2.5-1.1,2.5-2.5v-11.6
	C82.6,116.6,81.5,115.4,80.1,115.4z M77.6,127H62.8v-6.6h14.8V127z M80.1,138.1H60.3c-1.4,0-2.5,1.1-2.5,2.5v11.6
	c0,1.4,1.1,2.5,2.5,2.5h19.8c1.4,0,2.5-1.1,2.5-2.5v-11.6C82.6,139.2,81.5,138.1,80.1,138.1z M77.6,149.6H62.8v-6.6h14.8V149.6z
	 M80.1,138.1H60.3c-1.4,0-2.5,1.1-2.5,2.5v11.6c0,1.4,1.1,2.5,2.5,2.5h19.8c1.4,0,2.5-1.1,2.5-2.5v-11.6
	C82.6,139.2,81.5,138.1,80.1,138.1z M77.6,149.6H62.8v-6.6h14.8V149.6z M80.1,115.4H60.3c-1.4,0-2.5,1.1-2.5,2.5v11.6
	c0,1.4,1.1,2.5,2.5,2.5h19.8c1.4,0,2.5-1.1,2.5-2.5v-11.6C82.6,116.6,81.5,115.4,80.1,115.4z M77.6,127H62.8v-6.6h14.8V127z
	 M80.1,92.8H60.3c-1.4,0-2.5,1.1-2.5,2.5v11.6c0,1.4,1.1,2.5,2.5,2.5h19.8c1.4,0,2.5-1.1,2.5-2.5V95.3
	C82.6,93.9,81.5,92.8,80.1,92.8z M77.6,104.4H62.8v-6.6h14.8V104.4z M80.1,70.2H60.3c-1.4,0-2.5,1.1-2.5,2.5v11.6
	c0,1.4,1.1,2.5,2.5,2.5h19.8c1.4,0,2.5-1.1,2.5-2.5V72.7C82.6,71.3,81.5,70.2,80.1,70.2z M77.6,81.8H62.8v-6.6h14.8V81.8z
	 M50.3,138.1H30.5c-1.4,0-2.5,1.1-2.5,2.5v11.6c0,1.4,1.1,2.5,2.5,2.5h19.8c1.4,0,2.5-1.1,2.5-2.5v-11.6
	C52.8,139.2,51.7,138.1,50.3,138.1z M47.8,149.6H33v-6.6h14.8V149.6z M50.3,115.4H30.5c-1.4,0-2.5,1.1-2.5,2.5v11.6
	c0,1.4,1.1,2.5,2.5,2.5h19.8c1.4,0,2.5-1.1,2.5-2.5v-11.6C52.8,116.6,51.7,115.4,50.3,115.4z M47.8,127H33v-6.6h14.8V127z
	 M50.3,92.8H30.5c-1.4,0-2.5,1.1-2.5,2.5v11.6c0,1.4,1.1,2.5,2.5,2.5h19.8c1.4,0,2.5-1.1,2.5-2.5V95.3
	C52.8,93.9,51.7,92.8,50.3,92.8z M47.8,104.4H33v-6.6h14.8V104.4z M50.3,70.2H30.5c-1.4,0-2.5,1.1-2.5,2.5v11.6
	c0,1.4,1.1,2.5,2.5,2.5h19.8c1.4,0,2.5-1.1,2.5-2.5V72.7C52.8,71.3,51.7,70.2,50.3,70.2z M47.8,81.8H33v-6.6h14.8V81.8z M50.3,70.2
	H30.5c-1.4,0-2.5,1.1-2.5,2.5v11.6c0,1.4,1.1,2.5,2.5,2.5h19.8c1.4,0,2.5-1.1,2.5-2.5V72.7C52.8,71.3,51.7,70.2,50.3,70.2z
	 M47.8,81.8H33v-6.6h14.8V81.8z M50.3,92.8H30.5c-1.4,0-2.5,1.1-2.5,2.5v11.6c0,1.4,1.1,2.5,2.5,2.5h19.8c1.4,0,2.5-1.1,2.5-2.5
	V95.3C52.8,93.9,51.7,92.8,50.3,92.8z M47.8,104.4H33v-6.6h14.8V104.4z M50.3,115.4H30.5c-1.4,0-2.5,1.1-2.5,2.5v11.6
	c0,1.4,1.1,2.5,2.5,2.5h19.8c1.4,0,2.5-1.1,2.5-2.5v-11.6C52.8,116.6,51.7,115.4,50.3,115.4z M47.8,127H33v-6.6h14.8V127z
	 M50.3,138.1H30.5c-1.4,0-2.5,1.1-2.5,2.5v11.6c0,1.4,1.1,2.5,2.5,2.5h19.8c1.4,0,2.5-1.1,2.5-2.5v-11.6
	C52.8,139.2,51.7,138.1,50.3,138.1z M47.8,149.6H33v-6.6h14.8V149.6z M80.1,70.2H60.3c-1.4,0-2.5,1.1-2.5,2.5v11.6
	c0,1.4,1.1,2.5,2.5,2.5h19.8c1.4,0,2.5-1.1,2.5-2.5V72.7C82.6,71.3,81.5,70.2,80.1,70.2z M77.6,81.8H62.8v-6.6h14.8V81.8z
	 M80.1,92.8H60.3c-1.4,0-2.5,1.1-2.5,2.5v11.6c0,1.4,1.1,2.5,2.5,2.5h19.8c1.4,0,2.5-1.1,2.5-2.5V95.3
	C82.6,93.9,81.5,92.8,80.1,92.8z M77.6,104.4H62.8v-6.6h14.8V104.4z M80.1,115.4H60.3c-1.4,0-2.5,1.1-2.5,2.5v11.6
	c0,1.4,1.1,2.5,2.5,2.5h19.8c1.4,0,2.5-1.1,2.5-2.5v-11.6C82.6,116.6,81.5,115.4,80.1,115.4z M77.6,127H62.8v-6.6h14.8V127z
	 M80.1,138.1H60.3c-1.4,0-2.5,1.1-2.5,2.5v11.6c0,1.4,1.1,2.5,2.5,2.5h19.8c1.4,0,2.5-1.1,2.5-2.5v-11.6
	C82.6,139.2,81.5,138.1,80.1,138.1z M77.6,149.6H62.8v-6.6h14.8V149.6z M80.1,138.1H60.3c-1.4,0-2.5,1.1-2.5,2.5v11.6
	c0,1.4,1.1,2.5,2.5,2.5h19.8c1.4,0,2.5-1.1,2.5-2.5v-11.6C82.6,139.2,81.5,138.1,80.1,138.1z M77.6,149.6H62.8v-6.6h14.8V149.6z
	 M80.1,115.4H60.3c-1.4,0-2.5,1.1-2.5,2.5v11.6c0,1.4,1.1,2.5,2.5,2.5h19.8c1.4,0,2.5-1.1,2.5-2.5v-11.6
	C82.6,116.6,81.5,115.4,80.1,115.4z M77.6,127H62.8v-6.6h14.8V127z M80.1,92.8H60.3c-1.4,0-2.5,1.1-2.5,2.5v11.6
	c0,1.4,1.1,2.5,2.5,2.5h19.8c1.4,0,2.5-1.1,2.5-2.5V95.3C82.6,93.9,81.5,92.8,80.1,92.8z M77.6,104.4H62.8v-6.6h14.8V104.4z
	 M80.1,70.2H60.3c-1.4,0-2.5,1.1-2.5,2.5v11.6c0,1.4,1.1,2.5,2.5,2.5h19.8c1.4,0,2.5-1.1,2.5-2.5V72.7
	C82.6,71.3,81.5,70.2,80.1,70.2z M77.6,81.8H62.8v-6.6h14.8V81.8z M50.3,138.1H30.5c-1.4,0-2.5,1.1-2.5,2.5v11.6
	c0,1.4,1.1,2.5,2.5,2.5h19.8c1.4,0,2.5-1.1,2.5-2.5v-11.6C52.8,139.2,51.7,138.1,50.3,138.1z M47.8,149.6H33v-6.6h14.8V149.6z
	 M50.3,115.4H30.5c-1.4,0-2.5,1.1-2.5,2.5v11.6c0,1.4,1.1,2.5,2.5,2.5h19.8c1.4,0,2.5-1.1,2.5-2.5v-11.6
	C52.8,116.6,51.7,115.4,50.3,115.4z M47.8,127H33v-6.6h14.8V127z M50.3,92.8H30.5c-1.4,0-2.5,1.1-2.5,2.5v11.6
	c0,1.4,1.1,2.5,2.5,2.5h19.8c1.4,0,2.5-1.1,2.5-2.5V95.3C52.8,93.9,51.7,92.8,50.3,92.8z M47.8,104.4H33v-6.6h14.8V104.4z
	 M50.3,70.2H30.5c-1.4,0-2.5,1.1-2.5,2.5v11.6c0,1.4,1.1,2.5,2.5,2.5h19.8c1.4,0,2.5-1.1,2.5-2.5V72.7
	C52.8,71.3,51.7,70.2,50.3,70.2z M47.8,81.8H33v-6.6h14.8V81.8z M50.3,70.2H30.5c-1.4,0-2.5,1.1-2.5,2.5v11.6c0,1.4,1.1,2.5,2.5,2.5
	h19.8c1.4,0,2.5-1.1,2.5-2.5V72.7C52.8,71.3,51.7,70.2,50.3,70.2z M47.8,81.8H33v-6.6h14.8V81.8z M50.3,92.8H30.5
	c-1.4,0-2.5,1.1-2.5,2.5v11.6c0,1.4,1.1,2.5,2.5,2.5h19.8c1.4,0,2.5-1.1,2.5-2.5V95.3C52.8,93.9,51.7,92.8,50.3,92.8z M47.8,104.4
	H33v-6.6h14.8V104.4z M50.3,115.4H30.5c-1.4,0-2.5,1.1-2.5,2.5v11.6c0,1.4,1.1,2.5,2.5,2.5h19.8c1.4,0,2.5-1.1,2.5-2.5v-11.6
	C52.8,116.6,51.7,115.4,50.3,115.4z M47.8,127H33v-6.6h14.8V127z M50.3,138.1H30.5c-1.4,0-2.5,1.1-2.5,2.5v11.6
	c0,1.4,1.1,2.5,2.5,2.5h19.8c1.4,0,2.5-1.1,2.5-2.5v-11.6C52.8,139.2,51.7,138.1,50.3,138.1z M47.8,149.6H33v-6.6h14.8V149.6z
	 M80.1,70.2H60.3c-1.4,0-2.5,1.1-2.5,2.5v11.6c0,1.4,1.1,2.5,2.5,2.5h19.8c1.4,0,2.5-1.1,2.5-2.5V72.7
	C82.6,71.3,81.5,70.2,80.1,70.2z M77.6,81.8H62.8v-6.6h14.8V81.8z M80.1,92.8H60.3c-1.4,0-2.5,1.1-2.5,2.5v11.6
	c0,1.4,1.1,2.5,2.5,2.5h19.8c1.4,0,2.5-1.1,2.5-2.5V95.3C82.6,93.9,81.5,92.8,80.1,92.8z M77.6,104.4H62.8v-6.6h14.8V104.4z
	 M80.1,115.4H60.3c-1.4,0-2.5,1.1-2.5,2.5v11.6c0,1.4,1.1,2.5,2.5,2.5h19.8c1.4,0,2.5-1.1,2.5-2.5v-11.6
	C82.6,116.6,81.5,115.4,80.1,115.4z M77.6,127H62.8v-6.6h14.8V127z M80.1,138.1H60.3c-1.4,0-2.5,1.1-2.5,2.5v11.6
	c0,1.4,1.1,2.5,2.5,2.5h19.8c1.4,0,2.5-1.1,2.5-2.5v-11.6C82.6,139.2,81.5,138.1,80.1,138.1z M77.6,149.6H62.8v-6.6h14.8V149.6z
	 M80.1,138.1H60.3c-1.4,0-2.5,1.1-2.5,2.5v11.6c0,1.4,1.1,2.5,2.5,2.5h19.8c1.4,0,2.5-1.1,2.5-2.5v-11.6
	C82.6,139.2,81.5,138.1,80.1,138.1z M77.6,149.6H62.8v-6.6h14.8V149.6z M80.1,115.4H60.3c-1.4,0-2.5,1.1-2.5,2.5v11.6
	c0,1.4,1.1,2.5,2.5,2.5h19.8c1.4,0,2.5-1.1,2.5-2.5v-11.6C82.6,116.6,81.5,115.4,80.1,115.4z M77.6,127H62.8v-6.6h14.8V127z
	 M80.1,92.8H60.3c-1.4,0-2.5,1.1-2.5,2.5v11.6c0,1.4,1.1,2.5,2.5,2.5h19.8c1.4,0,2.5-1.1,2.5-2.5V95.3
	C82.6,93.9,81.5,92.8,80.1,92.8z M77.6,104.4H62.8v-6.6h14.8V104.4z M80.1,70.2H60.3c-1.4,0-2.5,1.1-2.5,2.5v11.6
	c0,1.4,1.1,2.5,2.5,2.5h19.8c1.4,0,2.5-1.1,2.5-2.5V72.7C82.6,71.3,81.5,70.2,80.1,70.2z M77.6,81.8H62.8v-6.6h14.8V81.8z
	 M50.3,138.1H30.5c-1.4,0-2.5,1.1-2.5,2.5v11.6c0,1.4,1.1,2.5,2.5,2.5h19.8c1.4,0,2.5-1.1,2.5-2.5v-11.6
	C52.8,139.2,51.7,138.1,50.3,138.1z M47.8,149.6H33v-6.6h14.8V149.6z M50.3,115.4H30.5c-1.4,0-2.5,1.1-2.5,2.5v11.6
	c0,1.4,1.1,2.5,2.5,2.5h19.8c1.4,0,2.5-1.1,2.5-2.5v-11.6C52.8,116.6,51.7,115.4,50.3,115.4z M47.8,127H33v-6.6h14.8V127z
	 M50.3,92.8H30.5c-1.4,0-2.5,1.1-2.5,2.5v11.6c0,1.4,1.1,2.5,2.5,2.5h19.8c1.4,0,2.5-1.1,2.5-2.5V95.3
	C52.8,93.9,51.7,92.8,50.3,92.8z M47.8,104.4H33v-6.6h14.8V104.4z M50.3,70.2H30.5c-1.4,0-2.5,1.1-2.5,2.5v11.6
	c0,1.4,1.1,2.5,2.5,2.5h19.8c1.4,0,2.5-1.1,2.5-2.5V72.7C52.8,71.3,51.7,70.2,50.3,70.2z M47.8,81.8H33v-6.6h14.8V81.8z M87.8,63.4
	v107.5h-65V63.4H87.8z M60.3,154.6h19.8c1.4,0,2.5-1.1,2.5-2.5v-11.6c0-1.4-1.1-2.5-2.5-2.5H60.3c-1.4,0-2.5,1.1-2.5,2.5v11.6
	C57.8,153.5,58.9,154.6,60.3,154.6z M62.8,143.1h14.8v6.6H62.8V143.1z M60.3,132h19.8c1.4,0,2.5-1.1,2.5-2.5v-11.6
	c0-1.4-1.1-2.5-2.5-2.5H60.3c-1.4,0-2.5,1.1-2.5,2.5v11.6C57.8,130.9,58.9,132,60.3,132z M62.8,120.4h14.8v6.6H62.8V120.4z
	 M60.3,109.4h19.8c1.4,0,2.5-1.1,2.5-2.5V95.3c0-1.4-1.1-2.5-2.5-2.5H60.3c-1.4,0-2.5,1.1-2.5,2.5v11.6
	C57.8,108.3,58.9,109.4,60.3,109.4z M62.8,97.8h14.8v6.6H62.8V97.8z M60.3,86.8h19.8c1.4,0,2.5-1.1,2.5-2.5V72.7
	c0-1.4-1.1-2.5-2.5-2.5H60.3c-1.4,0-2.5,1.1-2.5,2.5v11.6C57.8,85.7,58.9,86.8,60.3,86.8z M62.8,75.2h14.8v6.6H62.8V75.2z
	 M30.5,154.6h19.8c1.4,0,2.5-1.1,2.5-2.5v-11.6c0-1.4-1.1-2.5-2.5-2.5H30.5c-1.4,0-2.5,1.1-2.5,2.5v11.6
	C28,153.5,29.1,154.6,30.5,154.6z M33,143.1h14.8v6.6H33V143.1z M30.5,132h19.8c1.4,0,2.5-1.1,2.5-2.5v-11.6c0-1.4-1.1-2.5-2.5-2.5
	H30.5c-1.4,0-2.5,1.1-2.5,2.5v11.6C28,130.9,29.1,132,30.5,132z M33,120.4h14.8v6.6H33V120.4z M30.5,109.4h19.8
	c1.4,0,2.5-1.1,2.5-2.5V95.3c0-1.4-1.1-2.5-2.5-2.5H30.5c-1.4,0-2.5,1.1-2.5,2.5v11.6C28,108.3,29.1,109.4,30.5,109.4z M33,97.8
	h14.8v6.6H33V97.8z M30.5,86.8h19.8c1.4,0,2.5-1.1,2.5-2.5V72.7c0-1.4-1.1-2.5-2.5-2.5H30.5c-1.4,0-2.5,1.1-2.5,2.5v11.6
	C28,85.7,29.1,86.8,30.5,86.8z M33,75.2h14.8v6.6H33V75.2z M50.3,70.2H30.5c-1.4,0-2.5,1.1-2.5,2.5v11.6c0,1.4,1.1,2.5,2.5,2.5h19.8
	c1.4,0,2.5-1.1,2.5-2.5V72.7C52.8,71.3,51.7,70.2,50.3,70.2z M47.8,81.8H33v-6.6h14.8V81.8z M50.3,92.8H30.5c-1.4,0-2.5,1.1-2.5,2.5
	v11.6c0,1.4,1.1,2.5,2.5,2.5h19.8c1.4,0,2.5-1.1,2.5-2.5V95.3C52.8,93.9,51.7,92.8,50.3,92.8z M47.8,104.4H33v-6.6h14.8V104.4z
	 M50.3,115.4H30.5c-1.4,0-2.5,1.1-2.5,2.5v11.6c0,1.4,1.1,2.5,2.5,2.5h19.8c1.4,0,2.5-1.1,2.5-2.5v-11.6
	C52.8,116.6,51.7,115.4,50.3,115.4z M47.8,127H33v-6.6h14.8V127z M50.3,138.1H30.5c-1.4,0-2.5,1.1-2.5,2.5v11.6
	c0,1.4,1.1,2.5,2.5,2.5h19.8c1.4,0,2.5-1.1,2.5-2.5v-11.6C52.8,139.2,51.7,138.1,50.3,138.1z M47.8,149.6H33v-6.6h14.8V149.6z
	 M80.1,70.2H60.3c-1.4,0-2.5,1.1-2.5,2.5v11.6c0,1.4,1.1,2.5,2.5,2.5h19.8c1.4,0,2.5-1.1,2.5-2.5V72.7
	C82.6,71.3,81.5,70.2,80.1,70.2z M77.6,81.8H62.8v-6.6h14.8V81.8z M80.1,92.8H60.3c-1.4,0-2.5,1.1-2.5,2.5v11.6
	c0,1.4,1.1,2.5,2.5,2.5h19.8c1.4,0,2.5-1.1,2.5-2.5V95.3C82.6,93.9,81.5,92.8,80.1,92.8z M77.6,104.4H62.8v-6.6h14.8V104.4z
	 M80.1,115.4H60.3c-1.4,0-2.5,1.1-2.5,2.5v11.6c0,1.4,1.1,2.5,2.5,2.5h19.8c1.4,0,2.5-1.1,2.5-2.5v-11.6
	C82.6,116.6,81.5,115.4,80.1,115.4z M77.6,127H62.8v-6.6h14.8V127z M80.1,138.1H60.3c-1.4,0-2.5,1.1-2.5,2.5v11.6
	c0,1.4,1.1,2.5,2.5,2.5h19.8c1.4,0,2.5-1.1,2.5-2.5v-11.6C82.6,139.2,81.5,138.1,80.1,138.1z M77.6,149.6H62.8v-6.6h14.8V149.6z
	 M80.1,138.1H60.3c-1.4,0-2.5,1.1-2.5,2.5v11.6c0,1.4,1.1,2.5,2.5,2.5h19.8c1.4,0,2.5-1.1,2.5-2.5v-11.6
	C82.6,139.2,81.5,138.1,80.1,138.1z M77.6,149.6H62.8v-6.6h14.8V149.6z M80.1,115.4H60.3c-1.4,0-2.5,1.1-2.5,2.5v11.6
	c0,1.4,1.1,2.5,2.5,2.5h19.8c1.4,0,2.5-1.1,2.5-2.5v-11.6C82.6,116.6,81.5,115.4,80.1,115.4z M77.6,127H62.8v-6.6h14.8V127z
	 M80.1,92.8H60.3c-1.4,0-2.5,1.1-2.5,2.5v11.6c0,1.4,1.1,2.5,2.5,2.5h19.8c1.4,0,2.5-1.1,2.5-2.5V95.3
	C82.6,93.9,81.5,92.8,80.1,92.8z M77.6,104.4H62.8v-6.6h14.8V104.4z M80.1,70.2H60.3c-1.4,0-2.5,1.1-2.5,2.5v11.6
	c0,1.4,1.1,2.5,2.5,2.5h19.8c1.4,0,2.5-1.1,2.5-2.5V72.7C82.6,71.3,81.5,70.2,80.1,70.2z M77.6,81.8H62.8v-6.6h14.8V81.8z
	 M50.3,138.1H30.5c-1.4,0-2.5,1.1-2.5,2.5v11.6c0,1.4,1.1,2.5,2.5,2.5h19.8c1.4,0,2.5-1.1,2.5-2.5v-11.6
	C52.8,139.2,51.7,138.1,50.3,138.1z M47.8,149.6H33v-6.6h14.8V149.6z M50.3,115.4H30.5c-1.4,0-2.5,1.1-2.5,2.5v11.6
	c0,1.4,1.1,2.5,2.5,2.5h19.8c1.4,0,2.5-1.1,2.5-2.5v-11.6C52.8,116.6,51.7,115.4,50.3,115.4z M47.8,127H33v-6.6h14.8V127z
	 M50.3,92.8H30.5c-1.4,0-2.5,1.1-2.5,2.5v11.6c0,1.4,1.1,2.5,2.5,2.5h19.8c1.4,0,2.5-1.1,2.5-2.5V95.3
	C52.8,93.9,51.7,92.8,50.3,92.8z M47.8,104.4H33v-6.6h14.8V104.4z M50.3,70.2H30.5c-1.4,0-2.5,1.1-2.5,2.5v11.6
	c0,1.4,1.1,2.5,2.5,2.5h19.8c1.4,0,2.5-1.1,2.5-2.5V72.7C52.8,71.3,51.7,70.2,50.3,70.2z M47.8,81.8H33v-6.6h14.8V81.8z M50.3,70.2
	H30.5c-1.4,0-2.5,1.1-2.5,2.5v11.6c0,1.4,1.1,2.5,2.5,2.5h19.8c1.4,0,2.5-1.1,2.5-2.5V72.7C52.8,71.3,51.7,70.2,50.3,70.2z
	 M47.8,81.8H33v-6.6h14.8V81.8z M50.3,92.8H30.5c-1.4,0-2.5,1.1-2.5,2.5v11.6c0,1.4,1.1,2.5,2.5,2.5h19.8c1.4,0,2.5-1.1,2.5-2.5
	V95.3C52.8,93.9,51.7,92.8,50.3,92.8z M47.8,104.4H33v-6.6h14.8V104.4z M50.3,115.4H30.5c-1.4,0-2.5,1.1-2.5,2.5v11.6
	c0,1.4,1.1,2.5,2.5,2.5h19.8c1.4,0,2.5-1.1,2.5-2.5v-11.6C52.8,116.6,51.7,115.4,50.3,115.4z M47.8,127H33v-6.6h14.8V127z
	 M50.3,138.1H30.5c-1.4,0-2.5,1.1-2.5,2.5v11.6c0,1.4,1.1,2.5,2.5,2.5h19.8c1.4,0,2.5-1.1,2.5-2.5v-11.6
	C52.8,139.2,51.7,138.1,50.3,138.1z M47.8,149.6H33v-6.6h14.8V149.6z M80.1,70.2H60.3c-1.4,0-2.5,1.1-2.5,2.5v11.6
	c0,1.4,1.1,2.5,2.5,2.5h19.8c1.4,0,2.5-1.1,2.5-2.5V72.7C82.6,71.3,81.5,70.2,80.1,70.2z M77.6,81.8H62.8v-6.6h14.8V81.8z
	 M80.1,92.8H60.3c-1.4,0-2.5,1.1-2.5,2.5v11.6c0,1.4,1.1,2.5,2.5,2.5h19.8c1.4,0,2.5-1.1,2.5-2.5V95.3
	C82.6,93.9,81.5,92.8,80.1,92.8z M77.6,104.4H62.8v-6.6h14.8V104.4z M80.1,115.4H60.3c-1.4,0-2.5,1.1-2.5,2.5v11.6
	c0,1.4,1.1,2.5,2.5,2.5h19.8c1.4,0,2.5-1.1,2.5-2.5v-11.6C82.6,116.6,81.5,115.4,80.1,115.4z M77.6,127H62.8v-6.6h14.8V127z
	 M80.1,138.1H60.3c-1.4,0-2.5,1.1-2.5,2.5v11.6c0,1.4,1.1,2.5,2.5,2.5h19.8c1.4,0,2.5-1.1,2.5-2.5v-11.6
	C82.6,139.2,81.5,138.1,80.1,138.1z M77.6,149.6H62.8v-6.6h14.8V149.6z M80.1,138.1H60.3c-1.4,0-2.5,1.1-2.5,2.5v11.6
	c0,1.4,1.1,2.5,2.5,2.5h19.8c1.4,0,2.5-1.1,2.5-2.5v-11.6C82.6,139.2,81.5,138.1,80.1,138.1z M77.6,149.6H62.8v-6.6h14.8V149.6z
	 M80.1,115.4H60.3c-1.4,0-2.5,1.1-2.5,2.5v11.6c0,1.4,1.1,2.5,2.5,2.5h19.8c1.4,0,2.5-1.1,2.5-2.5v-11.6
	C82.6,116.6,81.5,115.4,80.1,115.4z M77.6,127H62.8v-6.6h14.8V127z M80.1,92.8H60.3c-1.4,0-2.5,1.1-2.5,2.5v11.6
	c0,1.4,1.1,2.5,2.5,2.5h19.8c1.4,0,2.5-1.1,2.5-2.5V95.3C82.6,93.9,81.5,92.8,80.1,92.8z M77.6,104.4H62.8v-6.6h14.8V104.4z
	 M80.1,70.2H60.3c-1.4,0-2.5,1.1-2.5,2.5v11.6c0,1.4,1.1,2.5,2.5,2.5h19.8c1.4,0,2.5-1.1,2.5-2.5V72.7
	C82.6,71.3,81.5,70.2,80.1,70.2z M77.6,81.8H62.8v-6.6h14.8V81.8z M50.3,138.1H30.5c-1.4,0-2.5,1.1-2.5,2.5v11.6
	c0,1.4,1.1,2.5,2.5,2.5h19.8c1.4,0,2.5-1.1,2.5-2.5v-11.6C52.8,139.2,51.7,138.1,50.3,138.1z M47.8,149.6H33v-6.6h14.8V149.6z
	 M50.3,115.4H30.5c-1.4,0-2.5,1.1-2.5,2.5v11.6c0,1.4,1.1,2.5,2.5,2.5h19.8c1.4,0,2.5-1.1,2.5-2.5v-11.6
	C52.8,116.6,51.7,115.4,50.3,115.4z M47.8,127H33v-6.6h14.8V127z M50.3,92.8H30.5c-1.4,0-2.5,1.1-2.5,2.5v11.6
	c0,1.4,1.1,2.5,2.5,2.5h19.8c1.4,0,2.5-1.1,2.5-2.5V95.3C52.8,93.9,51.7,92.8,50.3,92.8z M47.8,104.4H33v-6.6h14.8V104.4z
	 M50.3,70.2H30.5c-1.4,0-2.5,1.1-2.5,2.5v11.6c0,1.4,1.1,2.5,2.5,2.5h19.8c1.4,0,2.5-1.1,2.5-2.5V72.7
	C52.8,71.3,51.7,70.2,50.3,70.2z M47.8,81.8H33v-6.6h14.8V81.8z M50.3,70.2H30.5c-1.4,0-2.5,1.1-2.5,2.5v11.6c0,1.4,1.1,2.5,2.5,2.5
	h19.8c1.4,0,2.5-1.1,2.5-2.5V72.7C52.8,71.3,51.7,70.2,50.3,70.2z M47.8,81.8H33v-6.6h14.8V81.8z M50.3,92.8H30.5
	c-1.4,0-2.5,1.1-2.5,2.5v11.6c0,1.4,1.1,2.5,2.5,2.5h19.8c1.4,0,2.5-1.1,2.5-2.5V95.3C52.8,93.9,51.7,92.8,50.3,92.8z M47.8,104.4
	H33v-6.6h14.8V104.4z M50.3,115.4H30.5c-1.4,0-2.5,1.1-2.5,2.5v11.6c0,1.4,1.1,2.5,2.5,2.5h19.8c1.4,0,2.5-1.1,2.5-2.5v-11.6
	C52.8,116.6,51.7,115.4,50.3,115.4z M47.8,127H33v-6.6h14.8V127z M50.3,138.1H30.5c-1.4,0-2.5,1.1-2.5,2.5v11.6
	c0,1.4,1.1,2.5,2.5,2.5h19.8c1.4,0,2.5-1.1,2.5-2.5v-11.6C52.8,139.2,51.7,138.1,50.3,138.1z M47.8,149.6H33v-6.6h14.8V149.6z
	 M80.1,70.2H60.3c-1.4,0-2.5,1.1-2.5,2.5v11.6c0,1.4,1.1,2.5,2.5,2.5h19.8c1.4,0,2.5-1.1,2.5-2.5V72.7
	C82.6,71.3,81.5,70.2,80.1,70.2z M77.6,81.8H62.8v-6.6h14.8V81.8z M80.1,92.8H60.3c-1.4,0-2.5,1.1-2.5,2.5v11.6
	c0,1.4,1.1,2.5,2.5,2.5h19.8c1.4,0,2.5-1.1,2.5-2.5V95.3C82.6,93.9,81.5,92.8,80.1,92.8z M77.6,104.4H62.8v-6.6h14.8V104.4z
	 M80.1,115.4H60.3c-1.4,0-2.5,1.1-2.5,2.5v11.6c0,1.4,1.1,2.5,2.5,2.5h19.8c1.4,0,2.5-1.1,2.5-2.5v-11.6
	C82.6,116.6,81.5,115.4,80.1,115.4z M77.6,127H62.8v-6.6h14.8V127z M80.1,138.1H60.3c-1.4,0-2.5,1.1-2.5,2.5v11.6
	c0,1.4,1.1,2.5,2.5,2.5h19.8c1.4,0,2.5-1.1,2.5-2.5v-11.6C82.6,139.2,81.5,138.1,80.1,138.1z M77.6,149.6H62.8v-6.6h14.8V149.6z
	 M80.1,138.1H60.3c-1.4,0-2.5,1.1-2.5,2.5v11.6c0,1.4,1.1,2.5,2.5,2.5h19.8c1.4,0,2.5-1.1,2.5-2.5v-11.6
	C82.6,139.2,81.5,138.1,80.1,138.1z M77.6,149.6H62.8v-6.6h14.8V149.6z M80.1,115.4H60.3c-1.4,0-2.5,1.1-2.5,2.5v11.6
	c0,1.4,1.1,2.5,2.5,2.5h19.8c1.4,0,2.5-1.1,2.5-2.5v-11.6C82.6,116.6,81.5,115.4,80.1,115.4z M77.6,127H62.8v-6.6h14.8V127z
	 M80.1,92.8H60.3c-1.4,0-2.5,1.1-2.5,2.5v11.6c0,1.4,1.1,2.5,2.5,2.5h19.8c1.4,0,2.5-1.1,2.5-2.5V95.3
	C82.6,93.9,81.5,92.8,80.1,92.8z M77.6,104.4H62.8v-6.6h14.8V104.4z M80.1,70.2H60.3c-1.4,0-2.5,1.1-2.5,2.5v11.6
	c0,1.4,1.1,2.5,2.5,2.5h19.8c1.4,0,2.5-1.1,2.5-2.5V72.7C82.6,71.3,81.5,70.2,80.1,70.2z M77.6,81.8H62.8v-6.6h14.8V81.8z
	 M50.3,138.1H30.5c-1.4,0-2.5,1.1-2.5,2.5v11.6c0,1.4,1.1,2.5,2.5,2.5h19.8c1.4,0,2.5-1.1,2.5-2.5v-11.6
	C52.8,139.2,51.7,138.1,50.3,138.1z M47.8,149.6H33v-6.6h14.8V149.6z M50.3,115.4H30.5c-1.4,0-2.5,1.1-2.5,2.5v11.6
	c0,1.4,1.1,2.5,2.5,2.5h19.8c1.4,0,2.5-1.1,2.5-2.5v-11.6C52.8,116.6,51.7,115.4,50.3,115.4z M47.8,127H33v-6.6h14.8V127z
	 M50.3,92.8H30.5c-1.4,0-2.5,1.1-2.5,2.5v11.6c0,1.4,1.1,2.5,2.5,2.5h19.8c1.4,0,2.5-1.1,2.5-2.5V95.3
	C52.8,93.9,51.7,92.8,50.3,92.8z M47.8,104.4H33v-6.6h14.8V104.4z M50.3,70.2H30.5c-1.4,0-2.5,1.1-2.5,2.5v11.6
	c0,1.4,1.1,2.5,2.5,2.5h19.8c1.4,0,2.5-1.1,2.5-2.5V72.7C52.8,71.3,51.7,70.2,50.3,70.2z M47.8,81.8H33v-6.6h14.8V81.8z M50.3,70.2
	H30.5c-1.4,0-2.5,1.1-2.5,2.5v11.6c0,1.4,1.1,2.5,2.5,2.5h19.8c1.4,0,2.5-1.1,2.5-2.5V72.7C52.8,71.3,51.7,70.2,50.3,70.2z
	 M47.8,81.8H33v-6.6h14.8V81.8z M50.3,92.8H30.5c-1.4,0-2.5,1.1-2.5,2.5v11.6c0,1.4,1.1,2.5,2.5,2.5h19.8c1.4,0,2.5-1.1,2.5-2.5
	V95.3C52.8,93.9,51.7,92.8,50.3,92.8z M47.8,104.4H33v-6.6h14.8V104.4z M50.3,115.4H30.5c-1.4,0-2.5,1.1-2.5,2.5v11.6
	c0,1.4,1.1,2.5,2.5,2.5h19.8c1.4,0,2.5-1.1,2.5-2.5v-11.6C52.8,116.6,51.7,115.4,50.3,115.4z M47.8,127H33v-6.6h14.8V127z
	 M50.3,138.1H30.5c-1.4,0-2.5,1.1-2.5,2.5v11.6c0,1.4,1.1,2.5,2.5,2.5h19.8c1.4,0,2.5-1.1,2.5-2.5v-11.6
	C52.8,139.2,51.7,138.1,50.3,138.1z M47.8,149.6H33v-6.6h14.8V149.6z M80.1,70.2H60.3c-1.4,0-2.5,1.1-2.5,2.5v11.6
	c0,1.4,1.1,2.5,2.5,2.5h19.8c1.4,0,2.5-1.1,2.5-2.5V72.7C82.6,71.3,81.5,70.2,80.1,70.2z M77.6,81.8H62.8v-6.6h14.8V81.8z
	 M80.1,92.8H60.3c-1.4,0-2.5,1.1-2.5,2.5v11.6c0,1.4,1.1,2.5,2.5,2.5h19.8c1.4,0,2.5-1.1,2.5-2.5V95.3
	C82.6,93.9,81.5,92.8,80.1,92.8z M77.6,104.4H62.8v-6.6h14.8V104.4z M80.1,115.4H60.3c-1.4,0-2.5,1.1-2.5,2.5v11.6
	c0,1.4,1.1,2.5,2.5,2.5h19.8c1.4,0,2.5-1.1,2.5-2.5v-11.6C82.6,116.6,81.5,115.4,80.1,115.4z M77.6,127H62.8v-6.6h14.8V127z
	 M80.1,138.1H60.3c-1.4,0-2.5,1.1-2.5,2.5v11.6c0,1.4,1.1,2.5,2.5,2.5h19.8c1.4,0,2.5-1.1,2.5-2.5v-11.6
	C82.6,139.2,81.5,138.1,80.1,138.1z M77.6,149.6H62.8v-6.6h14.8V149.6z M80.1,138.1H60.3c-1.4,0-2.5,1.1-2.5,2.5v11.6
	c0,1.4,1.1,2.5,2.5,2.5h19.8c1.4,0,2.5-1.1,2.5-2.5v-11.6C82.6,139.2,81.5,138.1,80.1,138.1z M77.6,149.6H62.8v-6.6h14.8V149.6z
	 M80.1,115.4H60.3c-1.4,0-2.5,1.1-2.5,2.5v11.6c0,1.4,1.1,2.5,2.5,2.5h19.8c1.4,0,2.5-1.1,2.5-2.5v-11.6
	C82.6,116.6,81.5,115.4,80.1,115.4z M77.6,127H62.8v-6.6h14.8V127z M80.1,92.8H60.3c-1.4,0-2.5,1.1-2.5,2.5v11.6
	c0,1.4,1.1,2.5,2.5,2.5h19.8c1.4,0,2.5-1.1,2.5-2.5V95.3C82.6,93.9,81.5,92.8,80.1,92.8z M77.6,104.4H62.8v-6.6h14.8V104.4z
	 M80.1,70.2H60.3c-1.4,0-2.5,1.1-2.5,2.5v11.6c0,1.4,1.1,2.5,2.5,2.5h19.8c1.4,0,2.5-1.1,2.5-2.5V72.7
	C82.6,71.3,81.5,70.2,80.1,70.2z M77.6,81.8H62.8v-6.6h14.8V81.8z M50.3,138.1H30.5c-1.4,0-2.5,1.1-2.5,2.5v11.6
	c0,1.4,1.1,2.5,2.5,2.5h19.8c1.4,0,2.5-1.1,2.5-2.5v-11.6C52.8,139.2,51.7,138.1,50.3,138.1z M47.8,149.6H33v-6.6h14.8V149.6z
	 M50.3,115.4H30.5c-1.4,0-2.5,1.1-2.5,2.5v11.6c0,1.4,1.1,2.5,2.5,2.5h19.8c1.4,0,2.5-1.1,2.5-2.5v-11.6
	C52.8,116.6,51.7,115.4,50.3,115.4z M47.8,127H33v-6.6h14.8V127z M50.3,92.8H30.5c-1.4,0-2.5,1.1-2.5,2.5v11.6
	c0,1.4,1.1,2.5,2.5,2.5h19.8c1.4,0,2.5-1.1,2.5-2.5V95.3C52.8,93.9,51.7,92.8,50.3,92.8z M47.8,104.4H33v-6.6h14.8V104.4z
	 M50.3,70.2H30.5c-1.4,0-2.5,1.1-2.5,2.5v11.6c0,1.4,1.1,2.5,2.5,2.5h19.8c1.4,0,2.5-1.1,2.5-2.5V72.7
	C52.8,71.3,51.7,70.2,50.3,70.2z M47.8,81.8H33v-6.6h14.8V81.8z M50.3,70.2H30.5c-1.4,0-2.5,1.1-2.5,2.5v11.6c0,1.4,1.1,2.5,2.5,2.5
	h19.8c1.4,0,2.5-1.1,2.5-2.5V72.7C52.8,71.3,51.7,70.2,50.3,70.2z M47.8,81.8H33v-6.6h14.8V81.8z M50.3,92.8H30.5
	c-1.4,0-2.5,1.1-2.5,2.5v11.6c0,1.4,1.1,2.5,2.5,2.5h19.8c1.4,0,2.5-1.1,2.5-2.5V95.3C52.8,93.9,51.7,92.8,50.3,92.8z M47.8,104.4
	H33v-6.6h14.8V104.4z M50.3,115.4H30.5c-1.4,0-2.5,1.1-2.5,2.5v11.6c0,1.4,1.1,2.5,2.5,2.5h19.8c1.4,0,2.5-1.1,2.5-2.5v-11.6
	C52.8,116.6,51.7,115.4,50.3,115.4z M47.8,127H33v-6.6h14.8V127z M50.3,138.1H30.5c-1.4,0-2.5,1.1-2.5,2.5v11.6
	c0,1.4,1.1,2.5,2.5,2.5h19.8c1.4,0,2.5-1.1,2.5-2.5v-11.6C52.8,139.2,51.7,138.1,50.3,138.1z M47.8,149.6H33v-6.6h14.8V149.6z
	 M80.1,70.2H60.3c-1.4,0-2.5,1.1-2.5,2.5v11.6c0,1.4,1.1,2.5,2.5,2.5h19.8c1.4,0,2.5-1.1,2.5-2.5V72.7
	C82.6,71.3,81.5,70.2,80.1,70.2z M77.6,81.8H62.8v-6.6h14.8V81.8z M80.1,92.8H60.3c-1.4,0-2.5,1.1-2.5,2.5v11.6
	c0,1.4,1.1,2.5,2.5,2.5h19.8c1.4,0,2.5-1.1,2.5-2.5V95.3C82.6,93.9,81.5,92.8,80.1,92.8z M77.6,104.4H62.8v-6.6h14.8V104.4z
	 M80.1,115.4H60.3c-1.4,0-2.5,1.1-2.5,2.5v11.6c0,1.4,1.1,2.5,2.5,2.5h19.8c1.4,0,2.5-1.1,2.5-2.5v-11.6
	C82.6,116.6,81.5,115.4,80.1,115.4z M77.6,127H62.8v-6.6h14.8V127z M80.1,138.1H60.3c-1.4,0-2.5,1.1-2.5,2.5v11.6
	c0,1.4,1.1,2.5,2.5,2.5h19.8c1.4,0,2.5-1.1,2.5-2.5v-11.6C82.6,139.2,81.5,138.1,80.1,138.1z M77.6,149.6H62.8v-6.6h14.8V149.6z
	 M80.1,138.1H60.3c-1.4,0-2.5,1.1-2.5,2.5v11.6c0,1.4,1.1,2.5,2.5,2.5h19.8c1.4,0,2.5-1.1,2.5-2.5v-11.6
	C82.6,139.2,81.5,138.1,80.1,138.1z M77.6,149.6H62.8v-6.6h14.8V149.6z M80.1,115.4H60.3c-1.4,0-2.5,1.1-2.5,2.5v11.6
	c0,1.4,1.1,2.5,2.5,2.5h19.8c1.4,0,2.5-1.1,2.5-2.5v-11.6C82.6,116.6,81.5,115.4,80.1,115.4z M77.6,127H62.8v-6.6h14.8V127z
	 M80.1,92.8H60.3c-1.4,0-2.5,1.1-2.5,2.5v11.6c0,1.4,1.1,2.5,2.5,2.5h19.8c1.4,0,2.5-1.1,2.5-2.5V95.3
	C82.6,93.9,81.5,92.8,80.1,92.8z M77.6,104.4H62.8v-6.6h14.8V104.4z M80.1,70.2H60.3c-1.4,0-2.5,1.1-2.5,2.5v11.6
	c0,1.4,1.1,2.5,2.5,2.5h19.8c1.4,0,2.5-1.1,2.5-2.5V72.7C82.6,71.3,81.5,70.2,80.1,70.2z M77.6,81.8H62.8v-6.6h14.8V81.8z
	 M50.3,138.1H30.5c-1.4,0-2.5,1.1-2.5,2.5v11.6c0,1.4,1.1,2.5,2.5,2.5h19.8c1.4,0,2.5-1.1,2.5-2.5v-11.6
	C52.8,139.2,51.7,138.1,50.3,138.1z M47.8,149.6H33v-6.6h14.8V149.6z M50.3,115.4H30.5c-1.4,0-2.5,1.1-2.5,2.5v11.6
	c0,1.4,1.1,2.5,2.5,2.5h19.8c1.4,0,2.5-1.1,2.5-2.5v-11.6C52.8,116.6,51.7,115.4,50.3,115.4z M47.8,127H33v-6.6h14.8V127z
	 M50.3,92.8H30.5c-1.4,0-2.5,1.1-2.5,2.5v11.6c0,1.4,1.1,2.5,2.5,2.5h19.8c1.4,0,2.5-1.1,2.5-2.5V95.3
	C52.8,93.9,51.7,92.8,50.3,92.8z M47.8,104.4H33v-6.6h14.8V104.4z M50.3,70.2H30.5c-1.4,0-2.5,1.1-2.5,2.5v11.6
	c0,1.4,1.1,2.5,2.5,2.5h19.8c1.4,0,2.5-1.1,2.5-2.5V72.7C52.8,71.3,51.7,70.2,50.3,70.2z M47.8,81.8H33v-6.6h14.8V81.8z M50.3,70.2
	H30.5c-1.4,0-2.5,1.1-2.5,2.5v11.6c0,1.4,1.1,2.5,2.5,2.5h19.8c1.4,0,2.5-1.1,2.5-2.5V72.7C52.8,71.3,51.7,70.2,50.3,70.2z
	 M47.8,81.8H33v-6.6h14.8V81.8z M50.3,92.8H30.5c-1.4,0-2.5,1.1-2.5,2.5v11.6c0,1.4,1.1,2.5,2.5,2.5h19.8c1.4,0,2.5-1.1,2.5-2.5
	V95.3C52.8,93.9,51.7,92.8,50.3,92.8z M47.8,104.4H33v-6.6h14.8V104.4z M50.3,115.4H30.5c-1.4,0-2.5,1.1-2.5,2.5v11.6
	c0,1.4,1.1,2.5,2.5,2.5h19.8c1.4,0,2.5-1.1,2.5-2.5v-11.6C52.8,116.6,51.7,115.4,50.3,115.4z M47.8,127H33v-6.6h14.8V127z
	 M50.3,138.1H30.5c-1.4,0-2.5,1.1-2.5,2.5v11.6c0,1.4,1.1,2.5,2.5,2.5h19.8c1.4,0,2.5-1.1,2.5-2.5v-11.6
	C52.8,139.2,51.7,138.1,50.3,138.1z M47.8,149.6H33v-6.6h14.8V149.6z M80.1,70.2H60.3c-1.4,0-2.5,1.1-2.5,2.5v11.6
	c0,1.4,1.1,2.5,2.5,2.5h19.8c1.4,0,2.5-1.1,2.5-2.5V72.7C82.6,71.3,81.5,70.2,80.1,70.2z M77.6,81.8H62.8v-6.6h14.8V81.8z
	 M80.1,92.8H60.3c-1.4,0-2.5,1.1-2.5,2.5v11.6c0,1.4,1.1,2.5,2.5,2.5h19.8c1.4,0,2.5-1.1,2.5-2.5V95.3
	C82.6,93.9,81.5,92.8,80.1,92.8z M77.6,104.4H62.8v-6.6h14.8V104.4z M80.1,115.4H60.3c-1.4,0-2.5,1.1-2.5,2.5v11.6
	c0,1.4,1.1,2.5,2.5,2.5h19.8c1.4,0,2.5-1.1,2.5-2.5v-11.6C82.6,116.6,81.5,115.4,80.1,115.4z M77.6,127H62.8v-6.6h14.8V127z
	 M80.1,138.1H60.3c-1.4,0-2.5,1.1-2.5,2.5v11.6c0,1.4,1.1,2.5,2.5,2.5h19.8c1.4,0,2.5-1.1,2.5-2.5v-11.6
	C82.6,139.2,81.5,138.1,80.1,138.1z M77.6,149.6H62.8v-6.6h14.8V149.6z M80.1,138.1H60.3c-1.4,0-2.5,1.1-2.5,2.5v11.6
	c0,1.4,1.1,2.5,2.5,2.5h19.8c1.4,0,2.5-1.1,2.5-2.5v-11.6C82.6,139.2,81.5,138.1,80.1,138.1z M77.6,149.6H62.8v-6.6h14.8V149.6z
	 M80.1,115.4H60.3c-1.4,0-2.5,1.1-2.5,2.5v11.6c0,1.4,1.1,2.5,2.5,2.5h19.8c1.4,0,2.5-1.1,2.5-2.5v-11.6
	C82.6,116.6,81.5,115.4,80.1,115.4z M77.6,127H62.8v-6.6h14.8V127z M80.1,92.8H60.3c-1.4,0-2.5,1.1-2.5,2.5v11.6
	c0,1.4,1.1,2.5,2.5,2.5h19.8c1.4,0,2.5-1.1,2.5-2.5V95.3C82.6,93.9,81.5,92.8,80.1,92.8z M77.6,104.4H62.8v-6.6h14.8V104.4z
	 M80.1,70.2H60.3c-1.4,0-2.5,1.1-2.5,2.5v11.6c0,1.4,1.1,2.5,2.5,2.5h19.8c1.4,0,2.5-1.1,2.5-2.5V72.7
	C82.6,71.3,81.5,70.2,80.1,70.2z M77.6,81.8H62.8v-6.6h14.8V81.8z M50.3,138.1H30.5c-1.4,0-2.5,1.1-2.5,2.5v11.6
	c0,1.4,1.1,2.5,2.5,2.5h19.8c1.4,0,2.5-1.1,2.5-2.5v-11.6C52.8,139.2,51.7,138.1,50.3,138.1z M47.8,149.6H33v-6.6h14.8V149.6z
	 M50.3,115.4H30.5c-1.4,0-2.5,1.1-2.5,2.5v11.6c0,1.4,1.1,2.5,2.5,2.5h19.8c1.4,0,2.5-1.1,2.5-2.5v-11.6
	C52.8,116.6,51.7,115.4,50.3,115.4z M47.8,127H33v-6.6h14.8V127z M50.3,92.8H30.5c-1.4,0-2.5,1.1-2.5,2.5v11.6
	c0,1.4,1.1,2.5,2.5,2.5h19.8c1.4,0,2.5-1.1,2.5-2.5V95.3C52.8,93.9,51.7,92.8,50.3,92.8z M47.8,104.4H33v-6.6h14.8V104.4z
	 M50.3,70.2H30.5c-1.4,0-2.5,1.1-2.5,2.5v11.6c0,1.4,1.1,2.5,2.5,2.5h19.8c1.4,0,2.5-1.1,2.5-2.5V72.7
	C52.8,71.3,51.7,70.2,50.3,70.2z M47.8,81.8H33v-6.6h14.8V81.8z M50.3,70.2H30.5c-1.4,0-2.5,1.1-2.5,2.5v11.6c0,1.4,1.1,2.5,2.5,2.5
	h19.8c1.4,0,2.5-1.1,2.5-2.5V72.7C52.8,71.3,51.7,70.2,50.3,70.2z M47.8,81.8H33v-6.6h14.8V81.8z M50.3,92.8H30.5
	c-1.4,0-2.5,1.1-2.5,2.5v11.6c0,1.4,1.1,2.5,2.5,2.5h19.8c1.4,0,2.5-1.1,2.5-2.5V95.3C52.8,93.9,51.7,92.8,50.3,92.8z M47.8,104.4
	H33v-6.6h14.8V104.4z M50.3,115.4H30.5c-1.4,0-2.5,1.1-2.5,2.5v11.6c0,1.4,1.1,2.5,2.5,2.5h19.8c1.4,0,2.5-1.1,2.5-2.5v-11.6
	C52.8,116.6,51.7,115.4,50.3,115.4z M47.8,127H33v-6.6h14.8V127z M50.3,138.1H30.5c-1.4,0-2.5,1.1-2.5,2.5v11.6
	c0,1.4,1.1,2.5,2.5,2.5h19.8c1.4,0,2.5-1.1,2.5-2.5v-11.6C52.8,139.2,51.7,138.1,50.3,138.1z M47.8,149.6H33v-6.6h14.8V149.6z
	 M80.1,70.2H60.3c-1.4,0-2.5,1.1-2.5,2.5v11.6c0,1.4,1.1,2.5,2.5,2.5h19.8c1.4,0,2.5-1.1,2.5-2.5V72.7
	C82.6,71.3,81.5,70.2,80.1,70.2z M77.6,81.8H62.8v-6.6h14.8V81.8z M80.1,92.8H60.3c-1.4,0-2.5,1.1-2.5,2.5v11.6
	c0,1.4,1.1,2.5,2.5,2.5h19.8c1.4,0,2.5-1.1,2.5-2.5V95.3C82.6,93.9,81.5,92.8,80.1,92.8z M77.6,104.4H62.8v-6.6h14.8V104.4z
	 M80.1,115.4H60.3c-1.4,0-2.5,1.1-2.5,2.5v11.6c0,1.4,1.1,2.5,2.5,2.5h19.8c1.4,0,2.5-1.1,2.5-2.5v-11.6
	C82.6,116.6,81.5,115.4,80.1,115.4z M77.6,127H62.8v-6.6h14.8V127z M80.1,138.1H60.3c-1.4,0-2.5,1.1-2.5,2.5v11.6
	c0,1.4,1.1,2.5,2.5,2.5h19.8c1.4,0,2.5-1.1,2.5-2.5v-11.6C82.6,139.2,81.5,138.1,80.1,138.1z M77.6,149.6H62.8v-6.6h14.8V149.6z
	 M80.1,138.1H60.3c-1.4,0-2.5,1.1-2.5,2.5v11.6c0,1.4,1.1,2.5,2.5,2.5h19.8c1.4,0,2.5-1.1,2.5-2.5v-11.6
	C82.6,139.2,81.5,138.1,80.1,138.1z M77.6,149.6H62.8v-6.6h14.8V149.6z M80.1,115.4H60.3c-1.4,0-2.5,1.1-2.5,2.5v11.6
	c0,1.4,1.1,2.5,2.5,2.5h19.8c1.4,0,2.5-1.1,2.5-2.5v-11.6C82.6,116.6,81.5,115.4,80.1,115.4z M77.6,127H62.8v-6.6h14.8V127z
	 M80.1,92.8H60.3c-1.4,0-2.5,1.1-2.5,2.5v11.6c0,1.4,1.1,2.5,2.5,2.5h19.8c1.4,0,2.5-1.1,2.5-2.5V95.3
	C82.6,93.9,81.5,92.8,80.1,92.8z M77.6,104.4H62.8v-6.6h14.8V104.4z M80.1,70.2H60.3c-1.4,0-2.5,1.1-2.5,2.5v11.6
	c0,1.4,1.1,2.5,2.5,2.5h19.8c1.4,0,2.5-1.1,2.5-2.5V72.7C82.6,71.3,81.5,70.2,80.1,70.2z M77.6,81.8H62.8v-6.6h14.8V81.8z
	 M50.3,138.1H30.5c-1.4,0-2.5,1.1-2.5,2.5v11.6c0,1.4,1.1,2.5,2.5,2.5h19.8c1.4,0,2.5-1.1,2.5-2.5v-11.6
	C52.8,139.2,51.7,138.1,50.3,138.1z M47.8,149.6H33v-6.6h14.8V149.6z M50.3,115.4H30.5c-1.4,0-2.5,1.1-2.5,2.5v11.6
	c0,1.4,1.1,2.5,2.5,2.5h19.8c1.4,0,2.5-1.1,2.5-2.5v-11.6C52.8,116.6,51.7,115.4,50.3,115.4z M47.8,127H33v-6.6h14.8V127z
	 M50.3,92.8H30.5c-1.4,0-2.5,1.1-2.5,2.5v11.6c0,1.4,1.1,2.5,2.5,2.5h19.8c1.4,0,2.5-1.1,2.5-2.5V95.3
	C52.8,93.9,51.7,92.8,50.3,92.8z M47.8,104.4H33v-6.6h14.8V104.4z M50.3,70.2H30.5c-1.4,0-2.5,1.1-2.5,2.5v11.6
	c0,1.4,1.1,2.5,2.5,2.5h19.8c1.4,0,2.5-1.1,2.5-2.5V72.7C52.8,71.3,51.7,70.2,50.3,70.2z M47.8,81.8H33v-6.6h14.8V81.8z M50.3,70.2
	H30.5c-1.4,0-2.5,1.1-2.5,2.5v11.6c0,1.4,1.1,2.5,2.5,2.5h19.8c1.4,0,2.5-1.1,2.5-2.5V72.7C52.8,71.3,51.7,70.2,50.3,70.2z
	 M47.8,81.8H33v-6.6h14.8V81.8z M50.3,92.8H30.5c-1.4,0-2.5,1.1-2.5,2.5v11.6c0,1.4,1.1,2.5,2.5,2.5h19.8c1.4,0,2.5-1.1,2.5-2.5
	V95.3C52.8,93.9,51.7,92.8,50.3,92.8z M47.8,104.4H33v-6.6h14.8V104.4z M50.3,115.4H30.5c-1.4,0-2.5,1.1-2.5,2.5v11.6
	c0,1.4,1.1,2.5,2.5,2.5h19.8c1.4,0,2.5-1.1,2.5-2.5v-11.6C52.8,116.6,51.7,115.4,50.3,115.4z M47.8,127H33v-6.6h14.8V127z
	 M50.3,138.1H30.5c-1.4,0-2.5,1.1-2.5,2.5v11.6c0,1.4,1.1,2.5,2.5,2.5h19.8c1.4,0,2.5-1.1,2.5-2.5v-11.6
	C52.8,139.2,51.7,138.1,50.3,138.1z M47.8,149.6H33v-6.6h14.8V149.6z M80.1,70.2H60.3c-1.4,0-2.5,1.1-2.5,2.5v11.6
	c0,1.4,1.1,2.5,2.5,2.5h19.8c1.4,0,2.5-1.1,2.5-2.5V72.7C82.6,71.3,81.5,70.2,80.1,70.2z M77.6,81.8H62.8v-6.6h14.8V81.8z
	 M80.1,92.8H60.3c-1.4,0-2.5,1.1-2.5,2.5v11.6c0,1.4,1.1,2.5,2.5,2.5h19.8c1.4,0,2.5-1.1,2.5-2.5V95.3
	C82.6,93.9,81.5,92.8,80.1,92.8z M77.6,104.4H62.8v-6.6h14.8V104.4z M80.1,115.4H60.3c-1.4,0-2.5,1.1-2.5,2.5v11.6
	c0,1.4,1.1,2.5,2.5,2.5h19.8c1.4,0,2.5-1.1,2.5-2.5v-11.6C82.6,116.6,81.5,115.4,80.1,115.4z M77.6,127H62.8v-6.6h14.8V127z
	 M80.1,138.1H60.3c-1.4,0-2.5,1.1-2.5,2.5v11.6c0,1.4,1.1,2.5,2.5,2.5h19.8c1.4,0,2.5-1.1,2.5-2.5v-11.6
	C82.6,139.2,81.5,138.1,80.1,138.1z M77.6,149.6H62.8v-6.6h14.8V149.6z M80.1,138.1H60.3c-1.4,0-2.5,1.1-2.5,2.5v11.6
	c0,1.4,1.1,2.5,2.5,2.5h19.8c1.4,0,2.5-1.1,2.5-2.5v-11.6C82.6,139.2,81.5,138.1,80.1,138.1z M77.6,149.6H62.8v-6.6h14.8V149.6z
	 M80.1,115.4H60.3c-1.4,0-2.5,1.1-2.5,2.5v11.6c0,1.4,1.1,2.5,2.5,2.5h19.8c1.4,0,2.5-1.1,2.5-2.5v-11.6
	C82.6,116.6,81.5,115.4,80.1,115.4z M77.6,127H62.8v-6.6h14.8V127z M80.1,92.8H60.3c-1.4,0-2.5,1.1-2.5,2.5v11.6
	c0,1.4,1.1,2.5,2.5,2.5h19.8c1.4,0,2.5-1.1,2.5-2.5V95.3C82.6,93.9,81.5,92.8,80.1,92.8z M77.6,104.4H62.8v-6.6h14.8V104.4z
	 M80.1,70.2H60.3c-1.4,0-2.5,1.1-2.5,2.5v11.6c0,1.4,1.1,2.5,2.5,2.5h19.8c1.4,0,2.5-1.1,2.5-2.5V72.7
	C82.6,71.3,81.5,70.2,80.1,70.2z M77.6,81.8H62.8v-6.6h14.8V81.8z M50.3,138.1H30.5c-1.4,0-2.5,1.1-2.5,2.5v11.6
	c0,1.4,1.1,2.5,2.5,2.5h19.8c1.4,0,2.5-1.1,2.5-2.5v-11.6C52.8,139.2,51.7,138.1,50.3,138.1z M47.8,149.6H33v-6.6h14.8V149.6z
	 M50.3,115.4H30.5c-1.4,0-2.5,1.1-2.5,2.5v11.6c0,1.4,1.1,2.5,2.5,2.5h19.8c1.4,0,2.5-1.1,2.5-2.5v-11.6
	C52.8,116.6,51.7,115.4,50.3,115.4z M47.8,127H33v-6.6h14.8V127z M50.3,92.8H30.5c-1.4,0-2.5,1.1-2.5,2.5v11.6
	c0,1.4,1.1,2.5,2.5,2.5h19.8c1.4,0,2.5-1.1,2.5-2.5V95.3C52.8,93.9,51.7,92.8,50.3,92.8z M47.8,104.4H33v-6.6h14.8V104.4z
	 M50.3,70.2H30.5c-1.4,0-2.5,1.1-2.5,2.5v11.6c0,1.4,1.1,2.5,2.5,2.5h19.8c1.4,0,2.5-1.1,2.5-2.5V72.7
	C52.8,71.3,51.7,70.2,50.3,70.2z M47.8,81.8H33v-6.6h14.8V81.8z M158.2,102V2.5c0-1.4-1.1-2.5-2.5-2.5h-98c-1.4,0-2.5,1.1-2.5,2.5
	v55.9H20.3c-1.4,0-2.5,1.1-2.5,2.5v112.5c0,1.4,1.1,2.5,2.5,2.5h70l17.7,0l0.6-5l-15.7,0v-110c0-1.4-1.1-2.5-2.5-2.5H60.2V5h93v95.3
	L158.2,102z"/>
<path class="st1" d="M168.5,126.4c0,7.5-4.2,14.1-10.3,17.5c-1.6,0.9-3.2,1.5-5,1.9c-1.5,0.4-3.1,0.6-4.7,0.6
	c-2.6,0-5.1-0.5-7.3-1.4c-2.2-0.9-4.2-2.1-5.9-3.6c-2.8-2.5-5-5.8-6-9.5c-0.5-1.7-0.8-3.6-0.8-5.5c0-3.6,1-7,2.6-9.9
	c3.5-6,9.9-10,17.3-10c1.6,0,3.2,0.2,4.7,0.6c1.8,0.4,3.4,1.1,5,1.9C164.4,112.3,168.5,118.8,168.5,126.4z"/>
<path class="st2" d="M168.5,154.3h1.4c6,0,11.1,4.5,11.9,10.5l1.6,12.5c0.6,4.8-3.1,9-7.9,9h-53.8c-4.1,0-7.4-3.1-7.9-7
	c-0.1-0.6-0.1-1.3,0-2l0.4-3l1.2-9.5c0.7-5.8,5.6-10.2,11.4-10.5c0.2,0,0.3,0,0.5,0h1.4"/>
<path class="st1" d="M166.3,135.5c0.8,0.4,1.6,0.8,2.5,1.2c2.3,0.9,4.7,1.4,7.3,1.4c1.6,0,3.2-0.2,4.7-0.6c1.8-0.4,3.4-1.1,5-1.9
	c6.1-3.4,10.3-10,10.3-17.5c0-7.5-4.2-14.1-10.3-17.5c-1.6-0.9-3.2-1.5-5-1.9c-1.5-0.4-3.1-0.6-4.7-0.6c-7.4,0-13.9,4-17.3,10.1
	c-0.2,0.3-0.3,0.5-0.4,0.8"/>
<path class="st2" d="M196.1,146h1.4c6,0,11.1,4.5,11.9,10.5l1.6,12.5c0.6,4.8-3.1,9-7.9,9h-19.6"/>
</svg>
