<svg width="539" height="556" viewBox="0 0 539 556" fill="none" xmlns="http://www.w3.org/2000/svg">
<path d="M364.226 270.998H189.782C185.928 270.998 182.803 274.132 182.803 277.999C182.803 281.869 185.928 285.003 189.782 285.003H364.226C368.079 285.003 371.201 281.869 371.201 277.999C371.201 274.132 368.079 270.998 364.226 270.998Z" fill="white"/>
<path d="M364.226 329.925H189.782C185.928 329.925 182.803 333.059 182.803 336.929C182.803 340.796 185.928 343.93 189.782 343.93H364.226C368.079 343.93 371.201 340.796 371.201 336.929C371.201 333.059 368.079 329.925 364.226 329.925Z" fill="white"/>
<path d="M189.782 226.075H364.226C368.079 226.075 371.201 222.938 371.201 219.071C371.201 215.204 368.079 212.067 364.226 212.067H189.782C185.928 212.067 182.803 215.204 182.803 219.071C182.803 222.938 185.928 226.075 189.782 226.075Z" fill="white"/>
</svg>
