<?xml version="1.0" encoding="iso-8859-1"?>
<!-- Generator: Adobe Illustrator 19.0.0, SVG Export Plug-In . SVG Version: 6.00 Build 0)  -->
<svg version="1.1" id="Capa_1" xmlns="http://www.w3.org/2000/svg" xmlns:xlink="http://www.w3.org/1999/xlink" x="0px" y="0px"
	 viewBox="0 0 60 60" style="enable-background:new 0 0 60 60;" xml:space="preserve">
<g>
	<g>
		<path d="M49,0H11C9.3,0,8,1.3,8,3v54c0,1.7,1.3,3,3,3h38c1.7,0,3-1.3,3-3V3C52,1.3,50.7,0,49,0z M10,57V3c0-0.6,0.4-1,1-1h3v56h-3
			C10.4,58,10,57.6,10,57z M50,57c0,0.6-0.4,1-1,1H16V2h33c0.6,0,1,0.4,1,1V57z"/>
		<path d="M32,16c-6.1,0-11,4.9-11,11s4.9,11,11,11s11-4.9,11-11S38.1,16,32,16z M39.5,22H37v-2.5C38,20.2,38.8,21,39.5,22z
			 M35,18.5V22h-6v-3.5c0.9-0.3,1.9-0.5,3-0.5S34.1,18.2,35,18.5z M35,24v5h-6v-5H35z M27,19.5V22h-2.5C25.2,21,26,20.2,27,19.5z
			 M23.5,24H27v5h-3.8c-0.1-0.6-0.2-1.3-0.2-2C23,25.9,23.2,24.9,23.5,24z M23.9,31H27v3.5C25.7,33.6,24.6,32.4,23.9,31z M29,35.5
			V31h6v4.5c-0.9,0.3-1.9,0.5-3,0.5S29.9,35.8,29,35.5z M37,34.5V31h3.1C39.4,32.4,38.3,33.6,37,34.5z M40.8,29H37v-5h3.5
			c0.3,0.9,0.5,1.9,0.5,3C41,27.7,40.9,28.4,40.8,29z"/>
		<rect x="22" y="42" width="21" height="2"/>
		<rect x="22" y="47" width="21" height="2"/>
		<rect x="22" y="52" width="21" height="2"/>
		<path d="M28,12h8c0.6,0,1-0.4,1-1V7c0-0.6-0.4-1-1-1h-8c-0.6,0-1,0.4-1,1v4C27,11.6,27.4,12,28,12z M29,8h6v2h-6V8z"/>
	</g>
</g>
<g>
</g>
<g>
</g>
<g>
</g>
<g>
</g>
<g>
</g>
<g>
</g>
<g>
</g>
<g>
</g>
<g>
</g>
<g>
</g>
<g>
</g>
<g>
</g>
<g>
</g>
<g>
</g>
<g>
</g>
</svg>
