<?xml version="1.0" encoding="utf-8"?>
<!-- Generator: Adobe Illustrator 26.0.2, SVG Export Plug-In . SVG Version: 6.00 Build 0)  -->
<svg version="1.1" id="Capa_1" xmlns="http://www.w3.org/2000/svg" xmlns:xlink="http://www.w3.org/1999/xlink" x="0px" y="0px"
	 viewBox="0 0 211.1 210" style="enable-background:new 0 0 211.1 210;" xml:space="preserve">
<style type="text/css">
	.st0{fill:#fff;}
	.st1{stroke:#fff;stroke-miterlimit:10;}
</style>
<g fill="#fff">
<path class="st0" d="M50.3,70.2H30.5c-1.4,0-2.5,1.1-2.5,2.5v11.6c0,1.4,1.1,2.5,2.5,2.5h19.8c1.4,0,2.5-1.1,2.5-2.5V72.7
	C52.8,71.3,51.7,70.2,50.3,70.2z M47.8,81.8H33v-6.6h14.8V81.8z M50.3,92.8H30.5c-1.4,0-2.5,1.1-2.5,2.5v11.6c0,1.4,1.1,2.5,2.5,2.5
	h19.8c1.4,0,2.5-1.1,2.5-2.5V95.3C52.8,93.9,51.7,92.8,50.3,92.8z M47.8,104.4H33v-6.6h14.8V104.4z M50.3,115.4H30.5
	c-1.4,0-2.5,1.1-2.5,2.5v11.6c0,1.4,1.1,2.5,2.5,2.5h19.8c1.4,0,2.5-1.1,2.5-2.5v-11.6C52.8,116.6,51.7,115.4,50.3,115.4z M47.8,127
	H33v-6.6h14.8V127z M50.3,138.1H30.5c-1.4,0-2.5,1.1-2.5,2.5v11.6c0,1.4,1.1,2.5,2.5,2.5h19.8c1.4,0,2.5-1.1,2.5-2.5v-11.6
	C52.8,139.2,51.7,138.1,50.3,138.1z M47.8,149.6H33v-6.6h14.8V149.6z M80.1,70.2H60.3c-1.4,0-2.5,1.1-2.5,2.5v11.6
	c0,1.4,1.1,2.5,2.5,2.5h19.8c1.4,0,2.5-1.1,2.5-2.5V72.7C82.6,71.3,81.5,70.2,80.1,70.2z M77.6,81.8H62.8v-6.6h14.8V81.8z
	 M80.1,92.8H60.3c-1.4,0-2.5,1.1-2.5,2.5v11.6c0,1.4,1.1,2.5,2.5,2.5h19.8c1.4,0,2.5-1.1,2.5-2.5V95.3
	C82.6,93.9,81.5,92.8,80.1,92.8z M77.6,104.4H62.8v-6.6h14.8V104.4z M80.1,115.4H60.3c-1.4,0-2.5,1.1-2.5,2.5v11.6
	c0,1.4,1.1,2.5,2.5,2.5h19.8c1.4,0,2.5-1.1,2.5-2.5v-11.6C82.6,116.6,81.5,115.4,80.1,115.4z M77.6,127H62.8v-6.6h14.8V127z
	 M80.1,138.1H60.3c-1.4,0-2.5,1.1-2.5,2.5v11.6c0,1.4,1.1,2.5,2.5,2.5h19.8c1.4,0,2.5-1.1,2.5-2.5v-11.6
	C82.6,139.2,81.5,138.1,80.1,138.1z M77.6,149.6H62.8v-6.6h14.8V149.6z M80.1,138.1H60.3c-1.4,0-2.5,1.1-2.5,2.5v11.6
	c0,1.4,1.1,2.5,2.5,2.5h19.8c1.4,0,2.5-1.1,2.5-2.5v-11.6C82.6,139.2,81.5,138.1,80.1,138.1z M77.6,149.6H62.8v-6.6h14.8V149.6z
	 M80.1,115.4H60.3c-1.4,0-2.5,1.1-2.5,2.5v11.6c0,1.4,1.1,2.5,2.5,2.5h19.8c1.4,0,2.5-1.1,2.5-2.5v-11.6
	C82.6,116.6,81.5,115.4,80.1,115.4z M77.6,127H62.8v-6.6h14.8V127z M80.1,92.8H60.3c-1.4,0-2.5,1.1-2.5,2.5v11.6
	c0,1.4,1.1,2.5,2.5,2.5h19.8c1.4,0,2.5-1.1,2.5-2.5V95.3C82.6,93.9,81.5,92.8,80.1,92.8z M77.6,104.4H62.8v-6.6h14.8V104.4z
	 M80.1,70.2H60.3c-1.4,0-2.5,1.1-2.5,2.5v11.6c0,1.4,1.1,2.5,2.5,2.5h19.8c1.4,0,2.5-1.1,2.5-2.5V72.7
	C82.6,71.3,81.5,70.2,80.1,70.2z M77.6,81.8H62.8v-6.6h14.8V81.8z M50.3,138.1H30.5c-1.4,0-2.5,1.1-2.5,2.5v11.6
	c0,1.4,1.1,2.5,2.5,2.5h19.8c1.4,0,2.5-1.1,2.5-2.5v-11.6C52.8,139.2,51.7,138.1,50.3,138.1z M47.8,149.6H33v-6.6h14.8V149.6z
	 M50.3,115.4H30.5c-1.4,0-2.5,1.1-2.5,2.5v11.6c0,1.4,1.1,2.5,2.5,2.5h19.8c1.4,0,2.5-1.1,2.5-2.5v-11.6
	C52.8,116.6,51.7,115.4,50.3,115.4z M47.8,127H33v-6.6h14.8V127z M50.3,92.8H30.5c-1.4,0-2.5,1.1-2.5,2.5v11.6
	c0,1.4,1.1,2.5,2.5,2.5h19.8c1.4,0,2.5-1.1,2.5-2.5V95.3C52.8,93.9,51.7,92.8,50.3,92.8z M47.8,104.4H33v-6.6h14.8V104.4z
	 M50.3,70.2H30.5c-1.4,0-2.5,1.1-2.5,2.5v11.6c0,1.4,1.1,2.5,2.5,2.5h19.8c1.4,0,2.5-1.1,2.5-2.5V72.7
	C52.8,71.3,51.7,70.2,50.3,70.2z M47.8,81.8H33v-6.6h14.8V81.8z M50.3,70.2H30.5c-1.4,0-2.5,1.1-2.5,2.5v11.6c0,1.4,1.1,2.5,2.5,2.5
	h19.8c1.4,0,2.5-1.1,2.5-2.5V72.7C52.8,71.3,51.7,70.2,50.3,70.2z M47.8,81.8H33v-6.6h14.8V81.8z M50.3,92.8H30.5
	c-1.4,0-2.5,1.1-2.5,2.5v11.6c0,1.4,1.1,2.5,2.5,2.5h19.8c1.4,0,2.5-1.1,2.5-2.5V95.3C52.8,93.9,51.7,92.8,50.3,92.8z M47.8,104.4
	H33v-6.6h14.8V104.4z M50.3,115.4H30.5c-1.4,0-2.5,1.1-2.5,2.5v11.6c0,1.4,1.1,2.5,2.5,2.5h19.8c1.4,0,2.5-1.1,2.5-2.5v-11.6
	C52.8,116.6,51.7,115.4,50.3,115.4z M47.8,127H33v-6.6h14.8V127z M50.3,138.1H30.5c-1.4,0-2.5,1.1-2.5,2.5v11.6
	c0,1.4,1.1,2.5,2.5,2.5h19.8c1.4,0,2.5-1.1,2.5-2.5v-11.6C52.8,139.2,51.7,138.1,50.3,138.1z M47.8,149.6H33v-6.6h14.8V149.6z
	 M80.1,70.2H60.3c-1.4,0-2.5,1.1-2.5,2.5v11.6c0,1.4,1.1,2.5,2.5,2.5h19.8c1.4,0,2.5-1.1,2.5-2.5V72.7
	C82.6,71.3,81.5,70.2,80.1,70.2z M77.6,81.8H62.8v-6.6h14.8V81.8z M80.1,92.8H60.3c-1.4,0-2.5,1.1-2.5,2.5v11.6
	c0,1.4,1.1,2.5,2.5,2.5h19.8c1.4,0,2.5-1.1,2.5-2.5V95.3C82.6,93.9,81.5,92.8,80.1,92.8z M77.6,104.4H62.8v-6.6h14.8V104.4z
	 M80.1,115.4H60.3c-1.4,0-2.5,1.1-2.5,2.5v11.6c0,1.4,1.1,2.5,2.5,2.5h19.8c1.4,0,2.5-1.1,2.5-2.5v-11.6
	C82.6,116.6,81.5,115.4,80.1,115.4z M77.6,127H62.8v-6.6h14.8V127z M80.1,138.1H60.3c-1.4,0-2.5,1.1-2.5,2.5v11.6
	c0,1.4,1.1,2.5,2.5,2.5h19.8c1.4,0,2.5-1.1,2.5-2.5v-11.6C82.6,139.2,81.5,138.1,80.1,138.1z M77.6,149.6H62.8v-6.6h14.8V149.6z
	 M80.1,138.1H60.3c-1.4,0-2.5,1.1-2.5,2.5v11.6c0,1.4,1.1,2.5,2.5,2.5h19.8c1.4,0,2.5-1.1,2.5-2.5v-11.6
	C82.6,139.2,81.5,138.1,80.1,138.1z M77.6,149.6H62.8v-6.6h14.8V149.6z M80.1,115.4H60.3c-1.4,0-2.5,1.1-2.5,2.5v11.6
	c0,1.4,1.1,2.5,2.5,2.5h19.8c1.4,0,2.5-1.1,2.5-2.5v-11.6C82.6,116.6,81.5,115.4,80.1,115.4z M77.6,127H62.8v-6.6h14.8V127z
	 M80.1,92.8H60.3c-1.4,0-2.5,1.1-2.5,2.5v11.6c0,1.4,1.1,2.5,2.5,2.5h19.8c1.4,0,2.5-1.1,2.5-2.5V95.3
	C82.6,93.9,81.5,92.8,80.1,92.8z M77.6,104.4H62.8v-6.6h14.8V104.4z M80.1,70.2H60.3c-1.4,0-2.5,1.1-2.5,2.5v11.6
	c0,1.4,1.1,2.5,2.5,2.5h19.8c1.4,0,2.5-1.1,2.5-2.5V72.7C82.6,71.3,81.5,70.2,80.1,70.2z M77.6,81.8H62.8v-6.6h14.8V81.8z
	 M50.3,138.1H30.5c-1.4,0-2.5,1.1-2.5,2.5v11.6c0,1.4,1.1,2.5,2.5,2.5h19.8c1.4,0,2.5-1.1,2.5-2.5v-11.6
	C52.8,139.2,51.7,138.1,50.3,138.1z M47.8,149.6H33v-6.6h14.8V149.6z M50.3,115.4H30.5c-1.4,0-2.5,1.1-2.5,2.5v11.6
	c0,1.4,1.1,2.5,2.5,2.5h19.8c1.4,0,2.5-1.1,2.5-2.5v-11.6C52.8,116.6,51.7,115.4,50.3,115.4z M47.8,127H33v-6.6h14.8V127z
	 M50.3,92.8H30.5c-1.4,0-2.5,1.1-2.5,2.5v11.6c0,1.4,1.1,2.5,2.5,2.5h19.8c1.4,0,2.5-1.1,2.5-2.5V95.3
	C52.8,93.9,51.7,92.8,50.3,92.8z M47.8,104.4H33v-6.6h14.8V104.4z M50.3,70.2H30.5c-1.4,0-2.5,1.1-2.5,2.5v11.6
	c0,1.4,1.1,2.5,2.5,2.5h19.8c1.4,0,2.5-1.1,2.5-2.5V72.7C52.8,71.3,51.7,70.2,50.3,70.2z M47.8,81.8H33v-6.6h14.8V81.8z M155.7,0
	h-98c-1.4,0-2.5,1.1-2.5,2.5v55.9H20.3c-1.4,0-2.5,1.1-2.5,2.5v112.5c0,1.4,1.1,2.5,2.5,2.5h70l17.7,0l0.6-5l-15.7,0v-110
	c0-1.4-1.1-2.5-2.5-2.5H60.2V5h93v93.5h5v-96C158.2,1.1,157.1,0,155.7,0z M87.8,63.4v107.5h-65V63.4H87.8z M60.3,154.6h19.8
	c1.4,0,2.5-1.1,2.5-2.5v-11.6c0-1.4-1.1-2.5-2.5-2.5H60.3c-1.4,0-2.5,1.1-2.5,2.5v11.6C57.8,153.5,58.9,154.6,60.3,154.6z
	 M62.8,143.1h14.8v6.6H62.8V143.1z M60.3,132h19.8c1.4,0,2.5-1.1,2.5-2.5v-11.6c0-1.4-1.1-2.5-2.5-2.5H60.3c-1.4,0-2.5,1.1-2.5,2.5
	v11.6C57.8,130.9,58.9,132,60.3,132z M62.8,120.4h14.8v6.6H62.8V120.4z M60.3,109.4h19.8c1.4,0,2.5-1.1,2.5-2.5V95.3
	c0-1.4-1.1-2.5-2.5-2.5H60.3c-1.4,0-2.5,1.1-2.5,2.5v11.6C57.8,108.3,58.9,109.4,60.3,109.4z M62.8,97.8h14.8v6.6H62.8V97.8z
	 M60.3,86.8h19.8c1.4,0,2.5-1.1,2.5-2.5V72.7c0-1.4-1.1-2.5-2.5-2.5H60.3c-1.4,0-2.5,1.1-2.5,2.5v11.6
	C57.8,85.7,58.9,86.8,60.3,86.8z M62.8,75.2h14.8v6.6H62.8V75.2z M30.5,154.6h19.8c1.4,0,2.5-1.1,2.5-2.5v-11.6
	c0-1.4-1.1-2.5-2.5-2.5H30.5c-1.4,0-2.5,1.1-2.5,2.5v11.6C28,153.5,29.1,154.6,30.5,154.6z M33,143.1h14.8v6.6H33V143.1z M30.5,132
	h19.8c1.4,0,2.5-1.1,2.5-2.5v-11.6c0-1.4-1.1-2.5-2.5-2.5H30.5c-1.4,0-2.5,1.1-2.5,2.5v11.6C28,130.9,29.1,132,30.5,132z M33,120.4
	h14.8v6.6H33V120.4z M30.5,109.4h19.8c1.4,0,2.5-1.1,2.5-2.5V95.3c0-1.4-1.1-2.5-2.5-2.5H30.5c-1.4,0-2.5,1.1-2.5,2.5v11.6
	C28,108.3,29.1,109.4,30.5,109.4z M33,97.8h14.8v6.6H33V97.8z M30.5,86.8h19.8c1.4,0,2.5-1.1,2.5-2.5V72.7c0-1.4-1.1-2.5-2.5-2.5
	H30.5c-1.4,0-2.5,1.1-2.5,2.5v11.6C28,85.7,29.1,86.8,30.5,86.8z M33,75.2h14.8v6.6H33V75.2z M50.3,70.2H30.5
	c-1.4,0-2.5,1.1-2.5,2.5v11.6c0,1.4,1.1,2.5,2.5,2.5h19.8c1.4,0,2.5-1.1,2.5-2.5V72.7C52.8,71.3,51.7,70.2,50.3,70.2z M47.8,81.8H33
	v-6.6h14.8V81.8z M50.3,92.8H30.5c-1.4,0-2.5,1.1-2.5,2.5v11.6c0,1.4,1.1,2.5,2.5,2.5h19.8c1.4,0,2.5-1.1,2.5-2.5V95.3
	C52.8,93.9,51.7,92.8,50.3,92.8z M47.8,104.4H33v-6.6h14.8V104.4z M50.3,115.4H30.5c-1.4,0-2.5,1.1-2.5,2.5v11.6
	c0,1.4,1.1,2.5,2.5,2.5h19.8c1.4,0,2.5-1.1,2.5-2.5v-11.6C52.8,116.6,51.7,115.4,50.3,115.4z M47.8,127H33v-6.6h14.8V127z
	 M50.3,138.1H30.5c-1.4,0-2.5,1.1-2.5,2.5v11.6c0,1.4,1.1,2.5,2.5,2.5h19.8c1.4,0,2.5-1.1,2.5-2.5v-11.6
	C52.8,139.2,51.7,138.1,50.3,138.1z M47.8,149.6H33v-6.6h14.8V149.6z M80.1,70.2H60.3c-1.4,0-2.5,1.1-2.5,2.5v11.6
	c0,1.4,1.1,2.5,2.5,2.5h19.8c1.4,0,2.5-1.1,2.5-2.5V72.7C82.6,71.3,81.5,70.2,80.1,70.2z M77.6,81.8H62.8v-6.6h14.8V81.8z
	 M80.1,92.8H60.3c-1.4,0-2.5,1.1-2.5,2.5v11.6c0,1.4,1.1,2.5,2.5,2.5h19.8c1.4,0,2.5-1.1,2.5-2.5V95.3
	C82.6,93.9,81.5,92.8,80.1,92.8z M77.6,104.4H62.8v-6.6h14.8V104.4z M80.1,115.4H60.3c-1.4,0-2.5,1.1-2.5,2.5v11.6
	c0,1.4,1.1,2.5,2.5,2.5h19.8c1.4,0,2.5-1.1,2.5-2.5v-11.6C82.6,116.6,81.5,115.4,80.1,115.4z M77.6,127H62.8v-6.6h14.8V127z
	 M80.1,138.1H60.3c-1.4,0-2.5,1.1-2.5,2.5v11.6c0,1.4,1.1,2.5,2.5,2.5h19.8c1.4,0,2.5-1.1,2.5-2.5v-11.6
	C82.6,139.2,81.5,138.1,80.1,138.1z M77.6,149.6H62.8v-6.6h14.8V149.6z M80.1,138.1H60.3c-1.4,0-2.5,1.1-2.5,2.5v11.6
	c0,1.4,1.1,2.5,2.5,2.5h19.8c1.4,0,2.5-1.1,2.5-2.5v-11.6C82.6,139.2,81.5,138.1,80.1,138.1z M77.6,149.6H62.8v-6.6h14.8V149.6z
	 M80.1,115.4H60.3c-1.4,0-2.5,1.1-2.5,2.5v11.6c0,1.4,1.1,2.5,2.5,2.5h19.8c1.4,0,2.5-1.1,2.5-2.5v-11.6
	C82.6,116.6,81.5,115.4,80.1,115.4z M77.6,127H62.8v-6.6h14.8V127z M80.1,92.8H60.3c-1.4,0-2.5,1.1-2.5,2.5v11.6
	c0,1.4,1.1,2.5,2.5,2.5h19.8c1.4,0,2.5-1.1,2.5-2.5V95.3C82.6,93.9,81.5,92.8,80.1,92.8z M77.6,104.4H62.8v-6.6h14.8V104.4z
	 M80.1,70.2H60.3c-1.4,0-2.5,1.1-2.5,2.5v11.6c0,1.4,1.1,2.5,2.5,2.5h19.8c1.4,0,2.5-1.1,2.5-2.5V72.7
	C82.6,71.3,81.5,70.2,80.1,70.2z M77.6,81.8H62.8v-6.6h14.8V81.8z M50.3,138.1H30.5c-1.4,0-2.5,1.1-2.5,2.5v11.6
	c0,1.4,1.1,2.5,2.5,2.5h19.8c1.4,0,2.5-1.1,2.5-2.5v-11.6C52.8,139.2,51.7,138.1,50.3,138.1z M47.8,149.6H33v-6.6h14.8V149.6z
	 M50.3,115.4H30.5c-1.4,0-2.5,1.1-2.5,2.5v11.6c0,1.4,1.1,2.5,2.5,2.5h19.8c1.4,0,2.5-1.1,2.5-2.5v-11.6
	C52.8,116.6,51.7,115.4,50.3,115.4z M47.8,127H33v-6.6h14.8V127z M50.3,92.8H30.5c-1.4,0-2.5,1.1-2.5,2.5v11.6
	c0,1.4,1.1,2.5,2.5,2.5h19.8c1.4,0,2.5-1.1,2.5-2.5V95.3C52.8,93.9,51.7,92.8,50.3,92.8z M47.8,104.4H33v-6.6h14.8V104.4z
	 M50.3,70.2H30.5c-1.4,0-2.5,1.1-2.5,2.5v11.6c0,1.4,1.1,2.5,2.5,2.5h19.8c1.4,0,2.5-1.1,2.5-2.5V72.7
	C52.8,71.3,51.7,70.2,50.3,70.2z M47.8,81.8H33v-6.6h14.8V81.8z M50.3,70.2H30.5c-1.4,0-2.5,1.1-2.5,2.5v11.6c0,1.4,1.1,2.5,2.5,2.5
	h19.8c1.4,0,2.5-1.1,2.5-2.5V72.7C52.8,71.3,51.7,70.2,50.3,70.2z M47.8,81.8H33v-6.6h14.8V81.8z M50.3,92.8H30.5
	c-1.4,0-2.5,1.1-2.5,2.5v11.6c0,1.4,1.1,2.5,2.5,2.5h19.8c1.4,0,2.5-1.1,2.5-2.5V95.3C52.8,93.9,51.7,92.8,50.3,92.8z M47.8,104.4
	H33v-6.6h14.8V104.4z M50.3,115.4H30.5c-1.4,0-2.5,1.1-2.5,2.5v11.6c0,1.4,1.1,2.5,2.5,2.5h19.8c1.4,0,2.5-1.1,2.5-2.5v-11.6
	C52.8,116.6,51.7,115.4,50.3,115.4z M47.8,127H33v-6.6h14.8V127z M50.3,138.1H30.5c-1.4,0-2.5,1.1-2.5,2.5v11.6
	c0,1.4,1.1,2.5,2.5,2.5h19.8c1.4,0,2.5-1.1,2.5-2.5v-11.6C52.8,139.2,51.7,138.1,50.3,138.1z M47.8,149.6H33v-6.6h14.8V149.6z
	 M80.1,70.2H60.3c-1.4,0-2.5,1.1-2.5,2.5v11.6c0,1.4,1.1,2.5,2.5,2.5h19.8c1.4,0,2.5-1.1,2.5-2.5V72.7
	C82.6,71.3,81.5,70.2,80.1,70.2z M77.6,81.8H62.8v-6.6h14.8V81.8z M80.1,92.8H60.3c-1.4,0-2.5,1.1-2.5,2.5v11.6
	c0,1.4,1.1,2.5,2.5,2.5h19.8c1.4,0,2.5-1.1,2.5-2.5V95.3C82.6,93.9,81.5,92.8,80.1,92.8z M77.6,104.4H62.8v-6.6h14.8V104.4z
	 M80.1,115.4H60.3c-1.4,0-2.5,1.1-2.5,2.5v11.6c0,1.4,1.1,2.5,2.5,2.5h19.8c1.4,0,2.5-1.1,2.5-2.5v-11.6
	C82.6,116.6,81.5,115.4,80.1,115.4z M77.6,127H62.8v-6.6h14.8V127z M80.1,138.1H60.3c-1.4,0-2.5,1.1-2.5,2.5v11.6
	c0,1.4,1.1,2.5,2.5,2.5h19.8c1.4,0,2.5-1.1,2.5-2.5v-11.6C82.6,139.2,81.5,138.1,80.1,138.1z M77.6,149.6H62.8v-6.6h14.8V149.6z
	 M80.1,138.1H60.3c-1.4,0-2.5,1.1-2.5,2.5v11.6c0,1.4,1.1,2.5,2.5,2.5h19.8c1.4,0,2.5-1.1,2.5-2.5v-11.6
	C82.6,139.2,81.5,138.1,80.1,138.1z M77.6,149.6H62.8v-6.6h14.8V149.6z M80.1,115.4H60.3c-1.4,0-2.5,1.1-2.5,2.5v11.6
	c0,1.4,1.1,2.5,2.5,2.5h19.8c1.4,0,2.5-1.1,2.5-2.5v-11.6C82.6,116.6,81.5,115.4,80.1,115.4z M77.6,127H62.8v-6.6h14.8V127z
	 M80.1,92.8H60.3c-1.4,0-2.5,1.1-2.5,2.5v11.6c0,1.4,1.1,2.5,2.5,2.5h19.8c1.4,0,2.5-1.1,2.5-2.5V95.3
	C82.6,93.9,81.5,92.8,80.1,92.8z M77.6,104.4H62.8v-6.6h14.8V104.4z M80.1,70.2H60.3c-1.4,0-2.5,1.1-2.5,2.5v11.6
	c0,1.4,1.1,2.5,2.5,2.5h19.8c1.4,0,2.5-1.1,2.5-2.5V72.7C82.6,71.3,81.5,70.2,80.1,70.2z M77.6,81.8H62.8v-6.6h14.8V81.8z
	 M50.3,138.1H30.5c-1.4,0-2.5,1.1-2.5,2.5v11.6c0,1.4,1.1,2.5,2.5,2.5h19.8c1.4,0,2.5-1.1,2.5-2.5v-11.6
	C52.8,139.2,51.7,138.1,50.3,138.1z M47.8,149.6H33v-6.6h14.8V149.6z M50.3,115.4H30.5c-1.4,0-2.5,1.1-2.5,2.5v11.6
	c0,1.4,1.1,2.5,2.5,2.5h19.8c1.4,0,2.5-1.1,2.5-2.5v-11.6C52.8,116.6,51.7,115.4,50.3,115.4z M47.8,127H33v-6.6h14.8V127z
	 M50.3,92.8H30.5c-1.4,0-2.5,1.1-2.5,2.5v11.6c0,1.4,1.1,2.5,2.5,2.5h19.8c1.4,0,2.5-1.1,2.5-2.5V95.3
	C52.8,93.9,51.7,92.8,50.3,92.8z M47.8,104.4H33v-6.6h14.8V104.4z M50.3,70.2H30.5c-1.4,0-2.5,1.1-2.5,2.5v11.6
	c0,1.4,1.1,2.5,2.5,2.5h19.8c1.4,0,2.5-1.1,2.5-2.5V72.7C52.8,71.3,51.7,70.2,50.3,70.2z M47.8,81.8H33v-6.6h14.8V81.8z M50.3,70.2
	H30.5c-1.4,0-2.5,1.1-2.5,2.5v11.6c0,1.4,1.1,2.5,2.5,2.5h19.8c1.4,0,2.5-1.1,2.5-2.5V72.7C52.8,71.3,51.7,70.2,50.3,70.2z
	 M47.8,81.8H33v-6.6h14.8V81.8z M50.3,92.8H30.5c-1.4,0-2.5,1.1-2.5,2.5v11.6c0,1.4,1.1,2.5,2.5,2.5h19.8c1.4,0,2.5-1.1,2.5-2.5
	V95.3C52.8,93.9,51.7,92.8,50.3,92.8z M47.8,104.4H33v-6.6h14.8V104.4z M50.3,115.4H30.5c-1.4,0-2.5,1.1-2.5,2.5v11.6
	c0,1.4,1.1,2.5,2.5,2.5h19.8c1.4,0,2.5-1.1,2.5-2.5v-11.6C52.8,116.6,51.7,115.4,50.3,115.4z M47.8,127H33v-6.6h14.8V127z
	 M50.3,138.1H30.5c-1.4,0-2.5,1.1-2.5,2.5v11.6c0,1.4,1.1,2.5,2.5,2.5h19.8c1.4,0,2.5-1.1,2.5-2.5v-11.6
	C52.8,139.2,51.7,138.1,50.3,138.1z M47.8,149.6H33v-6.6h14.8V149.6z M80.1,70.2H60.3c-1.4,0-2.5,1.1-2.5,2.5v11.6
	c0,1.4,1.1,2.5,2.5,2.5h19.8c1.4,0,2.5-1.1,2.5-2.5V72.7C82.6,71.3,81.5,70.2,80.1,70.2z M77.6,81.8H62.8v-6.6h14.8V81.8z
	 M80.1,92.8H60.3c-1.4,0-2.5,1.1-2.5,2.5v11.6c0,1.4,1.1,2.5,2.5,2.5h19.8c1.4,0,2.5-1.1,2.5-2.5V95.3
	C82.6,93.9,81.5,92.8,80.1,92.8z M77.6,104.4H62.8v-6.6h14.8V104.4z M80.1,115.4H60.3c-1.4,0-2.5,1.1-2.5,2.5v11.6
	c0,1.4,1.1,2.5,2.5,2.5h19.8c1.4,0,2.5-1.1,2.5-2.5v-11.6C82.6,116.6,81.5,115.4,80.1,115.4z M77.6,127H62.8v-6.6h14.8V127z
	 M80.1,138.1H60.3c-1.4,0-2.5,1.1-2.5,2.5v11.6c0,1.4,1.1,2.5,2.5,2.5h19.8c1.4,0,2.5-1.1,2.5-2.5v-11.6
	C82.6,139.2,81.5,138.1,80.1,138.1z M77.6,149.6H62.8v-6.6h14.8V149.6z M80.1,138.1H60.3c-1.4,0-2.5,1.1-2.5,2.5v11.6
	c0,1.4,1.1,2.5,2.5,2.5h19.8c1.4,0,2.5-1.1,2.5-2.5v-11.6C82.6,139.2,81.5,138.1,80.1,138.1z M77.6,149.6H62.8v-6.6h14.8V149.6z
	 M80.1,115.4H60.3c-1.4,0-2.5,1.1-2.5,2.5v11.6c0,1.4,1.1,2.5,2.5,2.5h19.8c1.4,0,2.5-1.1,2.5-2.5v-11.6
	C82.6,116.6,81.5,115.4,80.1,115.4z M77.6,127H62.8v-6.6h14.8V127z M80.1,92.8H60.3c-1.4,0-2.5,1.1-2.5,2.5v11.6
	c0,1.4,1.1,2.5,2.5,2.5h19.8c1.4,0,2.5-1.1,2.5-2.5V95.3C82.6,93.9,81.5,92.8,80.1,92.8z M77.6,104.4H62.8v-6.6h14.8V104.4z
	 M80.1,70.2H60.3c-1.4,0-2.5,1.1-2.5,2.5v11.6c0,1.4,1.1,2.5,2.5,2.5h19.8c1.4,0,2.5-1.1,2.5-2.5V72.7
	C82.6,71.3,81.5,70.2,80.1,70.2z M77.6,81.8H62.8v-6.6h14.8V81.8z M50.3,138.1H30.5c-1.4,0-2.5,1.1-2.5,2.5v11.6
	c0,1.4,1.1,2.5,2.5,2.5h19.8c1.4,0,2.5-1.1,2.5-2.5v-11.6C52.8,139.2,51.7,138.1,50.3,138.1z M47.8,149.6H33v-6.6h14.8V149.6z
	 M50.3,115.4H30.5c-1.4,0-2.5,1.1-2.5,2.5v11.6c0,1.4,1.1,2.5,2.5,2.5h19.8c1.4,0,2.5-1.1,2.5-2.5v-11.6
	C52.8,116.6,51.7,115.4,50.3,115.4z M47.8,127H33v-6.6h14.8V127z M50.3,92.8H30.5c-1.4,0-2.5,1.1-2.5,2.5v11.6
	c0,1.4,1.1,2.5,2.5,2.5h19.8c1.4,0,2.5-1.1,2.5-2.5V95.3C52.8,93.9,51.7,92.8,50.3,92.8z M47.8,104.4H33v-6.6h14.8V104.4z
	 M50.3,70.2H30.5c-1.4,0-2.5,1.1-2.5,2.5v11.6c0,1.4,1.1,2.5,2.5,2.5h19.8c1.4,0,2.5-1.1,2.5-2.5V72.7
	C52.8,71.3,51.7,70.2,50.3,70.2z M47.8,81.8H33v-6.6h14.8V81.8z M50.3,70.2H30.5c-1.4,0-2.5,1.1-2.5,2.5v11.6c0,1.4,1.1,2.5,2.5,2.5
	h19.8c1.4,0,2.5-1.1,2.5-2.5V72.7C52.8,71.3,51.7,70.2,50.3,70.2z M47.8,81.8H33v-6.6h14.8V81.8z M50.3,92.8H30.5
	c-1.4,0-2.5,1.1-2.5,2.5v11.6c0,1.4,1.1,2.5,2.5,2.5h19.8c1.4,0,2.5-1.1,2.5-2.5V95.3C52.8,93.9,51.7,92.8,50.3,92.8z M47.8,104.4
	H33v-6.6h14.8V104.4z M50.3,115.4H30.5c-1.4,0-2.5,1.1-2.5,2.5v11.6c0,1.4,1.1,2.5,2.5,2.5h19.8c1.4,0,2.5-1.1,2.5-2.5v-11.6
	C52.8,116.6,51.7,115.4,50.3,115.4z M47.8,127H33v-6.6h14.8V127z M50.3,138.1H30.5c-1.4,0-2.5,1.1-2.5,2.5v11.6
	c0,1.4,1.1,2.5,2.5,2.5h19.8c1.4,0,2.5-1.1,2.5-2.5v-11.6C52.8,139.2,51.7,138.1,50.3,138.1z M47.8,149.6H33v-6.6h14.8V149.6z
	 M80.1,70.2H60.3c-1.4,0-2.5,1.1-2.5,2.5v11.6c0,1.4,1.1,2.5,2.5,2.5h19.8c1.4,0,2.5-1.1,2.5-2.5V72.7
	C82.6,71.3,81.5,70.2,80.1,70.2z M77.6,81.8H62.8v-6.6h14.8V81.8z M80.1,92.8H60.3c-1.4,0-2.5,1.1-2.5,2.5v11.6
	c0,1.4,1.1,2.5,2.5,2.5h19.8c1.4,0,2.5-1.1,2.5-2.5V95.3C82.6,93.9,81.5,92.8,80.1,92.8z M77.6,104.4H62.8v-6.6h14.8V104.4z
	 M80.1,115.4H60.3c-1.4,0-2.5,1.1-2.5,2.5v11.6c0,1.4,1.1,2.5,2.5,2.5h19.8c1.4,0,2.5-1.1,2.5-2.5v-11.6
	C82.6,116.6,81.5,115.4,80.1,115.4z M77.6,127H62.8v-6.6h14.8V127z M80.1,138.1H60.3c-1.4,0-2.5,1.1-2.5,2.5v11.6
	c0,1.4,1.1,2.5,2.5,2.5h19.8c1.4,0,2.5-1.1,2.5-2.5v-11.6C82.6,139.2,81.5,138.1,80.1,138.1z M77.6,149.6H62.8v-6.6h14.8V149.6z
	 M80.1,138.1H60.3c-1.4,0-2.5,1.1-2.5,2.5v11.6c0,1.4,1.1,2.5,2.5,2.5h19.8c1.4,0,2.5-1.1,2.5-2.5v-11.6
	C82.6,139.2,81.5,138.1,80.1,138.1z M77.6,149.6H62.8v-6.6h14.8V149.6z M80.1,115.4H60.3c-1.4,0-2.5,1.1-2.5,2.5v11.6
	c0,1.4,1.1,2.5,2.5,2.5h19.8c1.4,0,2.5-1.1,2.5-2.5v-11.6C82.6,116.6,81.5,115.4,80.1,115.4z M77.6,127H62.8v-6.6h14.8V127z
	 M80.1,92.8H60.3c-1.4,0-2.5,1.1-2.5,2.5v11.6c0,1.4,1.1,2.5,2.5,2.5h19.8c1.4,0,2.5-1.1,2.5-2.5V95.3
	C82.6,93.9,81.5,92.8,80.1,92.8z M77.6,104.4H62.8v-6.6h14.8V104.4z M80.1,70.2H60.3c-1.4,0-2.5,1.1-2.5,2.5v11.6
	c0,1.4,1.1,2.5,2.5,2.5h19.8c1.4,0,2.5-1.1,2.5-2.5V72.7C82.6,71.3,81.5,70.2,80.1,70.2z M77.6,81.8H62.8v-6.6h14.8V81.8z
	 M50.3,138.1H30.5c-1.4,0-2.5,1.1-2.5,2.5v11.6c0,1.4,1.1,2.5,2.5,2.5h19.8c1.4,0,2.5-1.1,2.5-2.5v-11.6
	C52.8,139.2,51.7,138.1,50.3,138.1z M47.8,149.6H33v-6.6h14.8V149.6z M50.3,115.4H30.5c-1.4,0-2.5,1.1-2.5,2.5v11.6
	c0,1.4,1.1,2.5,2.5,2.5h19.8c1.4,0,2.5-1.1,2.5-2.5v-11.6C52.8,116.6,51.7,115.4,50.3,115.4z M47.8,127H33v-6.6h14.8V127z
	 M50.3,92.8H30.5c-1.4,0-2.5,1.1-2.5,2.5v11.6c0,1.4,1.1,2.5,2.5,2.5h19.8c1.4,0,2.5-1.1,2.5-2.5V95.3
	C52.8,93.9,51.7,92.8,50.3,92.8z M47.8,104.4H33v-6.6h14.8V104.4z M50.3,70.2H30.5c-1.4,0-2.5,1.1-2.5,2.5v11.6
	c0,1.4,1.1,2.5,2.5,2.5h19.8c1.4,0,2.5-1.1,2.5-2.5V72.7C52.8,71.3,51.7,70.2,50.3,70.2z M47.8,81.8H33v-6.6h14.8V81.8z M50.3,70.2
	H30.5c-1.4,0-2.5,1.1-2.5,2.5v11.6c0,1.4,1.1,2.5,2.5,2.5h19.8c1.4,0,2.5-1.1,2.5-2.5V72.7C52.8,71.3,51.7,70.2,50.3,70.2z
	 M47.8,81.8H33v-6.6h14.8V81.8z M50.3,92.8H30.5c-1.4,0-2.5,1.1-2.5,2.5v11.6c0,1.4,1.1,2.5,2.5,2.5h19.8c1.4,0,2.5-1.1,2.5-2.5
	V95.3C52.8,93.9,51.7,92.8,50.3,92.8z M47.8,104.4H33v-6.6h14.8V104.4z M50.3,115.4H30.5c-1.4,0-2.5,1.1-2.5,2.5v11.6
	c0,1.4,1.1,2.5,2.5,2.5h19.8c1.4,0,2.5-1.1,2.5-2.5v-11.6C52.8,116.6,51.7,115.4,50.3,115.4z M47.8,127H33v-6.6h14.8V127z
	 M50.3,138.1H30.5c-1.4,0-2.5,1.1-2.5,2.5v11.6c0,1.4,1.1,2.5,2.5,2.5h19.8c1.4,0,2.5-1.1,2.5-2.5v-11.6
	C52.8,139.2,51.7,138.1,50.3,138.1z M47.8,149.6H33v-6.6h14.8V149.6z M80.1,70.2H60.3c-1.4,0-2.5,1.1-2.5,2.5v11.6
	c0,1.4,1.1,2.5,2.5,2.5h19.8c1.4,0,2.5-1.1,2.5-2.5V72.7C82.6,71.3,81.5,70.2,80.1,70.2z M77.6,81.8H62.8v-6.6h14.8V81.8z
	 M80.1,92.8H60.3c-1.4,0-2.5,1.1-2.5,2.5v11.6c0,1.4,1.1,2.5,2.5,2.5h19.8c1.4,0,2.5-1.1,2.5-2.5V95.3
	C82.6,93.9,81.5,92.8,80.1,92.8z M77.6,104.4H62.8v-6.6h14.8V104.4z M80.1,115.4H60.3c-1.4,0-2.5,1.1-2.5,2.5v11.6
	c0,1.4,1.1,2.5,2.5,2.5h19.8c1.4,0,2.5-1.1,2.5-2.5v-11.6C82.6,116.6,81.5,115.4,80.1,115.4z M77.6,127H62.8v-6.6h14.8V127z
	 M80.1,138.1H60.3c-1.4,0-2.5,1.1-2.5,2.5v11.6c0,1.4,1.1,2.5,2.5,2.5h19.8c1.4,0,2.5-1.1,2.5-2.5v-11.6
	C82.6,139.2,81.5,138.1,80.1,138.1z M77.6,149.6H62.8v-6.6h14.8V149.6z M80.1,138.1H60.3c-1.4,0-2.5,1.1-2.5,2.5v11.6
	c0,1.4,1.1,2.5,2.5,2.5h19.8c1.4,0,2.5-1.1,2.5-2.5v-11.6C82.6,139.2,81.5,138.1,80.1,138.1z M77.6,149.6H62.8v-6.6h14.8V149.6z
	 M80.1,115.4H60.3c-1.4,0-2.5,1.1-2.5,2.5v11.6c0,1.4,1.1,2.5,2.5,2.5h19.8c1.4,0,2.5-1.1,2.5-2.5v-11.6
	C82.6,116.6,81.5,115.4,80.1,115.4z M77.6,127H62.8v-6.6h14.8V127z M80.1,92.8H60.3c-1.4,0-2.5,1.1-2.5,2.5v11.6
	c0,1.4,1.1,2.5,2.5,2.5h19.8c1.4,0,2.5-1.1,2.5-2.5V95.3C82.6,93.9,81.5,92.8,80.1,92.8z M77.6,104.4H62.8v-6.6h14.8V104.4z
	 M80.1,70.2H60.3c-1.4,0-2.5,1.1-2.5,2.5v11.6c0,1.4,1.1,2.5,2.5,2.5h19.8c1.4,0,2.5-1.1,2.5-2.5V72.7
	C82.6,71.3,81.5,70.2,80.1,70.2z M77.6,81.8H62.8v-6.6h14.8V81.8z M50.3,138.1H30.5c-1.4,0-2.5,1.1-2.5,2.5v11.6
	c0,1.4,1.1,2.5,2.5,2.5h19.8c1.4,0,2.5-1.1,2.5-2.5v-11.6C52.8,139.2,51.7,138.1,50.3,138.1z M47.8,149.6H33v-6.6h14.8V149.6z
	 M50.3,115.4H30.5c-1.4,0-2.5,1.1-2.5,2.5v11.6c0,1.4,1.1,2.5,2.5,2.5h19.8c1.4,0,2.5-1.1,2.5-2.5v-11.6
	C52.8,116.6,51.7,115.4,50.3,115.4z M47.8,127H33v-6.6h14.8V127z M50.3,92.8H30.5c-1.4,0-2.5,1.1-2.5,2.5v11.6
	c0,1.4,1.1,2.5,2.5,2.5h19.8c1.4,0,2.5-1.1,2.5-2.5V95.3C52.8,93.9,51.7,92.8,50.3,92.8z M47.8,104.4H33v-6.6h14.8V104.4z
	 M50.3,70.2H30.5c-1.4,0-2.5,1.1-2.5,2.5v11.6c0,1.4,1.1,2.5,2.5,2.5h19.8c1.4,0,2.5-1.1,2.5-2.5V72.7
	C52.8,71.3,51.7,70.2,50.3,70.2z M47.8,81.8H33v-6.6h14.8V81.8z M50.3,70.2H30.5c-1.4,0-2.5,1.1-2.5,2.5v11.6c0,1.4,1.1,2.5,2.5,2.5
	h19.8c1.4,0,2.5-1.1,2.5-2.5V72.7C52.8,71.3,51.7,70.2,50.3,70.2z M47.8,81.8H33v-6.6h14.8V81.8z M50.3,92.8H30.5
	c-1.4,0-2.5,1.1-2.5,2.5v11.6c0,1.4,1.1,2.5,2.5,2.5h19.8c1.4,0,2.5-1.1,2.5-2.5V95.3C52.8,93.9,51.7,92.8,50.3,92.8z M47.8,104.4
	H33v-6.6h14.8V104.4z M50.3,115.4H30.5c-1.4,0-2.5,1.1-2.5,2.5v11.6c0,1.4,1.1,2.5,2.5,2.5h19.8c1.4,0,2.5-1.1,2.5-2.5v-11.6
	C52.8,116.6,51.7,115.4,50.3,115.4z M47.8,127H33v-6.6h14.8V127z M50.3,138.1H30.5c-1.4,0-2.5,1.1-2.5,2.5v11.6
	c0,1.4,1.1,2.5,2.5,2.5h19.8c1.4,0,2.5-1.1,2.5-2.5v-11.6C52.8,139.2,51.7,138.1,50.3,138.1z M47.8,149.6H33v-6.6h14.8V149.6z
	 M80.1,70.2H60.3c-1.4,0-2.5,1.1-2.5,2.5v11.6c0,1.4,1.1,2.5,2.5,2.5h19.8c1.4,0,2.5-1.1,2.5-2.5V72.7
	C82.6,71.3,81.5,70.2,80.1,70.2z M77.6,81.8H62.8v-6.6h14.8V81.8z M80.1,92.8H60.3c-1.4,0-2.5,1.1-2.5,2.5v11.6
	c0,1.4,1.1,2.5,2.5,2.5h19.8c1.4,0,2.5-1.1,2.5-2.5V95.3C82.6,93.9,81.5,92.8,80.1,92.8z M77.6,104.4H62.8v-6.6h14.8V104.4z
	 M80.1,115.4H60.3c-1.4,0-2.5,1.1-2.5,2.5v11.6c0,1.4,1.1,2.5,2.5,2.5h19.8c1.4,0,2.5-1.1,2.5-2.5v-11.6
	C82.6,116.6,81.5,115.4,80.1,115.4z M77.6,127H62.8v-6.6h14.8V127z M80.1,138.1H60.3c-1.4,0-2.5,1.1-2.5,2.5v11.6
	c0,1.4,1.1,2.5,2.5,2.5h19.8c1.4,0,2.5-1.1,2.5-2.5v-11.6C82.6,139.2,81.5,138.1,80.1,138.1z M77.6,149.6H62.8v-6.6h14.8V149.6z
	 M80.1,138.1H60.3c-1.4,0-2.5,1.1-2.5,2.5v11.6c0,1.4,1.1,2.5,2.5,2.5h19.8c1.4,0,2.5-1.1,2.5-2.5v-11.6
	C82.6,139.2,81.5,138.1,80.1,138.1z M77.6,149.6H62.8v-6.6h14.8V149.6z M80.1,115.4H60.3c-1.4,0-2.5,1.1-2.5,2.5v11.6
	c0,1.4,1.1,2.5,2.5,2.5h19.8c1.4,0,2.5-1.1,2.5-2.5v-11.6C82.6,116.6,81.5,115.4,80.1,115.4z M77.6,127H62.8v-6.6h14.8V127z
	 M80.1,92.8H60.3c-1.4,0-2.5,1.1-2.5,2.5v11.6c0,1.4,1.1,2.5,2.5,2.5h19.8c1.4,0,2.5-1.1,2.5-2.5V95.3
	C82.6,93.9,81.5,92.8,80.1,92.8z M77.6,104.4H62.8v-6.6h14.8V104.4z M80.1,70.2H60.3c-1.4,0-2.5,1.1-2.5,2.5v11.6
	c0,1.4,1.1,2.5,2.5,2.5h19.8c1.4,0,2.5-1.1,2.5-2.5V72.7C82.6,71.3,81.5,70.2,80.1,70.2z M77.6,81.8H62.8v-6.6h14.8V81.8z
	 M50.3,138.1H30.5c-1.4,0-2.5,1.1-2.5,2.5v11.6c0,1.4,1.1,2.5,2.5,2.5h19.8c1.4,0,2.5-1.1,2.5-2.5v-11.6
	C52.8,139.2,51.7,138.1,50.3,138.1z M47.8,149.6H33v-6.6h14.8V149.6z M50.3,115.4H30.5c-1.4,0-2.5,1.1-2.5,2.5v11.6
	c0,1.4,1.1,2.5,2.5,2.5h19.8c1.4,0,2.5-1.1,2.5-2.5v-11.6C52.8,116.6,51.7,115.4,50.3,115.4z M47.8,127H33v-6.6h14.8V127z
	 M50.3,92.8H30.5c-1.4,0-2.5,1.1-2.5,2.5v11.6c0,1.4,1.1,2.5,2.5,2.5h19.8c1.4,0,2.5-1.1,2.5-2.5V95.3
	C52.8,93.9,51.7,92.8,50.3,92.8z M47.8,104.4H33v-6.6h14.8V104.4z M50.3,70.2H30.5c-1.4,0-2.5,1.1-2.5,2.5v11.6
	c0,1.4,1.1,2.5,2.5,2.5h19.8c1.4,0,2.5-1.1,2.5-2.5V72.7C52.8,71.3,51.7,70.2,50.3,70.2z M47.8,81.8H33v-6.6h14.8V81.8z M50.3,70.2
	H30.5c-1.4,0-2.5,1.1-2.5,2.5v11.6c0,1.4,1.1,2.5,2.5,2.5h19.8c1.4,0,2.5-1.1,2.5-2.5V72.7C52.8,71.3,51.7,70.2,50.3,70.2z
	 M47.8,81.8H33v-6.6h14.8V81.8z M50.3,92.8H30.5c-1.4,0-2.5,1.1-2.5,2.5v11.6c0,1.4,1.1,2.5,2.5,2.5h19.8c1.4,0,2.5-1.1,2.5-2.5
	V95.3C52.8,93.9,51.7,92.8,50.3,92.8z M47.8,104.4H33v-6.6h14.8V104.4z M50.3,115.4H30.5c-1.4,0-2.5,1.1-2.5,2.5v11.6
	c0,1.4,1.1,2.5,2.5,2.5h19.8c1.4,0,2.5-1.1,2.5-2.5v-11.6C52.8,116.6,51.7,115.4,50.3,115.4z M47.8,127H33v-6.6h14.8V127z
	 M50.3,138.1H30.5c-1.4,0-2.5,1.1-2.5,2.5v11.6c0,1.4,1.1,2.5,2.5,2.5h19.8c1.4,0,2.5-1.1,2.5-2.5v-11.6
	C52.8,139.2,51.7,138.1,50.3,138.1z M47.8,149.6H33v-6.6h14.8V149.6z M80.1,70.2H60.3c-1.4,0-2.5,1.1-2.5,2.5v11.6
	c0,1.4,1.1,2.5,2.5,2.5h19.8c1.4,0,2.5-1.1,2.5-2.5V72.7C82.6,71.3,81.5,70.2,80.1,70.2z M77.6,81.8H62.8v-6.6h14.8V81.8z
	 M80.1,92.8H60.3c-1.4,0-2.5,1.1-2.5,2.5v11.6c0,1.4,1.1,2.5,2.5,2.5h19.8c1.4,0,2.5-1.1,2.5-2.5V95.3
	C82.6,93.9,81.5,92.8,80.1,92.8z M77.6,104.4H62.8v-6.6h14.8V104.4z M80.1,115.4H60.3c-1.4,0-2.5,1.1-2.5,2.5v11.6
	c0,1.4,1.1,2.5,2.5,2.5h19.8c1.4,0,2.5-1.1,2.5-2.5v-11.6C82.6,116.6,81.5,115.4,80.1,115.4z M77.6,127H62.8v-6.6h14.8V127z
	 M80.1,138.1H60.3c-1.4,0-2.5,1.1-2.5,2.5v11.6c0,1.4,1.1,2.5,2.5,2.5h19.8c1.4,0,2.5-1.1,2.5-2.5v-11.6
	C82.6,139.2,81.5,138.1,80.1,138.1z M77.6,149.6H62.8v-6.6h14.8V149.6z M80.1,138.1H60.3c-1.4,0-2.5,1.1-2.5,2.5v11.6
	c0,1.4,1.1,2.5,2.5,2.5h19.8c1.4,0,2.5-1.1,2.5-2.5v-11.6C82.6,139.2,81.5,138.1,80.1,138.1z M77.6,149.6H62.8v-6.6h14.8V149.6z
	 M80.1,115.4H60.3c-1.4,0-2.5,1.1-2.5,2.5v11.6c0,1.4,1.1,2.5,2.5,2.5h19.8c1.4,0,2.5-1.1,2.5-2.5v-11.6
	C82.6,116.6,81.5,115.4,80.1,115.4z M77.6,127H62.8v-6.6h14.8V127z M80.1,92.8H60.3c-1.4,0-2.5,1.1-2.5,2.5v11.6
	c0,1.4,1.1,2.5,2.5,2.5h19.8c1.4,0,2.5-1.1,2.5-2.5V95.3C82.6,93.9,81.5,92.8,80.1,92.8z M77.6,104.4H62.8v-6.6h14.8V104.4z
	 M80.1,70.2H60.3c-1.4,0-2.5,1.1-2.5,2.5v11.6c0,1.4,1.1,2.5,2.5,2.5h19.8c1.4,0,2.5-1.1,2.5-2.5V72.7
	C82.6,71.3,81.5,70.2,80.1,70.2z M77.6,81.8H62.8v-6.6h14.8V81.8z M50.3,138.1H30.5c-1.4,0-2.5,1.1-2.5,2.5v11.6
	c0,1.4,1.1,2.5,2.5,2.5h19.8c1.4,0,2.5-1.1,2.5-2.5v-11.6C52.8,139.2,51.7,138.1,50.3,138.1z M47.8,149.6H33v-6.6h14.8V149.6z
	 M50.3,115.4H30.5c-1.4,0-2.5,1.1-2.5,2.5v11.6c0,1.4,1.1,2.5,2.5,2.5h19.8c1.4,0,2.5-1.1,2.5-2.5v-11.6
	C52.8,116.6,51.7,115.4,50.3,115.4z M47.8,127H33v-6.6h14.8V127z M50.3,92.8H30.5c-1.4,0-2.5,1.1-2.5,2.5v11.6
	c0,1.4,1.1,2.5,2.5,2.5h19.8c1.4,0,2.5-1.1,2.5-2.5V95.3C52.8,93.9,51.7,92.8,50.3,92.8z M47.8,104.4H33v-6.6h14.8V104.4z
	 M50.3,70.2H30.5c-1.4,0-2.5,1.1-2.5,2.5v11.6c0,1.4,1.1,2.5,2.5,2.5h19.8c1.4,0,2.5-1.1,2.5-2.5V72.7
	C52.8,71.3,51.7,70.2,50.3,70.2z M47.8,81.8H33v-6.6h14.8V81.8z M50.3,70.2H30.5c-1.4,0-2.5,1.1-2.5,2.5v11.6c0,1.4,1.1,2.5,2.5,2.5
	h19.8c1.4,0,2.5-1.1,2.5-2.5V72.7C52.8,71.3,51.7,70.2,50.3,70.2z M47.8,81.8H33v-6.6h14.8V81.8z M50.3,92.8H30.5
	c-1.4,0-2.5,1.1-2.5,2.5v11.6c0,1.4,1.1,2.5,2.5,2.5h19.8c1.4,0,2.5-1.1,2.5-2.5V95.3C52.8,93.9,51.7,92.8,50.3,92.8z M47.8,104.4
	H33v-6.6h14.8V104.4z M50.3,115.4H30.5c-1.4,0-2.5,1.1-2.5,2.5v11.6c0,1.4,1.1,2.5,2.5,2.5h19.8c1.4,0,2.5-1.1,2.5-2.5v-11.6
	C52.8,116.6,51.7,115.4,50.3,115.4z M47.8,127H33v-6.6h14.8V127z M50.3,138.1H30.5c-1.4,0-2.5,1.1-2.5,2.5v11.6
	c0,1.4,1.1,2.5,2.5,2.5h19.8c1.4,0,2.5-1.1,2.5-2.5v-11.6C52.8,139.2,51.7,138.1,50.3,138.1z M47.8,149.6H33v-6.6h14.8V149.6z
	 M80.1,70.2H60.3c-1.4,0-2.5,1.1-2.5,2.5v11.6c0,1.4,1.1,2.5,2.5,2.5h19.8c1.4,0,2.5-1.1,2.5-2.5V72.7
	C82.6,71.3,81.5,70.2,80.1,70.2z M77.6,81.8H62.8v-6.6h14.8V81.8z M80.1,92.8H60.3c-1.4,0-2.5,1.1-2.5,2.5v11.6
	c0,1.4,1.1,2.5,2.5,2.5h19.8c1.4,0,2.5-1.1,2.5-2.5V95.3C82.6,93.9,81.5,92.8,80.1,92.8z M77.6,104.4H62.8v-6.6h14.8V104.4z
	 M80.1,115.4H60.3c-1.4,0-2.5,1.1-2.5,2.5v11.6c0,1.4,1.1,2.5,2.5,2.5h19.8c1.4,0,2.5-1.1,2.5-2.5v-11.6
	C82.6,116.6,81.5,115.4,80.1,115.4z M77.6,127H62.8v-6.6h14.8V127z M80.1,138.1H60.3c-1.4,0-2.5,1.1-2.5,2.5v11.6
	c0,1.4,1.1,2.5,2.5,2.5h19.8c1.4,0,2.5-1.1,2.5-2.5v-11.6C82.6,139.2,81.5,138.1,80.1,138.1z M77.6,149.6H62.8v-6.6h14.8V149.6z
	 M80.1,138.1H60.3c-1.4,0-2.5,1.1-2.5,2.5v11.6c0,1.4,1.1,2.5,2.5,2.5h19.8c1.4,0,2.5-1.1,2.5-2.5v-11.6
	C82.6,139.2,81.5,138.1,80.1,138.1z M77.6,149.6H62.8v-6.6h14.8V149.6z M80.1,115.4H60.3c-1.4,0-2.5,1.1-2.5,2.5v11.6
	c0,1.4,1.1,2.5,2.5,2.5h19.8c1.4,0,2.5-1.1,2.5-2.5v-11.6C82.6,116.6,81.5,115.4,80.1,115.4z M77.6,127H62.8v-6.6h14.8V127z
	 M80.1,92.8H60.3c-1.4,0-2.5,1.1-2.5,2.5v11.6c0,1.4,1.1,2.5,2.5,2.5h19.8c1.4,0,2.5-1.1,2.5-2.5V95.3
	C82.6,93.9,81.5,92.8,80.1,92.8z M77.6,104.4H62.8v-6.6h14.8V104.4z M80.1,70.2H60.3c-1.4,0-2.5,1.1-2.5,2.5v11.6
	c0,1.4,1.1,2.5,2.5,2.5h19.8c1.4,0,2.5-1.1,2.5-2.5V72.7C82.6,71.3,81.5,70.2,80.1,70.2z M77.6,81.8H62.8v-6.6h14.8V81.8z
	 M50.3,138.1H30.5c-1.4,0-2.5,1.1-2.5,2.5v11.6c0,1.4,1.1,2.5,2.5,2.5h19.8c1.4,0,2.5-1.1,2.5-2.5v-11.6
	C52.8,139.2,51.7,138.1,50.3,138.1z M47.8,149.6H33v-6.6h14.8V149.6z M50.3,115.4H30.5c-1.4,0-2.5,1.1-2.5,2.5v11.6
	c0,1.4,1.1,2.5,2.5,2.5h19.8c1.4,0,2.5-1.1,2.5-2.5v-11.6C52.8,116.6,51.7,115.4,50.3,115.4z M47.8,127H33v-6.6h14.8V127z
	 M50.3,92.8H30.5c-1.4,0-2.5,1.1-2.5,2.5v11.6c0,1.4,1.1,2.5,2.5,2.5h19.8c1.4,0,2.5-1.1,2.5-2.5V95.3
	C52.8,93.9,51.7,92.8,50.3,92.8z M47.8,104.4H33v-6.6h14.8V104.4z M50.3,70.2H30.5c-1.4,0-2.5,1.1-2.5,2.5v11.6
	c0,1.4,1.1,2.5,2.5,2.5h19.8c1.4,0,2.5-1.1,2.5-2.5V72.7C52.8,71.3,51.7,70.2,50.3,70.2z M47.8,81.8H33v-6.6h14.8V81.8z M50.3,70.2
	H30.5c-1.4,0-2.5,1.1-2.5,2.5v11.6c0,1.4,1.1,2.5,2.5,2.5h19.8c1.4,0,2.5-1.1,2.5-2.5V72.7C52.8,71.3,51.7,70.2,50.3,70.2z
	 M47.8,81.8H33v-6.6h14.8V81.8z M50.3,92.8H30.5c-1.4,0-2.5,1.1-2.5,2.5v11.6c0,1.4,1.1,2.5,2.5,2.5h19.8c1.4,0,2.5-1.1,2.5-2.5
	V95.3C52.8,93.9,51.7,92.8,50.3,92.8z M47.8,104.4H33v-6.6h14.8V104.4z M50.3,115.4H30.5c-1.4,0-2.5,1.1-2.5,2.5v11.6
	c0,1.4,1.1,2.5,2.5,2.5h19.8c1.4,0,2.5-1.1,2.5-2.5v-11.6C52.8,116.6,51.7,115.4,50.3,115.4z M47.8,127H33v-6.6h14.8V127z
	 M50.3,138.1H30.5c-1.4,0-2.5,1.1-2.5,2.5v11.6c0,1.4,1.1,2.5,2.5,2.5h19.8c1.4,0,2.5-1.1,2.5-2.5v-11.6
	C52.8,139.2,51.7,138.1,50.3,138.1z M47.8,149.6H33v-6.6h14.8V149.6z M80.1,70.2H60.3c-1.4,0-2.5,1.1-2.5,2.5v11.6
	c0,1.4,1.1,2.5,2.5,2.5h19.8c1.4,0,2.5-1.1,2.5-2.5V72.7C82.6,71.3,81.5,70.2,80.1,70.2z M77.6,81.8H62.8v-6.6h14.8V81.8z
	 M80.1,92.8H60.3c-1.4,0-2.5,1.1-2.5,2.5v11.6c0,1.4,1.1,2.5,2.5,2.5h19.8c1.4,0,2.5-1.1,2.5-2.5V95.3
	C82.6,93.9,81.5,92.8,80.1,92.8z M77.6,104.4H62.8v-6.6h14.8V104.4z M80.1,115.4H60.3c-1.4,0-2.5,1.1-2.5,2.5v11.6
	c0,1.4,1.1,2.5,2.5,2.5h19.8c1.4,0,2.5-1.1,2.5-2.5v-11.6C82.6,116.6,81.5,115.4,80.1,115.4z M77.6,127H62.8v-6.6h14.8V127z
	 M80.1,138.1H60.3c-1.4,0-2.5,1.1-2.5,2.5v11.6c0,1.4,1.1,2.5,2.5,2.5h19.8c1.4,0,2.5-1.1,2.5-2.5v-11.6
	C82.6,139.2,81.5,138.1,80.1,138.1z M77.6,149.6H62.8v-6.6h14.8V149.6z M80.1,138.1H60.3c-1.4,0-2.5,1.1-2.5,2.5v11.6
	c0,1.4,1.1,2.5,2.5,2.5h19.8c1.4,0,2.5-1.1,2.5-2.5v-11.6C82.6,139.2,81.5,138.1,80.1,138.1z M77.6,149.6H62.8v-6.6h14.8V149.6z
	 M80.1,115.4H60.3c-1.4,0-2.5,1.1-2.5,2.5v11.6c0,1.4,1.1,2.5,2.5,2.5h19.8c1.4,0,2.5-1.1,2.5-2.5v-11.6
	C82.6,116.6,81.5,115.4,80.1,115.4z M77.6,127H62.8v-6.6h14.8V127z M80.1,92.8H60.3c-1.4,0-2.5,1.1-2.5,2.5v11.6
	c0,1.4,1.1,2.5,2.5,2.5h19.8c1.4,0,2.5-1.1,2.5-2.5V95.3C82.6,93.9,81.5,92.8,80.1,92.8z M77.6,104.4H62.8v-6.6h14.8V104.4z
	 M80.1,70.2H60.3c-1.4,0-2.5,1.1-2.5,2.5v11.6c0,1.4,1.1,2.5,2.5,2.5h19.8c1.4,0,2.5-1.1,2.5-2.5V72.7
	C82.6,71.3,81.5,70.2,80.1,70.2z M77.6,81.8H62.8v-6.6h14.8V81.8z M50.3,138.1H30.5c-1.4,0-2.5,1.1-2.5,2.5v11.6
	c0,1.4,1.1,2.5,2.5,2.5h19.8c1.4,0,2.5-1.1,2.5-2.5v-11.6C52.8,139.2,51.7,138.1,50.3,138.1z M47.8,149.6H33v-6.6h14.8V149.6z
	 M50.3,115.4H30.5c-1.4,0-2.5,1.1-2.5,2.5v11.6c0,1.4,1.1,2.5,2.5,2.5h19.8c1.4,0,2.5-1.1,2.5-2.5v-11.6
	C52.8,116.6,51.7,115.4,50.3,115.4z M47.8,127H33v-6.6h14.8V127z M50.3,92.8H30.5c-1.4,0-2.5,1.1-2.5,2.5v11.6
	c0,1.4,1.1,2.5,2.5,2.5h19.8c1.4,0,2.5-1.1,2.5-2.5V95.3C52.8,93.9,51.7,92.8,50.3,92.8z M47.8,104.4H33v-6.6h14.8V104.4z
	 M50.3,70.2H30.5c-1.4,0-2.5,1.1-2.5,2.5v11.6c0,1.4,1.1,2.5,2.5,2.5h19.8c1.4,0,2.5-1.1,2.5-2.5V72.7
	C52.8,71.3,51.7,70.2,50.3,70.2z M47.8,81.8H33v-6.6h14.8V81.8z M50.3,70.2H30.5c-1.4,0-2.5,1.1-2.5,2.5v11.6c0,1.4,1.1,2.5,2.5,2.5
	h19.8c1.4,0,2.5-1.1,2.5-2.5V72.7C52.8,71.3,51.7,70.2,50.3,70.2z M47.8,81.8H33v-6.6h14.8V81.8z M50.3,92.8H30.5
	c-1.4,0-2.5,1.1-2.5,2.5v11.6c0,1.4,1.1,2.5,2.5,2.5h19.8c1.4,0,2.5-1.1,2.5-2.5V95.3C52.8,93.9,51.7,92.8,50.3,92.8z M47.8,104.4
	H33v-6.6h14.8V104.4z M50.3,115.4H30.5c-1.4,0-2.5,1.1-2.5,2.5v11.6c0,1.4,1.1,2.5,2.5,2.5h19.8c1.4,0,2.5-1.1,2.5-2.5v-11.6
	C52.8,116.6,51.7,115.4,50.3,115.4z M47.8,127H33v-6.6h14.8V127z M50.3,138.1H30.5c-1.4,0-2.5,1.1-2.5,2.5v11.6
	c0,1.4,1.1,2.5,2.5,2.5h19.8c1.4,0,2.5-1.1,2.5-2.5v-11.6C52.8,139.2,51.7,138.1,50.3,138.1z M47.8,149.6H33v-6.6h14.8V149.6z
	 M80.1,70.2H60.3c-1.4,0-2.5,1.1-2.5,2.5v11.6c0,1.4,1.1,2.5,2.5,2.5h19.8c1.4,0,2.5-1.1,2.5-2.5V72.7
	C82.6,71.3,81.5,70.2,80.1,70.2z M77.6,81.8H62.8v-6.6h14.8V81.8z M80.1,92.8H60.3c-1.4,0-2.5,1.1-2.5,2.5v11.6
	c0,1.4,1.1,2.5,2.5,2.5h19.8c1.4,0,2.5-1.1,2.5-2.5V95.3C82.6,93.9,81.5,92.8,80.1,92.8z M77.6,104.4H62.8v-6.6h14.8V104.4z
	 M80.1,115.4H60.3c-1.4,0-2.5,1.1-2.5,2.5v11.6c0,1.4,1.1,2.5,2.5,2.5h19.8c1.4,0,2.5-1.1,2.5-2.5v-11.6
	C82.6,116.6,81.5,115.4,80.1,115.4z M77.6,127H62.8v-6.6h14.8V127z M80.1,138.1H60.3c-1.4,0-2.5,1.1-2.5,2.5v11.6
	c0,1.4,1.1,2.5,2.5,2.5h19.8c1.4,0,2.5-1.1,2.5-2.5v-11.6C82.6,139.2,81.5,138.1,80.1,138.1z M77.6,149.6H62.8v-6.6h14.8V149.6z
	 M80.1,138.1H60.3c-1.4,0-2.5,1.1-2.5,2.5v11.6c0,1.4,1.1,2.5,2.5,2.5h19.8c1.4,0,2.5-1.1,2.5-2.5v-11.6
	C82.6,139.2,81.5,138.1,80.1,138.1z M77.6,149.6H62.8v-6.6h14.8V149.6z M80.1,115.4H60.3c-1.4,0-2.5,1.1-2.5,2.5v11.6
	c0,1.4,1.1,2.5,2.5,2.5h19.8c1.4,0,2.5-1.1,2.5-2.5v-11.6C82.6,116.6,81.5,115.4,80.1,115.4z M77.6,127H62.8v-6.6h14.8V127z
	 M80.1,92.8H60.3c-1.4,0-2.5,1.1-2.5,2.5v11.6c0,1.4,1.1,2.5,2.5,2.5h19.8c1.4,0,2.5-1.1,2.5-2.5V95.3
	C82.6,93.9,81.5,92.8,80.1,92.8z M77.6,104.4H62.8v-6.6h14.8V104.4z M80.1,70.2H60.3c-1.4,0-2.5,1.1-2.5,2.5v11.6
	c0,1.4,1.1,2.5,2.5,2.5h19.8c1.4,0,2.5-1.1,2.5-2.5V72.7C82.6,71.3,81.5,70.2,80.1,70.2z M77.6,81.8H62.8v-6.6h14.8V81.8z
	 M50.3,138.1H30.5c-1.4,0-2.5,1.1-2.5,2.5v11.6c0,1.4,1.1,2.5,2.5,2.5h19.8c1.4,0,2.5-1.1,2.5-2.5v-11.6
	C52.8,139.2,51.7,138.1,50.3,138.1z M47.8,149.6H33v-6.6h14.8V149.6z M50.3,115.4H30.5c-1.4,0-2.5,1.1-2.5,2.5v11.6
	c0,1.4,1.1,2.5,2.5,2.5h19.8c1.4,0,2.5-1.1,2.5-2.5v-11.6C52.8,116.6,51.7,115.4,50.3,115.4z M47.8,127H33v-6.6h14.8V127z
	 M50.3,92.8H30.5c-1.4,0-2.5,1.1-2.5,2.5v11.6c0,1.4,1.1,2.5,2.5,2.5h19.8c1.4,0,2.5-1.1,2.5-2.5V95.3
	C52.8,93.9,51.7,92.8,50.3,92.8z M47.8,104.4H33v-6.6h14.8V104.4z M50.3,70.2H30.5c-1.4,0-2.5,1.1-2.5,2.5v11.6
	c0,1.4,1.1,2.5,2.5,2.5h19.8c1.4,0,2.5-1.1,2.5-2.5V72.7C52.8,71.3,51.7,70.2,50.3,70.2z M47.8,81.8H33v-6.6h14.8V81.8z M50.3,70.2
	H30.5c-1.4,0-2.5,1.1-2.5,2.5v11.6c0,1.4,1.1,2.5,2.5,2.5h19.8c1.4,0,2.5-1.1,2.5-2.5V72.7C52.8,71.3,51.7,70.2,50.3,70.2z
	 M47.8,81.8H33v-6.6h14.8V81.8z M50.3,92.8H30.5c-1.4,0-2.5,1.1-2.5,2.5v11.6c0,1.4,1.1,2.5,2.5,2.5h19.8c1.4,0,2.5-1.1,2.5-2.5
	V95.3C52.8,93.9,51.7,92.8,50.3,92.8z M47.8,104.4H33v-6.6h14.8V104.4z M50.3,115.4H30.5c-1.4,0-2.5,1.1-2.5,2.5v11.6
	c0,1.4,1.1,2.5,2.5,2.5h19.8c1.4,0,2.5-1.1,2.5-2.5v-11.6C52.8,116.6,51.7,115.4,50.3,115.4z M47.8,127H33v-6.6h14.8V127z
	 M50.3,138.1H30.5c-1.4,0-2.5,1.1-2.5,2.5v11.6c0,1.4,1.1,2.5,2.5,2.5h19.8c1.4,0,2.5-1.1,2.5-2.5v-11.6
	C52.8,139.2,51.7,138.1,50.3,138.1z M47.8,149.6H33v-6.6h14.8V149.6z M80.1,70.2H60.3c-1.4,0-2.5,1.1-2.5,2.5v11.6
	c0,1.4,1.1,2.5,2.5,2.5h19.8c1.4,0,2.5-1.1,2.5-2.5V72.7C82.6,71.3,81.5,70.2,80.1,70.2z M77.6,81.8H62.8v-6.6h14.8V81.8z
	 M80.1,92.8H60.3c-1.4,0-2.5,1.1-2.5,2.5v11.6c0,1.4,1.1,2.5,2.5,2.5h19.8c1.4,0,2.5-1.1,2.5-2.5V95.3
	C82.6,93.9,81.5,92.8,80.1,92.8z M77.6,104.4H62.8v-6.6h14.8V104.4z M80.1,115.4H60.3c-1.4,0-2.5,1.1-2.5,2.5v11.6
	c0,1.4,1.1,2.5,2.5,2.5h19.8c1.4,0,2.5-1.1,2.5-2.5v-11.6C82.6,116.6,81.5,115.4,80.1,115.4z M77.6,127H62.8v-6.6h14.8V127z
	 M80.1,138.1H60.3c-1.4,0-2.5,1.1-2.5,2.5v11.6c0,1.4,1.1,2.5,2.5,2.5h19.8c1.4,0,2.5-1.1,2.5-2.5v-11.6
	C82.6,139.2,81.5,138.1,80.1,138.1z M77.6,149.6H62.8v-6.6h14.8V149.6z M80.1,138.1H60.3c-1.4,0-2.5,1.1-2.5,2.5v11.6
	c0,1.4,1.1,2.5,2.5,2.5h19.8c1.4,0,2.5-1.1,2.5-2.5v-11.6C82.6,139.2,81.5,138.1,80.1,138.1z M77.6,149.6H62.8v-6.6h14.8V149.6z
	 M80.1,115.4H60.3c-1.4,0-2.5,1.1-2.5,2.5v11.6c0,1.4,1.1,2.5,2.5,2.5h19.8c1.4,0,2.5-1.1,2.5-2.5v-11.6
	C82.6,116.6,81.5,115.4,80.1,115.4z M77.6,127H62.8v-6.6h14.8V127z M80.1,92.8H60.3c-1.4,0-2.5,1.1-2.5,2.5v11.6
	c0,1.4,1.1,2.5,2.5,2.5h19.8c1.4,0,2.5-1.1,2.5-2.5V95.3C82.6,93.9,81.5,92.8,80.1,92.8z M77.6,104.4H62.8v-6.6h14.8V104.4z
	 M80.1,70.2H60.3c-1.4,0-2.5,1.1-2.5,2.5v11.6c0,1.4,1.1,2.5,2.5,2.5h19.8c1.4,0,2.5-1.1,2.5-2.5V72.7
	C82.6,71.3,81.5,70.2,80.1,70.2z M77.6,81.8H62.8v-6.6h14.8V81.8z M50.3,138.1H30.5c-1.4,0-2.5,1.1-2.5,2.5v11.6
	c0,1.4,1.1,2.5,2.5,2.5h19.8c1.4,0,2.5-1.1,2.5-2.5v-11.6C52.8,139.2,51.7,138.1,50.3,138.1z M47.8,149.6H33v-6.6h14.8V149.6z
	 M50.3,115.4H30.5c-1.4,0-2.5,1.1-2.5,2.5v11.6c0,1.4,1.1,2.5,2.5,2.5h19.8c1.4,0,2.5-1.1,2.5-2.5v-11.6
	C52.8,116.6,51.7,115.4,50.3,115.4z M47.8,127H33v-6.6h14.8V127z M50.3,92.8H30.5c-1.4,0-2.5,1.1-2.5,2.5v11.6
	c0,1.4,1.1,2.5,2.5,2.5h19.8c1.4,0,2.5-1.1,2.5-2.5V95.3C52.8,93.9,51.7,92.8,50.3,92.8z M47.8,104.4H33v-6.6h14.8V104.4z
	 M50.3,70.2H30.5c-1.4,0-2.5,1.1-2.5,2.5v11.6c0,1.4,1.1,2.5,2.5,2.5h19.8c1.4,0,2.5-1.1,2.5-2.5V72.7
	C52.8,71.3,51.7,70.2,50.3,70.2z M47.8,81.8H33v-6.6h14.8V81.8z M50.3,70.2H30.5c-1.4,0-2.5,1.1-2.5,2.5v11.6c0,1.4,1.1,2.5,2.5,2.5
	h19.8c1.4,0,2.5-1.1,2.5-2.5V72.7C52.8,71.3,51.7,70.2,50.3,70.2z M47.8,81.8H33v-6.6h14.8V81.8z M50.3,92.8H30.5
	c-1.4,0-2.5,1.1-2.5,2.5v11.6c0,1.4,1.1,2.5,2.5,2.5h19.8c1.4,0,2.5-1.1,2.5-2.5V95.3C52.8,93.9,51.7,92.8,50.3,92.8z M47.8,104.4
	H33v-6.6h14.8V104.4z M50.3,115.4H30.5c-1.4,0-2.5,1.1-2.5,2.5v11.6c0,1.4,1.1,2.5,2.5,2.5h19.8c1.4,0,2.5-1.1,2.5-2.5v-11.6
	C52.8,116.6,51.7,115.4,50.3,115.4z M47.8,127H33v-6.6h14.8V127z M50.3,138.1H30.5c-1.4,0-2.5,1.1-2.5,2.5v11.6
	c0,1.4,1.1,2.5,2.5,2.5h19.8c1.4,0,2.5-1.1,2.5-2.5v-11.6C52.8,139.2,51.7,138.1,50.3,138.1z M47.8,149.6H33v-6.6h14.8V149.6z
	 M80.1,70.2H60.3c-1.4,0-2.5,1.1-2.5,2.5v11.6c0,1.4,1.1,2.5,2.5,2.5h19.8c1.4,0,2.5-1.1,2.5-2.5V72.7
	C82.6,71.3,81.5,70.2,80.1,70.2z M77.6,81.8H62.8v-6.6h14.8V81.8z M80.1,92.8H60.3c-1.4,0-2.5,1.1-2.5,2.5v11.6
	c0,1.4,1.1,2.5,2.5,2.5h19.8c1.4,0,2.5-1.1,2.5-2.5V95.3C82.6,93.9,81.5,92.8,80.1,92.8z M77.6,104.4H62.8v-6.6h14.8V104.4z
	 M80.1,115.4H60.3c-1.4,0-2.5,1.1-2.5,2.5v11.6c0,1.4,1.1,2.5,2.5,2.5h19.8c1.4,0,2.5-1.1,2.5-2.5v-11.6
	C82.6,116.6,81.5,115.4,80.1,115.4z M77.6,127H62.8v-6.6h14.8V127z M80.1,138.1H60.3c-1.4,0-2.5,1.1-2.5,2.5v11.6
	c0,1.4,1.1,2.5,2.5,2.5h19.8c1.4,0,2.5-1.1,2.5-2.5v-11.6C82.6,139.2,81.5,138.1,80.1,138.1z M77.6,149.6H62.8v-6.6h14.8V149.6z
	 M80.1,138.1H60.3c-1.4,0-2.5,1.1-2.5,2.5v11.6c0,1.4,1.1,2.5,2.5,2.5h19.8c1.4,0,2.5-1.1,2.5-2.5v-11.6
	C82.6,139.2,81.5,138.1,80.1,138.1z M77.6,149.6H62.8v-6.6h14.8V149.6z M80.1,115.4H60.3c-1.4,0-2.5,1.1-2.5,2.5v11.6
	c0,1.4,1.1,2.5,2.5,2.5h19.8c1.4,0,2.5-1.1,2.5-2.5v-11.6C82.6,116.6,81.5,115.4,80.1,115.4z M77.6,127H62.8v-6.6h14.8V127z
	 M80.1,92.8H60.3c-1.4,0-2.5,1.1-2.5,2.5v11.6c0,1.4,1.1,2.5,2.5,2.5h19.8c1.4,0,2.5-1.1,2.5-2.5V95.3
	C82.6,93.9,81.5,92.8,80.1,92.8z M77.6,104.4H62.8v-6.6h14.8V104.4z M80.1,70.2H60.3c-1.4,0-2.5,1.1-2.5,2.5v11.6
	c0,1.4,1.1,2.5,2.5,2.5h19.8c1.4,0,2.5-1.1,2.5-2.5V72.7C82.6,71.3,81.5,70.2,80.1,70.2z M77.6,81.8H62.8v-6.6h14.8V81.8z
	 M50.3,138.1H30.5c-1.4,0-2.5,1.1-2.5,2.5v11.6c0,1.4,1.1,2.5,2.5,2.5h19.8c1.4,0,2.5-1.1,2.5-2.5v-11.6
	C52.8,139.2,51.7,138.1,50.3,138.1z M47.8,149.6H33v-6.6h14.8V149.6z M50.3,115.4H30.5c-1.4,0-2.5,1.1-2.5,2.5v11.6
	c0,1.4,1.1,2.5,2.5,2.5h19.8c1.4,0,2.5-1.1,2.5-2.5v-11.6C52.8,116.6,51.7,115.4,50.3,115.4z M47.8,127H33v-6.6h14.8V127z
	 M50.3,92.8H30.5c-1.4,0-2.5,1.1-2.5,2.5v11.6c0,1.4,1.1,2.5,2.5,2.5h19.8c1.4,0,2.5-1.1,2.5-2.5V95.3
	C52.8,93.9,51.7,92.8,50.3,92.8z M47.8,104.4H33v-6.6h14.8V104.4z M50.3,70.2H30.5c-1.4,0-2.5,1.1-2.5,2.5v11.6
	c0,1.4,1.1,2.5,2.5,2.5h19.8c1.4,0,2.5-1.1,2.5-2.5V72.7C52.8,71.3,51.7,70.2,50.3,70.2z M47.8,81.8H33v-6.6h14.8V81.8z M50.3,70.2
	H30.5c-1.4,0-2.5,1.1-2.5,2.5v11.6c0,1.4,1.1,2.5,2.5,2.5h19.8c1.4,0,2.5-1.1,2.5-2.5V72.7C52.8,71.3,51.7,70.2,50.3,70.2z
	 M47.8,81.8H33v-6.6h14.8V81.8z M50.3,92.8H30.5c-1.4,0-2.5,1.1-2.5,2.5v11.6c0,1.4,1.1,2.5,2.5,2.5h19.8c1.4,0,2.5-1.1,2.5-2.5
	V95.3C52.8,93.9,51.7,92.8,50.3,92.8z M47.8,104.4H33v-6.6h14.8V104.4z M50.3,115.4H30.5c-1.4,0-2.5,1.1-2.5,2.5v11.6
	c0,1.4,1.1,2.5,2.5,2.5h19.8c1.4,0,2.5-1.1,2.5-2.5v-11.6C52.8,116.6,51.7,115.4,50.3,115.4z M47.8,127H33v-6.6h14.8V127z
	 M50.3,138.1H30.5c-1.4,0-2.5,1.1-2.5,2.5v11.6c0,1.4,1.1,2.5,2.5,2.5h19.8c1.4,0,2.5-1.1,2.5-2.5v-11.6
	C52.8,139.2,51.7,138.1,50.3,138.1z M47.8,149.6H33v-6.6h14.8V149.6z M80.1,70.2H60.3c-1.4,0-2.5,1.1-2.5,2.5v11.6
	c0,1.4,1.1,2.5,2.5,2.5h19.8c1.4,0,2.5-1.1,2.5-2.5V72.7C82.6,71.3,81.5,70.2,80.1,70.2z M77.6,81.8H62.8v-6.6h14.8V81.8z
	 M80.1,92.8H60.3c-1.4,0-2.5,1.1-2.5,2.5v11.6c0,1.4,1.1,2.5,2.5,2.5h19.8c1.4,0,2.5-1.1,2.5-2.5V95.3
	C82.6,93.9,81.5,92.8,80.1,92.8z M77.6,104.4H62.8v-6.6h14.8V104.4z M80.1,115.4H60.3c-1.4,0-2.5,1.1-2.5,2.5v11.6
	c0,1.4,1.1,2.5,2.5,2.5h19.8c1.4,0,2.5-1.1,2.5-2.5v-11.6C82.6,116.6,81.5,115.4,80.1,115.4z M77.6,127H62.8v-6.6h14.8V127z
	 M80.1,138.1H60.3c-1.4,0-2.5,1.1-2.5,2.5v11.6c0,1.4,1.1,2.5,2.5,2.5h19.8c1.4,0,2.5-1.1,2.5-2.5v-11.6
	C82.6,139.2,81.5,138.1,80.1,138.1z M77.6,149.6H62.8v-6.6h14.8V149.6z M80.1,138.1H60.3c-1.4,0-2.5,1.1-2.5,2.5v11.6
	c0,1.4,1.1,2.5,2.5,2.5h19.8c1.4,0,2.5-1.1,2.5-2.5v-11.6C82.6,139.2,81.5,138.1,80.1,138.1z M77.6,149.6H62.8v-6.6h14.8V149.6z
	 M80.1,115.4H60.3c-1.4,0-2.5,1.1-2.5,2.5v11.6c0,1.4,1.1,2.5,2.5,2.5h19.8c1.4,0,2.5-1.1,2.5-2.5v-11.6
	C82.6,116.6,81.5,115.4,80.1,115.4z M77.6,127H62.8v-6.6h14.8V127z M80.1,92.8H60.3c-1.4,0-2.5,1.1-2.5,2.5v11.6
	c0,1.4,1.1,2.5,2.5,2.5h19.8c1.4,0,2.5-1.1,2.5-2.5V95.3C82.6,93.9,81.5,92.8,80.1,92.8z M77.6,104.4H62.8v-6.6h14.8V104.4z
	 M80.1,70.2H60.3c-1.4,0-2.5,1.1-2.5,2.5v11.6c0,1.4,1.1,2.5,2.5,2.5h19.8c1.4,0,2.5-1.1,2.5-2.5V72.7
	C82.6,71.3,81.5,70.2,80.1,70.2z M77.6,81.8H62.8v-6.6h14.8V81.8z M50.3,138.1H30.5c-1.4,0-2.5,1.1-2.5,2.5v11.6
	c0,1.4,1.1,2.5,2.5,2.5h19.8c1.4,0,2.5-1.1,2.5-2.5v-11.6C52.8,139.2,51.7,138.1,50.3,138.1z M47.8,149.6H33v-6.6h14.8V149.6z
	 M50.3,115.4H30.5c-1.4,0-2.5,1.1-2.5,2.5v11.6c0,1.4,1.1,2.5,2.5,2.5h19.8c1.4,0,2.5-1.1,2.5-2.5v-11.6
	C52.8,116.6,51.7,115.4,50.3,115.4z M47.8,127H33v-6.6h14.8V127z M50.3,92.8H30.5c-1.4,0-2.5,1.1-2.5,2.5v11.6
	c0,1.4,1.1,2.5,2.5,2.5h19.8c1.4,0,2.5-1.1,2.5-2.5V95.3C52.8,93.9,51.7,92.8,50.3,92.8z M47.8,104.4H33v-6.6h14.8V104.4z
	 M50.3,70.2H30.5c-1.4,0-2.5,1.1-2.5,2.5v11.6c0,1.4,1.1,2.5,2.5,2.5h19.8c1.4,0,2.5-1.1,2.5-2.5V72.7
	C52.8,71.3,51.7,70.2,50.3,70.2z M47.8,81.8H33v-6.6h14.8V81.8z M50.3,70.2H30.5c-1.4,0-2.5,1.1-2.5,2.5v11.6c0,1.4,1.1,2.5,2.5,2.5
	h19.8c1.4,0,2.5-1.1,2.5-2.5V72.7C52.8,71.3,51.7,70.2,50.3,70.2z M47.8,81.8H33v-6.6h14.8V81.8z M50.3,92.8H30.5
	c-1.4,0-2.5,1.1-2.5,2.5v11.6c0,1.4,1.1,2.5,2.5,2.5h19.8c1.4,0,2.5-1.1,2.5-2.5V95.3C52.8,93.9,51.7,92.8,50.3,92.8z M47.8,104.4
	H33v-6.6h14.8V104.4z M50.3,115.4H30.5c-1.4,0-2.5,1.1-2.5,2.5v11.6c0,1.4,1.1,2.5,2.5,2.5h19.8c1.4,0,2.5-1.1,2.5-2.5v-11.6
	C52.8,116.6,51.7,115.4,50.3,115.4z M47.8,127H33v-6.6h14.8V127z M50.3,138.1H30.5c-1.4,0-2.5,1.1-2.5,2.5v11.6
	c0,1.4,1.1,2.5,2.5,2.5h19.8c1.4,0,2.5-1.1,2.5-2.5v-11.6C52.8,139.2,51.7,138.1,50.3,138.1z M47.8,149.6H33v-6.6h14.8V149.6z
	 M80.1,70.2H60.3c-1.4,0-2.5,1.1-2.5,2.5v11.6c0,1.4,1.1,2.5,2.5,2.5h19.8c1.4,0,2.5-1.1,2.5-2.5V72.7
	C82.6,71.3,81.5,70.2,80.1,70.2z M77.6,81.8H62.8v-6.6h14.8V81.8z M80.1,92.8H60.3c-1.4,0-2.5,1.1-2.5,2.5v11.6
	c0,1.4,1.1,2.5,2.5,2.5h19.8c1.4,0,2.5-1.1,2.5-2.5V95.3C82.6,93.9,81.5,92.8,80.1,92.8z M77.6,104.4H62.8v-6.6h14.8V104.4z
	 M80.1,115.4H60.3c-1.4,0-2.5,1.1-2.5,2.5v11.6c0,1.4,1.1,2.5,2.5,2.5h19.8c1.4,0,2.5-1.1,2.5-2.5v-11.6
	C82.6,116.6,81.5,115.4,80.1,115.4z M77.6,127H62.8v-6.6h14.8V127z M80.1,138.1H60.3c-1.4,0-2.5,1.1-2.5,2.5v11.6
	c0,1.4,1.1,2.5,2.5,2.5h19.8c1.4,0,2.5-1.1,2.5-2.5v-11.6C82.6,139.2,81.5,138.1,80.1,138.1z M77.6,149.6H62.8v-6.6h14.8V149.6z
	 M80.1,138.1H60.3c-1.4,0-2.5,1.1-2.5,2.5v11.6c0,1.4,1.1,2.5,2.5,2.5h19.8c1.4,0,2.5-1.1,2.5-2.5v-11.6
	C82.6,139.2,81.5,138.1,80.1,138.1z M77.6,149.6H62.8v-6.6h14.8V149.6z M80.1,115.4H60.3c-1.4,0-2.5,1.1-2.5,2.5v11.6
	c0,1.4,1.1,2.5,2.5,2.5h19.8c1.4,0,2.5-1.1,2.5-2.5v-11.6C82.6,116.6,81.5,115.4,80.1,115.4z M77.6,127H62.8v-6.6h14.8V127z
	 M80.1,92.8H60.3c-1.4,0-2.5,1.1-2.5,2.5v11.6c0,1.4,1.1,2.5,2.5,2.5h19.8c1.4,0,2.5-1.1,2.5-2.5V95.3
	C82.6,93.9,81.5,92.8,80.1,92.8z M77.6,104.4H62.8v-6.6h14.8V104.4z M80.1,70.2H60.3c-1.4,0-2.5,1.1-2.5,2.5v11.6
	c0,1.4,1.1,2.5,2.5,2.5h19.8c1.4,0,2.5-1.1,2.5-2.5V72.7C82.6,71.3,81.5,70.2,80.1,70.2z M77.6,81.8H62.8v-6.6h14.8V81.8z
	 M50.3,138.1H30.5c-1.4,0-2.5,1.1-2.5,2.5v11.6c0,1.4,1.1,2.5,2.5,2.5h19.8c1.4,0,2.5-1.1,2.5-2.5v-11.6
	C52.8,139.2,51.7,138.1,50.3,138.1z M47.8,149.6H33v-6.6h14.8V149.6z M50.3,115.4H30.5c-1.4,0-2.5,1.1-2.5,2.5v11.6
	c0,1.4,1.1,2.5,2.5,2.5h19.8c1.4,0,2.5-1.1,2.5-2.5v-11.6C52.8,116.6,51.7,115.4,50.3,115.4z M47.8,127H33v-6.6h14.8V127z
	 M50.3,92.8H30.5c-1.4,0-2.5,1.1-2.5,2.5v11.6c0,1.4,1.1,2.5,2.5,2.5h19.8c1.4,0,2.5-1.1,2.5-2.5V95.3
	C52.8,93.9,51.7,92.8,50.3,92.8z M47.8,104.4H33v-6.6h14.8V104.4z M50.3,70.2H30.5c-1.4,0-2.5,1.1-2.5,2.5v11.6
	c0,1.4,1.1,2.5,2.5,2.5h19.8c1.4,0,2.5-1.1,2.5-2.5V72.7C52.8,71.3,51.7,70.2,50.3,70.2z M47.8,81.8H33v-6.6h14.8V81.8z M50.3,70.2
	H30.5c-1.4,0-2.5,1.1-2.5,2.5v11.6c0,1.4,1.1,2.5,2.5,2.5h19.8c1.4,0,2.5-1.1,2.5-2.5V72.7C52.8,71.3,51.7,70.2,50.3,70.2z
	 M47.8,81.8H33v-6.6h14.8V81.8z M50.3,92.8H30.5c-1.4,0-2.5,1.1-2.5,2.5v11.6c0,1.4,1.1,2.5,2.5,2.5h19.8c1.4,0,2.5-1.1,2.5-2.5
	V95.3C52.8,93.9,51.7,92.8,50.3,92.8z M47.8,104.4H33v-6.6h14.8V104.4z M50.3,115.4H30.5c-1.4,0-2.5,1.1-2.5,2.5v11.6
	c0,1.4,1.1,2.5,2.5,2.5h19.8c1.4,0,2.5-1.1,2.5-2.5v-11.6C52.8,116.6,51.7,115.4,50.3,115.4z M47.8,127H33v-6.6h14.8V127z
	 M50.3,138.1H30.5c-1.4,0-2.5,1.1-2.5,2.5v11.6c0,1.4,1.1,2.5,2.5,2.5h19.8c1.4,0,2.5-1.1,2.5-2.5v-11.6
	C52.8,139.2,51.7,138.1,50.3,138.1z M47.8,149.6H33v-6.6h14.8V149.6z M80.1,70.2H60.3c-1.4,0-2.5,1.1-2.5,2.5v11.6
	c0,1.4,1.1,2.5,2.5,2.5h19.8c1.4,0,2.5-1.1,2.5-2.5V72.7C82.6,71.3,81.5,70.2,80.1,70.2z M77.6,81.8H62.8v-6.6h14.8V81.8z
	 M80.1,92.8H60.3c-1.4,0-2.5,1.1-2.5,2.5v11.6c0,1.4,1.1,2.5,2.5,2.5h19.8c1.4,0,2.5-1.1,2.5-2.5V95.3
	C82.6,93.9,81.5,92.8,80.1,92.8z M77.6,104.4H62.8v-6.6h14.8V104.4z M80.1,115.4H60.3c-1.4,0-2.5,1.1-2.5,2.5v11.6
	c0,1.4,1.1,2.5,2.5,2.5h19.8c1.4,0,2.5-1.1,2.5-2.5v-11.6C82.6,116.6,81.5,115.4,80.1,115.4z M77.6,127H62.8v-6.6h14.8V127z
	 M80.1,138.1H60.3c-1.4,0-2.5,1.1-2.5,2.5v11.6c0,1.4,1.1,2.5,2.5,2.5h19.8c1.4,0,2.5-1.1,2.5-2.5v-11.6
	C82.6,139.2,81.5,138.1,80.1,138.1z M77.6,149.6H62.8v-6.6h14.8V149.6z M80.1,138.1H60.3c-1.4,0-2.5,1.1-2.5,2.5v11.6
	c0,1.4,1.1,2.5,2.5,2.5h19.8c1.4,0,2.5-1.1,2.5-2.5v-11.6C82.6,139.2,81.5,138.1,80.1,138.1z M77.6,149.6H62.8v-6.6h14.8V149.6z
	 M80.1,115.4H60.3c-1.4,0-2.5,1.1-2.5,2.5v11.6c0,1.4,1.1,2.5,2.5,2.5h19.8c1.4,0,2.5-1.1,2.5-2.5v-11.6
	C82.6,116.6,81.5,115.4,80.1,115.4z M77.6,127H62.8v-6.6h14.8V127z M80.1,92.8H60.3c-1.4,0-2.5,1.1-2.5,2.5v11.6
	c0,1.4,1.1,2.5,2.5,2.5h19.8c1.4,0,2.5-1.1,2.5-2.5V95.3C82.6,93.9,81.5,92.8,80.1,92.8z M77.6,104.4H62.8v-6.6h14.8V104.4z
	 M80.1,70.2H60.3c-1.4,0-2.5,1.1-2.5,2.5v11.6c0,1.4,1.1,2.5,2.5,2.5h19.8c1.4,0,2.5-1.1,2.5-2.5V72.7
	C82.6,71.3,81.5,70.2,80.1,70.2z M77.6,81.8H62.8v-6.6h14.8V81.8z M50.3,138.1H30.5c-1.4,0-2.5,1.1-2.5,2.5v11.6
	c0,1.4,1.1,2.5,2.5,2.5h19.8c1.4,0,2.5-1.1,2.5-2.5v-11.6C52.8,139.2,51.7,138.1,50.3,138.1z M47.8,149.6H33v-6.6h14.8V149.6z
	 M50.3,115.4H30.5c-1.4,0-2.5,1.1-2.5,2.5v11.6c0,1.4,1.1,2.5,2.5,2.5h19.8c1.4,0,2.5-1.1,2.5-2.5v-11.6
	C52.8,116.6,51.7,115.4,50.3,115.4z M47.8,127H33v-6.6h14.8V127z M50.3,92.8H30.5c-1.4,0-2.5,1.1-2.5,2.5v11.6
	c0,1.4,1.1,2.5,2.5,2.5h19.8c1.4,0,2.5-1.1,2.5-2.5V95.3C52.8,93.9,51.7,92.8,50.3,92.8z M47.8,104.4H33v-6.6h14.8V104.4z
	 M50.3,70.2H30.5c-1.4,0-2.5,1.1-2.5,2.5v11.6c0,1.4,1.1,2.5,2.5,2.5h19.8c1.4,0,2.5-1.1,2.5-2.5V72.7
	C52.8,71.3,51.7,70.2,50.3,70.2z M47.8,81.8H33v-6.6h14.8V81.8z M50.3,70.2H30.5c-1.4,0-2.5,1.1-2.5,2.5v11.6c0,1.4,1.1,2.5,2.5,2.5
	h19.8c1.4,0,2.5-1.1,2.5-2.5V72.7C52.8,71.3,51.7,70.2,50.3,70.2z M47.8,81.8H33v-6.6h14.8V81.8z M50.3,92.8H30.5
	c-1.4,0-2.5,1.1-2.5,2.5v11.6c0,1.4,1.1,2.5,2.5,2.5h19.8c1.4,0,2.5-1.1,2.5-2.5V95.3C52.8,93.9,51.7,92.8,50.3,92.8z M47.8,104.4
	H33v-6.6h14.8V104.4z M50.3,115.4H30.5c-1.4,0-2.5,1.1-2.5,2.5v11.6c0,1.4,1.1,2.5,2.5,2.5h19.8c1.4,0,2.5-1.1,2.5-2.5v-11.6
	C52.8,116.6,51.7,115.4,50.3,115.4z M47.8,127H33v-6.6h14.8V127z M50.3,138.1H30.5c-1.4,0-2.5,1.1-2.5,2.5v11.6
	c0,1.4,1.1,2.5,2.5,2.5h19.8c1.4,0,2.5-1.1,2.5-2.5v-11.6C52.8,139.2,51.7,138.1,50.3,138.1z M47.8,149.6H33v-6.6h14.8V149.6z
	 M80.1,70.2H60.3c-1.4,0-2.5,1.1-2.5,2.5v11.6c0,1.4,1.1,2.5,2.5,2.5h19.8c1.4,0,2.5-1.1,2.5-2.5V72.7
	C82.6,71.3,81.5,70.2,80.1,70.2z M77.6,81.8H62.8v-6.6h14.8V81.8z M80.1,92.8H60.3c-1.4,0-2.5,1.1-2.5,2.5v11.6
	c0,1.4,1.1,2.5,2.5,2.5h19.8c1.4,0,2.5-1.1,2.5-2.5V95.3C82.6,93.9,81.5,92.8,80.1,92.8z M77.6,104.4H62.8v-6.6h14.8V104.4z
	 M80.1,115.4H60.3c-1.4,0-2.5,1.1-2.5,2.5v11.6c0,1.4,1.1,2.5,2.5,2.5h19.8c1.4,0,2.5-1.1,2.5-2.5v-11.6
	C82.6,116.6,81.5,115.4,80.1,115.4z M77.6,127H62.8v-6.6h14.8V127z M80.1,138.1H60.3c-1.4,0-2.5,1.1-2.5,2.5v11.6
	c0,1.4,1.1,2.5,2.5,2.5h19.8c1.4,0,2.5-1.1,2.5-2.5v-11.6C82.6,139.2,81.5,138.1,80.1,138.1z M77.6,149.6H62.8v-6.6h14.8V149.6z
	 M80.1,138.1H60.3c-1.4,0-2.5,1.1-2.5,2.5v11.6c0,1.4,1.1,2.5,2.5,2.5h19.8c1.4,0,2.5-1.1,2.5-2.5v-11.6
	C82.6,139.2,81.5,138.1,80.1,138.1z M77.6,149.6H62.8v-6.6h14.8V149.6z M80.1,115.4H60.3c-1.4,0-2.5,1.1-2.5,2.5v11.6
	c0,1.4,1.1,2.5,2.5,2.5h19.8c1.4,0,2.5-1.1,2.5-2.5v-11.6C82.6,116.6,81.5,115.4,80.1,115.4z M77.6,127H62.8v-6.6h14.8V127z
	 M80.1,92.8H60.3c-1.4,0-2.5,1.1-2.5,2.5v11.6c0,1.4,1.1,2.5,2.5,2.5h19.8c1.4,0,2.5-1.1,2.5-2.5V95.3
	C82.6,93.9,81.5,92.8,80.1,92.8z M77.6,104.4H62.8v-6.6h14.8V104.4z M80.1,70.2H60.3c-1.4,0-2.5,1.1-2.5,2.5v11.6
	c0,1.4,1.1,2.5,2.5,2.5h19.8c1.4,0,2.5-1.1,2.5-2.5V72.7C82.6,71.3,81.5,70.2,80.1,70.2z M77.6,81.8H62.8v-6.6h14.8V81.8z
	 M50.3,138.1H30.5c-1.4,0-2.5,1.1-2.5,2.5v11.6c0,1.4,1.1,2.5,2.5,2.5h19.8c1.4,0,2.5-1.1,2.5-2.5v-11.6
	C52.8,139.2,51.7,138.1,50.3,138.1z M47.8,149.6H33v-6.6h14.8V149.6z M50.3,115.4H30.5c-1.4,0-2.5,1.1-2.5,2.5v11.6
	c0,1.4,1.1,2.5,2.5,2.5h19.8c1.4,0,2.5-1.1,2.5-2.5v-11.6C52.8,116.6,51.7,115.4,50.3,115.4z M47.8,127H33v-6.6h14.8V127z
	 M50.3,92.8H30.5c-1.4,0-2.5,1.1-2.5,2.5v11.6c0,1.4,1.1,2.5,2.5,2.5h19.8c1.4,0,2.5-1.1,2.5-2.5V95.3
	C52.8,93.9,51.7,92.8,50.3,92.8z M47.8,104.4H33v-6.6h14.8V104.4z M50.3,70.2H30.5c-1.4,0-2.5,1.1-2.5,2.5v11.6
	c0,1.4,1.1,2.5,2.5,2.5h19.8c1.4,0,2.5-1.1,2.5-2.5V72.7C52.8,71.3,51.7,70.2,50.3,70.2z M47.8,81.8H33v-6.6h14.8V81.8z M50.3,70.2
	H30.5c-1.4,0-2.5,1.1-2.5,2.5v11.6c0,1.4,1.1,2.5,2.5,2.5h19.8c1.4,0,2.5-1.1,2.5-2.5V72.7C52.8,71.3,51.7,70.2,50.3,70.2z
	 M47.8,81.8H33v-6.6h14.8V81.8z M50.3,92.8H30.5c-1.4,0-2.5,1.1-2.5,2.5v11.6c0,1.4,1.1,2.5,2.5,2.5h19.8c1.4,0,2.5-1.1,2.5-2.5
	V95.3C52.8,93.9,51.7,92.8,50.3,92.8z M47.8,104.4H33v-6.6h14.8V104.4z M50.3,115.4H30.5c-1.4,0-2.5,1.1-2.5,2.5v11.6
	c0,1.4,1.1,2.5,2.5,2.5h19.8c1.4,0,2.5-1.1,2.5-2.5v-11.6C52.8,116.6,51.7,115.4,50.3,115.4z M47.8,127H33v-6.6h14.8V127z
	 M50.3,138.1H30.5c-1.4,0-2.5,1.1-2.5,2.5v11.6c0,1.4,1.1,2.5,2.5,2.5h19.8c1.4,0,2.5-1.1,2.5-2.5v-11.6
	C52.8,139.2,51.7,138.1,50.3,138.1z M47.8,149.6H33v-6.6h14.8V149.6z M80.1,70.2H60.3c-1.4,0-2.5,1.1-2.5,2.5v11.6
	c0,1.4,1.1,2.5,2.5,2.5h19.8c1.4,0,2.5-1.1,2.5-2.5V72.7C82.6,71.3,81.5,70.2,80.1,70.2z M77.6,81.8H62.8v-6.6h14.8V81.8z
	 M80.1,92.8H60.3c-1.4,0-2.5,1.1-2.5,2.5v11.6c0,1.4,1.1,2.5,2.5,2.5h19.8c1.4,0,2.5-1.1,2.5-2.5V95.3
	C82.6,93.9,81.5,92.8,80.1,92.8z M77.6,104.4H62.8v-6.6h14.8V104.4z M80.1,115.4H60.3c-1.4,0-2.5,1.1-2.5,2.5v11.6
	c0,1.4,1.1,2.5,2.5,2.5h19.8c1.4,0,2.5-1.1,2.5-2.5v-11.6C82.6,116.6,81.5,115.4,80.1,115.4z M77.6,127H62.8v-6.6h14.8V127z
	 M80.1,138.1H60.3c-1.4,0-2.5,1.1-2.5,2.5v11.6c0,1.4,1.1,2.5,2.5,2.5h19.8c1.4,0,2.5-1.1,2.5-2.5v-11.6
	C82.6,139.2,81.5,138.1,80.1,138.1z M77.6,149.6H62.8v-6.6h14.8V149.6z M80.1,138.1H60.3c-1.4,0-2.5,1.1-2.5,2.5v11.6
	c0,1.4,1.1,2.5,2.5,2.5h19.8c1.4,0,2.5-1.1,2.5-2.5v-11.6C82.6,139.2,81.5,138.1,80.1,138.1z M77.6,149.6H62.8v-6.6h14.8V149.6z
	 M80.1,115.4H60.3c-1.4,0-2.5,1.1-2.5,2.5v11.6c0,1.4,1.1,2.5,2.5,2.5h19.8c1.4,0,2.5-1.1,2.5-2.5v-11.6
	C82.6,116.6,81.5,115.4,80.1,115.4z M77.6,127H62.8v-6.6h14.8V127z M80.1,92.8H60.3c-1.4,0-2.5,1.1-2.5,2.5v11.6
	c0,1.4,1.1,2.5,2.5,2.5h19.8c1.4,0,2.5-1.1,2.5-2.5V95.3C82.6,93.9,81.5,92.8,80.1,92.8z M77.6,104.4H62.8v-6.6h14.8V104.4z
	 M80.1,70.2H60.3c-1.4,0-2.5,1.1-2.5,2.5v11.6c0,1.4,1.1,2.5,2.5,2.5h19.8c1.4,0,2.5-1.1,2.5-2.5V72.7
	C82.6,71.3,81.5,70.2,80.1,70.2z M77.6,81.8H62.8v-6.6h14.8V81.8z M50.3,138.1H30.5c-1.4,0-2.5,1.1-2.5,2.5v11.6
	c0,1.4,1.1,2.5,2.5,2.5h19.8c1.4,0,2.5-1.1,2.5-2.5v-11.6C52.8,139.2,51.7,138.1,50.3,138.1z M47.8,149.6H33v-6.6h14.8V149.6z
	 M50.3,115.4H30.5c-1.4,0-2.5,1.1-2.5,2.5v11.6c0,1.4,1.1,2.5,2.5,2.5h19.8c1.4,0,2.5-1.1,2.5-2.5v-11.6
	C52.8,116.6,51.7,115.4,50.3,115.4z M47.8,127H33v-6.6h14.8V127z M50.3,92.8H30.5c-1.4,0-2.5,1.1-2.5,2.5v11.6
	c0,1.4,1.1,2.5,2.5,2.5h19.8c1.4,0,2.5-1.1,2.5-2.5V95.3C52.8,93.9,51.7,92.8,50.3,92.8z M47.8,104.4H33v-6.6h14.8V104.4z
	 M50.3,70.2H30.5c-1.4,0-2.5,1.1-2.5,2.5v11.6c0,1.4,1.1,2.5,2.5,2.5h19.8c1.4,0,2.5-1.1,2.5-2.5V72.7
	C52.8,71.3,51.7,70.2,50.3,70.2z M47.8,81.8H33v-6.6h14.8V81.8z M50.3,70.2H30.5c-1.4,0-2.5,1.1-2.5,2.5v11.6c0,1.4,1.1,2.5,2.5,2.5
	h19.8c1.4,0,2.5-1.1,2.5-2.5V72.7C52.8,71.3,51.7,70.2,50.3,70.2z M47.8,81.8H33v-6.6h14.8V81.8z M50.3,92.8H30.5
	c-1.4,0-2.5,1.1-2.5,2.5v11.6c0,1.4,1.1,2.5,2.5,2.5h19.8c1.4,0,2.5-1.1,2.5-2.5V95.3C52.8,93.9,51.7,92.8,50.3,92.8z M47.8,104.4
	H33v-6.6h14.8V104.4z M50.3,115.4H30.5c-1.4,0-2.5,1.1-2.5,2.5v11.6c0,1.4,1.1,2.5,2.5,2.5h19.8c1.4,0,2.5-1.1,2.5-2.5v-11.6
	C52.8,116.6,51.7,115.4,50.3,115.4z M47.8,127H33v-6.6h14.8V127z M50.3,138.1H30.5c-1.4,0-2.5,1.1-2.5,2.5v11.6
	c0,1.4,1.1,2.5,2.5,2.5h19.8c1.4,0,2.5-1.1,2.5-2.5v-11.6C52.8,139.2,51.7,138.1,50.3,138.1z M47.8,149.6H33v-6.6h14.8V149.6z
	 M80.1,70.2H60.3c-1.4,0-2.5,1.1-2.5,2.5v11.6c0,1.4,1.1,2.5,2.5,2.5h19.8c1.4,0,2.5-1.1,2.5-2.5V72.7
	C82.6,71.3,81.5,70.2,80.1,70.2z M77.6,81.8H62.8v-6.6h14.8V81.8z M80.1,92.8H60.3c-1.4,0-2.5,1.1-2.5,2.5v11.6
	c0,1.4,1.1,2.5,2.5,2.5h19.8c1.4,0,2.5-1.1,2.5-2.5V95.3C82.6,93.9,81.5,92.8,80.1,92.8z M77.6,104.4H62.8v-6.6h14.8V104.4z
	 M80.1,115.4H60.3c-1.4,0-2.5,1.1-2.5,2.5v11.6c0,1.4,1.1,2.5,2.5,2.5h19.8c1.4,0,2.5-1.1,2.5-2.5v-11.6
	C82.6,116.6,81.5,115.4,80.1,115.4z M77.6,127H62.8v-6.6h14.8V127z M80.1,138.1H60.3c-1.4,0-2.5,1.1-2.5,2.5v11.6
	c0,1.4,1.1,2.5,2.5,2.5h19.8c1.4,0,2.5-1.1,2.5-2.5v-11.6C82.6,139.2,81.5,138.1,80.1,138.1z M77.6,149.6H62.8v-6.6h14.8V149.6z
	 M80.1,138.1H60.3c-1.4,0-2.5,1.1-2.5,2.5v11.6c0,1.4,1.1,2.5,2.5,2.5h19.8c1.4,0,2.5-1.1,2.5-2.5v-11.6
	C82.6,139.2,81.5,138.1,80.1,138.1z M77.6,149.6H62.8v-6.6h14.8V149.6z M80.1,115.4H60.3c-1.4,0-2.5,1.1-2.5,2.5v11.6
	c0,1.4,1.1,2.5,2.5,2.5h19.8c1.4,0,2.5-1.1,2.5-2.5v-11.6C82.6,116.6,81.5,115.4,80.1,115.4z M77.6,127H62.8v-6.6h14.8V127z
	 M80.1,92.8H60.3c-1.4,0-2.5,1.1-2.5,2.5v11.6c0,1.4,1.1,2.5,2.5,2.5h19.8c1.4,0,2.5-1.1,2.5-2.5V95.3
	C82.6,93.9,81.5,92.8,80.1,92.8z M77.6,104.4H62.8v-6.6h14.8V104.4z M80.1,70.2H60.3c-1.4,0-2.5,1.1-2.5,2.5v11.6
	c0,1.4,1.1,2.5,2.5,2.5h19.8c1.4,0,2.5-1.1,2.5-2.5V72.7C82.6,71.3,81.5,70.2,80.1,70.2z M77.6,81.8H62.8v-6.6h14.8V81.8z
	 M50.3,138.1H30.5c-1.4,0-2.5,1.1-2.5,2.5v11.6c0,1.4,1.1,2.5,2.5,2.5h19.8c1.4,0,2.5-1.1,2.5-2.5v-11.6
	C52.8,139.2,51.7,138.1,50.3,138.1z M47.8,149.6H33v-6.6h14.8V149.6z M50.3,115.4H30.5c-1.4,0-2.5,1.1-2.5,2.5v11.6
	c0,1.4,1.1,2.5,2.5,2.5h19.8c1.4,0,2.5-1.1,2.5-2.5v-11.6C52.8,116.6,51.7,115.4,50.3,115.4z M47.8,127H33v-6.6h14.8V127z
	 M50.3,92.8H30.5c-1.4,0-2.5,1.1-2.5,2.5v11.6c0,1.4,1.1,2.5,2.5,2.5h19.8c1.4,0,2.5-1.1,2.5-2.5V95.3
	C52.8,93.9,51.7,92.8,50.3,92.8z M47.8,104.4H33v-6.6h14.8V104.4z M50.3,70.2H30.5c-1.4,0-2.5,1.1-2.5,2.5v11.6
	c0,1.4,1.1,2.5,2.5,2.5h19.8c1.4,0,2.5-1.1,2.5-2.5V72.7C52.8,71.3,51.7,70.2,50.3,70.2z M47.8,81.8H33v-6.6h14.8V81.8z M50.3,70.2
	H30.5c-1.4,0-2.5,1.1-2.5,2.5v11.6c0,1.4,1.1,2.5,2.5,2.5h19.8c1.4,0,2.5-1.1,2.5-2.5V72.7C52.8,71.3,51.7,70.2,50.3,70.2z
	 M47.8,81.8H33v-6.6h14.8V81.8z M50.3,92.8H30.5c-1.4,0-2.5,1.1-2.5,2.5v11.6c0,1.4,1.1,2.5,2.5,2.5h19.8c1.4,0,2.5-1.1,2.5-2.5
	V95.3C52.8,93.9,51.7,92.8,50.3,92.8z M47.8,104.4H33v-6.6h14.8V104.4z M50.3,115.4H30.5c-1.4,0-2.5,1.1-2.5,2.5v11.6
	c0,1.4,1.1,2.5,2.5,2.5h19.8c1.4,0,2.5-1.1,2.5-2.5v-11.6C52.8,116.6,51.7,115.4,50.3,115.4z M47.8,127H33v-6.6h14.8V127z
	 M50.3,138.1H30.5c-1.4,0-2.5,1.1-2.5,2.5v11.6c0,1.4,1.1,2.5,2.5,2.5h19.8c1.4,0,2.5-1.1,2.5-2.5v-11.6
	C52.8,139.2,51.7,138.1,50.3,138.1z M47.8,149.6H33v-6.6h14.8V149.6z M80.1,70.2H60.3c-1.4,0-2.5,1.1-2.5,2.5v11.6
	c0,1.4,1.1,2.5,2.5,2.5h19.8c1.4,0,2.5-1.1,2.5-2.5V72.7C82.6,71.3,81.5,70.2,80.1,70.2z M77.6,81.8H62.8v-6.6h14.8V81.8z
	 M80.1,92.8H60.3c-1.4,0-2.5,1.1-2.5,2.5v11.6c0,1.4,1.1,2.5,2.5,2.5h19.8c1.4,0,2.5-1.1,2.5-2.5V95.3
	C82.6,93.9,81.5,92.8,80.1,92.8z M77.6,104.4H62.8v-6.6h14.8V104.4z M80.1,115.4H60.3c-1.4,0-2.5,1.1-2.5,2.5v11.6
	c0,1.4,1.1,2.5,2.5,2.5h19.8c1.4,0,2.5-1.1,2.5-2.5v-11.6C82.6,116.6,81.5,115.4,80.1,115.4z M77.6,127H62.8v-6.6h14.8V127z
	 M80.1,138.1H60.3c-1.4,0-2.5,1.1-2.5,2.5v11.6c0,1.4,1.1,2.5,2.5,2.5h19.8c1.4,0,2.5-1.1,2.5-2.5v-11.6
	C82.6,139.2,81.5,138.1,80.1,138.1z M77.6,149.6H62.8v-6.6h14.8V149.6z M80.1,138.1H60.3c-1.4,0-2.5,1.1-2.5,2.5v11.6
	c0,1.4,1.1,2.5,2.5,2.5h19.8c1.4,0,2.5-1.1,2.5-2.5v-11.6C82.6,139.2,81.5,138.1,80.1,138.1z M77.6,149.6H62.8v-6.6h14.8V149.6z
	 M80.1,115.4H60.3c-1.4,0-2.5,1.1-2.5,2.5v11.6c0,1.4,1.1,2.5,2.5,2.5h19.8c1.4,0,2.5-1.1,2.5-2.5v-11.6
	C82.6,116.6,81.5,115.4,80.1,115.4z M77.6,127H62.8v-6.6h14.8V127z M80.1,92.8H60.3c-1.4,0-2.5,1.1-2.5,2.5v11.6
	c0,1.4,1.1,2.5,2.5,2.5h19.8c1.4,0,2.5-1.1,2.5-2.5V95.3C82.6,93.9,81.5,92.8,80.1,92.8z M77.6,104.4H62.8v-6.6h14.8V104.4z
	 M80.1,70.2H60.3c-1.4,0-2.5,1.1-2.5,2.5v11.6c0,1.4,1.1,2.5,2.5,2.5h19.8c1.4,0,2.5-1.1,2.5-2.5V72.7
	C82.6,71.3,81.5,70.2,80.1,70.2z M77.6,81.8H62.8v-6.6h14.8V81.8z M50.3,138.1H30.5c-1.4,0-2.5,1.1-2.5,2.5v11.6
	c0,1.4,1.1,2.5,2.5,2.5h19.8c1.4,0,2.5-1.1,2.5-2.5v-11.6C52.8,139.2,51.7,138.1,50.3,138.1z M47.8,149.6H33v-6.6h14.8V149.6z
	 M50.3,115.4H30.5c-1.4,0-2.5,1.1-2.5,2.5v11.6c0,1.4,1.1,2.5,2.5,2.5h19.8c1.4,0,2.5-1.1,2.5-2.5v-11.6
	C52.8,116.6,51.7,115.4,50.3,115.4z M47.8,127H33v-6.6h14.8V127z M50.3,92.8H30.5c-1.4,0-2.5,1.1-2.5,2.5v11.6
	c0,1.4,1.1,2.5,2.5,2.5h19.8c1.4,0,2.5-1.1,2.5-2.5V95.3C52.8,93.9,51.7,92.8,50.3,92.8z M47.8,104.4H33v-6.6h14.8V104.4z
	 M50.3,70.2H30.5c-1.4,0-2.5,1.1-2.5,2.5v11.6c0,1.4,1.1,2.5,2.5,2.5h19.8c1.4,0,2.5-1.1,2.5-2.5V72.7
	C52.8,71.3,51.7,70.2,50.3,70.2z M47.8,81.8H33v-6.6h14.8V81.8z M50.3,70.2H30.5c-1.4,0-2.5,1.1-2.5,2.5v11.6c0,1.4,1.1,2.5,2.5,2.5
	h19.8c1.4,0,2.5-1.1,2.5-2.5V72.7C52.8,71.3,51.7,70.2,50.3,70.2z M47.8,81.8H33v-6.6h14.8V81.8z M50.3,92.8H30.5
	c-1.4,0-2.5,1.1-2.5,2.5v11.6c0,1.4,1.1,2.5,2.5,2.5h19.8c1.4,0,2.5-1.1,2.5-2.5V95.3C52.8,93.9,51.7,92.8,50.3,92.8z M47.8,104.4
	H33v-6.6h14.8V104.4z M50.3,115.4H30.5c-1.4,0-2.5,1.1-2.5,2.5v11.6c0,1.4,1.1,2.5,2.5,2.5h19.8c1.4,0,2.5-1.1,2.5-2.5v-11.6
	C52.8,116.6,51.7,115.4,50.3,115.4z M47.8,127H33v-6.6h14.8V127z M50.3,138.1H30.5c-1.4,0-2.5,1.1-2.5,2.5v11.6
	c0,1.4,1.1,2.5,2.5,2.5h19.8c1.4,0,2.5-1.1,2.5-2.5v-11.6C52.8,139.2,51.7,138.1,50.3,138.1z M47.8,149.6H33v-6.6h14.8V149.6z
	 M80.1,70.2H60.3c-1.4,0-2.5,1.1-2.5,2.5v11.6c0,1.4,1.1,2.5,2.5,2.5h19.8c1.4,0,2.5-1.1,2.5-2.5V72.7
	C82.6,71.3,81.5,70.2,80.1,70.2z M77.6,81.8H62.8v-6.6h14.8V81.8z M80.1,92.8H60.3c-1.4,0-2.5,1.1-2.5,2.5v11.6
	c0,1.4,1.1,2.5,2.5,2.5h19.8c1.4,0,2.5-1.1,2.5-2.5V95.3C82.6,93.9,81.5,92.8,80.1,92.8z M77.6,104.4H62.8v-6.6h14.8V104.4z
	 M80.1,115.4H60.3c-1.4,0-2.5,1.1-2.5,2.5v11.6c0,1.4,1.1,2.5,2.5,2.5h19.8c1.4,0,2.5-1.1,2.5-2.5v-11.6
	C82.6,116.6,81.5,115.4,80.1,115.4z M77.6,127H62.8v-6.6h14.8V127z M80.1,138.1H60.3c-1.4,0-2.5,1.1-2.5,2.5v11.6
	c0,1.4,1.1,2.5,2.5,2.5h19.8c1.4,0,2.5-1.1,2.5-2.5v-11.6C82.6,139.2,81.5,138.1,80.1,138.1z M77.6,149.6H62.8v-6.6h14.8V149.6z
	 M80.1,138.1H60.3c-1.4,0-2.5,1.1-2.5,2.5v11.6c0,1.4,1.1,2.5,2.5,2.5h19.8c1.4,0,2.5-1.1,2.5-2.5v-11.6
	C82.6,139.2,81.5,138.1,80.1,138.1z M77.6,149.6H62.8v-6.6h14.8V149.6z M80.1,115.4H60.3c-1.4,0-2.5,1.1-2.5,2.5v11.6
	c0,1.4,1.1,2.5,2.5,2.5h19.8c1.4,0,2.5-1.1,2.5-2.5v-11.6C82.6,116.6,81.5,115.4,80.1,115.4z M77.6,127H62.8v-6.6h14.8V127z
	 M80.1,92.8H60.3c-1.4,0-2.5,1.1-2.5,2.5v11.6c0,1.4,1.1,2.5,2.5,2.5h19.8c1.4,0,2.5-1.1,2.5-2.5V95.3
	C82.6,93.9,81.5,92.8,80.1,92.8z M77.6,104.4H62.8v-6.6h14.8V104.4z M80.1,70.2H60.3c-1.4,0-2.5,1.1-2.5,2.5v11.6
	c0,1.4,1.1,2.5,2.5,2.5h19.8c1.4,0,2.5-1.1,2.5-2.5V72.7C82.6,71.3,81.5,70.2,80.1,70.2z M77.6,81.8H62.8v-6.6h14.8V81.8z
	 M50.3,138.1H30.5c-1.4,0-2.5,1.1-2.5,2.5v11.6c0,1.4,1.1,2.5,2.5,2.5h19.8c1.4,0,2.5-1.1,2.5-2.5v-11.6
	C52.8,139.2,51.7,138.1,50.3,138.1z M47.8,149.6H33v-6.6h14.8V149.6z M50.3,115.4H30.5c-1.4,0-2.5,1.1-2.5,2.5v11.6
	c0,1.4,1.1,2.5,2.5,2.5h19.8c1.4,0,2.5-1.1,2.5-2.5v-11.6C52.8,116.6,51.7,115.4,50.3,115.4z M47.8,127H33v-6.6h14.8V127z
	 M50.3,92.8H30.5c-1.4,0-2.5,1.1-2.5,2.5v11.6c0,1.4,1.1,2.5,2.5,2.5h19.8c1.4,0,2.5-1.1,2.5-2.5V95.3
	C52.8,93.9,51.7,92.8,50.3,92.8z M47.8,104.4H33v-6.6h14.8V104.4z M50.3,70.2H30.5c-1.4,0-2.5,1.1-2.5,2.5v11.6
	c0,1.4,1.1,2.5,2.5,2.5h19.8c1.4,0,2.5-1.1,2.5-2.5V72.7C52.8,71.3,51.7,70.2,50.3,70.2z M47.8,81.8H33v-6.6h14.8V81.8z M50.3,70.2
	H30.5c-1.4,0-2.5,1.1-2.5,2.5v11.6c0,1.4,1.1,2.5,2.5,2.5h19.8c1.4,0,2.5-1.1,2.5-2.5V72.7C52.8,71.3,51.7,70.2,50.3,70.2z
	 M47.8,81.8H33v-6.6h14.8V81.8z M50.3,92.8H30.5c-1.4,0-2.5,1.1-2.5,2.5v11.6c0,1.4,1.1,2.5,2.5,2.5h19.8c1.4,0,2.5-1.1,2.5-2.5
	V95.3C52.8,93.9,51.7,92.8,50.3,92.8z M47.8,104.4H33v-6.6h14.8V104.4z M50.3,115.4H30.5c-1.4,0-2.5,1.1-2.5,2.5v11.6
	c0,1.4,1.1,2.5,2.5,2.5h19.8c1.4,0,2.5-1.1,2.5-2.5v-11.6C52.8,116.6,51.7,115.4,50.3,115.4z M47.8,127H33v-6.6h14.8V127z
	 M50.3,138.1H30.5c-1.4,0-2.5,1.1-2.5,2.5v11.6c0,1.4,1.1,2.5,2.5,2.5h19.8c1.4,0,2.5-1.1,2.5-2.5v-11.6
	C52.8,139.2,51.7,138.1,50.3,138.1z M47.8,149.6H33v-6.6h14.8V149.6z M80.1,70.2H60.3c-1.4,0-2.5,1.1-2.5,2.5v11.6
	c0,1.4,1.1,2.5,2.5,2.5h19.8c1.4,0,2.5-1.1,2.5-2.5V72.7C82.6,71.3,81.5,70.2,80.1,70.2z M77.6,81.8H62.8v-6.6h14.8V81.8z
	 M80.1,92.8H60.3c-1.4,0-2.5,1.1-2.5,2.5v11.6c0,1.4,1.1,2.5,2.5,2.5h19.8c1.4,0,2.5-1.1,2.5-2.5V95.3
	C82.6,93.9,81.5,92.8,80.1,92.8z M77.6,104.4H62.8v-6.6h14.8V104.4z M80.1,115.4H60.3c-1.4,0-2.5,1.1-2.5,2.5v11.6
	c0,1.4,1.1,2.5,2.5,2.5h19.8c1.4,0,2.5-1.1,2.5-2.5v-11.6C82.6,116.6,81.5,115.4,80.1,115.4z M77.6,127H62.8v-6.6h14.8V127z
	 M80.1,138.1H60.3c-1.4,0-2.5,1.1-2.5,2.5v11.6c0,1.4,1.1,2.5,2.5,2.5h19.8c1.4,0,2.5-1.1,2.5-2.5v-11.6
	C82.6,139.2,81.5,138.1,80.1,138.1z M77.6,149.6H62.8v-6.6h14.8V149.6z M83.6,13.4H74c-1.4,0-2.5,1.1-2.5,2.5v10.4
	c0,1.4,1.1,2.5,2.5,2.5h9.6c1.4,0,2.5-1.1,2.5-2.5V15.9C86.1,14.5,84.9,13.4,83.6,13.4z M81.1,23.8h-4.6v-5.4h4.6V23.8z M83.6,38.3
	H74c-1.4,0-2.5,1.1-2.5,2.5v10.4c0,1.4,1.1,2.5,2.5,2.5h9.6c1.4,0,2.5-1.1,2.5-2.5V40.8C86.1,39.4,84.9,38.3,83.6,38.3z M81.1,48.7
	h-4.6v-5.4h4.6V48.7z M111.1,13.4h-9.6c-1.4,0-2.5,1.1-2.5,2.5v10.4c0,1.4,1.1,2.5,2.5,2.5h9.6c1.4,0,2.5-1.1,2.5-2.5V15.9
	C113.6,14.5,112.5,13.4,111.1,13.4z M108.6,23.8h-4.6v-5.4h4.6V23.8z M111.1,38.3h-9.6c-1.4,0-2.5,1.1-2.5,2.5v10.4
	c0,1.4,1.1,2.5,2.5,2.5h9.6c1.4,0,2.5-1.1,2.5-2.5V40.8C113.6,39.4,112.5,38.3,111.1,38.3z M108.6,48.7h-4.6v-5.4h4.6V48.7z
	 M111.1,63.2h-9.6c-1.4,0-2.5,1.1-2.5,2.5v10.4c0,1.4,1.1,2.5,2.5,2.5h9.6c1.4,0,2.5-1.1,2.5-2.5V65.7
	C113.6,64.3,112.5,63.2,111.1,63.2z M108.6,73.6h-4.6v-5.4h4.6V73.6z M111.1,88.1h-9.6c-1.4,0-2.5,1.1-2.5,2.5V101
	c0,1.4,1.1,2.5,2.5,2.5h9.6c1.4,0,2.5-1.1,2.5-2.5V90.6C113.6,89.3,112.5,88.1,111.1,88.1z M108.6,98.5h-4.6v-5.4h4.6V98.5z
	 M111.1,113h-9.6c-1.4,0-2.5,1.1-2.5,2.5v10.4c0,1.4,1.1,2.5,2.5,2.5h9.6c1.4,0,2.5-1.1,2.5-2.5v-10.4
	C113.6,114.2,112.5,113,111.1,113z M108.6,123.4h-4.6V118h4.6V123.4z M111.1,138h-9.6c-1.4,0-2.5,1.1-2.5,2.5v10.4
	c0,1.4,1.1,2.5,2.5,2.5h9.6c1.4,0,2.5-1.1,2.5-2.5v-10.4C113.6,139.1,112.5,138,111.1,138z M108.6,148.3h-4.6V143h4.6V148.3z
	 M138.7,13.4h-9.6c-1.4,0-2.5,1.1-2.5,2.5v10.4c0,1.4,1.1,2.5,2.5,2.5h9.6c1.4,0,2.5-1.1,2.5-2.5V15.9
	C141.2,14.5,140.1,13.4,138.7,13.4z M136.2,23.8h-4.6v-5.4h4.6V23.8z M138.7,38.3h-9.6c-1.4,0-2.5,1.1-2.5,2.5v10.4
	c0,1.4,1.1,2.5,2.5,2.5h9.6c1.4,0,2.5-1.1,2.5-2.5V40.8C141.2,39.4,140.1,38.3,138.7,38.3z M136.2,48.7h-4.6v-5.4h4.6V48.7z
	 M138.7,63.2h-9.6c-1.4,0-2.5,1.1-2.5,2.5v10.4c0,1.4,1.1,2.5,2.5,2.5h9.6c1.4,0,2.5-1.1,2.5-2.5V65.7
	C141.2,64.3,140.1,63.2,138.7,63.2z M136.2,73.6h-4.6v-5.4h4.6V73.6z M138.7,88.1h-9.6c-1.4,0-2.5,1.1-2.5,2.5v8.8
	c0.6-0.6,1.5-0.9,2.4-0.9h2.6v-5.4h4.6v5.4h5v-7.9C141.2,89.3,140.1,88.1,138.7,88.1z M138.7,88.1h-9.6c-1.4,0-2.5,1.1-2.5,2.5v8.8
	c0.6-0.6,1.5-0.9,2.4-0.9h2.6v-5.4h4.6v5.4h5v-7.9C141.2,89.3,140.1,88.1,138.7,88.1z M138.7,63.2h-9.6c-1.4,0-2.5,1.1-2.5,2.5v10.4
	c0,1.4,1.1,2.5,2.5,2.5h9.6c1.4,0,2.5-1.1,2.5-2.5V65.7C141.2,64.3,140.1,63.2,138.7,63.2z M136.2,73.6h-4.6v-5.4h4.6V73.6z
	 M138.7,38.3h-9.6c-1.4,0-2.5,1.1-2.5,2.5v10.4c0,1.4,1.1,2.5,2.5,2.5h9.6c1.4,0,2.5-1.1,2.5-2.5V40.8
	C141.2,39.4,140.1,38.3,138.7,38.3z M136.2,48.7h-4.6v-5.4h4.6V48.7z M138.7,13.4h-9.6c-1.4,0-2.5,1.1-2.5,2.5v10.4
	c0,1.4,1.1,2.5,2.5,2.5h9.6c1.4,0,2.5-1.1,2.5-2.5V15.9C141.2,14.5,140.1,13.4,138.7,13.4z M136.2,23.8h-4.6v-5.4h4.6V23.8z
	 M111.1,138h-9.6c-1.4,0-2.5,1.1-2.5,2.5v10.4c0,1.4,1.1,2.5,2.5,2.5h9.6c1.4,0,2.5-1.1,2.5-2.5v-10.4
	C113.6,139.1,112.5,138,111.1,138z M108.6,148.3h-4.6V143h4.6V148.3z M111.1,113h-9.6c-1.4,0-2.5,1.1-2.5,2.5v10.4
	c0,1.4,1.1,2.5,2.5,2.5h9.6c1.4,0,2.5-1.1,2.5-2.5v-10.4C113.6,114.2,112.5,113,111.1,113z M108.6,123.4h-4.6V118h4.6V123.4z
	 M111.1,88.1h-9.6c-1.4,0-2.5,1.1-2.5,2.5V101c0,1.4,1.1,2.5,2.5,2.5h9.6c1.4,0,2.5-1.1,2.5-2.5V90.6
	C113.6,89.3,112.5,88.1,111.1,88.1z M108.6,98.5h-4.6v-5.4h4.6V98.5z M111.1,63.2h-9.6c-1.4,0-2.5,1.1-2.5,2.5v10.4
	c0,1.4,1.1,2.5,2.5,2.5h9.6c1.4,0,2.5-1.1,2.5-2.5V65.7C113.6,64.3,112.5,63.2,111.1,63.2z M108.6,73.6h-4.6v-5.4h4.6V73.6z
	 M111.1,38.3h-9.6c-1.4,0-2.5,1.1-2.5,2.5v10.4c0,1.4,1.1,2.5,2.5,2.5h9.6c1.4,0,2.5-1.1,2.5-2.5V40.8
	C113.6,39.4,112.5,38.3,111.1,38.3z M108.6,48.7h-4.6v-5.4h4.6V48.7z M111.1,13.4h-9.6c-1.4,0-2.5,1.1-2.5,2.5v10.4
	c0,1.4,1.1,2.5,2.5,2.5h9.6c1.4,0,2.5-1.1,2.5-2.5V15.9C113.6,14.5,112.5,13.4,111.1,13.4z M108.6,23.8h-4.6v-5.4h4.6V23.8z
	 M83.6,38.3H74c-1.4,0-2.5,1.1-2.5,2.5v10.4c0,1.4,1.1,2.5,2.5,2.5h9.6c1.4,0,2.5-1.1,2.5-2.5V40.8C86.1,39.4,84.9,38.3,83.6,38.3z
	 M81.1,48.7h-4.6v-5.4h4.6V48.7z M83.6,13.4H74c-1.4,0-2.5,1.1-2.5,2.5v10.4c0,1.4,1.1,2.5,2.5,2.5h9.6c1.4,0,2.5-1.1,2.5-2.5V15.9
	C86.1,14.5,84.9,13.4,83.6,13.4z M81.1,23.8h-4.6v-5.4h4.6V23.8z M80.1,138.1H60.3c-1.4,0-2.5,1.1-2.5,2.5v11.6
	c0,1.4,1.1,2.5,2.5,2.5h19.8c1.4,0,2.5-1.1,2.5-2.5v-11.6C82.6,139.2,81.5,138.1,80.1,138.1z M77.6,149.6H62.8v-6.6h14.8V149.6z
	 M80.1,115.4H60.3c-1.4,0-2.5,1.1-2.5,2.5v11.6c0,1.4,1.1,2.5,2.5,2.5h19.8c1.4,0,2.5-1.1,2.5-2.5v-11.6
	C82.6,116.6,81.5,115.4,80.1,115.4z M77.6,127H62.8v-6.6h14.8V127z M80.1,92.8H60.3c-1.4,0-2.5,1.1-2.5,2.5v11.6
	c0,1.4,1.1,2.5,2.5,2.5h19.8c1.4,0,2.5-1.1,2.5-2.5V95.3C82.6,93.9,81.5,92.8,80.1,92.8z M77.6,104.4H62.8v-6.6h14.8V104.4z
	 M80.1,70.2H60.3c-1.4,0-2.5,1.1-2.5,2.5v11.6c0,1.4,1.1,2.5,2.5,2.5h19.8c1.4,0,2.5-1.1,2.5-2.5V72.7
	C82.6,71.3,81.5,70.2,80.1,70.2z M77.6,81.8H62.8v-6.6h14.8V81.8z M50.3,138.1H30.5c-1.4,0-2.5,1.1-2.5,2.5v11.6
	c0,1.4,1.1,2.5,2.5,2.5h19.8c1.4,0,2.5-1.1,2.5-2.5v-11.6C52.8,139.2,51.7,138.1,50.3,138.1z M47.8,149.6H33v-6.6h14.8V149.6z
	 M50.3,115.4H30.5c-1.4,0-2.5,1.1-2.5,2.5v11.6c0,1.4,1.1,2.5,2.5,2.5h19.8c1.4,0,2.5-1.1,2.5-2.5v-11.6
	C52.8,116.6,51.7,115.4,50.3,115.4z M47.8,127H33v-6.6h14.8V127z M50.3,92.8H30.5c-1.4,0-2.5,1.1-2.5,2.5v11.6
	c0,1.4,1.1,2.5,2.5,2.5h19.8c1.4,0,2.5-1.1,2.5-2.5V95.3C52.8,93.9,51.7,92.8,50.3,92.8z M47.8,104.4H33v-6.6h14.8V104.4z
	 M50.3,70.2H30.5c-1.4,0-2.5,1.1-2.5,2.5v11.6c0,1.4,1.1,2.5,2.5,2.5h19.8c1.4,0,2.5-1.1,2.5-2.5V72.7
	C52.8,71.3,51.7,70.2,50.3,70.2z M47.8,81.8H33v-6.6h14.8V81.8z M50.3,70.2H30.5c-1.4,0-2.5,1.1-2.5,2.5v11.6c0,1.4,1.1,2.5,2.5,2.5
	h19.8c1.4,0,2.5-1.1,2.5-2.5V72.7C52.8,71.3,51.7,70.2,50.3,70.2z M47.8,81.8H33v-6.6h14.8V81.8z M50.3,92.8H30.5
	c-1.4,0-2.5,1.1-2.5,2.5v11.6c0,1.4,1.1,2.5,2.5,2.5h19.8c1.4,0,2.5-1.1,2.5-2.5V95.3C52.8,93.9,51.7,92.8,50.3,92.8z M47.8,104.4
	H33v-6.6h14.8V104.4z M50.3,115.4H30.5c-1.4,0-2.5,1.1-2.5,2.5v11.6c0,1.4,1.1,2.5,2.5,2.5h19.8c1.4,0,2.5-1.1,2.5-2.5v-11.6
	C52.8,116.6,51.7,115.4,50.3,115.4z M47.8,127H33v-6.6h14.8V127z M50.3,138.1H30.5c-1.4,0-2.5,1.1-2.5,2.5v11.6
	c0,1.4,1.1,2.5,2.5,2.5h19.8c1.4,0,2.5-1.1,2.5-2.5v-11.6C52.8,139.2,51.7,138.1,50.3,138.1z M47.8,149.6H33v-6.6h14.8V149.6z
	 M80.1,70.2H60.3c-1.4,0-2.5,1.1-2.5,2.5v11.6c0,1.4,1.1,2.5,2.5,2.5h19.8c1.4,0,2.5-1.1,2.5-2.5V72.7
	C82.6,71.3,81.5,70.2,80.1,70.2z M77.6,81.8H62.8v-6.6h14.8V81.8z M80.1,92.8H60.3c-1.4,0-2.5,1.1-2.5,2.5v11.6
	c0,1.4,1.1,2.5,2.5,2.5h19.8c1.4,0,2.5-1.1,2.5-2.5V95.3C82.6,93.9,81.5,92.8,80.1,92.8z M77.6,104.4H62.8v-6.6h14.8V104.4z
	 M80.1,115.4H60.3c-1.4,0-2.5,1.1-2.5,2.5v11.6c0,1.4,1.1,2.5,2.5,2.5h19.8c1.4,0,2.5-1.1,2.5-2.5v-11.6
	C82.6,116.6,81.5,115.4,80.1,115.4z M77.6,127H62.8v-6.6h14.8V127z M80.1,138.1H60.3c-1.4,0-2.5,1.1-2.5,2.5v11.6
	c0,1.4,1.1,2.5,2.5,2.5h19.8c1.4,0,2.5-1.1,2.5-2.5v-11.6C82.6,139.2,81.5,138.1,80.1,138.1z M77.6,149.6H62.8v-6.6h14.8V149.6z
	 M80.1,138.1H60.3c-1.4,0-2.5,1.1-2.5,2.5v11.6c0,1.4,1.1,2.5,2.5,2.5h19.8c1.4,0,2.5-1.1,2.5-2.5v-11.6
	C82.6,139.2,81.5,138.1,80.1,138.1z M77.6,149.6H62.8v-6.6h14.8V149.6z M80.1,115.4H60.3c-1.4,0-2.5,1.1-2.5,2.5v11.6
	c0,1.4,1.1,2.5,2.5,2.5h19.8c1.4,0,2.5-1.1,2.5-2.5v-11.6C82.6,116.6,81.5,115.4,80.1,115.4z M77.6,127H62.8v-6.6h14.8V127z
	 M80.1,92.8H60.3c-1.4,0-2.5,1.1-2.5,2.5v11.6c0,1.4,1.1,2.5,2.5,2.5h19.8c1.4,0,2.5-1.1,2.5-2.5V95.3
	C82.6,93.9,81.5,92.8,80.1,92.8z M77.6,104.4H62.8v-6.6h14.8V104.4z M80.1,70.2H60.3c-1.4,0-2.5,1.1-2.5,2.5v11.6
	c0,1.4,1.1,2.5,2.5,2.5h19.8c1.4,0,2.5-1.1,2.5-2.5V72.7C82.6,71.3,81.5,70.2,80.1,70.2z M77.6,81.8H62.8v-6.6h14.8V81.8z
	 M50.3,138.1H30.5c-1.4,0-2.5,1.1-2.5,2.5v11.6c0,1.4,1.1,2.5,2.5,2.5h19.8c1.4,0,2.5-1.1,2.5-2.5v-11.6
	C52.8,139.2,51.7,138.1,50.3,138.1z M47.8,149.6H33v-6.6h14.8V149.6z M50.3,115.4H30.5c-1.4,0-2.5,1.1-2.5,2.5v11.6
	c0,1.4,1.1,2.5,2.5,2.5h19.8c1.4,0,2.5-1.1,2.5-2.5v-11.6C52.8,116.6,51.7,115.4,50.3,115.4z M47.8,127H33v-6.6h14.8V127z
	 M50.3,92.8H30.5c-1.4,0-2.5,1.1-2.5,2.5v11.6c0,1.4,1.1,2.5,2.5,2.5h19.8c1.4,0,2.5-1.1,2.5-2.5V95.3
	C52.8,93.9,51.7,92.8,50.3,92.8z M47.8,104.4H33v-6.6h14.8V104.4z M50.3,70.2H30.5c-1.4,0-2.5,1.1-2.5,2.5v11.6
	c0,1.4,1.1,2.5,2.5,2.5h19.8c1.4,0,2.5-1.1,2.5-2.5V72.7C52.8,71.3,51.7,70.2,50.3,70.2z M47.8,81.8H33v-6.6h14.8V81.8z M50.3,70.2
	H30.5c-1.4,0-2.5,1.1-2.5,2.5v11.6c0,1.4,1.1,2.5,2.5,2.5h19.8c1.4,0,2.5-1.1,2.5-2.5V72.7C52.8,71.3,51.7,70.2,50.3,70.2z
	 M47.8,81.8H33v-6.6h14.8V81.8z M50.3,92.8H30.5c-1.4,0-2.5,1.1-2.5,2.5v11.6c0,1.4,1.1,2.5,2.5,2.5h19.8c1.4,0,2.5-1.1,2.5-2.5
	V95.3C52.8,93.9,51.7,92.8,50.3,92.8z M47.8,104.4H33v-6.6h14.8V104.4z M50.3,115.4H30.5c-1.4,0-2.5,1.1-2.5,2.5v11.6
	c0,1.4,1.1,2.5,2.5,2.5h19.8c1.4,0,2.5-1.1,2.5-2.5v-11.6C52.8,116.6,51.7,115.4,50.3,115.4z M47.8,127H33v-6.6h14.8V127z
	 M50.3,138.1H30.5c-1.4,0-2.5,1.1-2.5,2.5v11.6c0,1.4,1.1,2.5,2.5,2.5h19.8c1.4,0,2.5-1.1,2.5-2.5v-11.6
	C52.8,139.2,51.7,138.1,50.3,138.1z M47.8,149.6H33v-6.6h14.8V149.6z M80.1,70.2H60.3c-1.4,0-2.5,1.1-2.5,2.5v11.6
	c0,1.4,1.1,2.5,2.5,2.5h19.8c1.4,0,2.5-1.1,2.5-2.5V72.7C82.6,71.3,81.5,70.2,80.1,70.2z M77.6,81.8H62.8v-6.6h14.8V81.8z
	 M80.1,92.8H60.3c-1.4,0-2.5,1.1-2.5,2.5v11.6c0,1.4,1.1,2.5,2.5,2.5h19.8c1.4,0,2.5-1.1,2.5-2.5V95.3
	C82.6,93.9,81.5,92.8,80.1,92.8z M77.6,104.4H62.8v-6.6h14.8V104.4z M80.1,115.4H60.3c-1.4,0-2.5,1.1-2.5,2.5v11.6
	c0,1.4,1.1,2.5,2.5,2.5h19.8c1.4,0,2.5-1.1,2.5-2.5v-11.6C82.6,116.6,81.5,115.4,80.1,115.4z M77.6,127H62.8v-6.6h14.8V127z
	 M80.1,138.1H60.3c-1.4,0-2.5,1.1-2.5,2.5v11.6c0,1.4,1.1,2.5,2.5,2.5h19.8c1.4,0,2.5-1.1,2.5-2.5v-11.6
	C82.6,139.2,81.5,138.1,80.1,138.1z M77.6,149.6H62.8v-6.6h14.8V149.6z M80.1,138.1H60.3c-1.4,0-2.5,1.1-2.5,2.5v11.6
	c0,1.4,1.1,2.5,2.5,2.5h19.8c1.4,0,2.5-1.1,2.5-2.5v-11.6C82.6,139.2,81.5,138.1,80.1,138.1z M77.6,149.6H62.8v-6.6h14.8V149.6z
	 M80.1,115.4H60.3c-1.4,0-2.5,1.1-2.5,2.5v11.6c0,1.4,1.1,2.5,2.5,2.5h19.8c1.4,0,2.5-1.1,2.5-2.5v-11.6
	C82.6,116.6,81.5,115.4,80.1,115.4z M77.6,127H62.8v-6.6h14.8V127z M80.1,92.8H60.3c-1.4,0-2.5,1.1-2.5,2.5v11.6
	c0,1.4,1.1,2.5,2.5,2.5h19.8c1.4,0,2.5-1.1,2.5-2.5V95.3C82.6,93.9,81.5,92.8,80.1,92.8z M77.6,104.4H62.8v-6.6h14.8V104.4z
	 M80.1,70.2H60.3c-1.4,0-2.5,1.1-2.5,2.5v11.6c0,1.4,1.1,2.5,2.5,2.5h19.8c1.4,0,2.5-1.1,2.5-2.5V72.7
	C82.6,71.3,81.5,70.2,80.1,70.2z M77.6,81.8H62.8v-6.6h14.8V81.8z M50.3,138.1H30.5c-1.4,0-2.5,1.1-2.5,2.5v11.6
	c0,1.4,1.1,2.5,2.5,2.5h19.8c1.4,0,2.5-1.1,2.5-2.5v-11.6C52.8,139.2,51.7,138.1,50.3,138.1z M47.8,149.6H33v-6.6h14.8V149.6z
	 M50.3,115.4H30.5c-1.4,0-2.5,1.1-2.5,2.5v11.6c0,1.4,1.1,2.5,2.5,2.5h19.8c1.4,0,2.5-1.1,2.5-2.5v-11.6
	C52.8,116.6,51.7,115.4,50.3,115.4z M47.8,127H33v-6.6h14.8V127z M50.3,92.8H30.5c-1.4,0-2.5,1.1-2.5,2.5v11.6
	c0,1.4,1.1,2.5,2.5,2.5h19.8c1.4,0,2.5-1.1,2.5-2.5V95.3C52.8,93.9,51.7,92.8,50.3,92.8z M47.8,104.4H33v-6.6h14.8V104.4z
	 M50.3,70.2H30.5c-1.4,0-2.5,1.1-2.5,2.5v11.6c0,1.4,1.1,2.5,2.5,2.5h19.8c1.4,0,2.5-1.1,2.5-2.5V72.7
	C52.8,71.3,51.7,70.2,50.3,70.2z M47.8,81.8H33v-6.6h14.8V81.8z M50.3,70.2H30.5c-1.4,0-2.5,1.1-2.5,2.5v11.6c0,1.4,1.1,2.5,2.5,2.5
	h19.8c1.4,0,2.5-1.1,2.5-2.5V72.7C52.8,71.3,51.7,70.2,50.3,70.2z M47.8,81.8H33v-6.6h14.8V81.8z M50.3,92.8H30.5
	c-1.4,0-2.5,1.1-2.5,2.5v11.6c0,1.4,1.1,2.5,2.5,2.5h19.8c1.4,0,2.5-1.1,2.5-2.5V95.3C52.8,93.9,51.7,92.8,50.3,92.8z M47.8,104.4
	H33v-6.6h14.8V104.4z M50.3,115.4H30.5c-1.4,0-2.5,1.1-2.5,2.5v11.6c0,1.4,1.1,2.5,2.5,2.5h19.8c1.4,0,2.5-1.1,2.5-2.5v-11.6
	C52.8,116.6,51.7,115.4,50.3,115.4z M47.8,127H33v-6.6h14.8V127z M50.3,138.1H30.5c-1.4,0-2.5,1.1-2.5,2.5v11.6
	c0,1.4,1.1,2.5,2.5,2.5h19.8c1.4,0,2.5-1.1,2.5-2.5v-11.6C52.8,139.2,51.7,138.1,50.3,138.1z M47.8,149.6H33v-6.6h14.8V149.6z
	 M80.1,70.2H60.3c-1.4,0-2.5,1.1-2.5,2.5v11.6c0,1.4,1.1,2.5,2.5,2.5h19.8c1.4,0,2.5-1.1,2.5-2.5V72.7
	C82.6,71.3,81.5,70.2,80.1,70.2z M77.6,81.8H62.8v-6.6h14.8V81.8z M80.1,92.8H60.3c-1.4,0-2.5,1.1-2.5,2.5v11.6
	c0,1.4,1.1,2.5,2.5,2.5h19.8c1.4,0,2.5-1.1,2.5-2.5V95.3C82.6,93.9,81.5,92.8,80.1,92.8z M77.6,104.4H62.8v-6.6h14.8V104.4z
	 M80.1,115.4H60.3c-1.4,0-2.5,1.1-2.5,2.5v11.6c0,1.4,1.1,2.5,2.5,2.5h19.8c1.4,0,2.5-1.1,2.5-2.5v-11.6
	C82.6,116.6,81.5,115.4,80.1,115.4z M77.6,127H62.8v-6.6h14.8V127z M80.1,138.1H60.3c-1.4,0-2.5,1.1-2.5,2.5v11.6
	c0,1.4,1.1,2.5,2.5,2.5h19.8c1.4,0,2.5-1.1,2.5-2.5v-11.6C82.6,139.2,81.5,138.1,80.1,138.1z M77.6,149.6H62.8v-6.6h14.8V149.6z
	 M80.1,138.1H60.3c-1.4,0-2.5,1.1-2.5,2.5v11.6c0,1.4,1.1,2.5,2.5,2.5h19.8c1.4,0,2.5-1.1,2.5-2.5v-11.6
	C82.6,139.2,81.5,138.1,80.1,138.1z M77.6,149.6H62.8v-6.6h14.8V149.6z M80.1,115.4H60.3c-1.4,0-2.5,1.1-2.5,2.5v11.6
	c0,1.4,1.1,2.5,2.5,2.5h19.8c1.4,0,2.5-1.1,2.5-2.5v-11.6C82.6,116.6,81.5,115.4,80.1,115.4z M77.6,127H62.8v-6.6h14.8V127z
	 M80.1,92.8H60.3c-1.4,0-2.5,1.1-2.5,2.5v11.6c0,1.4,1.1,2.5,2.5,2.5h19.8c1.4,0,2.5-1.1,2.5-2.5V95.3
	C82.6,93.9,81.5,92.8,80.1,92.8z M77.6,104.4H62.8v-6.6h14.8V104.4z M80.1,70.2H60.3c-1.4,0-2.5,1.1-2.5,2.5v11.6
	c0,1.4,1.1,2.5,2.5,2.5h19.8c1.4,0,2.5-1.1,2.5-2.5V72.7C82.6,71.3,81.5,70.2,80.1,70.2z M77.6,81.8H62.8v-6.6h14.8V81.8z
	 M50.3,138.1H30.5c-1.4,0-2.5,1.1-2.5,2.5v11.6c0,1.4,1.1,2.5,2.5,2.5h19.8c1.4,0,2.5-1.1,2.5-2.5v-11.6
	C52.8,139.2,51.7,138.1,50.3,138.1z M47.8,149.6H33v-6.6h14.8V149.6z M50.3,115.4H30.5c-1.4,0-2.5,1.1-2.5,2.5v11.6
	c0,1.4,1.1,2.5,2.5,2.5h19.8c1.4,0,2.5-1.1,2.5-2.5v-11.6C52.8,116.6,51.7,115.4,50.3,115.4z M47.8,127H33v-6.6h14.8V127z
	 M50.3,92.8H30.5c-1.4,0-2.5,1.1-2.5,2.5v11.6c0,1.4,1.1,2.5,2.5,2.5h19.8c1.4,0,2.5-1.1,2.5-2.5V95.3
	C52.8,93.9,51.7,92.8,50.3,92.8z M47.8,104.4H33v-6.6h14.8V104.4z M50.3,70.2H30.5c-1.4,0-2.5,1.1-2.5,2.5v11.6
	c0,1.4,1.1,2.5,2.5,2.5h19.8c1.4,0,2.5-1.1,2.5-2.5V72.7C52.8,71.3,51.7,70.2,50.3,70.2z M47.8,81.8H33v-6.6h14.8V81.8z M50.3,70.2
	H30.5c-1.4,0-2.5,1.1-2.5,2.5v11.6c0,1.4,1.1,2.5,2.5,2.5h19.8c1.4,0,2.5-1.1,2.5-2.5V72.7C52.8,71.3,51.7,70.2,50.3,70.2z
	 M47.8,81.8H33v-6.6h14.8V81.8z M50.3,92.8H30.5c-1.4,0-2.5,1.1-2.5,2.5v11.6c0,1.4,1.1,2.5,2.5,2.5h19.8c1.4,0,2.5-1.1,2.5-2.5
	V95.3C52.8,93.9,51.7,92.8,50.3,92.8z M47.8,104.4H33v-6.6h14.8V104.4z M50.3,115.4H30.5c-1.4,0-2.5,1.1-2.5,2.5v11.6
	c0,1.4,1.1,2.5,2.5,2.5h19.8c1.4,0,2.5-1.1,2.5-2.5v-11.6C52.8,116.6,51.7,115.4,50.3,115.4z M47.8,127H33v-6.6h14.8V127z
	 M50.3,138.1H30.5c-1.4,0-2.5,1.1-2.5,2.5v11.6c0,1.4,1.1,2.5,2.5,2.5h19.8c1.4,0,2.5-1.1,2.5-2.5v-11.6
	C52.8,139.2,51.7,138.1,50.3,138.1z M47.8,149.6H33v-6.6h14.8V149.6z M80.1,70.2H60.3c-1.4,0-2.5,1.1-2.5,2.5v11.6
	c0,1.4,1.1,2.5,2.5,2.5h19.8c1.4,0,2.5-1.1,2.5-2.5V72.7C82.6,71.3,81.5,70.2,80.1,70.2z M77.6,81.8H62.8v-6.6h14.8V81.8z
	 M80.1,92.8H60.3c-1.4,0-2.5,1.1-2.5,2.5v11.6c0,1.4,1.1,2.5,2.5,2.5h19.8c1.4,0,2.5-1.1,2.5-2.5V95.3
	C82.6,93.9,81.5,92.8,80.1,92.8z M77.6,104.4H62.8v-6.6h14.8V104.4z M80.1,115.4H60.3c-1.4,0-2.5,1.1-2.5,2.5v11.6
	c0,1.4,1.1,2.5,2.5,2.5h19.8c1.4,0,2.5-1.1,2.5-2.5v-11.6C82.6,116.6,81.5,115.4,80.1,115.4z M77.6,127H62.8v-6.6h14.8V127z
	 M80.1,138.1H60.3c-1.4,0-2.5,1.1-2.5,2.5v11.6c0,1.4,1.1,2.5,2.5,2.5h19.8c1.4,0,2.5-1.1,2.5-2.5v-11.6
	C82.6,139.2,81.5,138.1,80.1,138.1z M77.6,149.6H62.8v-6.6h14.8V149.6z M138.7,88.1h-9.6c-1.4,0-2.5,1.1-2.5,2.5v8.8
	c0.6-0.6,1.5-0.9,2.4-0.9h2.6v-5.4h4.6v5.4h5v-7.9C141.2,89.3,140.1,88.1,138.7,88.1z M138.7,63.2h-9.6c-1.4,0-2.5,1.1-2.5,2.5v10.4
	c0,1.4,1.1,2.5,2.5,2.5h9.6c1.4,0,2.5-1.1,2.5-2.5V65.7C141.2,64.3,140.1,63.2,138.7,63.2z M136.2,73.6h-4.6v-5.4h4.6V73.6z
	 M138.7,38.3h-9.6c-1.4,0-2.5,1.1-2.5,2.5v10.4c0,1.4,1.1,2.5,2.5,2.5h9.6c1.4,0,2.5-1.1,2.5-2.5V40.8
	C141.2,39.4,140.1,38.3,138.7,38.3z M136.2,48.7h-4.6v-5.4h4.6V48.7z M138.7,13.4h-9.6c-1.4,0-2.5,1.1-2.5,2.5v10.4
	c0,1.4,1.1,2.5,2.5,2.5h9.6c1.4,0,2.5-1.1,2.5-2.5V15.9C141.2,14.5,140.1,13.4,138.7,13.4z M136.2,23.8h-4.6v-5.4h4.6V23.8z
	 M111.1,138h-9.6c-1.4,0-2.5,1.1-2.5,2.5v10.4c0,1.4,1.1,2.5,2.5,2.5h9.6c1.4,0,2.5-1.1,2.5-2.5v-10.4
	C113.6,139.1,112.5,138,111.1,138z M108.6,148.3h-4.6V143h4.6V148.3z M111.1,113h-9.6c-1.4,0-2.5,1.1-2.5,2.5v10.4
	c0,1.4,1.1,2.5,2.5,2.5h9.6c1.4,0,2.5-1.1,2.5-2.5v-10.4C113.6,114.2,112.5,113,111.1,113z M108.6,123.4h-4.6V118h4.6V123.4z
	 M111.1,88.1h-9.6c-1.4,0-2.5,1.1-2.5,2.5V101c0,1.4,1.1,2.5,2.5,2.5h9.6c1.4,0,2.5-1.1,2.5-2.5V90.6
	C113.6,89.3,112.5,88.1,111.1,88.1z M108.6,98.5h-4.6v-5.4h4.6V98.5z M111.1,63.2h-9.6c-1.4,0-2.5,1.1-2.5,2.5v10.4
	c0,1.4,1.1,2.5,2.5,2.5h9.6c1.4,0,2.5-1.1,2.5-2.5V65.7C113.6,64.3,112.5,63.2,111.1,63.2z M108.6,73.6h-4.6v-5.4h4.6V73.6z
	 M111.1,38.3h-9.6c-1.4,0-2.5,1.1-2.5,2.5v10.4c0,1.4,1.1,2.5,2.5,2.5h9.6c1.4,0,2.5-1.1,2.5-2.5V40.8
	C113.6,39.4,112.5,38.3,111.1,38.3z M108.6,48.7h-4.6v-5.4h4.6V48.7z M111.1,13.4h-9.6c-1.4,0-2.5,1.1-2.5,2.5v10.4
	c0,1.4,1.1,2.5,2.5,2.5h9.6c1.4,0,2.5-1.1,2.5-2.5V15.9C113.6,14.5,112.5,13.4,111.1,13.4z M108.6,23.8h-4.6v-5.4h4.6V23.8z
	 M83.6,38.3H74c-1.4,0-2.5,1.1-2.5,2.5v10.4c0,1.4,1.1,2.5,2.5,2.5h9.6c1.4,0,2.5-1.1,2.5-2.5V40.8C86.1,39.4,84.9,38.3,83.6,38.3z
	 M81.1,48.7h-4.6v-5.4h4.6V48.7z M83.6,13.4H74c-1.4,0-2.5,1.1-2.5,2.5v10.4c0,1.4,1.1,2.5,2.5,2.5h9.6c1.4,0,2.5-1.1,2.5-2.5V15.9
	C86.1,14.5,84.9,13.4,83.6,13.4z M81.1,23.8h-4.6v-5.4h4.6V23.8z M80.1,138.1H60.3c-1.4,0-2.5,1.1-2.5,2.5v11.6
	c0,1.4,1.1,2.5,2.5,2.5h19.8c1.4,0,2.5-1.1,2.5-2.5v-11.6C82.6,139.2,81.5,138.1,80.1,138.1z M77.6,149.6H62.8v-6.6h14.8V149.6z
	 M80.1,115.4H60.3c-1.4,0-2.5,1.1-2.5,2.5v11.6c0,1.4,1.1,2.5,2.5,2.5h19.8c1.4,0,2.5-1.1,2.5-2.5v-11.6
	C82.6,116.6,81.5,115.4,80.1,115.4z M77.6,127H62.8v-6.6h14.8V127z M80.1,92.8H60.3c-1.4,0-2.5,1.1-2.5,2.5v11.6
	c0,1.4,1.1,2.5,2.5,2.5h19.8c1.4,0,2.5-1.1,2.5-2.5V95.3C82.6,93.9,81.5,92.8,80.1,92.8z M77.6,104.4H62.8v-6.6h14.8V104.4z
	 M80.1,70.2H60.3c-1.4,0-2.5,1.1-2.5,2.5v11.6c0,1.4,1.1,2.5,2.5,2.5h19.8c1.4,0,2.5-1.1,2.5-2.5V72.7
	C82.6,71.3,81.5,70.2,80.1,70.2z M77.6,81.8H62.8v-6.6h14.8V81.8z M50.3,138.1H30.5c-1.4,0-2.5,1.1-2.5,2.5v11.6
	c0,1.4,1.1,2.5,2.5,2.5h19.8c1.4,0,2.5-1.1,2.5-2.5v-11.6C52.8,139.2,51.7,138.1,50.3,138.1z M47.8,149.6H33v-6.6h14.8V149.6z
	 M50.3,115.4H30.5c-1.4,0-2.5,1.1-2.5,2.5v11.6c0,1.4,1.1,2.5,2.5,2.5h19.8c1.4,0,2.5-1.1,2.5-2.5v-11.6
	C52.8,116.6,51.7,115.4,50.3,115.4z M47.8,127H33v-6.6h14.8V127z M50.3,92.8H30.5c-1.4,0-2.5,1.1-2.5,2.5v11.6
	c0,1.4,1.1,2.5,2.5,2.5h19.8c1.4,0,2.5-1.1,2.5-2.5V95.3C52.8,93.9,51.7,92.8,50.3,92.8z M47.8,104.4H33v-6.6h14.8V104.4z
	 M50.3,70.2H30.5c-1.4,0-2.5,1.1-2.5,2.5v11.6c0,1.4,1.1,2.5,2.5,2.5h19.8c1.4,0,2.5-1.1,2.5-2.5V72.7
	C52.8,71.3,51.7,70.2,50.3,70.2z M47.8,81.8H33v-6.6h14.8V81.8z M83.6,13.4H74c-1.4,0-2.5,1.1-2.5,2.5v10.4c0,1.4,1.1,2.5,2.5,2.5
	h9.6c1.4,0,2.5-1.1,2.5-2.5V15.9C86.1,14.5,84.9,13.4,83.6,13.4z M81.1,23.8h-4.6v-5.4h4.6V23.8z M83.6,38.3H74
	c-1.4,0-2.5,1.1-2.5,2.5v10.4c0,1.4,1.1,2.5,2.5,2.5h9.6c1.4,0,2.5-1.1,2.5-2.5V40.8C86.1,39.4,84.9,38.3,83.6,38.3z M81.1,48.7
	h-4.6v-5.4h4.6V48.7z M111.1,13.4h-9.6c-1.4,0-2.5,1.1-2.5,2.5v10.4c0,1.4,1.1,2.5,2.5,2.5h9.6c1.4,0,2.5-1.1,2.5-2.5V15.9
	C113.6,14.5,112.5,13.4,111.1,13.4z M108.6,23.8h-4.6v-5.4h4.6V23.8z M111.1,38.3h-9.6c-1.4,0-2.5,1.1-2.5,2.5v10.4
	c0,1.4,1.1,2.5,2.5,2.5h9.6c1.4,0,2.5-1.1,2.5-2.5V40.8C113.6,39.4,112.5,38.3,111.1,38.3z M108.6,48.7h-4.6v-5.4h4.6V48.7z
	 M111.1,63.2h-9.6c-1.4,0-2.5,1.1-2.5,2.5v10.4c0,1.4,1.1,2.5,2.5,2.5h9.6c1.4,0,2.5-1.1,2.5-2.5V65.7
	C113.6,64.3,112.5,63.2,111.1,63.2z M108.6,73.6h-4.6v-5.4h4.6V73.6z M111.1,88.1h-9.6c-1.4,0-2.5,1.1-2.5,2.5V101
	c0,1.4,1.1,2.5,2.5,2.5h9.6c1.4,0,2.5-1.1,2.5-2.5V90.6C113.6,89.3,112.5,88.1,111.1,88.1z M108.6,98.5h-4.6v-5.4h4.6V98.5z
	 M111.1,113h-9.6c-1.4,0-2.5,1.1-2.5,2.5v10.4c0,1.4,1.1,2.5,2.5,2.5h9.6c1.4,0,2.5-1.1,2.5-2.5v-10.4
	C113.6,114.2,112.5,113,111.1,113z M108.6,123.4h-4.6V118h4.6V123.4z M111.1,138h-9.6c-1.4,0-2.5,1.1-2.5,2.5v10.4
	c0,1.4,1.1,2.5,2.5,2.5h9.6c1.4,0,2.5-1.1,2.5-2.5v-10.4C113.6,139.1,112.5,138,111.1,138z M108.6,148.3h-4.6V143h4.6V148.3z
	 M138.7,13.4h-9.6c-1.4,0-2.5,1.1-2.5,2.5v10.4c0,1.4,1.1,2.5,2.5,2.5h9.6c1.4,0,2.5-1.1,2.5-2.5V15.9
	C141.2,14.5,140.1,13.4,138.7,13.4z M136.2,23.8h-4.6v-5.4h4.6V23.8z M138.7,38.3h-9.6c-1.4,0-2.5,1.1-2.5,2.5v10.4
	c0,1.4,1.1,2.5,2.5,2.5h9.6c1.4,0,2.5-1.1,2.5-2.5V40.8C141.2,39.4,140.1,38.3,138.7,38.3z M136.2,48.7h-4.6v-5.4h4.6V48.7z
	 M138.7,63.2h-9.6c-1.4,0-2.5,1.1-2.5,2.5v10.4c0,1.4,1.1,2.5,2.5,2.5h9.6c1.4,0,2.5-1.1,2.5-2.5V65.7
	C141.2,64.3,140.1,63.2,138.7,63.2z M136.2,73.6h-4.6v-5.4h4.6V73.6z M138.7,88.1h-9.6c-1.4,0-2.5,1.1-2.5,2.5v8.8
	c0.6-0.6,1.5-0.9,2.4-0.9h2.6v-5.4h4.6v5.4h5v-7.9C141.2,89.3,140.1,88.1,138.7,88.1z M50.3,70.2H30.5c-1.4,0-2.5,1.1-2.5,2.5v11.6
	c0,1.4,1.1,2.5,2.5,2.5h19.8c1.4,0,2.5-1.1,2.5-2.5V72.7C52.8,71.3,51.7,70.2,50.3,70.2z M47.8,81.8H33v-6.6h14.8V81.8z M50.3,92.8
	H30.5c-1.4,0-2.5,1.1-2.5,2.5v11.6c0,1.4,1.1,2.5,2.5,2.5h19.8c1.4,0,2.5-1.1,2.5-2.5V95.3C52.8,93.9,51.7,92.8,50.3,92.8z
	 M47.8,104.4H33v-6.6h14.8V104.4z M50.3,115.4H30.5c-1.4,0-2.5,1.1-2.5,2.5v11.6c0,1.4,1.1,2.5,2.5,2.5h19.8c1.4,0,2.5-1.1,2.5-2.5
	v-11.6C52.8,116.6,51.7,115.4,50.3,115.4z M47.8,127H33v-6.6h14.8V127z M50.3,138.1H30.5c-1.4,0-2.5,1.1-2.5,2.5v11.6
	c0,1.4,1.1,2.5,2.5,2.5h19.8c1.4,0,2.5-1.1,2.5-2.5v-11.6C52.8,139.2,51.7,138.1,50.3,138.1z M47.8,149.6H33v-6.6h14.8V149.6z
	 M80.1,70.2H60.3c-1.4,0-2.5,1.1-2.5,2.5v11.6c0,1.4,1.1,2.5,2.5,2.5h19.8c1.4,0,2.5-1.1,2.5-2.5V72.7
	C82.6,71.3,81.5,70.2,80.1,70.2z M77.6,81.8H62.8v-6.6h14.8V81.8z M80.1,92.8H60.3c-1.4,0-2.5,1.1-2.5,2.5v11.6
	c0,1.4,1.1,2.5,2.5,2.5h19.8c1.4,0,2.5-1.1,2.5-2.5V95.3C82.6,93.9,81.5,92.8,80.1,92.8z M77.6,104.4H62.8v-6.6h14.8V104.4z
	 M80.1,115.4H60.3c-1.4,0-2.5,1.1-2.5,2.5v11.6c0,1.4,1.1,2.5,2.5,2.5h19.8c1.4,0,2.5-1.1,2.5-2.5v-11.6
	C82.6,116.6,81.5,115.4,80.1,115.4z M77.6,127H62.8v-6.6h14.8V127z M80.1,138.1H60.3c-1.4,0-2.5,1.1-2.5,2.5v11.6
	c0,1.4,1.1,2.5,2.5,2.5h19.8c1.4,0,2.5-1.1,2.5-2.5v-11.6C82.6,139.2,81.5,138.1,80.1,138.1z M77.6,149.6H62.8v-6.6h14.8V149.6z
	 M80.1,138.1H60.3c-1.4,0-2.5,1.1-2.5,2.5v11.6c0,1.4,1.1,2.5,2.5,2.5h19.8c1.4,0,2.5-1.1,2.5-2.5v-11.6
	C82.6,139.2,81.5,138.1,80.1,138.1z M77.6,149.6H62.8v-6.6h14.8V149.6z M50.3,138.1H30.5c-1.4,0-2.5,1.1-2.5,2.5v11.6
	c0,1.4,1.1,2.5,2.5,2.5h19.8c1.4,0,2.5-1.1,2.5-2.5v-11.6C52.8,139.2,51.7,138.1,50.3,138.1z M47.8,149.6H33v-6.6h14.8V149.6z
	 M111.1,138h-9.6c-1.4,0-2.5,1.1-2.5,2.5v10.4c0,1.4,1.1,2.5,2.5,2.5h9.6c1.4,0,2.5-1.1,2.5-2.5v-10.4
	C113.6,139.1,112.5,138,111.1,138z M108.6,148.3h-4.6V143h4.6V148.3z M80.1,115.4H60.3c-1.4,0-2.5,1.1-2.5,2.5v11.6
	c0,1.4,1.1,2.5,2.5,2.5h19.8c1.4,0,2.5-1.1,2.5-2.5v-11.6C82.6,116.6,81.5,115.4,80.1,115.4z M77.6,127H62.8v-6.6h14.8V127z
	 M50.3,115.4H30.5c-1.4,0-2.5,1.1-2.5,2.5v11.6c0,1.4,1.1,2.5,2.5,2.5h19.8c1.4,0,2.5-1.1,2.5-2.5v-11.6
	C52.8,116.6,51.7,115.4,50.3,115.4z M47.8,127H33v-6.6h14.8V127z M111.1,113h-9.6c-1.4,0-2.5,1.1-2.5,2.5v10.4
	c0,1.4,1.1,2.5,2.5,2.5h9.6c1.4,0,2.5-1.1,2.5-2.5v-10.4C113.6,114.2,112.5,113,111.1,113z M108.6,123.4h-4.6V118h4.6V123.4z
	 M80.1,92.8H60.3c-1.4,0-2.5,1.1-2.5,2.5v11.6c0,1.4,1.1,2.5,2.5,2.5h19.8c1.4,0,2.5-1.1,2.5-2.5V95.3
	C82.6,93.9,81.5,92.8,80.1,92.8z M77.6,104.4H62.8v-6.6h14.8V104.4z M50.3,92.8H30.5c-1.4,0-2.5,1.1-2.5,2.5v11.6
	c0,1.4,1.1,2.5,2.5,2.5h19.8c1.4,0,2.5-1.1,2.5-2.5V95.3C52.8,93.9,51.7,92.8,50.3,92.8z M47.8,104.4H33v-6.6h14.8V104.4z
	 M138.7,88.1h-9.6c-1.4,0-2.5,1.1-2.5,2.5v8.8c0.6-0.6,1.5-0.9,2.4-0.9h2.6v-5.4h4.6v5.4h5v-7.9C141.2,89.3,140.1,88.1,138.7,88.1z
	 M111.1,88.1h-9.6c-1.4,0-2.5,1.1-2.5,2.5V101c0,1.4,1.1,2.5,2.5,2.5h9.6c1.4,0,2.5-1.1,2.5-2.5V90.6
	C113.6,89.3,112.5,88.1,111.1,88.1z M108.6,98.5h-4.6v-5.4h4.6V98.5z M80.1,70.2H60.3c-1.4,0-2.5,1.1-2.5,2.5v11.6
	c0,1.4,1.1,2.5,2.5,2.5h19.8c1.4,0,2.5-1.1,2.5-2.5V72.7C82.6,71.3,81.5,70.2,80.1,70.2z M77.6,81.8H62.8v-6.6h14.8V81.8z
	 M50.3,70.2H30.5c-1.4,0-2.5,1.1-2.5,2.5v11.6c0,1.4,1.1,2.5,2.5,2.5h19.8c1.4,0,2.5-1.1,2.5-2.5V72.7
	C52.8,71.3,51.7,70.2,50.3,70.2z M47.8,81.8H33v-6.6h14.8V81.8z M138.7,63.2h-9.6c-1.4,0-2.5,1.1-2.5,2.5v10.4
	c0,1.4,1.1,2.5,2.5,2.5h9.6c1.4,0,2.5-1.1,2.5-2.5V65.7C141.2,64.3,140.1,63.2,138.7,63.2z M136.2,73.6h-4.6v-5.4h4.6V73.6z
	 M111.1,63.2h-9.6c-1.4,0-2.5,1.1-2.5,2.5v10.4c0,1.4,1.1,2.5,2.5,2.5h9.6c1.4,0,2.5-1.1,2.5-2.5V65.7
	C113.6,64.3,112.5,63.2,111.1,63.2z M108.6,73.6h-4.6v-5.4h4.6V73.6z M138.7,38.3h-9.6c-1.4,0-2.5,1.1-2.5,2.5v10.4
	c0,1.4,1.1,2.5,2.5,2.5h9.6c1.4,0,2.5-1.1,2.5-2.5V40.8C141.2,39.4,140.1,38.3,138.7,38.3z M136.2,48.7h-4.6v-5.4h4.6V48.7z
	 M111.1,38.3h-9.6c-1.4,0-2.5,1.1-2.5,2.5v10.4c0,1.4,1.1,2.5,2.5,2.5h9.6c1.4,0,2.5-1.1,2.5-2.5V40.8
	C113.6,39.4,112.5,38.3,111.1,38.3z M108.6,48.7h-4.6v-5.4h4.6V48.7z M83.6,38.3H74c-1.4,0-2.5,1.1-2.5,2.5v10.4
	c0,1.4,1.1,2.5,2.5,2.5h9.6c1.4,0,2.5-1.1,2.5-2.5V40.8C86.1,39.4,84.9,38.3,83.6,38.3z M81.1,48.7h-4.6v-5.4h4.6V48.7z M138.7,13.4
	h-9.6c-1.4,0-2.5,1.1-2.5,2.5v10.4c0,1.4,1.1,2.5,2.5,2.5h9.6c1.4,0,2.5-1.1,2.5-2.5V15.9C141.2,14.5,140.1,13.4,138.7,13.4z
	 M136.2,23.8h-4.6v-5.4h4.6V23.8z M111.1,13.4h-9.6c-1.4,0-2.5,1.1-2.5,2.5v10.4c0,1.4,1.1,2.5,2.5,2.5h9.6c1.4,0,2.5-1.1,2.5-2.5
	V15.9C113.6,14.5,112.5,13.4,111.1,13.4z M108.6,23.8h-4.6v-5.4h4.6V23.8z M83.6,13.4H74c-1.4,0-2.5,1.1-2.5,2.5v10.4
	c0,1.4,1.1,2.5,2.5,2.5h9.6c1.4,0,2.5-1.1,2.5-2.5V15.9C86.1,14.5,84.9,13.4,83.6,13.4z M81.1,23.8h-4.6v-5.4h4.6V23.8z"/>
<g>
	<g>
		<path d="M174.1,104.6h-49.8c-2.2,0-3.9,1.7-3.9,3.9v70.7c0,2.2,1.7,3.9,3.9,3.9H162v-2.6h-31.1v-73.4h43.2c0.8,0,1.3,0.5,1.3,1.3
			v34.2l2.6,0v-34.2C178,106.3,176.3,104.6,174.1,104.6z M128.2,180.6h-3.9c-0.8,0-1.3-0.5-1.3-1.3v-70.7c0-0.8,0.5-1.3,1.3-1.3h3.9
			V180.6z"/>
		<path d="M151.8,125.6c-8,0-14.4,6.4-14.4,14.4s6.4,14.4,14.4,14.4c3,0,5.9-0.9,8.2-2.5c0.7-0.5,1.4-1,2-1.7V146
			c-0.5,0.9-1.2,1.7-2,2.5c-0.5,0.5-1,0.9-1.6,1.3v-4.6h3.6v-1.3c0-0.6,0.5-1.1,1.1-1.1h2.9c0.1-0.6,0.2-1.3,0.2-2
			c0-0.3,0-0.5,0-0.8C166.2,132,159.8,125.6,151.8,125.6z M145.3,149.8c-1.7-1.2-3.2-2.8-4.1-4.6h4.1V149.8z M145.3,142.6h-5
			c-0.1-0.8-0.3-1.7-0.3-2.6c0-1.4,0.3-2.8,0.6-3.9h4.6V142.6z M145.3,133.5H142c0.9-1.3,2-2.4,3.3-3.3V133.5z M155.7,151.1
			c-1.2,0.4-2.5,0.6-3.9,0.6c-1.5,0-2.8-0.3-3.9-0.6v-5.9h7.9V151.1z M155.7,142.6h-7.9v-6.5h7.9V142.6z M155.7,133.5h-7.9v-4.6
			c1.2-0.4,2.5-0.7,3.9-0.7c1.4,0,2.8,0.3,3.9,0.7V133.5z M158.4,130.2c1.3,0.9,2.4,2,3.3,3.3h-3.3V130.2z M163.3,142.6h-5v-6.5h4.6
			c0.4,1.2,0.7,2.5,0.7,3.9c0,0.3,0,0.5,0,0.8C163.5,141.4,163.4,142.1,163.3,142.6z"/>
		<rect x="138.7" y="159.7" width="23.3" height="2.6"/>
		<rect x="138.7" y="166.2" width="23.3" height="2.6"/>
		<polygon points="162,175.4 160,175.4 138.7,175.4 138.7,172.8 160,172.8 162,172.8 		"/>
		<path d="M157,112.5h-10.5c-0.8,0-1.3,0.5-1.3,1.3v5.2c0,0.8,0.5,1.3,1.3,1.3H157c0.8,0,1.3-0.5,1.3-1.3v-5.2
			C158.4,113,157.8,112.5,157,112.5z M155.7,117.7h-7.9v-2.6h7.9V117.7z"/>
	</g>
</g>
<g id="Certificate-file">
	<path class="st1" d="M204.2,155.5c0-0.1,0-0.2-0.1-0.3c0,0,0-0.1,0-0.1c0-0.1-0.1-0.2-0.2-0.3c0,0-3.4-3.4-6.8-6.9
		c-1.7-1.7-3.4-3.4-4.7-4.7c-1-0.9-1.6-1.6-2-2c0,0,0,0,0,0l0,0c-0.6-0.5-0.9-0.6-1.2-0.4H178l-2.6,0h-12.3c-1.2,0-2.3,0.8-2.8,1.8
		c-0.2,0.4-0.3,0.8-0.3,1.3v50.6c0,0.9,0.3,1.7,1,2.3c0.6,0.6,1.5,0.9,2.3,0.9h13.2c0.5,0,1-0.4,1-1c0-0.6-0.5-1-1-1h-13.2
		c-0.3,0-0.6-0.1-0.9-0.4c-0.2-0.2-0.4-0.5-0.4-0.9v-50.6c0-0.6,0.5-1.1,1.1-1.1h12.3l2.6,0h10.5c0,2.3,0,8.6,0,12.7
		c0,0.3,0.1,0.5,0.3,0.7c0.2,0.2,0.5,0.3,0.7,0.3h12.7v38.1c0,0.3-0.1,0.6-0.3,0.8c-0.2,0.2-0.5,0.3-0.8,0.3h-0.5c-0.5,0-1,0.4-1,1
		c0,0.6,0.5,1,1,1h0.5c0.8,0,1.6-0.3,2.2-0.9c0.6-0.6,0.9-1.4,0.9-2.2L204.2,155.5C204.2,155.5,204.2,155.5,204.2,155.5z
		 M190.5,154.5c0-5.3,0.1-8.4,0-10.3c2.3,2.3,6.6,6.6,10.2,10.3H190.5z"/>
	<path class="st1" d="M199.9,201.7l-3.4-11.5c0-0.1-0.1-0.2-0.2-0.3c1.5-1.7,2.3-4,2.3-6.4c0-5.5-4.5-10-10-10s-10,4.5-10,10
		c0,2.6,1,4.9,2.6,6.7l-3.4,11.6c-0.1,0.4,0,0.8,0.3,1c0.3,0.2,0.7,0.3,1.1,0.1l3.4-1.6l2.1,3.1c0.2,0.3,0.5,0.4,0.8,0.4
		c0.1,0,0.1,0,0.2,0c0.4-0.1,0.7-0.3,0.8-0.7l2.3-8.6l2.3,8.6c0.1,0.4,0.4,0.7,0.8,0.7c0.1,0,0.1,0,0.2,0c0.3,0,0.6-0.1,0.8-0.4
		l2.2-3.1l3.4,1.6c0.3,0.2,0.8,0.1,1.1-0.1C199.9,202.5,200,202.1,199.9,201.7z M185.2,201.5l-1.4-2c-0.3-0.4-0.8-0.5-1.2-0.3
		l-2.2,1l2.5-8.5c1.3,0.9,2.8,1.5,4.5,1.8L185.2,201.5z M188.7,191.5c-4.5,0-8.1-3.6-8.1-8.1c0-4.5,3.6-8.1,8.1-8.1
		c4.5,0,8.1,3.6,8.1,8.1C196.8,187.9,193.2,191.5,188.7,191.5z M195.2,199.1c-0.4-0.2-1-0.1-1.2,0.3l-1.4,2l-2.2-8.2
		c1.7-0.3,3.2-1,4.4-1.9l2.6,8.8L195.2,199.1z"/>
	<path class="st1" d="M188.7,178.5c-2.8,0-5,2.2-5,5c0,2.8,2.2,5,5,5s5-2.2,5-5C193.7,180.7,191.4,178.5,188.7,178.5z M188.7,186.5
		c-1.6,0-3-1.4-3-3c0-1.7,1.4-3,3-3c1.7,0,3,1.3,3,3C191.7,185.1,190.3,186.5,188.7,186.5z"/>
</g>
</g>
</svg>
