<svg width="34" height="34" viewBox="0 0 34 34" fill="none" xmlns="http://www.w3.org/2000/svg">
<path d="M9.51997 2.71338C5.77226 2.71338 2.71997 5.76567 2.71997 9.51338V24.4734C2.71997 28.2211 5.77226 31.2734 9.51997 31.2734H24.48C28.2277 31.2734 31.28 28.2211 31.28 24.4734V9.51338C31.28 5.76567 28.2277 2.71338 24.48 2.71338H9.51997ZM12.244 8.1826C12.671 8.20096 13.0632 8.44156 13.2998 8.8108C13.5691 9.23104 13.987 9.88325 14.531 10.7339C15.0274 11.5098 15.062 12.5119 14.6186 13.3211L13.6225 14.7382C13.3533 15.1217 13.2996 15.6126 13.4804 16.0451C13.762 16.7183 14.3077 17.7529 15.2774 18.7226C16.2471 19.6923 17.2817 20.238 17.9549 20.5196C18.3874 20.7004 18.8782 20.6467 19.2618 20.3774L20.6789 19.3813C21.4881 18.938 22.4902 18.9733 23.2661 19.469C24.1167 20.013 24.7689 20.4309 25.1892 20.7002C25.5584 20.9368 25.799 21.329 25.8174 21.756C25.9221 24.1796 24.0445 25.1613 23.4985 25.1613C23.1204 25.1613 18.5751 25.6779 13.4486 20.5514C8.32204 15.4249 8.83864 10.8796 8.83864 10.5015C8.83864 9.95546 9.82044 8.07788 12.244 8.1826Z" fill="white"/>
</svg>
