<svg width="152" height="152" viewBox="0 0 152 152" fill="none" xmlns="http://www.w3.org/2000/svg">
<path d="M152 86.5782C152 65.8155 143.628 46.974 130.086 33.2436C129.98 33.1031 129.868 32.9655 129.74 32.8375C129.612 32.7094 129.475 32.5968 129.334 32.4916C115.604 18.9496 96.7622 10.5782 76 10.5782C55.2378 10.5782 36.3963 18.9501 22.6654 32.4916C22.5249 32.5973 22.3879 32.7099 22.2598 32.8375C22.1317 32.9655 22.0191 33.1026 21.9134 33.2436C8.37196 46.974 0 65.8155 0 86.5782C0 106.876 7.9035 125.958 22.2543 140.312C22.2563 140.314 22.2583 140.316 22.2603 140.318C22.2618 140.319 22.2628 140.321 22.2643 140.322C22.2663 140.324 22.2682 140.326 22.2702 140.328C22.9998 141.057 23.9562 141.422 24.9125 141.422C25.8694 141.422 26.8263 141.057 27.5559 140.327C27.6182 140.265 27.6745 140.198 27.7313 140.133L39.2494 128.614C40.7091 127.154 40.7091 124.787 39.2494 123.328C37.7897 121.869 35.423 121.869 33.9638 123.328L24.9753 132.316C14.4943 120.653 8.41382 105.974 7.57757 90.3159H20.2893C22.3535 90.3159 24.027 88.6429 24.027 86.5782C24.027 84.5135 22.3535 82.8405 20.2893 82.8405H7.57857C8.44771 66.7574 14.8885 52.1325 24.9998 40.8641L33.9638 49.8281C34.6934 50.5577 35.6502 50.9225 36.6066 50.9225C37.5629 50.9225 38.5198 50.5577 39.2494 49.8281C40.7091 48.3679 40.7091 46.0017 39.2494 44.542L30.2859 35.5775C41.5548 25.4662 56.1792 19.0254 72.2623 18.1568V30.8679C72.2623 32.9327 73.9358 34.6057 76 34.6057C78.0642 34.6057 79.7377 32.9327 79.7377 30.8679V18.1568C95.8208 19.0254 110.445 25.4667 121.714 35.578L112.75 44.542C111.29 46.0022 111.29 48.3684 112.75 49.8281C113.48 50.5577 114.437 50.9225 115.393 50.9225C116.349 50.9225 117.306 50.5577 118.036 49.8281L127 40.8641C137.111 52.133 143.552 66.7574 144.421 82.8405H131.71C129.646 82.8405 127.972 84.5135 127.972 86.5782C127.972 88.6429 129.646 90.3159 131.71 90.3159H144.421C143.585 105.974 137.505 120.654 127.024 132.317L118.036 123.328C116.577 121.869 114.21 121.869 112.75 123.328C111.29 124.788 111.29 127.154 112.75 128.614L124.454 140.318C125.184 141.048 126.141 141.412 127.097 141.412C127.575 141.412 128.053 141.321 128.503 141.139C128.953 140.956 129.375 140.683 129.74 140.318C144.095 125.963 152 106.878 152 86.5782Z" fill="#FBFBFB"/>
<path d="M93.1715 43.7152C91.2543 42.9472 89.0794 43.8781 88.312 45.7948L77.511 72.7561C77.0077 72.7023 76.5043 72.6654 76.0005 72.6654C70.7398 72.6654 65.9879 75.5793 63.5983 80.2699C61.1005 85.1733 61.7404 91.032 65.3086 95.9409C65.6734 96.4427 66.1319 96.9017 66.6373 97.269C69.5362 99.3766 72.7741 100.49 76.0005 100.49C81.2612 100.49 86.0135 97.5765 88.4027 92.8859C90.9005 87.9826 90.2606 82.1243 86.6948 77.219C86.33 76.7156 85.8705 76.2551 85.3637 75.8863C85.0911 75.688 84.8125 75.5071 84.5339 75.3267L95.2511 48.5742C96.0186 46.6585 95.0877 44.4826 93.1715 43.7152ZM81.7411 89.4926C80.6342 91.6649 78.4345 93.0145 76 93.0145C74.4032 93.0145 72.796 92.4568 71.2212 91.3565C69.4271 88.7804 69.0748 85.9876 70.2594 83.6628C71.3657 81.4904 73.5655 80.1409 76.0005 80.1409C76.7769 80.1409 77.5554 80.2754 78.3318 80.537C78.3572 80.5475 78.3806 80.561 78.4066 80.5714C78.4883 80.6038 78.5705 80.6302 78.6527 80.6567C79.3654 80.9302 80.0751 81.307 80.7788 81.7984C82.5724 84.3744 82.9252 87.1677 81.7411 89.4926Z" fill="#FBFBFB"/>
</svg>
