<?xml version="1.0" encoding="UTF-8"?>
<svg width="752pt" height="752pt" version="1.1" viewBox="0 0 752 752" xmlns="http://www.w3.org/2000/svg">
 <g>
  <path d="m494.4 366.53h-236.79c-5.2305 0-9.4727 4.2383-9.4727 9.4688 0 5.2344 4.2422 9.4727 9.4727 9.4727h236.79c5.2305 0 9.4688-4.2383 9.4688-9.4727 0-5.2305-4.2383-9.4688-9.4688-9.4688z"/>
  <path d="m494.4 446.23h-236.79c-5.2305 0-9.4727 4.2383-9.4727 9.4727 0 5.2305 4.2422 9.4688 9.4727 9.4688h236.79c5.2305 0 9.4688-4.2383 9.4688-9.4688 0-5.2344-4.2383-9.4727-9.4688-9.4727z"/>
  <path d="m257.61 305.77h236.79c5.2305 0 9.4688-4.2422 9.4688-9.4727s-4.2383-9.4727-9.4688-9.4727h-236.79c-5.2305 0-9.4727 4.2422-9.4727 9.4727s4.2422 9.4727 9.4727 9.4727z"/>
 </g>
</svg>
